<?xml version="1.0" encoding="UTF-8" standalone="no"?>
<!DOCTYPE svg PUBLIC "-//W3C//DTD SVG 1.1//EN" "http://www.w3.org/Graphics/SVG/1.1/DTD/svg11.dtd">
<svg width="100%" height="100%" viewBox="0 0 151 151" version="1.1" xmlns="http://www.w3.org/2000/svg" xmlns:xlink="http://www.w3.org/1999/xlink" xml:space="preserve" xmlns:serif="http://www.serif.com/" style="fill-rule:evenodd;clip-rule:evenodd;stroke-linejoin:round;stroke-miterlimit:2;">
    <g transform="matrix(1,0,0,1,-1260,-4130)">
        <g id="dolnoslaskie" transform="matrix(0.138889,0,0,0.138889,1260.4,4130.63)">
            <rect x="0" y="0" width="1080" height="1080" style="fill:none;"/>
            <clipPath id="_clip1">
                <rect x="0" y="0" width="1080" height="1080"/>
            </clipPath>
            <g clip-path="url(#_clip1)">
                <g id="dolnoslaskie.svg" transform="matrix(1.23387,0,0,1.23387,540,540)">
                    <g transform="matrix(1,0,0,1,-372,-437.646)">
                        <g id="Warstwa_x0020_1" transform="matrix(1.20214,0,0,1.20214,-75.3572,-88.4439)">
                            <path id="path10" d="M681.58,73.588L681.58,507.496C681.579,669.529 542.57,801.681 372.133,801.681C201.695,801.681 62.686,669.529 62.686,507.496L62.686,73.572L681.58,73.588Z" style="fill:rgb(10,11,12);"/>
                            <path id="path12" d="M672.143,505.607L672.143,505.607C672.143,663.123 537.373,791.592 372.133,791.592C206.893,791.592 72.122,663.123 72.122,505.607L72.122,83.781L672.14,83.796L672.14,505.608L672.143,505.607Z" style="fill:rgb(250,207,0);"/>
                            <path id="path14" d="M480.978,288.926C487.963,273.332 501.321,263.016 516.241,259.479C522.379,246.717 529.165,238.221 541.276,231.05C541.065,230.965 540.855,230.881 540.644,230.796L540.644,230.796C540.434,230.711 540.224,230.626 540.014,230.541L540.013,230.541C539.803,230.456 539.594,230.371 539.385,230.285L539.384,230.285C510.333,219.853 478.264,194.429 484.675,155.702C488.783,130.888 515.3,118.117 538.771,118.056C568.058,117.981 594.651,135.667 608.766,161.1C623.643,187.909 627.122,221.543 628.268,251.551C629.182,275.502 627.558,299.465 626.505,323.377C625.469,346.882 624.184,365.13 644.778,352.306C645.597,368.549 632.32,378.451 620.428,378.312C602.049,378.097 590.905,343.664 588.605,328.826C587.385,345.646 596.485,442.868 615.29,440.263C623.004,439.196 624.978,436.113 629.346,433.442C629.295,450.302 622.127,462.505 604.453,463.572C578.132,465.163 554.101,404.029 548.266,381.628C555.922,460.713 577.288,531.043 595.959,530.12C604.076,529.721 610.845,524.579 615.227,519.427C614.248,539.757 601.675,553.708 590.915,555.469C544.575,563.037 512.212,457.128 499.51,424.858C502.929,455.304 508.733,490.092 508.045,518.994C499.124,517.962 478.639,480.549 461.549,449.443C467.418,498.825 481.914,529.058 494.335,554.585C490.659,556.413 474.263,551.815 469.847,553.969C478.225,575.278 489.89,588.145 498.817,605.292C503.765,594.592 511.191,584.581 517.839,580.874C518.934,573.279 525.495,566.787 532.9,570.019C541.693,569.807 550.651,573.186 549.924,579.447C547.038,578.181 543.804,578.317 541.352,580.543C542.008,586.373 536.673,591.341 531.292,593.015C519.81,593.466 514.281,602.507 509.481,613.162C520.065,610.444 534.935,608.863 543.478,611.316C549.221,606.562 559.09,607.625 561.759,614.549C568.04,620.706 571.862,629.485 566.866,633.328C565.763,630.375 563.409,628.15 560.105,627.945C556.429,631.237 549.081,629.499 544.15,627.203C530.207,622.769 523.195,624.983 515.505,629.326C522.778,639.803 528.749,648.995 531.205,652.507C537.114,652.124 539.959,662.057 536.06,669.808C534.934,678.526 529.956,685.373 524.032,683.686C526.118,680.345 528.526,678.496 523.901,672.827C518.902,672.008 516.733,672.382 515.995,666.877C513.199,651.794 501.576,638.432 495.967,632.386C481.176,628.243 473,626.409 463.753,634.604C460.108,639.419 454.556,639.646 448.973,638.156C445.095,639.292 442.949,643.494 442.455,647.115C438.077,644.466 440.15,633.952 443.3,626.563C443.962,618.313 453.222,614.655 460.596,618.025C467.259,614.533 471.93,616.033 484.214,614.402C478.421,605.928 455.155,565.28 450.821,561.436C446.922,563.715 440.273,577.887 438.336,582.433C428.702,560.02 421.041,529.977 412.691,506.146C406.768,531.566 401.756,557.081 396.345,582.617C407.975,586.015 415.634,591.725 415.634,598.176C415.634,605.874 407.471,612.521 391.915,615.439C384.508,674.562 433.678,694.225 466.185,667.492C485.424,678.948 469.138,719.55 435.168,713.654C436.283,718.875 438.073,733.01 433.641,746.407C419.124,745.16 406.909,741.784 399.325,736.902C395.61,753.659 387.008,765.765 371.904,773.564C371.86,773.587 371.816,773.605 371.765,773.623C371.711,773.6 371.686,773.587 371.642,773.564C356.537,765.765 347.935,753.659 344.22,736.902C336.636,741.784 324.422,745.16 309.904,746.407C305.472,733.01 307.261,718.875 308.377,713.654C274.406,719.55 258.122,678.948 277.36,667.492C309.868,694.225 359.037,674.562 351.631,615.439C336.074,612.521 327.912,605.874 327.912,598.176C327.912,591.725 335.57,586.015 347.201,582.617C341.789,557.083 336.779,531.568 330.854,506.146C322.818,528.224 315.336,556.955 305.208,582.433C303.272,577.887 296.624,563.715 292.724,561.436C288.39,565.28 265.124,605.928 259.33,614.402C271.616,616.033 276.286,614.533 282.95,618.025C290.324,614.655 299.583,618.313 300.244,626.563C303.396,633.952 305.469,644.466 301.09,647.115C300.597,643.494 298.452,639.292 294.571,638.156C288.988,639.646 283.437,639.419 279.793,634.604C270.544,626.409 262.37,628.243 247.578,632.386C241.968,638.432 230.345,651.794 227.55,666.877C226.812,672.382 224.644,672.008 219.642,672.827C215.019,678.496 217.427,680.345 219.513,683.686C213.588,685.373 208.611,678.526 207.486,669.808C203.586,662.057 206.431,652.124 212.339,652.507C214.795,648.995 220.766,639.803 228.041,629.326C220.351,624.983 213.338,622.769 199.394,627.203C194.465,629.499 187.116,631.237 183.439,627.945C180.142,628.15 177.783,630.373 176.678,633.328C171.683,629.485 175.506,620.706 181.785,614.549C184.455,607.625 194.325,606.562 200.067,611.316C208.61,608.863 223.48,610.444 234.064,613.162C229.263,602.507 223.734,593.466 212.253,593.015C206.872,591.341 201.538,586.373 202.192,580.543C199.744,578.319 196.509,578.18 193.62,579.447C192.894,573.186 201.852,569.807 210.644,570.019C218.049,566.787 224.611,573.279 225.706,580.874C232.355,584.581 239.781,594.592 244.728,605.292C253.656,588.145 265.319,575.278 273.697,553.969C269.281,551.815 252.885,556.413 249.21,554.585C261.631,529.058 276.128,498.825 281.997,449.443C264.907,480.549 244.421,517.962 235.5,518.994C234.812,490.092 240.616,455.304 244.035,424.858C231.334,457.128 198.97,563.037 152.63,555.469C141.871,553.708 129.298,539.757 128.318,519.427C132.7,524.579 139.469,529.721 147.586,530.12C166.258,531.043 187.621,460.713 195.279,381.628C189.445,404.029 165.412,465.163 139.093,463.572C121.418,462.505 114.25,450.302 114.2,433.442C118.568,436.113 120.541,439.196 128.255,440.263C147.061,442.868 156.16,345.646 154.939,328.826C152.64,343.664 141.496,378.097 123.117,378.312C111.224,378.451 97.948,368.549 98.767,352.306C120.374,365.761 117.904,345.012 116.892,319.874C115.452,287.671 113.549,255.772 117.69,223.6C120.349,202.942 124.219,181.195 134.131,162.597C148.061,136.473 173.298,119.467 202.805,118.084C226.624,117.371 253.785,130.2 258.968,155.366C266.884,193.055 233.102,218.603 202.435,231.05C213.616,237.379 220.689,245.378 227.47,259.479C242.39,263.016 255.748,273.332 262.732,288.926C271.888,288.173 281.473,289.041 289.693,292.963C289.695,292.963 289.697,292.965 289.699,292.966C289.704,292.968 289.707,292.97 289.712,292.971C289.718,292.974 289.725,292.978 289.731,292.981L289.732,292.981C289.738,292.984 289.743,292.987 289.75,292.99C289.751,292.991 289.753,292.992 289.755,292.993C289.785,293.007 289.815,293.022 289.846,293.037C289.846,293.037 289.846,293.037 289.847,293.037C289.908,293.067 289.971,293.097 290.034,293.128C290.037,293.124 290.04,293.119 290.043,293.115C290.044,293.111 290.046,293.108 290.048,293.104C290.049,293.103 290.05,293.102 290.051,293.101C290.063,293.083 290.074,293.066 290.086,293.048C290.088,293.045 290.09,293.041 290.093,293.037C290.096,293.033 290.099,293.029 290.101,293.025C290.104,293.021 290.106,293.017 290.108,293.014C290.12,292.996 290.133,292.977 290.144,292.959C290.147,292.955 290.148,292.951 290.151,292.948C295.006,285.494 300.845,278.8 311.083,273.107C338.725,257.74 350.038,222.072 338.577,193.517C330.878,174.341 314.191,152.699 302.702,160.518C302.16,156.232 304.362,151.521 307.901,150.626C319.272,147.707 338.162,159.467 342.097,170.27C348.272,167.709 343.963,161.24 341.781,157.55C335.707,147.285 315.97,133.77 301.457,141.503C296.318,144.226 297.212,150.029 295.31,150.281C289.654,144.531 288.183,131.805 289.369,123.116C291.37,108.441 306.578,103.161 319.955,103.876C331.49,104.477 343.051,112.122 353.381,116.879C360.177,119.998 362.543,120.811 370.719,117.038C373.398,115.802 384.866,113.494 390.124,115.258C431.808,129.244 446.886,150.086 448.257,189.39C448.412,193.832 446.037,197.725 448.216,203.443C443.582,204.422 440.761,198.445 438.7,195.787C431.54,204.481 423.537,217.936 428.494,229.666C428.815,231.89 428.617,233.501 429.397,235.905C418.168,237.161 416.771,225.956 412.597,218.939C410.813,222.057 408.737,223.784 406.691,225.044C404.554,242.781 415.035,261.844 434.918,273.107C444.841,278.618 450.877,286.07 454.962,292.473C463.051,288.92 472.256,288.209 480.978,288.926Z" style="fill:rgb(10,11,12);"/>
                            <path id="path16" d="M583.184,235.659C583.068,353.243 478.886,407.199 372.031,407.199C265.177,407.199 160.994,353.243 160.878,235.659C189.758,312.605 249.428,362.714 358.501,366.51C365.009,339.845 365.012,334.527 365.345,328.88C359.675,329.214 354.34,329.214 327.393,335.803L327.393,308.584C354.34,315.174 359.675,315.174 365.345,315.507C365.011,309.837 365.011,304.502 358.422,277.556L385.64,277.556C379.052,304.502 379.052,309.837 378.717,315.507C384.388,315.174 389.723,315.174 416.669,308.584L416.669,335.803C389.723,329.214 384.388,329.214 378.717,328.88C379.051,334.527 379.053,339.845 385.562,366.51C494.636,362.714 554.305,312.605 583.184,235.659ZM394.431,146.555C395.12,144.567 394.75,144.714 396.497,144.263C399.164,144.526 406.002,152.77 407.752,151.01C404.527,142.156 384.447,125.737 371.34,131.157C370.399,131.547 370.458,133.436 370.905,133.943C372.062,135.253 373.48,136.934 373.891,138.527C367.722,154.062 390.183,158.751 394.431,146.555Z" style="fill:white;"/>
                            <path id="path18" d="M391.206,142.212C388.493,157.596 372.022,146.248 378.711,139.246C378.711,138.584 378.877,137.144 378.93,136.516C380.417,136.538 382.986,137.442 384.432,138.476C385.167,139.581 385.695,141.938 384.828,142.153C377.506,143.967 381.861,145.935 386.404,144.93C388.114,144.552 388.359,141.63 388.189,140.216C389.088,140.716 390.533,141.695 391.206,142.212Z" style="fill:rgb(10,11,12);"/>
                        </g>
                    </g>
                </g>
            </g>
        </g>
    </g>
</svg>
