<?xml version="1.0" encoding="UTF-8" standalone="no"?>
<!DOCTYPE svg PUBLIC "-//W3C//DTD SVG 1.1//EN" "http://www.w3.org/Graphics/SVG/1.1/DTD/svg11.dtd">
<svg width="100%" height="100%" viewBox="0 0 151 150" version="1.1" xmlns="http://www.w3.org/2000/svg" xmlns:xlink="http://www.w3.org/1999/xlink" xml:space="preserve" xmlns:serif="http://www.serif.com/" style="fill-rule:evenodd;clip-rule:evenodd;stroke-linecap:round;">
    <g transform="matrix(1,0,0,1,-2595,0)">
        <g id="lodzkie" transform="matrix(0.138889,0,0,0.138889,2595.69,9.09495e-13)">
            <rect x="0" y="0" width="1080" height="1080" style="fill:none;"/>
            <clipPath id="_clip1">
                <rect x="0" y="0" width="1080" height="1080"/>
            </clipPath>
            <g clip-path="url(#_clip1)">
                <g id="lodzkie.svg" transform="matrix(1.46939,0,0,1.46939,540,540)">
                    <g transform="matrix(1,0,0,1,-300,-367.5)">
                        <clipPath id="_clip2">
                            <rect x="0" y="0" width="600" height="735"/>
                        </clipPath>
                        <g clip-path="url(#_clip2)">
                            <g id="g1791" transform="matrix(0.813513,0,0,0.813513,-6.98153,-7.32475)">
                                <g id="g4221">
                                    <g id="Warstwa-1" serif:id="Warstwa 1" transform="matrix(1,0,0,1,-0.597901,-3.18148)">
                                        <path id="path4206" d="M197.982,861.017C98.557,806.324 15.382,712.546 11.205,600.598L11.205,12.185L197.567,12.185L197.982,861.017Z" style="fill:rgb(255,231,0);"/>
                                        <path id="path4212" d="M564.464,12.185L744.732,12.185L744.732,600.598C740.133,726.437 662.734,819.04 563.458,869.422L564.464,12.185Z" style="fill:rgb(255,231,0);"/>
                                        <path id="path4214" d="M564.464,12.185L197.567,12.185L197.982,861.017M197.982,861.017C256.276,893.084 320.155,911.715 376.974,912.695C439.826,913.918 505.384,898.894 563.458,869.422L564.464,12.185" style="fill:rgb(189,41,16);"/>
                                    </g>
                                    <g id="Warstwa-11" serif:id="Warstwa 1" transform="matrix(1,0,0,1,-0.632421,-3.18148)">
                                        <path id="path4304" d="M11.205,12.185L744.732,12.185L744.732,600.598C737.443,800.048 547.269,916.008 376.974,912.695C223.245,910.044 17.831,778.182 11.205,600.598L11.205,12.185Z" style="fill:none;stroke:black;stroke-width:3.54px;"/>
                                    </g>
                                </g>
                                <g id="g3839" transform="matrix(1,0,0,1,769.012,0)">
                                    <g id="g3782">
                                        <path id="path4229" d="M-548.863,109.235L-595.896,109.235L-614.129,66.967C-609.165,74.076 -586.347,80.68 -599.626,88.308C-600.893,92.695 -596.439,99.688 -590.716,98.668C-588.215,96.457 -588.63,94.04 -590.302,92.037C-594.534,90.768 -592.701,81.945 -587.816,82.299C-582.976,81.88 -580.42,87.266 -585.744,92.037C-587.422,93.234 -586.558,97.383 -583.879,98.46C-576.646,100.282 -572.438,99.252 -575.384,88.515C-586.91,89.051 -573.243,73.804 -572.069,67.174C-569.184,74.458 -556.861,89.967 -568.546,88.929C-572.96,100.489 -561.996,101.626 -558.601,99.082C-556.872,97.732 -555.688,92.6 -558.187,91.623C-561.915,88.078 -558.801,81.636 -555.286,81.677C-550.265,82.251 -548.17,87.615 -552.592,92.037C-554.383,92.708 -555.077,96.995 -552.799,99.082C-548.118,101.087 -544.087,94.092 -545.133,87.065C-558.286,80.333 -534.987,74.967 -529.801,66.345L-548.863,109.235Z" style="fill:rgb(173,156,99);stroke:black;stroke-width:2.48px;stroke-linecap:butt;"/>
                                        <g id="g2522" transform="matrix(1,0,0,1,341.866,0)">
                                            <g id="g2467" transform="matrix(1,0,0,1,-341.086,0)">
                                                <path id="path2439" d="M-517.173,258.926L-496.094,311.869L-490.701,275.103L-507.369,246.18L-517.173,258.926Z" style="fill:white;stroke:black;stroke-width:2.48px;stroke-linecap:butt;"/>
                                                <path id="path4233" d="M-544.706,136.405C-540.783,141.356 -526.493,149.337 -513.792,138.132C-519.597,153.709 -538.838,150.358 -551.096,144.004C-549.652,141.128 -547.002,138.855 -544.706,136.405Z" style="fill:white;stroke:black;stroke-width:2.48px;stroke-linecap:butt;"/>
                                                <path id="path4231" d="M-514.31,133.123C-514.567,118.975 -525.886,114.093 -546.605,118.789C-544.66,138.588 -557.811,132.686 -556.449,150.912C-554.967,156.598 -553.026,157.24 -551.096,157.993C-535.832,158.094 -529.467,154.326 -524.672,149.876C-534.449,150.179 -548.118,153.82 -552.132,149.185C-553.251,144.106 -544.148,133.517 -534.689,131.915C-530.007,124.777 -518.852,128.524 -514.31,133.123Z" style="fill:rgb(173,156,99);stroke:black;stroke-width:2.48px;stroke-linecap:butt;"/>
                                                <path id="path2441" d="M-481.157,236.897L-505.408,248.141L-470.603,313.339L-465.597,276.186L-481.387,236.376L-505.408,248.141" style="fill:white;stroke:black;stroke-width:2.48px;stroke-linejoin:round;"/>
                                                <path id="path1516" d="M-532.049,231.776L-536.313,249.306L-523.521,270.626L-505.992,246.937L-507.413,234.619L-532.049,231.776Z" style="fill:white;stroke:black;stroke-width:2.48px;stroke-linecap:butt;"/>
                                                <path id="path2445" d="M-485.799,257.455L-476.485,287.358" style="fill:none;stroke:black;stroke-width:2.48px;stroke-linejoin:round;"/>
                                                <path id="path4243" d="M-571.917,222.061L-561.742,182.969L-547.819,187.789C-491.954,234.16 -593.277,301.941 -537.109,351.117C-541.189,356.09 -544.656,361.522 -554.245,362.363C-547.389,369.837 -544.085,380.153 -523.722,376.821C-490.313,374.221 -487.525,409.637 -511.941,419.126C-506.732,397.794 -520.541,383.16 -549.426,386.996L-561.742,369.324L-561.207,390.209C-551.693,395.458 -542.419,401.186 -537.109,414.842L-557.458,415.378C-559.512,431.35 -565.795,440.849 -572.118,446.861L-571.917,222.061Z" style="fill:white;stroke:black;stroke-width:2.48px;stroke-linecap:butt;"/>
                                                <path id="path2447" d="M-481.878,236.376L-465.21,277.554L-434.817,301.084L-445.602,267.259L-481.878,236.376Z" style="fill:white;stroke:black;stroke-width:2.48px;stroke-linecap:butt;"/>
                                                <path id="path4235" d="M-571.475,225.002C-564.848,214.373 -562.156,200.991 -560.076,187.18C-556.487,194.757 -552.323,200.033 -547.814,203.932C-541.985,190.369 -547.633,186.517 -553.514,182.862C-562.066,171.013 -555.849,164.034 -552.305,157.647C-558.982,151.54 -556.824,144.629 -553.514,137.614C-548.409,133.354 -545.839,127.193 -546.26,118.789C-546.649,115.508 -545.577,112.226 -549.369,108.945L-571.129,109.463L-571.475,225.002Z" style="fill:white;stroke:black;stroke-width:2.48px;stroke-linecap:butt;"/>
                                                <path id="path4237" d="M-570.611,124.488C-570.669,124.488 -570.726,124.488 -570.611,124.488Z" style="fill:none;stroke:black;stroke-width:2.48px;stroke-linecap:butt;"/>
                                                <path id="path4239" d="M-569.87,127.725C-565.394,123.949 -559.776,122.146 -552.289,124.261" style="fill:none;stroke:black;stroke-width:2.48px;stroke-linecap:butt;"/>
                                                <path id="path4241" d="M-564.957,124.655C-563.778,132.32 -555.01,129.972 -556.649,123.58" style="fill:none;stroke:black;stroke-width:2.48px;stroke-linecap:butt;"/>
                                                <path id="path4247" d="M-512.476,420.197C-502.949,410.021 -501.172,390.66 -514.083,384.854" style="fill:none;stroke:black;stroke-width:2.48px;"/>
                                                <path id="path4249" d="M-571.917,308.277L-557.458,287.392" style="fill:none;stroke:black;stroke-width:2.48px;"/>
                                                <path id="path4251" d="M-552.103,406.274L-563.884,405.738L-571.381,428.765" style="fill:none;stroke:black;stroke-width:2.48px;"/>
                                                <path id="path1512" d="M-534.031,207.59C-533.811,207.59 -533.59,207.59 -534.031,207.59Z" style="fill:white;stroke:black;stroke-width:2.48px;stroke-linecap:butt;"/>
                                                <path id="path2455" d="M-469.132,211.865L-426.974,219.219L-400.012,239.317L-436.288,239.808L-469.132,211.865Z" style="fill:white;stroke:black;stroke-width:2.48px;stroke-linecap:butt;"/>
                                                <path id="path2449" d="M-481.878,236.866L-445.602,267.75L-408.836,268.73C-427.57,246.824 -447.662,228.992 -467.661,210.885L-479.917,228.533L-481.878,236.866Z" style="fill:white;stroke:black;stroke-width:2.48px;stroke-linecap:butt;"/>
                                                <path id="path1518" d="M-507.413,234.145L-506.465,247.776L-484.409,258.257L-479.78,229.356L-488.097,221.404L-507.413,234.145Z" style="fill:white;stroke:black;stroke-width:2.48px;stroke-linecap:butt;"/>
                                                <path id="path1520" d="M-488.483,221.329L-479.821,229.729L-454.885,235.503L-467.485,211.355L-483.234,208.992L-488.483,221.329Z" style="fill:white;stroke:black;stroke-width:2.48px;stroke-linecap:butt;"/>
                                                <path id="path2451" d="M-480.897,236.866L-450.994,277.064" style="fill:none;stroke:black;stroke-width:2.48px;stroke-linejoin:round;"/>
                                                <path id="path2429" d="M-500.506,153.53C-499.639,112.866 -468.156,100.631 -450.994,75.097C-458.024,109.152 -456.13,146.513 -478.446,165.295C-484.45,165.295 -476.999,165.502 -481.878,164.805L-500.506,153.53Z" style="fill:white;stroke:black;stroke-width:2.48px;stroke-linecap:butt;"/>
                                                <path id="path2453" d="M-456.877,234.415L-432.366,256.475" style="fill:none;stroke:black;stroke-width:2.48px;stroke-linejoin:round;"/>
                                                <path id="path2433" d="M-478.936,164.805C-469.355,128.604 -440.024,120.066 -418.64,101.568C-436.365,124.677 -444.765,159.318 -478.936,164.805Z" style="fill:white;stroke:black;stroke-width:2.48px;stroke-linecap:butt;"/>
                                                <path id="path2463" d="M-465.701,188.826C-447.036,172.373 -419.828,167.882 -395.11,159.903L-426.974,194.218L-465.701,188.826Z" style="fill:white;stroke:black;stroke-width:2.48px;stroke-linecap:butt;"/>
                                                <path id="path2435" d="M-475.995,169.707C-461.718,145.696 -432.421,142.5 -408.836,132.451C-428.066,156.357 -446.74,193.045 -467.171,189.316L-475.995,169.707Z" style="fill:white;stroke:black;stroke-width:2.48px;stroke-linecap:butt;"/>
                                                <path id="path2457" d="M-466.681,212.356L-424.523,230.984" style="fill:none;stroke:black;stroke-width:2.48px;stroke-linejoin:round;"/>
                                                <path id="path2459" d="M-465.701,189.316L-426.974,194.708L-397.561,209.414L-428.445,218.238L-469.132,211.375L-465.701,189.316Z" style="fill:white;stroke:black;stroke-width:2.48px;stroke-linecap:butt;"/>
                                                <path id="path1522" d="M-482.971,208.205L-467.222,211.617L-450.948,201.118L-465.647,189.568L-481.921,191.406L-482.971,208.205Z" style="fill:white;stroke:black;stroke-width:2.48px;stroke-linecap:butt;"/>
                                                <path id="path1524" d="M-482.446,190.881L-466.172,189.568L-452.261,164.632L-478.771,165.42L-487.696,174.082L-482.446,190.881Z" style="fill:white;stroke:black;stroke-width:2.48px;stroke-linecap:butt;"/>
                                                <path id="path2461" d="M-451.975,201.081L-425.013,206.473" style="fill:none;stroke:black;stroke-width:2.48px;stroke-linejoin:round;"/>
                                                <path id="path1526" d="M-488.483,174.082L-478.771,165.42L-481.659,142.321L-500.295,153.346L-501.608,162.008L-488.483,174.082Z" style="fill:white;stroke:black;stroke-width:2.48px;stroke-linecap:butt;"/>
                                                <path id="path1528" d="M-523.161,246.169L-518.193,236.615L-513.607,246.169" style="fill:white;stroke:black;stroke-width:2.48px;stroke-linejoin:round;"/>
                                                <path id="path2465" d="M-461.779,190.296L-423.542,177.551" style="fill:none;stroke:black;stroke-width:2.48px;stroke-linejoin:round;"/>
                                                <path id="path1530" d="M-497.557,239.673L-497.175,230.501L-489.15,235.087" style="fill:white;stroke:black;stroke-width:2.48px;stroke-linejoin:round;"/>
                                                <path id="path1532" d="M-479.214,223.622L-484.564,215.597L-475.775,216.361" style="fill:white;stroke:black;stroke-width:2.48px;stroke-linejoin:round;"/>
                                                <path id="path1534" d="M-473.1,204.515L-481.889,199.547L-471.953,196.49" style="fill:white;stroke:black;stroke-width:2.48px;stroke-linejoin:round;"/>
                                                <path id="path1536" d="M-473.864,183.115L-483.418,183.497L-477.685,175.854" style="fill:white;stroke:black;stroke-width:2.48px;stroke-linejoin:round;"/>
                                                <path id="path2431" d="M-481.878,143.726L-462.759,106.47" style="fill:none;stroke:black;stroke-width:2.48px;stroke-linejoin:round;"/>
                                                <path id="path1538" d="M-484.564,163.243L-494.5,167.446L-491.443,157.128" style="fill:white;stroke:black;stroke-width:2.48px;stroke-linejoin:round;"/>
                                                <path id="path1514" d="M-534.031,205.756C-509.245,241.377 -476.488,197.128 -501.646,175.865L-501.646,161.325C-489.822,164.22 -470.66,192.052 -488.427,221.469C-503.766,242.456 -517.64,240.022 -531.211,232.714C-529.711,223.181 -529.754,213.068 -534.031,205.756Z" style="fill:white;stroke:black;stroke-width:2.48px;stroke-linecap:butt;"/>
                                                <path id="path2415" d="M-510.786,316.395C-509.609,321.924 -498.284,331.218 -488.769,333.735C-484.779,336.225 -482.913,335.524 -479.43,334.345C-472.268,325.741 -466.867,328.296 -461.48,330.937C-463.37,333.045 -465.478,335.021 -464.434,338.889C-470.85,342.669 -469.518,331.22 -477.612,338.662C-474.184,347.027 -461.959,340.33 -462.162,351.386C-465.15,351.423 -466.69,353.089 -467.388,355.704C-477.944,356.723 -469.01,345.414 -483.747,342.071C-488.107,346.899 -472.827,354.424 -484.202,361.157C-485.775,360.056 -487.219,358.793 -491.018,360.475C-496.999,357.884 -487.064,352.425 -487.837,348.433C-491.992,345.981 -489.358,344.865 -490.804,342.955C-492.338,340.227 -498.632,339.46 -502.199,342.213C-503.02,345.441 -504.915,349.776 -509.614,347.823C-510.378,342.919 -512.082,344.064 -513.967,342.525C-516.666,334.938 -508.045,337.193 -505.333,335.481C-505.034,330.333 -517.68,328.317 -523.965,324.802C-521.768,319.365 -515.828,318.418 -510.786,316.395Z" style="fill:rgb(173,156,99);stroke:black;stroke-width:2.48px;stroke-linecap:butt;"/>
                                                <path id="path2413" d="M-553.73,326.392C-555.773,313.191 -554.216,301.132 -550.549,287.538C-544.931,282.651 -540.775,277.088 -527.146,275.496C-511.121,276.81 -503.107,291.679 -507.378,310.942C-506.587,321.139 -520.579,315.605 -523.51,326.392L-527.146,298.672C-528.347,311.06 -518.451,328.998 -531.009,335.708C-536.267,330.125 -542.465,324.73 -541.915,317.985C-539.271,311.299 -538.346,299.458 -533.963,297.99C-540.428,298.927 -536.883,321.63 -553.73,326.392Z" style="fill:white;stroke:black;stroke-width:2.48px;stroke-linecap:butt;"/>
                                                <path id="path2417" d="M-515.106,343.398C-515.07,343.398 -515.034,343.398 -515.106,343.398Z" style="fill:none;stroke:black;stroke-width:2.48px;stroke-linecap:butt;"/>
                                                <path id="path2419" d="M-515.106,343.613C-512.961,344.407 -510.871,345.651 -511.125,348.454C-512.126,351.539 -512.387,354.858 -508.005,359.643C-518.63,359.915 -522.835,348.972 -515.106,343.613Z"/>
                                                <path id="path2421" d="M-498.108,370.939C-493.403,369.127 -491.417,365.755 -491.222,361.902C-489.071,361.593 -486.919,361.685 -484.767,363.086C-483.903,370.678 -490.291,372.981 -498.108,370.939Z"/>
                                                <path id="path2423" d="M-466.263,356.846C-466.227,356.846 -466.191,356.846 -466.263,356.846Z" style="fill:none;stroke:black;stroke-width:2.48px;stroke-linecap:butt;"/>
                                                <path id="path2425" d="M-466.478,356.846C-465.495,354.7 -463.973,352.939 -460.992,352.22C-454.944,359.589 -459.52,368.527 -466.478,370.294C-463.968,363.301 -463.826,358.676 -466.478,356.846Z"/>
                                                <path id="path2427" d="M-459.916,331.241C-462.155,333.968 -463.837,336.652 -462.39,339.095C-456.707,338.907 -456.813,345.75 -454.752,349.961C-451.91,341.03 -451.645,333.619 -459.916,331.241Z"/>
                                                <path id="path2437" d="M-453.936,164.805L-428.935,147.648" style="fill:none;stroke:black;stroke-width:2.48px;stroke-linejoin:round;"/>
                                                <path id="path2443" d="M-485.309,255.984C-485.309,256.148 -485.309,256.311 -485.309,255.984Z" style="fill:none;stroke:black;stroke-width:2.48px;stroke-linecap:butt;"/>
                                            </g>
                                            <path id="path2520" d="M-841.611,282.827L-848.189,249.058" style="fill:none;stroke:black;stroke-width:2.48px;"/>
                                        </g>
                                    </g>
                                    <g id="g3671">
                                        <g id="g2579" transform="matrix(-1,0,0,1,-777.89,0)">
                                            <path id="path2581" d="M-517.173,258.926L-496.094,311.869L-490.701,275.103L-507.369,246.18L-517.173,258.926Z" style="stroke:white;stroke-width:1.95px;stroke-linecap:butt;"/>
                                            <path id="path2583" d="M-544.706,136.405C-540.783,141.356 -526.493,149.337 -513.792,138.132C-519.597,153.709 -538.838,150.358 -551.096,144.004C-549.652,141.128 -547.002,138.855 -544.706,136.405Z" style="fill:white;stroke:black;stroke-width:1.95px;stroke-linecap:butt;"/>
                                            <path id="path2587" d="M-481.157,236.897L-505.408,248.141L-470.603,313.339L-465.597,276.186L-481.387,236.376L-505.408,248.141" style="stroke:white;stroke-width:1.95px;stroke-linejoin:round;"/>
                                            <path id="path2589" d="M-532.049,231.776L-536.313,249.306L-523.521,270.626L-505.992,246.937L-507.413,234.619L-532.049,231.776Z" style="stroke:white;stroke-width:1.95px;stroke-linecap:butt;"/>
                                            <path id="path2591" d="M-485.799,257.455L-476.485,287.358" style="fill:none;stroke:white;stroke-width:1.95px;stroke-linejoin:round;"/>
                                            <path id="path2593" d="M-571.917,222.061L-561.742,182.969L-547.819,187.789C-491.954,234.16 -593.277,301.941 -537.109,351.117C-541.189,356.09 -544.656,361.522 -554.245,362.363C-547.389,369.837 -544.085,380.153 -523.722,376.821C-490.313,374.221 -487.525,409.637 -511.941,419.126C-506.732,397.794 -520.541,383.16 -549.426,386.996L-561.742,369.324L-561.207,390.209C-551.693,395.458 -542.419,401.186 -537.109,414.842L-558.731,415.378C-560.785,431.35 -565.795,440.425 -572.118,446.437L-571.917,222.061Z" style="stroke:white;stroke-width:1.95px;stroke-linecap:butt;"/>
                                            <path id="path2595" d="M-481.878,236.376L-465.21,277.554L-434.817,301.084L-445.602,267.259L-481.878,236.376Z" style="stroke:white;stroke-width:1.95px;stroke-linecap:butt;"/>
                                            <path id="path2597" d="M-571.475,225.002C-564.848,214.373 -562.156,200.991 -560.076,187.18C-556.487,194.757 -552.323,200.033 -547.814,203.932C-541.985,190.369 -547.633,186.517 -553.514,182.862C-562.066,171.013 -555.849,164.034 -552.305,157.647C-558.982,151.54 -555.755,145.342 -552.445,138.326C-546.627,135.135 -545.126,128.618 -546.26,118.789C-546.649,115.508 -545.577,112.226 -549.369,108.945L-571.129,109.463L-571.475,225.002Z" style="stroke:white;stroke-width:1.95px;stroke-linecap:butt;"/>
                                            <path id="path2585" d="M-514.31,133.123C-514.567,118.975 -525.886,114.093 -546.605,118.789C-544.66,138.588 -557.811,132.686 -556.449,150.912C-554.967,156.598 -553.026,157.24 -551.096,157.993C-535.832,158.094 -529.467,154.326 -524.672,149.876C-534.449,150.179 -548.118,153.82 -552.132,149.185C-553.251,144.106 -544.148,133.517 -534.689,131.915C-530.007,124.777 -518.852,128.524 -514.31,133.123Z" style="fill:rgb(173,156,99);stroke:black;stroke-width:1.95px;stroke-linecap:butt;"/>
                                            <path id="path2599" d="M-570.611,124.488C-570.669,124.488 -570.726,124.488 -570.611,124.488Z" style="fill:none;stroke:black;stroke-width:1.95px;stroke-linecap:butt;"/>
                                            <path id="path2601" d="M-570.189,128.173C-566.142,123.94 -560.749,121.548 -553.079,122.851" style="stroke:white;stroke-width:1.95px;stroke-linecap:butt;"/>
                                            <path id="path2603" d="M-565.633,124.596C-563.642,132.091 -555.174,128.82 -557.487,122.639" style="stroke:white;stroke-width:1.95px;stroke-linecap:butt;"/>
                                            <path id="path2605" d="M-512.476,420.197C-502.949,410.021 -501.172,390.66 -514.083,384.854" style="fill:none;stroke:white;stroke-width:1.95px;"/>
                                            <path id="path2607" d="M-571.917,308.277L-557.458,287.392" style="fill:none;stroke:white;stroke-width:1.95px;"/>
                                            <path id="path2609" d="M-552.103,406.274L-563.884,405.738L-571.381,428.765" style="fill:none;stroke:white;stroke-width:1.95px;"/>
                                            <path id="path2611" d="M-534.031,207.59C-533.811,207.59 -533.59,207.59 -534.031,207.59Z" style="fill:white;stroke:black;stroke-width:1.95px;stroke-linecap:butt;"/>
                                            <path id="path2613" d="M-469.132,211.865L-426.974,219.219L-400.012,239.317L-436.288,239.808L-469.132,211.865Z" style="stroke:white;stroke-width:1.95px;stroke-linecap:butt;"/>
                                            <path id="path2615" d="M-481.878,236.866L-445.602,267.75L-408.836,268.73C-427.57,246.824 -447.662,228.992 -467.661,210.885L-479.917,228.533L-481.878,236.866Z" style="stroke:white;stroke-width:1.95px;stroke-linecap:butt;"/>
                                            <path id="path2617" d="M-507.413,234.145L-506.465,247.776L-484.409,258.257L-479.78,229.356L-488.097,221.404L-507.413,234.145Z" style="stroke:white;stroke-width:1.95px;stroke-linecap:butt;"/>
                                            <path id="path2619" d="M-488.483,221.329L-479.821,229.729L-454.885,235.503L-467.485,211.355L-483.234,208.992L-488.483,221.329Z" style="stroke:white;stroke-width:1.95px;stroke-linecap:butt;"/>
                                            <path id="path2621" d="M-480.897,236.866L-450.994,277.064" style="fill:none;stroke:white;stroke-width:1.95px;stroke-linejoin:round;"/>
                                            <path id="path2623" d="M-500.506,153.53C-499.639,112.866 -468.156,100.631 -450.994,75.097C-458.024,109.152 -456.13,146.513 -478.446,165.295C-484.45,165.295 -476.999,165.502 -481.878,164.805L-500.506,153.53Z" style="stroke:white;stroke-width:1.95px;stroke-linecap:butt;"/>
                                            <path id="path2625" d="M-456.877,234.415L-432.366,256.475" style="fill:none;stroke:white;stroke-width:1.95px;stroke-linejoin:round;"/>
                                            <path id="path2627" d="M-478.936,164.805C-469.355,128.604 -440.024,120.066 -418.64,101.568C-436.365,124.677 -444.765,159.318 -478.936,164.805Z" style="stroke:white;stroke-width:1.95px;stroke-linecap:butt;"/>
                                            <path id="path2629" d="M-465.701,188.826C-447.036,172.373 -419.828,167.882 -395.11,159.903L-426.974,194.218L-465.701,188.826Z" style="stroke:white;stroke-width:1.95px;stroke-linecap:butt;"/>
                                            <path id="path2631" d="M-475.995,169.707C-461.718,145.696 -432.421,142.5 -408.836,132.451C-428.066,156.357 -446.74,193.045 -467.171,189.316L-475.995,169.707Z" style="stroke:white;stroke-width:1.95px;stroke-linecap:butt;"/>
                                            <path id="path2633" d="M-466.681,212.356L-424.523,230.984" style="fill:none;stroke:white;stroke-width:1.95px;stroke-linejoin:round;"/>
                                            <path id="path2635" d="M-465.701,189.316L-426.974,194.708L-397.561,209.414L-428.445,218.238L-469.132,211.375L-465.701,189.316Z" style="stroke:white;stroke-width:1.95px;stroke-linecap:butt;"/>
                                            <path id="path2637" d="M-482.971,208.205L-467.222,211.617L-450.948,201.118L-465.647,189.568L-481.921,191.406L-482.971,208.205Z" style="stroke:white;stroke-width:1.95px;stroke-linecap:butt;"/>
                                            <path id="path2639" d="M-482.446,190.881L-466.172,189.568L-452.261,164.632L-478.771,165.42L-487.696,174.082L-482.446,190.881Z" style="stroke:white;stroke-width:1.95px;stroke-linecap:butt;"/>
                                            <path id="path2641" d="M-451.975,201.081L-425.013,206.473" style="fill:none;stroke:white;stroke-width:1.95px;stroke-linejoin:round;"/>
                                            <path id="path2643" d="M-488.483,174.082L-478.771,165.42L-481.659,142.321L-500.295,153.346L-501.608,162.008L-488.483,174.082Z" style="stroke:white;stroke-width:1.95px;stroke-linecap:butt;"/>
                                            <path id="path2645" d="M-523.161,246.169L-518.193,236.615L-513.607,246.169" style="stroke:white;stroke-width:1.95px;stroke-linejoin:round;"/>
                                            <path id="path2647" d="M-461.779,190.296L-423.542,177.551" style="fill:none;stroke:white;stroke-width:1.95px;stroke-linejoin:round;"/>
                                            <path id="path2649" d="M-497.557,239.673L-497.175,230.501L-489.15,235.087" style="stroke:white;stroke-width:1.95px;stroke-linejoin:round;"/>
                                            <path id="path2651" d="M-479.214,223.622L-484.564,215.597L-475.775,216.361" style="stroke:white;stroke-width:1.95px;stroke-linejoin:round;"/>
                                            <path id="path2653" d="M-473.1,204.515L-481.889,199.547L-471.953,196.49" style="stroke:white;stroke-width:1.95px;stroke-linejoin:round;"/>
                                            <path id="path2655" d="M-473.864,183.115L-483.418,183.497L-477.685,175.854" style="stroke:white;stroke-width:1.95px;stroke-linejoin:round;"/>
                                            <path id="path2657" d="M-481.878,143.726L-462.759,106.47" style="fill:none;stroke:white;stroke-width:1.95px;stroke-linejoin:round;"/>
                                            <path id="path2659" d="M-484.564,163.243L-494.5,167.446L-491.443,157.128" style="stroke:white;stroke-width:1.95px;stroke-linejoin:round;"/>
                                            <path id="path2661" d="M-534.031,205.756C-509.245,241.377 -476.488,197.128 -501.646,175.865L-501.646,161.325C-489.822,164.22 -470.66,192.052 -488.427,221.469C-503.766,242.456 -517.64,240.022 -531.211,232.714C-529.711,223.181 -529.754,213.068 -534.031,205.756Z" style="stroke:white;stroke-width:1.95px;stroke-linecap:butt;"/>
                                            <path id="path2663" d="M-510.786,316.395C-509.609,321.924 -498.284,331.218 -488.769,333.735C-484.779,336.225 -482.913,335.524 -479.43,334.345C-472.268,325.741 -466.867,328.296 -461.48,330.937C-463.37,333.045 -465.478,335.021 -464.434,338.889C-470.85,342.669 -469.518,331.22 -477.612,338.662C-474.184,347.027 -461.959,340.33 -462.162,351.386C-465.15,351.423 -466.69,353.089 -467.388,355.704C-477.944,356.723 -469.01,345.414 -483.747,342.071C-488.107,346.899 -472.827,354.424 -484.202,361.157C-485.775,360.056 -487.219,358.793 -491.018,360.475C-496.999,357.884 -487.064,352.425 -487.837,348.433C-491.992,345.981 -489.358,344.865 -490.804,342.955C-492.338,340.227 -498.632,339.46 -502.199,342.213C-503.02,345.441 -504.915,349.776 -509.614,347.823C-510.378,342.919 -512.082,344.064 -513.967,342.525C-516.666,334.938 -508.045,337.193 -505.333,335.481C-505.034,330.333 -517.68,328.317 -523.965,324.802C-521.768,319.365 -515.828,318.418 -510.786,316.395Z" style="fill:rgb(173,156,99);stroke:black;stroke-width:1.95px;stroke-linecap:butt;"/>
                                            <path id="path2665" d="M-553.73,326.392C-555.773,313.191 -554.216,301.132 -550.549,287.538C-544.931,282.651 -540.775,277.088 -527.146,275.496C-511.121,276.81 -503.107,291.679 -507.378,310.942C-506.587,321.139 -520.579,315.605 -523.51,326.392L-527.146,298.672C-528.347,311.06 -518.451,328.998 -531.009,335.708C-536.267,330.125 -542.465,324.73 -541.915,317.985C-539.271,311.299 -538.346,299.458 -533.963,297.99C-540.428,298.927 -536.883,321.63 -553.73,326.392Z" style="stroke:white;stroke-width:1.95px;stroke-linecap:butt;"/>
                                            <path id="path2667" d="M-515.106,343.398C-515.07,343.398 -515.034,343.398 -515.106,343.398Z" style="fill:none;stroke:black;stroke-width:1.95px;stroke-linecap:butt;"/>
                                            <path id="path2669" d="M-515.106,343.613C-512.961,344.407 -510.871,345.651 -511.125,348.454C-512.126,351.539 -512.387,354.858 -508.005,359.643C-518.63,359.915 -522.835,348.972 -515.106,343.613Z"/>
                                            <path id="path2671" d="M-498.108,370.939C-493.403,369.127 -491.417,365.755 -491.222,361.902C-489.071,361.593 -486.919,361.685 -484.767,363.086C-483.903,370.678 -490.291,372.981 -498.108,370.939Z"/>
                                            <path id="path2673" d="M-466.263,356.846C-466.227,356.846 -466.191,356.846 -466.263,356.846Z" style="fill:none;stroke:black;stroke-width:1.95px;stroke-linecap:butt;"/>
                                            <path id="path2675" d="M-466.478,356.846C-465.495,354.7 -463.973,352.939 -460.992,352.22C-454.944,359.589 -459.52,368.527 -466.478,370.294C-463.968,363.301 -463.826,358.676 -466.478,356.846Z"/>
                                            <path id="path2677" d="M-459.916,331.241C-462.155,333.968 -463.837,336.652 -462.39,339.095C-456.707,338.907 -456.813,345.75 -454.752,349.961C-451.91,341.03 -451.645,333.619 -459.916,331.241Z"/>
                                            <path id="path2679" d="M-453.936,164.805L-428.935,147.648" style="fill:none;stroke:white;stroke-width:1.95px;stroke-linejoin:round;"/>
                                            <path id="path2681" d="M-485.309,255.984C-485.309,256.148 -485.309,256.311 -485.309,255.984Z" style="fill:none;stroke:black;stroke-width:1.95px;stroke-linecap:butt;"/>
                                        </g>
                                        <path id="path2683" d="M-277.365,282.827L-270.787,249.058" style="fill:none;stroke:white;stroke-width:1.95px;"/>
                                        <path id="path2685" d="M-182.877,109.235L-229.911,109.235L-248.144,66.967C-243.179,74.076 -220.362,80.68 -233.64,88.308C-234.907,92.695 -230.453,99.688 -224.731,98.668C-222.229,96.457 -222.645,94.04 -224.316,92.037C-228.549,90.768 -226.715,81.945 -221.83,82.299C-216.991,81.88 -214.435,87.266 -219.758,92.037C-221.437,93.234 -220.573,97.383 -217.893,98.46C-210.66,100.282 -206.452,99.252 -209.398,88.515C-220.924,89.051 -207.257,73.804 -206.083,67.174C-203.198,74.458 -190.875,89.967 -202.561,88.929C-206.974,100.489 -196.011,101.626 -192.615,99.082C-190.886,97.732 -189.702,92.6 -192.201,91.623C-195.929,88.078 -192.816,81.636 -189.3,81.677C-184.28,82.251 -182.185,87.615 -186.607,92.037C-188.398,92.708 -189.092,96.995 -186.814,99.082C-182.132,101.087 -178.101,94.092 -179.148,87.065C-192.301,80.333 -169.002,74.967 -163.815,66.345L-182.877,109.235Z" style="fill:rgb(173,156,99);stroke:black;stroke-width:1.95px;stroke-linecap:butt;"/>
                                    </g>
                                </g>
                                <g id="g3508" transform="matrix(1,0,0,1,1010.2,0)">
                                    <path id="path2857" d="M-684.217,646.29L-705.296,699.233L-710.688,662.467L-694.021,633.544L-684.217,646.29Z" style="stroke:white;stroke-width:2.13px;stroke-linecap:butt;"/>
                                    <path id="path2859" d="M-656.684,523.769C-660.607,528.72 -674.897,536.701 -687.598,525.496C-681.793,541.073 -662.552,537.722 -650.294,531.368C-651.738,528.492 -654.388,526.219 -656.684,523.769Z" style="fill:rgb(189,41,16);stroke:white;stroke-width:2.13px;stroke-linecap:butt;"/>
                                    <path id="path2863" d="M-720.233,624.261L-695.982,635.505L-730.787,700.703L-735.792,663.55L-720.002,623.74L-695.982,635.505" style="stroke:white;stroke-width:2.13px;stroke-linejoin:round;"/>
                                    <path id="path2865" d="M-669.34,619.14L-665.076,636.67L-677.868,657.99L-695.398,634.301L-693.977,621.983L-669.34,619.14Z" style="stroke:white;stroke-width:2.13px;stroke-linecap:butt;"/>
                                    <path id="path2867" d="M-715.59,644.819L-724.904,674.722" style="fill:none;stroke:white;stroke-width:2.13px;stroke-linejoin:round;"/>
                                    <path id="path3290" d="M-631.083,610.072L-639.647,570.333L-653.571,575.153C-709.436,621.524 -608.113,689.305 -664.281,738.481C-660.201,743.454 -656.733,748.886 -647.144,749.727C-654,757.201 -657.304,767.517 -677.668,764.185C-711.076,761.585 -713.865,797.001 -689.449,806.49C-694.658,785.158 -680.849,770.524 -651.964,774.36L-639.647,756.688L-640.183,777.573C-649.696,782.822 -658.971,788.55 -664.281,802.206L-643.931,802.742C-641.877,818.714 -636.867,827.789 -630.278,833.801C-621.488,825.79 -618.056,814.016 -616.624,802.742C-609.841,802.563 -603.058,802.385 -596.275,802.206C-600.269,790.906 -609.929,782.815 -620.373,777.573C-620.551,770.611 -620.73,763.65 -620.908,756.688C-617.121,762.123 -613.333,767.558 -609.545,772.993C-602.611,775.565 -591.956,771.881 -584.309,776.473C-572.28,780.64 -567.471,794.984 -571.107,806.49C-560.847,802.842 -553.132,791.837 -555.313,780.804C-557.56,767.523 -572.872,762.192 -584.748,764.458C-595.933,767.052 -606.564,760.676 -612.163,751.157C-610.944,748.684 -598.841,745.548 -596.275,738.481C-606.075,730.206 -613.121,718.24 -613.75,705.254C-614.842,676.683 -597.347,652.12 -591.343,624.988C-587.151,609.273 -590.003,591.079 -602.199,579.562C-606.666,573.556 -614.489,573.736 -620.908,570.981C-624.3,584.011 -627.692,597.042 -631.083,610.072Z" style="stroke:white;stroke-width:2.13px;stroke-linecap:butt;"/>
                                    <path id="path2871" d="M-719.512,623.74L-736.179,664.918L-766.572,688.448L-755.788,654.623L-719.512,623.74Z" style="stroke:white;stroke-width:2.13px;stroke-linecap:butt;"/>
                                    <path id="path2875" d="M-630.779,511.852C-630.721,511.852 -630.663,511.852 -630.779,511.852Z" style="fill:none;stroke:black;stroke-width:2.13px;stroke-linecap:butt;"/>
                                    <path id="path2881" d="M-688.914,807.561C-698.44,797.385 -700.218,778.024 -687.307,772.218" style="fill:none;stroke:white;stroke-width:2.13px;"/>
                                    <path id="path2883" d="M-629.473,695.641L-643.931,674.756" style="fill:none;stroke:white;stroke-width:2.13px;"/>
                                    <path id="path2885" d="M-649.286,793.638L-637.505,793.102L-630.008,816.129" style="fill:none;stroke:white;stroke-width:2.13px;"/>
                                    <path id="path2887" d="M-667.359,594.954C-667.579,594.954 -667.799,594.954 -667.359,594.954Z" style="fill:white;stroke:black;stroke-width:2.13px;stroke-linecap:butt;"/>
                                    <path id="path2889" d="M-732.258,599.229L-774.416,606.583L-801.377,626.681L-765.102,627.172L-732.258,599.229Z" style="stroke:white;stroke-width:2.13px;stroke-linecap:butt;"/>
                                    <path id="path2891" d="M-719.512,624.23L-755.788,655.114L-792.554,656.094C-773.82,634.188 -753.728,616.356 -733.728,598.249L-721.473,615.897L-719.512,624.23Z" style="stroke:white;stroke-width:2.13px;stroke-linecap:butt;"/>
                                    <path id="path2893" d="M-693.977,621.509L-694.924,635.14L-716.98,645.621L-721.609,616.72L-713.293,608.768L-693.977,621.509Z" style="stroke:white;stroke-width:2.13px;stroke-linecap:butt;"/>
                                    <path id="path2895" d="M-712.906,608.693L-721.568,617.093L-746.504,622.867L-733.905,598.719L-718.156,596.356L-712.906,608.693Z" style="stroke:white;stroke-width:2.13px;stroke-linecap:butt;"/>
                                    <path id="path2897" d="M-720.493,624.23L-750.395,664.428" style="fill:none;stroke:white;stroke-width:2.13px;stroke-linejoin:round;"/>
                                    <path id="path2899" d="M-700.884,540.894C-701.751,500.23 -733.234,487.995 -750.395,462.461C-743.366,496.516 -745.259,533.877 -722.944,552.659C-716.94,552.659 -724.39,552.866 -719.512,552.169L-700.884,540.894Z" style="stroke:white;stroke-width:2.13px;stroke-linecap:butt;"/>
                                    <path id="path2901" d="M-744.513,621.779L-769.023,643.839" style="fill:none;stroke:white;stroke-width:2.13px;stroke-linejoin:round;"/>
                                    <path id="path2903" d="M-722.453,552.169C-732.035,515.968 -761.366,507.43 -782.749,488.932C-765.025,512.041 -756.625,546.682 -722.453,552.169Z" style="stroke:white;stroke-width:2.13px;stroke-linecap:butt;"/>
                                    <path id="path2905" d="M-735.689,576.19C-754.354,559.737 -781.562,555.246 -806.279,547.267L-774.416,581.582L-735.689,576.19Z" style="stroke:white;stroke-width:2.13px;stroke-linecap:butt;"/>
                                    <path id="path2907" d="M-725.395,557.071C-739.671,533.06 -768.968,529.864 -792.554,519.815C-773.324,543.721 -754.65,580.409 -734.218,576.68L-725.395,557.071Z" style="stroke:white;stroke-width:2.13px;stroke-linecap:butt;"/>
                                    <path id="path2909" d="M-734.709,599.72L-776.867,618.348" style="fill:none;stroke:white;stroke-width:2.13px;stroke-linejoin:round;"/>
                                    <path id="path2911" d="M-735.689,576.68L-774.416,582.072L-803.828,596.778L-772.945,605.602L-732.258,598.739L-735.689,576.68Z" style="stroke:white;stroke-width:2.13px;stroke-linecap:butt;"/>
                                    <path id="path2913" d="M-718.419,595.569L-734.168,598.981L-750.442,588.482L-735.742,576.932L-719.468,578.77L-718.419,595.569Z" style="stroke:white;stroke-width:2.13px;stroke-linecap:butt;"/>
                                    <path id="path2915" d="M-718.943,578.245L-735.218,576.932L-749.129,551.996L-722.618,552.784L-713.694,561.446L-718.943,578.245Z" style="stroke:white;stroke-width:2.13px;stroke-linecap:butt;"/>
                                    <path id="path2917" d="M-749.415,588.445L-776.377,593.837" style="fill:none;stroke:white;stroke-width:2.13px;stroke-linejoin:round;"/>
                                    <path id="path2919" d="M-712.906,561.446L-722.618,552.784L-719.731,529.685L-701.095,540.71L-699.782,549.372L-712.906,561.446Z" style="stroke:white;stroke-width:2.13px;stroke-linecap:butt;"/>
                                    <path id="path2921" d="M-678.229,633.533L-683.197,623.979L-687.782,633.533" style="stroke:white;stroke-width:2.13px;stroke-linejoin:round;"/>
                                    <path id="path2923" d="M-739.611,577.66L-777.847,564.915" style="fill:none;stroke:white;stroke-width:2.13px;stroke-linejoin:round;"/>
                                    <path id="path2925" d="M-703.833,627.037L-704.215,617.865L-712.24,622.451" style="stroke:white;stroke-width:2.13px;stroke-linejoin:round;"/>
                                    <path id="path2927" d="M-722.176,610.986L-716.826,602.961L-725.615,603.725" style="stroke:white;stroke-width:2.13px;stroke-linejoin:round;"/>
                                    <path id="path2929" d="M-728.29,591.879L-719.501,586.911L-729.437,583.854" style="stroke:white;stroke-width:2.13px;stroke-linejoin:round;"/>
                                    <path id="path2931" d="M-727.526,570.479L-717.972,570.861L-723.704,563.218" style="stroke:white;stroke-width:2.13px;stroke-linejoin:round;"/>
                                    <path id="path2933" d="M-719.512,531.09L-738.63,493.834" style="fill:none;stroke:white;stroke-width:2.13px;stroke-linejoin:round;"/>
                                    <path id="path2935" d="M-716.826,550.607L-706.89,554.81L-709.947,544.492" style="stroke:white;stroke-width:2.13px;stroke-linejoin:round;"/>
                                    <path id="path2937" d="M-667.359,593.12C-692.145,628.741 -724.901,584.492 -699.744,563.229L-699.744,548.689C-711.568,551.584 -730.729,579.416 -712.963,608.833C-697.624,629.82 -683.749,627.386 -670.179,620.078C-671.678,610.545 -671.636,600.432 -667.359,593.12Z" style="stroke:white;stroke-width:2.13px;stroke-linecap:butt;"/>
                                    <path id="path2939" d="M-690.603,703.759C-691.781,709.288 -703.106,718.582 -712.62,721.099C-716.611,723.589 -718.477,722.888 -721.96,721.709C-729.122,713.105 -734.523,715.66 -739.91,718.301C-738.02,720.409 -735.912,722.385 -736.956,726.253C-730.54,730.033 -731.872,718.584 -723.777,726.026C-727.206,734.391 -739.431,727.694 -739.228,738.75C-736.24,738.787 -734.699,740.453 -734.002,743.068C-723.446,744.087 -732.379,732.778 -717.642,729.435C-713.283,734.263 -728.562,741.788 -717.188,748.521C-715.615,747.42 -714.171,746.157 -710.371,747.839C-704.39,745.248 -714.325,739.789 -713.552,735.797C-709.398,733.345 -712.032,732.229 -710.586,730.319C-709.051,727.591 -702.758,726.824 -699.19,729.577C-698.37,732.805 -696.475,737.14 -691.776,735.187C-691.012,730.283 -689.308,731.428 -687.422,729.889C-684.724,722.302 -693.345,724.557 -696.057,722.845C-696.356,717.697 -683.71,715.681 -677.425,712.166C-679.622,706.729 -685.561,705.782 -690.603,703.759Z" style="fill:rgb(173,156,99);stroke:black;stroke-width:2.13px;stroke-linecap:butt;"/>
                                    <path id="path2941" d="M-647.659,713.756C-645.617,700.555 -647.174,688.496 -650.84,674.902C-656.459,670.015 -660.615,664.452 -674.244,662.86C-690.268,664.174 -698.283,679.043 -694.012,698.306C-694.803,708.503 -680.81,702.969 -677.879,713.756L-674.244,686.036C-673.042,698.424 -682.939,716.362 -670.381,723.072C-665.122,717.489 -658.925,712.094 -659.475,705.349C-662.118,698.663 -663.044,686.822 -667.427,685.354C-660.961,686.291 -664.507,708.994 -647.659,713.756Z" style="stroke:white;stroke-width:2.13px;stroke-linecap:butt;"/>
                                    <path id="path2943" d="M-686.284,730.762C-686.32,730.762 -686.356,730.762 -686.284,730.762Z" style="fill:none;stroke:black;stroke-width:2.13px;stroke-linecap:butt;"/>
                                    <path id="path2945" d="M-686.284,730.977C-688.428,731.771 -690.519,733.015 -690.265,735.818C-689.264,738.904 -689.003,742.222 -693.385,747.007C-682.76,747.279 -678.555,736.336 -686.284,730.977Z"/>
                                    <path id="path2947" d="M-703.282,758.303C-707.987,756.491 -709.972,753.119 -710.167,749.266C-712.319,748.957 -714.471,749.049 -716.622,750.45C-717.487,758.042 -711.098,760.345 -703.282,758.303Z"/>
                                    <path id="path2949" d="M-735.127,744.21C-735.162,744.21 -735.198,744.21 -735.127,744.21Z" style="fill:none;stroke:black;stroke-width:2.13px;stroke-linecap:butt;"/>
                                    <path id="path2951" d="M-734.911,744.21C-735.894,742.064 -737.417,740.303 -740.398,739.584C-746.446,746.953 -741.87,755.891 -734.911,757.658C-737.422,750.665 -737.564,746.04 -734.911,744.21Z"/>
                                    <path id="path2953" d="M-741.474,718.605C-739.234,721.332 -737.553,724.016 -739,726.459C-744.683,726.271 -744.577,733.114 -746.638,737.325C-749.48,728.394 -749.745,720.983 -741.474,718.605Z"/>
                                    <path id="path2955" d="M-747.454,552.169L-772.455,535.012" style="fill:none;stroke:white;stroke-width:2.13px;stroke-linejoin:round;"/>
                                    <path id="path2957" d="M-716.081,643.348C-716.081,643.512 -716.081,643.675 -716.081,643.348Z" style="fill:none;stroke:black;stroke-width:2.13px;stroke-linecap:butt;"/>
                                    <path id="path2959" d="M-700.864,670.191L-694.286,636.422" style="fill:none;stroke:white;stroke-width:2.13px;"/>
                                    <path id="path2967" d="M-576.339,646.29L-555.26,699.233L-549.868,662.467L-566.535,633.544L-576.339,646.29Z" style="stroke:white;stroke-width:2.13px;stroke-linecap:butt;"/>
                                    <path id="path2973" d="M-540.323,624.261L-564.574,635.505L-529.769,700.703L-524.764,663.55L-540.554,623.74L-564.574,635.505" style="stroke:white;stroke-width:2.13px;stroke-linejoin:round;"/>
                                    <path id="path2975" d="M-591.215,619.14L-595.479,636.67L-582.688,657.99L-565.158,634.301L-566.579,621.983L-591.215,619.14Z" style="stroke:white;stroke-width:2.13px;stroke-linecap:butt;"/>
                                    <path id="path2977" d="M-544.965,644.819L-535.651,674.722" style="fill:none;stroke:white;stroke-width:2.13px;stroke-linejoin:round;"/>
                                    <path id="path2873" d="M-630.641,612.366C-636.541,601.737 -639.234,588.355 -641.313,574.544C-644.902,582.121 -651.88,588.241 -656.388,592.14C-659.686,584.202 -658.82,578.101 -650.689,571.07C-644.387,560.065 -647.51,551.96 -651.054,545.574C-644.376,539.466 -644.565,531.993 -647.876,524.978C-655.794,521.281 -655.551,514.557 -655.13,506.153C-654.741,502.872 -645.686,491.714 -640.207,492.371C-632.298,491.237 -626.271,495.857 -618.463,501.328C-603.904,505.702 -595.969,510.748 -586.861,517.686C-600.282,514.117 -587.027,521.512 -592.147,542.668C-592.8,545.364 -600.453,534.067 -600.064,536.681C-598.848,544.844 -598.456,551.81 -600.565,553.57C-602.75,547.927 -602.396,547.343 -608.095,545.293C-610.233,553.648 -610.824,562.315 -607.335,569.382C-603.424,575.288 -603.964,579.983 -606.981,591.296C-611.489,587.397 -615.654,582.121 -619.242,574.544C-621.322,588.355 -624.014,601.737 -630.641,612.366Z" style="stroke:white;stroke-width:2.13px;stroke-linecap:butt;"/>
                                    <path id="path2981" d="M-541.044,623.74L-524.377,664.918L-493.984,688.448L-504.768,654.623L-541.044,623.74Z" style="stroke:white;stroke-width:2.13px;stroke-linecap:butt;"/>
                                    <path id="path2861" d="M-687.08,520.487C-686.823,506.339 -675.504,501.457 -654.784,506.153C-656.73,525.952 -643.578,520.05 -644.94,538.276C-646.422,543.962 -648.363,544.604 -650.294,545.357C-665.558,545.458 -671.922,541.69 -676.718,537.24C-666.941,537.543 -653.272,541.184 -649.258,536.549C-648.139,531.47 -657.241,520.881 -666.701,519.279C-671.382,512.141 -682.538,515.888 -687.08,520.487Z" style="fill:rgb(173,156,99);stroke:black;stroke-width:2.13px;stroke-linecap:butt;"/>
                                    <path id="path2985" d="M-629.777,511.852C-629.835,511.852 -629.892,511.852 -629.777,511.852Z" style="fill:none;stroke:black;stroke-width:2.13px;stroke-linecap:butt;"/>
                                    <path id="path2991" d="M-571.642,807.561C-562.116,797.385 -560.338,778.024 -573.249,772.218" style="fill:none;stroke:white;stroke-width:2.13px;"/>
                                    <path id="path2993" d="M-631.083,695.641L-616.624,674.756" style="fill:none;stroke:white;stroke-width:2.13px;"/>
                                    <path id="path2995" d="M-611.269,793.638L-623.05,793.102L-630.548,816.129" style="fill:none;stroke:white;stroke-width:2.13px;"/>
                                    <path id="path2997" d="M-593.197,594.954C-592.977,594.954 -592.757,594.954 -593.197,594.954Z" style="fill:white;stroke:black;stroke-width:2.13px;stroke-linecap:butt;"/>
                                    <path id="path2999" d="M-528.298,599.229L-486.14,606.583L-459.179,626.681L-495.454,627.172L-528.298,599.229Z" style="stroke:white;stroke-width:2.13px;stroke-linecap:butt;"/>
                                    <path id="path3001" d="M-541.044,624.23L-504.768,655.114L-468.002,656.094C-486.736,634.188 -506.828,616.356 -526.828,598.249L-539.083,615.897L-541.044,624.23Z" style="stroke:white;stroke-width:2.13px;stroke-linecap:butt;"/>
                                    <path id="path3003" d="M-566.579,621.509L-565.632,635.14L-543.575,645.621L-538.947,616.72L-547.263,608.768L-566.579,621.509Z" style="stroke:white;stroke-width:2.13px;stroke-linecap:butt;"/>
                                    <path id="path3005" d="M-547.65,608.693L-538.988,617.093L-514.052,622.867L-526.651,598.719L-542.4,596.356L-547.65,608.693Z" style="stroke:white;stroke-width:2.13px;stroke-linecap:butt;"/>
                                    <path id="path3007" d="M-540.063,624.23L-510.16,664.428" style="fill:none;stroke:white;stroke-width:2.13px;stroke-linejoin:round;"/>
                                    <path id="path3009" d="M-559.672,540.894C-558.805,500.23 -527.322,487.995 -510.16,462.461C-517.19,496.516 -515.297,533.877 -537.612,552.659C-543.616,552.659 -536.165,552.866 -541.044,552.169L-559.672,540.894Z" style="stroke:white;stroke-width:2.13px;stroke-linecap:butt;"/>
                                    <path id="path3011" d="M-516.043,621.779L-491.532,643.839" style="fill:none;stroke:white;stroke-width:2.13px;stroke-linejoin:round;"/>
                                    <path id="path3013" d="M-538.103,552.169C-528.521,515.968 -499.19,507.43 -477.807,488.932C-495.531,512.041 -503.931,546.682 -538.103,552.169Z" style="stroke:white;stroke-width:2.13px;stroke-linecap:butt;"/>
                                    <path id="path3015" d="M-524.867,576.19C-506.202,559.737 -478.994,555.246 -454.276,547.267L-486.14,581.582L-524.867,576.19Z" style="stroke:white;stroke-width:2.13px;stroke-linecap:butt;"/>
                                    <path id="path3017" d="M-535.161,557.071C-520.884,533.06 -491.588,529.864 -468.002,519.815C-487.232,543.721 -505.906,580.409 -526.337,576.68L-535.161,557.071Z" style="stroke:white;stroke-width:2.13px;stroke-linecap:butt;"/>
                                    <path id="path3019" d="M-525.847,599.72L-483.689,618.348" style="fill:none;stroke:white;stroke-width:2.13px;stroke-linejoin:round;"/>
                                    <path id="path3021" d="M-524.867,576.68L-486.14,582.072L-456.727,596.778L-487.611,605.602L-528.298,598.739L-524.867,576.68Z" style="stroke:white;stroke-width:2.13px;stroke-linecap:butt;"/>
                                    <path id="path3023" d="M-542.137,595.569L-526.388,598.981L-510.114,588.482L-524.813,576.932L-541.087,578.77L-542.137,595.569Z" style="stroke:white;stroke-width:2.13px;stroke-linecap:butt;"/>
                                    <path id="path3025" d="M-541.612,578.245L-525.338,576.932L-511.427,551.996L-537.938,552.784L-546.862,561.446L-541.612,578.245Z" style="stroke:white;stroke-width:2.13px;stroke-linecap:butt;"/>
                                    <path id="path3027" d="M-511.141,588.445L-484.179,593.837" style="fill:none;stroke:white;stroke-width:2.13px;stroke-linejoin:round;"/>
                                    <path id="path3029" d="M-547.65,561.446L-537.938,552.784L-540.825,529.685L-559.461,540.71L-560.774,549.372L-547.65,561.446Z" style="stroke:white;stroke-width:2.13px;stroke-linecap:butt;"/>
                                    <path id="path3031" d="M-582.327,633.533L-577.359,623.979L-572.773,633.533" style="stroke:white;stroke-width:2.13px;stroke-linejoin:round;"/>
                                    <path id="path3033" d="M-520.945,577.66L-482.709,564.915" style="fill:none;stroke:white;stroke-width:2.13px;stroke-linejoin:round;"/>
                                    <path id="path3035" d="M-556.723,627.037L-556.341,617.865L-548.316,622.451" style="stroke:white;stroke-width:2.13px;stroke-linejoin:round;"/>
                                    <path id="path3037" d="M-538.38,610.986L-543.73,602.961L-534.941,603.725" style="stroke:white;stroke-width:2.13px;stroke-linejoin:round;"/>
                                    <path id="path3039" d="M-532.266,591.879L-541.055,586.911L-531.119,583.854" style="stroke:white;stroke-width:2.13px;stroke-linejoin:round;"/>
                                    <path id="path3041" d="M-533.03,570.479L-542.584,570.861L-536.852,563.218" style="stroke:white;stroke-width:2.13px;stroke-linejoin:round;"/>
                                    <path id="path3043" d="M-541.044,531.09L-521.926,493.834" style="fill:none;stroke:white;stroke-width:2.13px;stroke-linejoin:round;"/>
                                    <path id="path3045" d="M-543.73,550.607L-553.666,554.81L-550.609,544.492" style="stroke:white;stroke-width:2.13px;stroke-linejoin:round;"/>
                                    <path id="path3047" d="M-593.197,593.12C-568.411,628.741 -535.655,584.492 -560.812,563.229L-560.812,548.689C-548.988,551.584 -529.827,579.416 -547.593,608.833C-562.932,629.82 -576.807,627.386 -590.377,620.078C-588.877,610.545 -588.92,600.432 -593.197,593.12Z" style="stroke:white;stroke-width:2.13px;stroke-linecap:butt;"/>
                                    <path id="path3049" d="M-569.952,703.759C-568.775,709.288 -557.45,718.582 -547.936,721.099C-543.945,723.589 -542.079,722.888 -538.596,721.709C-531.434,713.105 -526.033,715.66 -520.646,718.301C-522.536,720.409 -524.644,722.385 -523.6,726.253C-530.016,730.033 -528.684,718.584 -536.779,726.026C-533.35,734.391 -521.125,727.694 -521.328,738.75C-524.316,738.787 -525.857,740.453 -526.554,743.068C-537.11,744.087 -528.177,732.778 -542.914,729.435C-547.273,734.263 -531.994,741.788 -543.368,748.521C-544.941,747.42 -546.385,746.157 -550.184,747.839C-556.165,745.248 -546.231,739.789 -547.003,735.797C-551.158,733.345 -548.524,732.229 -549.97,730.319C-551.504,727.591 -557.798,726.824 -561.365,729.577C-562.186,732.805 -564.081,737.14 -568.78,735.187C-569.544,730.283 -571.248,731.428 -573.134,729.889C-575.832,722.302 -567.211,724.557 -564.499,722.845C-564.2,717.697 -576.846,715.681 -583.131,712.166C-580.934,706.729 -574.995,705.782 -569.952,703.759Z" style="fill:rgb(173,156,99);stroke:black;stroke-width:2.13px;stroke-linecap:butt;"/>
                                    <path id="path3051" d="M-612.897,713.756C-614.939,700.555 -613.382,688.496 -609.716,674.902C-604.097,670.015 -599.941,664.452 -586.312,662.86C-570.288,664.174 -562.273,679.043 -566.544,698.306C-565.753,708.503 -579.746,702.969 -582.677,713.756L-586.312,686.036C-587.513,698.424 -577.617,716.362 -590.175,723.072C-595.434,717.489 -601.631,712.094 -601.081,705.349C-598.438,698.663 -597.512,686.822 -593.129,685.354C-599.595,686.291 -596.049,708.994 -612.897,713.756Z" style="stroke:white;stroke-width:2.13px;stroke-linecap:butt;"/>
                                    <path id="path3053" d="M-574.272,730.762C-574.236,730.762 -574.2,730.762 -574.272,730.762Z" style="fill:none;stroke:black;stroke-width:2.13px;stroke-linecap:butt;"/>
                                    <path id="path3055" d="M-574.272,730.977C-572.127,731.771 -570.037,733.015 -570.291,735.818C-571.292,738.904 -571.553,742.222 -567.171,747.007C-577.796,747.279 -582.001,736.336 -574.272,730.977Z"/>
                                    <path id="path3057" d="M-557.274,758.303C-552.569,756.491 -550.584,753.119 -550.388,749.266C-548.237,748.957 -546.085,749.049 -543.934,750.45C-543.069,758.042 -549.458,760.345 -557.274,758.303Z"/>
                                    <path id="path3059" d="M-525.429,744.21C-525.393,744.21 -525.358,744.21 -525.429,744.21Z" style="fill:none;stroke:black;stroke-width:2.13px;stroke-linecap:butt;"/>
                                    <path id="path3061" d="M-525.644,744.21C-524.662,742.064 -523.139,740.303 -520.158,739.584C-514.11,746.953 -518.686,755.891 -525.644,757.658C-523.134,750.665 -522.992,746.04 -525.644,744.21Z"/>
                                    <path id="path3063" d="M-519.082,718.605C-521.322,721.332 -523.003,724.016 -521.556,726.459C-515.873,726.271 -515.979,733.114 -513.918,737.325C-511.076,728.394 -510.811,720.983 -519.082,718.605Z"/>
                                    <path id="path3065" d="M-513.102,552.169L-488.101,535.012" style="fill:none;stroke:white;stroke-width:2.13px;stroke-linejoin:round;"/>
                                    <path id="path3067" d="M-544.475,643.348C-544.475,643.512 -544.475,643.675 -544.475,643.348Z" style="fill:none;stroke:black;stroke-width:2.13px;stroke-linecap:butt;"/>
                                    <path id="path3069" d="M-559.691,670.191L-566.27,636.422" style="fill:none;stroke:white;stroke-width:2.13px;"/>
                                    <g id="g3611">
                                        <path id="path2877" d="M-630.489,516.212C-634.452,511.902 -639.797,509.405 -647.492,510.558" style="stroke:white;stroke-width:2.13px;stroke-linecap:butt;"/>
                                        <path id="path2879" d="M-634.974,512.547C-637.111,520.002 -645.514,516.566 -643.08,510.432" style="fill:none;stroke:white;stroke-width:2.13px;stroke-linecap:butt;"/>
                                    </g>
                                    <g id="g3406" transform="matrix(1,0,0,1,0,-4.67869)">
                                        <path id="text3397" d="M-635.286,637.323L-635.286,650.021C-635.286,652.665 -635.146,654.335 -634.867,655.032C-634.566,655.705 -634.051,656.246 -633.32,656.654C-632.59,657.063 -631.226,657.267 -629.228,657.267L-629.228,658.601L-651.591,658.601L-651.591,657.267C-649.572,657.267 -648.208,657.063 -647.499,656.654C-646.768,656.221 -646.263,655.669 -645.984,654.996C-645.683,654.323 -645.533,652.665 -645.533,650.021L-645.533,618.3C-645.533,615.657 -645.683,613.998 -645.984,613.325C-646.263,612.629 -646.768,612.076 -647.499,611.667C-648.229,611.259 -649.593,611.055 -651.591,611.054L-651.591,609.721L-631.29,609.721C-626.006,609.721 -622.139,610.129 -619.69,610.946C-617.241,611.763 -615.243,613.277 -613.697,615.488C-612.15,617.675 -611.377,620.247 -611.376,623.202C-611.377,626.807 -612.537,629.787 -614.857,632.142C-616.339,633.632 -618.412,634.749 -621.076,635.494L-610.571,652.04C-609.196,654.179 -608.219,655.513 -607.639,656.041C-606.758,656.786 -605.737,657.195 -604.577,657.267L-604.577,658.601L-618.337,658.601L-631.418,637.323L-635.286,637.323" style="fill:rgb(173,156,99);fill-rule:nonzero;"/>
                                        <path id="path3402" d="M-635.286,612.352L-635.286,633.764L-633.449,633.764C-630.463,633.764 -628.229,633.464 -626.747,632.863C-625.265,632.238 -624.105,631.133 -623.267,629.547C-622.408,627.937 -621.978,625.846 -621.978,623.274C-621.978,619.55 -622.762,616.798 -624.33,615.02C-625.877,613.241 -628.38,612.352 -631.838,612.352L-635.286,612.352" style="fill-rule:nonzero;"/>
                                    </g>
                                </g>
                                <g id="g4089" transform="matrix(1,0,0,1,769.624,0)">
                                    <path id="path3973" d="M-613.471,192.755L-629.874,216.047L-635.451,217.687L-666.289,158.964C-667.813,156.508 -672.305,155.747 -668.257,150.107C-671.206,146.991 -672.123,153.206 -675.802,152.075C-678.294,156.86 -680.966,155.882 -682.036,154.372C-681.057,149.6 -682.984,146.766 -688.269,146.17C-690.888,138.382 -674.492,144.902 -673.506,135.672C-679.065,137.046 -683.42,137.066 -685.644,134.688C-699.3,134.949 -696.686,131.381 -696.798,128.455C-691.333,126.342 -691.415,122.097 -691.221,117.957C-685.389,114.659 -681.916,118.731 -679.411,125.83C-674.664,129.998 -670.297,130.359 -665.961,130.423C-670.318,126.736 -671.318,122.714 -671.538,118.613C-674.746,114.689 -678.713,111.017 -677.115,105.491C-672.497,105.556 -670.077,103.057 -667.929,100.242C-663.3,100.014 -658.772,108.969 -662.352,115.661C-664.517,121.205 -660.512,125.206 -656.119,129.111C-653.289,127.539 -653.94,107.79 -643.325,110.084C-642.748,114.004 -639.636,116.542 -634.467,117.957C-635.192,123.186 -636.721,127.438 -644.264,126.702C-646.779,132.69 -648.355,135.54 -650.87,136.328C-655.753,153.628 -627.544,176.188 -613.471,192.755Z" style="fill:rgb(189,41,16);stroke:black;stroke-width:1.5px;stroke-linecap:butt;"/>
                                    <path id="path3975" d="M-641.82,109.193C-640.921,112.643 -639.886,115.998 -633.675,115.771C-628.878,108.077 -632.907,103.032 -636.181,97.76C-637.599,102.033 -635.204,110.118 -641.82,109.193Z" style="stroke:black;stroke-width:1px;stroke-linecap:butt;"/>
                                    <path id="path3977" d="M-669.698,98.699C-671.434,100.791 -673.102,102.903 -677.685,104.181C-676.348,97.864 -684.333,100.204 -688.178,98.699C-680.908,93.148 -674.469,91.754 -669.698,98.699Z" style="stroke:black;stroke-width:1px;stroke-linecap:butt;"/>
                                    <path id="path3979" d="M-693.66,117.963C-692.798,122.31 -695.07,125.089 -698.359,127.36C-702.524,122.612 -705.998,127.54 -709.792,127.987C-707.44,122.053 -704.616,116.523 -693.66,117.963Z" style="stroke:black;stroke-width:1px;stroke-linecap:butt;"/>
                                    <path id="path3981" d="M-689.588,147.408C-684.618,148.79 -682.76,151.507 -683.637,155.395C-689.223,162.097 -696.218,157.531 -700.395,156.178C-695.93,154.29 -690.144,153.987 -689.588,147.408Z" style="stroke:black;stroke-width:1px;stroke-linecap:butt;"/>
                                    <path id="path4004" d="M-606,202.657C-623.23,216.253 -670.25,231.109 -680.695,227.338C-695.178,220.355 -678.738,197.872 -693.36,198.435C-695.599,202.031 -698.485,201.102 -701.154,201.682C-706.587,203.374 -705.51,207.288 -701.479,211.75C-702.269,217.306 -695.537,218.974 -695.634,223.116C-701.073,224.424 -708.162,223.18 -709.852,219.421C-712.608,213.288 -720.122,213.134 -723.238,218.919C-721.689,221.525 -718.713,222.106 -721.705,228.346C-715.674,232.201 -707.731,232.549 -698.881,231.235C-705.746,244.769 -719.259,236.826 -719.374,253.052C-714.089,251.944 -712.265,251.786 -710.749,256.332C-703.478,256.86 -705.411,241.554 -698.232,243.576C-696.924,249.767 -704.259,255.682 -697.587,258.635C-694.738,255.03 -693.703,252.518 -689.463,254.943C-682.967,252.195 -693.915,247.16 -691.087,241.628C-684.623,241.95 -684.656,244.605 -677.366,245.895C-667.82,247.584 -655.009,247.361 -647.013,247.073C-627.17,246.357 -617.069,253.631 -606.974,245.2L-612.17,252.67L-592.36,319.57C-598.407,331.78 -610.087,341.554 -599.83,360.814C-591.148,373.175 -585.916,379.528 -581.669,388.44C-580.435,391.029 -577.687,420.701 -583.592,421.334C-601.062,428.176 -598.529,401.282 -611.521,407.255C-611.67,410.555 -612.817,413.48 -616.717,415.374C-617.335,420.662 -608.773,421.361 -604.376,424.142C-601.238,425.118 -599.349,427.342 -599.505,431.612L-612.495,427.715C-616.673,424.959 -621.449,419.958 -623.862,423.817C-623.619,426.957 -623.057,430.096 -626.46,433.235C-624.858,437.74 -618.439,437.513 -617.515,433.622C-613.414,435.329 -609.808,435.728 -606.177,433.675C-602.191,438.919 -618.534,439.591 -615.743,445.576C-611.945,445.474 -611.157,447.254 -609.716,451.393C-605.196,453.913 -603.799,446.443 -601.453,442.004C-595.925,441.082 -593.819,436.053 -590.412,432.586C-585.97,438.756 -599.218,442.412 -594.977,449.868C-590.238,448.627 -588.107,449.718 -584.378,451.61C-581.105,449.935 -581.828,446.626 -581.643,443.628C-580.079,438.447 -575.916,438.896 -571.576,439.731L-571.251,219.869L-606,202.657Z" style="fill:rgb(189,41,16);stroke:black;stroke-width:1.5px;stroke-linecap:butt;"/>
                                    <path id="path3952" d="M-571.064,223.792C-573.898,232 -577.071,238.571 -582.062,244.298C-589.506,233.703 -593.853,223.109 -596.105,212.515C-601.617,219.573 -607.119,226.679 -613.475,229.515C-611.114,219.971 -609.057,211.336 -607.562,204.385C-618.431,211.937 -625.658,215.579 -630.474,216.211C-622.986,207.017 -620.492,192.828 -608.01,188.628C-590.786,188.867 -590.459,181.248 -589.822,170.755C-595.807,168.064 -602.374,172.855 -605.519,170.477C-611.313,167.149 -605.574,157.959 -601.649,154.863C-600.466,168.271 -590.154,162.43 -581.313,161.635C-576.614,161.312 -576.018,144.458 -580.953,142.298C-595.015,141.165 -605.289,134.524 -605.714,147.103C-612.111,145.497 -615.324,142.299 -613.844,136.755C-620.427,125.897 -614.767,123.211 -601.234,124.61C-592.562,122.854 -600.672,111.53 -593.888,109.407L-570.975,109.777L-571.064,223.792Z" style="fill:rgb(189,41,16);stroke:black;stroke-width:1.5px;stroke-linecap:butt;"/>
                                    <path id="path3959" d="M-578.366,182.95C-579.9,193.219 -585.168,194.156 -590.562,194.776" style="fill:none;stroke:black;stroke-width:1.5px;stroke-linecap:butt;"/>
                                    <g id="path3961" transform="matrix(0.274029,0,0,0.571526,-445.806,57.797)">
                                        <path d="M-594.257,137.86L-594.257,137.866C-594.257,140.502 -598.595,142.671 -603.866,142.671C-609.137,142.671 -613.474,140.502 -613.474,137.866L-613.474,137.86C-613.474,135.225 -609.137,133.056 -603.866,133.056C-598.595,133.056 -594.257,135.225 -594.257,137.86Z" style="fill-rule:nonzero;stroke:black;stroke-width:2.48px;stroke-linejoin:round;"/>
                                    </g>
                                    <path id="path3963" d="M-602.91,140.453C-604.318,144.227 -604.42,151.504 -600.834,152.353C-600.822,144.664 -597.538,142.553 -595.243,140.054C-597.681,139.441 -601.043,139.149 -602.91,140.453Z" style="fill:white;stroke:black;stroke-width:1px;stroke-linecap:butt;"/>
                                    <g id="path3965" transform="matrix(0.248598,0,0,0.483769,-436.024,56.4772)">
                                        <path d="M-594.257,137.86L-594.257,137.866C-594.257,140.502 -598.595,142.671 -603.866,142.671C-609.137,142.671 -613.474,140.502 -613.474,137.866L-613.474,137.86C-613.474,135.225 -609.137,133.056 -603.866,133.056C-598.595,133.056 -594.257,135.225 -594.257,137.86Z" style="fill-rule:nonzero;stroke:black;stroke-width:2.48px;stroke-linejoin:round;"/>
                                    </g>
                                    <path id="path3967" d="M-592.058,124.259C-588.306,118.468 -583.237,120.087 -577.729,124.176C-582.715,125.882 -587.717,127.715 -592.058,124.259Z" style="fill:none;stroke:black;stroke-width:1px;stroke-linecap:butt;"/>
                                    <path id="path3969" d="M-592.969,120.449C-592.004,117.346 -585.946,115.756 -579.965,118.047" style="fill:none;stroke:black;stroke-width:1px;stroke-linecap:butt;"/>
                                    <path id="path3971" d="M-628.324,140.022C-618.506,164.24 -593.385,146.219 -577.018,154.079C-595.236,148.406 -625.292,177.538 -628.324,140.022Z" style="fill:rgb(189,41,16);stroke:black;stroke-width:1.5px;stroke-linecap:butt;"/>
                                    <path id="path3990" d="M-684.269,313.959C-678.819,319.325 -672.063,319.582 -673.419,307.147C-682.91,292.497 -668.806,284.602 -667.616,276.113C-664.926,249.295 -622.661,252.417 -621.443,280.402C-620.592,327.799 -655.704,315.152 -652.225,358.618C-650.063,402.083 -596.187,390.319 -587.634,378.046L-581.326,388.391C-598.859,402.989 -646.969,405.298 -657.524,373.505C-660.032,362.56 -664.533,338.709 -650.711,324.052C-638.594,312.232 -624.93,301.824 -627.751,276.365C-627.075,261.884 -659.312,255.805 -663.075,275.608C-661.743,290.307 -668.17,294.858 -665.093,305.633C-659.044,330.942 -682.894,337.201 -684.269,313.959Z" style="fill:rgb(189,41,16);stroke:black;stroke-width:1.5px;stroke-linecap:butt;"/>
                                    <path id="path3992" d="M-679.125,381.88C-676.866,377.592 -683.588,375.357 -682.934,373.122C-680.673,372.973 -677.633,373.546 -676.913,371.006C-668.631,366.629 -647.921,374.165 -615.64,374.262C-610.778,372.791 -608.909,368.826 -612.108,360.637C-621.197,347.685 -604.929,341.293 -613.117,327.836L-599.492,333.387L-587.381,321.781L-601.006,293.017L-638.348,293.522C-645.122,294.441 -650.551,298.049 -651.973,309.67C-651.054,325.21 -644.377,341.476 -638.086,355.673C-654.358,342.624 -674.354,364.899 -681.746,352.058C-685.026,346.624 -680.19,335.178 -686.792,334.901C-689.483,339.989 -692.175,340.391 -694.866,339.443C-700.449,345.389 -686.024,349.725 -691.838,357.609C-701.351,355.915 -703.782,336.924 -714.692,348.201C-712.973,352.449 -710.509,355.82 -715.051,360.637C-709.927,367.239 -705.693,356.824 -691.334,362.655C-697.827,377.341 -711.824,371.516 -710.005,382.84C-704.19,382.176 -701.383,385.388 -700.417,388.896C-695.288,388.301 -696.203,372.484 -689.82,372.748C-687.344,376.584 -691.626,386.292 -687.297,385.868C-685.656,380.877 -683.188,380.212 -679.125,381.88Z" style="fill:rgb(189,41,16);stroke:black;stroke-width:1.5px;stroke-linecap:butt;"/>
                                    <path id="path3994" d="M-688.171,333.189C-690.375,337.081 -692.579,337.16 -694.784,337.521C-692.131,331.486 -697.471,328.917 -702.08,326.348C-696.307,325.1 -689.201,325.049 -688.171,333.189Z" style="stroke:black;stroke-width:1px;stroke-linecap:butt;"/>
                                    <path id="path3996" d="M-716.902,349.151C-714.374,353.566 -714.338,357.048 -716.674,359.64C-719.334,357.454 -721.994,361.939 -724.655,364.2C-725.335,357.318 -724.642,351.221 -716.902,349.151Z" style="stroke:black;stroke-width:1px;stroke-linecap:butt;"/>
                                    <path id="path3998" d="M-710.973,384.95C-706.022,384.635 -703.865,387.114 -702.536,390.423C-705.059,391.686 -705.485,395.394 -704.361,400.912C-714.392,394.21 -710.424,389.979 -710.973,384.95Z" style="stroke:black;stroke-width:1px;stroke-linecap:butt;"/>
                                    <path id="path4000" d="M-686.347,387.458C-684.782,383.072 -681.977,382.818 -678.594,384.494C-679.199,393.317 -683.316,395.117 -687.487,396.807C-686.886,393.728 -683.713,391.077 -686.347,387.458Z" style="stroke:black;stroke-width:1px;stroke-linecap:butt;"/>
                                    <path id="path4002" d="M-606.325,202.981C-606.325,202.873 -606.325,202.765 -606.325,202.981Z" style="fill:none;stroke:black;stroke-width:1px;stroke-linecap:butt;"/>
                                    <path id="path4006" d="M-700.996,199.504C-698.778,200.86 -696.13,199.64 -693.246,197.004C-695.483,188.054 -703.944,190.235 -708.246,191.254C-705.247,193.856 -698.543,192.66 -700.996,199.504Z" style="stroke:black;stroke-width:1px;stroke-linecap:butt;"/>
                                    <path id="path4008" d="M-724.746,219.754C-721.85,222.986 -722.18,225.681 -723.246,228.254C-726.593,227.879 -728.976,230.398 -730.996,234.004C-732.796,224.593 -729.57,221.215 -724.746,219.754Z" style="stroke:black;stroke-width:1px;stroke-linecap:butt;"/>
                                    <path id="path4010" d="M-718.996,254.753C-715.59,254.394 -712.29,254.194 -711.496,257.753C-714.956,260.815 -714.646,264.762 -714.246,269.753C-719.324,267.057 -723.289,260.602 -718.996,254.753Z" style="stroke:black;stroke-width:1px;stroke-linecap:butt;"/>
                                    <path id="path4012" d="M-695.996,259.503C-694.278,257.039 -692.567,254.565 -688.246,256.003C-688.627,261.751 -690.497,266.903 -697.496,270.003C-696.182,266.911 -692.435,265.034 -695.996,259.503Z" style="stroke:black;stroke-width:1px;stroke-linecap:butt;"/>
                                    <path id="path4014" d="M-613.208,407.129C-613.458,410.16 -614.733,412.336 -617.168,413.546C-619.983,410.127 -624.294,409.999 -628.91,410.542C-626.046,406.982 -620.486,401.88 -613.208,407.129Z" style="stroke:black;stroke-width:1px;stroke-linecap:butt;"/>
                                    <path id="path4016" d="M-625.77,423.924C-624.926,427.287 -625.388,430.071 -627.818,431.979C-632.833,428.177 -634.432,434.135 -637.103,437.032C-637.592,429.301 -637.097,422.345 -625.77,423.924Z" style="stroke:black;stroke-width:1px;stroke-linecap:butt;"/>
                                    <path id="path4018" d="M-616.758,446.316C-613.007,447.445 -611.617,449.753 -610.75,452.324C-616.035,452.04 -618.032,456.538 -619.352,462.019C-620.997,456.885 -623.863,451.8 -616.758,446.316Z" style="stroke:black;stroke-width:1px;stroke-linecap:butt;"/>
                                    <path id="path4020" d="M-595.048,453.007C-592.658,450.818 -589.334,451.198 -585.49,453.007C-590.95,456.624 -588.864,461.129 -588.494,465.432C-595.544,462.983 -596.322,458.352 -595.048,453.007Z" style="stroke:black;stroke-width:1px;stroke-linecap:butt;"/>
                                </g>
                                <g id="g4120" transform="matrix(-1,0,0,1,-8.8978,0)">
                                    <path id="path4122" d="M-613.471,192.755L-629.874,216.047L-635.451,217.687L-666.289,158.964C-667.813,156.508 -672.305,155.747 -668.257,150.107C-671.206,146.991 -672.123,153.206 -675.802,152.075C-678.294,156.86 -680.966,155.882 -682.036,154.372C-681.057,149.6 -682.984,146.766 -688.269,146.17C-690.888,138.382 -674.492,144.902 -673.506,135.672C-679.065,137.046 -683.42,137.066 -685.644,134.688C-699.3,134.949 -696.686,131.381 -696.798,128.455C-691.333,126.342 -691.415,122.097 -691.221,117.957C-685.389,114.659 -681.916,118.731 -679.411,125.83C-674.664,129.998 -670.297,130.359 -665.961,130.423C-670.318,126.736 -671.318,122.714 -671.538,118.613C-674.746,114.689 -678.713,111.017 -677.115,105.491C-672.497,105.556 -670.077,103.057 -667.929,100.242C-663.3,100.014 -658.772,108.969 -662.352,115.661C-664.517,121.205 -660.512,125.206 -656.119,129.111C-653.289,127.539 -653.94,107.79 -643.325,110.084C-642.748,114.004 -639.636,116.542 -634.467,117.957C-635.192,123.186 -636.721,127.438 -644.264,126.702C-646.779,132.69 -648.355,135.54 -650.87,136.328C-655.753,153.628 -627.544,176.188 -613.471,192.755Z" style="fill:rgb(189,41,16);stroke:black;stroke-width:1.5px;stroke-linecap:butt;"/>
                                    <path id="path4124" d="M-641.82,109.193C-640.921,112.643 -639.886,115.998 -633.675,115.771C-628.878,108.077 -632.907,103.032 -636.181,97.76C-637.599,102.033 -635.204,110.118 -641.82,109.193Z" style="stroke:black;stroke-width:1px;stroke-linecap:butt;"/>
                                    <path id="path4126" d="M-669.698,98.699C-671.434,100.791 -673.102,102.903 -677.685,104.181C-676.348,97.864 -684.333,100.204 -688.178,98.699C-680.908,93.148 -674.469,91.754 -669.698,98.699Z" style="stroke:black;stroke-width:1px;stroke-linecap:butt;"/>
                                    <path id="path4128" d="M-693.66,117.963C-692.798,122.31 -695.07,125.089 -698.359,127.36C-702.524,122.612 -705.998,127.54 -709.792,127.987C-707.44,122.053 -704.616,116.523 -693.66,117.963Z" style="stroke:black;stroke-width:1px;stroke-linecap:butt;"/>
                                    <path id="path4130" d="M-689.588,147.408C-684.618,148.79 -682.76,151.507 -683.637,155.395C-689.223,162.097 -696.218,157.531 -700.395,156.178C-695.93,154.29 -690.144,153.987 -689.588,147.408Z" style="stroke:black;stroke-width:1px;stroke-linecap:butt;"/>
                                    <path id="path4132" d="M-606,202.657C-623.23,216.253 -670.25,231.109 -680.695,227.338C-695.178,220.355 -678.738,197.872 -693.36,198.435C-695.599,202.031 -698.485,201.102 -701.154,201.682C-706.587,203.374 -705.51,207.288 -701.479,211.75C-702.269,217.306 -695.537,218.974 -695.634,223.116C-701.073,224.424 -708.162,223.18 -709.852,219.421C-712.608,213.288 -720.122,213.134 -723.238,218.919C-721.689,221.525 -718.713,222.106 -721.705,228.346C-715.674,232.201 -707.731,232.549 -698.881,231.235C-705.746,244.769 -719.259,236.826 -719.374,253.052C-714.089,251.944 -712.265,251.786 -710.749,256.332C-703.478,256.86 -705.411,241.554 -698.232,243.576C-696.924,249.767 -704.259,255.682 -697.587,258.635C-694.738,255.03 -693.703,252.518 -689.463,254.943C-682.967,252.195 -693.915,247.16 -691.087,241.628C-684.623,241.95 -684.656,244.605 -677.366,245.895C-667.82,247.584 -655.009,247.361 -647.013,247.073C-627.17,246.357 -617.069,253.631 -606.974,245.2L-612.17,252.67L-592.36,319.57C-598.407,331.78 -610.087,341.554 -599.83,360.814C-591.148,373.175 -585.916,379.528 -581.669,388.44C-580.435,391.029 -577.687,420.701 -583.592,421.334C-601.062,428.176 -598.529,401.282 -611.521,407.255C-611.67,410.555 -612.817,413.48 -616.717,415.374C-617.335,420.662 -608.773,421.361 -604.376,424.142C-601.238,425.118 -599.349,427.342 -599.505,431.612L-612.495,427.715C-616.673,424.959 -621.449,419.958 -623.862,423.817C-623.619,426.957 -623.057,430.096 -626.46,433.235C-624.858,437.74 -618.439,437.513 -617.515,433.622C-613.414,435.329 -609.808,435.728 -606.177,433.675C-602.191,438.919 -618.534,439.591 -615.743,445.576C-611.945,445.474 -611.157,447.254 -609.716,451.393C-605.196,453.913 -603.799,446.443 -601.453,442.004C-595.925,441.082 -593.819,436.053 -590.412,432.586C-585.97,438.756 -599.218,442.412 -594.977,449.868C-590.238,448.627 -588.107,449.718 -584.378,451.61C-581.105,449.935 -581.828,446.626 -581.643,443.628C-580.079,438.447 -575.916,438.896 -571.576,439.731L-571.251,219.869L-606,202.657Z" style="fill:rgb(189,41,16);stroke:black;stroke-width:1.5px;stroke-linecap:butt;"/>
                                    <path id="path4134" d="M-571.064,223.792C-573.898,232 -577.071,238.571 -582.062,244.298C-589.506,233.703 -593.853,223.109 -596.105,212.515C-601.617,219.573 -607.119,226.679 -613.475,229.515C-611.114,219.971 -609.057,211.336 -607.562,204.385C-618.431,211.937 -625.658,215.579 -630.474,216.211C-622.986,207.017 -620.492,192.828 -608.01,188.628C-590.786,188.867 -590.459,181.248 -589.822,170.755C-595.807,168.064 -602.374,172.855 -605.519,170.477C-611.313,167.149 -605.574,157.959 -601.649,154.863C-600.466,168.271 -590.154,162.43 -581.313,161.635C-576.614,161.312 -576.018,144.458 -580.953,142.298C-595.015,141.165 -605.289,134.524 -605.714,147.103C-612.111,145.497 -615.324,142.299 -613.844,136.755C-620.427,125.897 -614.767,123.211 -601.234,124.61C-592.562,122.854 -600.672,111.53 -593.888,109.407L-570.975,109.777L-571.064,223.792Z" style="fill:rgb(189,41,16);stroke:black;stroke-width:1.5px;stroke-linecap:butt;"/>
                                    <path id="path4136" d="M-578.366,182.95C-579.9,193.219 -585.168,194.156 -590.562,194.776" style="fill:none;stroke:black;stroke-width:1.5px;stroke-linecap:butt;"/>
                                    <g id="path4138" transform="matrix(0.274029,0,0,0.571526,-445.806,57.797)">
                                        <path d="M-594.257,137.86L-594.257,137.866C-594.257,140.502 -598.595,142.671 -603.866,142.671C-609.137,142.671 -613.474,140.502 -613.474,137.866L-613.474,137.86C-613.474,135.225 -609.137,133.056 -603.866,133.056C-598.595,133.056 -594.257,135.225 -594.257,137.86Z" style="fill-rule:nonzero;stroke:black;stroke-width:2.48px;stroke-linejoin:round;"/>
                                    </g>
                                    <path id="path4140" d="M-602.91,140.453C-604.318,144.227 -604.42,151.504 -600.834,152.353C-600.822,144.664 -597.538,142.553 -595.243,140.054C-597.681,139.441 -601.043,139.149 -602.91,140.453Z" style="fill:white;stroke:black;stroke-width:1px;stroke-linecap:butt;"/>
                                    <g id="path4142" transform="matrix(0.248598,0,0,0.483769,-436.024,56.4772)">
                                        <path d="M-594.257,137.86L-594.257,137.866C-594.257,140.502 -598.595,142.671 -603.866,142.671C-609.137,142.671 -613.474,140.502 -613.474,137.866L-613.474,137.86C-613.474,135.225 -609.137,133.056 -603.866,133.056C-598.595,133.056 -594.257,135.225 -594.257,137.86Z" style="fill-rule:nonzero;stroke:black;stroke-width:2.48px;stroke-linejoin:round;"/>
                                    </g>
                                    <path id="path4144" d="M-592.058,124.259C-588.306,118.468 -583.237,120.087 -577.729,124.176C-582.715,125.882 -587.717,127.715 -592.058,124.259Z" style="fill:none;stroke:black;stroke-width:1px;stroke-linecap:butt;"/>
                                    <path id="path4146" d="M-592.969,120.449C-592.004,117.346 -585.946,115.756 -579.965,118.047" style="fill:none;stroke:black;stroke-width:1px;stroke-linecap:butt;"/>
                                    <path id="path4148" d="M-628.324,140.022C-618.506,164.24 -593.385,146.219 -577.018,154.079C-595.236,148.406 -625.292,177.538 -628.324,140.022Z" style="fill:rgb(189,41,16);stroke:black;stroke-width:1.5px;stroke-linecap:butt;"/>
                                    <path id="path4150" d="M-684.269,313.959C-678.819,319.325 -672.063,319.582 -673.419,307.147C-682.91,292.497 -668.806,284.602 -667.616,276.113C-664.926,249.295 -622.661,252.417 -621.443,280.402C-620.592,327.799 -655.704,315.152 -652.225,358.618C-650.063,402.083 -596.187,390.319 -587.634,378.046L-581.326,388.391C-598.859,402.989 -646.969,405.298 -657.524,373.505C-660.032,362.56 -664.533,338.709 -650.711,324.052C-638.594,312.232 -624.93,301.824 -627.751,276.365C-627.075,261.884 -659.312,255.805 -663.075,275.608C-661.743,290.307 -668.17,294.858 -665.093,305.633C-659.044,330.942 -682.894,337.201 -684.269,313.959Z" style="fill:rgb(189,41,16);stroke:black;stroke-width:1.5px;stroke-linecap:butt;"/>
                                    <path id="path4152" d="M-679.125,381.88C-676.866,377.592 -683.588,375.357 -682.934,373.122C-680.673,372.973 -677.633,373.546 -676.913,371.006C-668.631,366.629 -647.921,374.165 -615.64,374.262C-610.778,372.791 -608.909,368.826 -612.108,360.637C-621.197,347.685 -604.929,341.293 -613.117,327.836L-599.492,333.387L-587.381,321.781L-601.006,293.017L-638.348,293.522C-645.122,294.441 -650.551,298.049 -651.973,309.67C-651.054,325.21 -644.377,341.476 -638.086,355.673C-654.358,342.624 -674.354,364.899 -681.746,352.058C-685.026,346.624 -680.19,335.178 -686.792,334.901C-689.483,339.989 -692.175,340.391 -694.866,339.443C-700.449,345.389 -686.024,349.725 -691.838,357.609C-701.351,355.915 -703.782,336.924 -714.692,348.201C-712.973,352.449 -710.509,355.82 -715.051,360.637C-709.927,367.239 -705.693,356.824 -691.334,362.655C-697.827,377.341 -711.824,371.516 -710.005,382.84C-704.19,382.176 -701.383,385.388 -700.417,388.896C-695.288,388.301 -696.203,372.484 -689.82,372.748C-687.344,376.584 -691.626,386.292 -687.297,385.868C-685.656,380.877 -683.188,380.212 -679.125,381.88Z" style="fill:rgb(189,41,16);stroke:black;stroke-width:1.5px;stroke-linecap:butt;"/>
                                    <path id="path4154" d="M-688.171,333.189C-690.375,337.081 -692.579,337.16 -694.784,337.521C-692.131,331.486 -697.471,328.917 -702.08,326.348C-696.307,325.1 -689.201,325.049 -688.171,333.189Z" style="stroke:black;stroke-width:1px;stroke-linecap:butt;"/>
                                    <path id="path4156" d="M-716.902,349.151C-714.374,353.566 -714.338,357.048 -716.674,359.64C-719.334,357.454 -721.994,361.939 -724.655,364.2C-725.335,357.318 -724.642,351.221 -716.902,349.151Z" style="stroke:black;stroke-width:1px;stroke-linecap:butt;"/>
                                    <path id="path4158" d="M-710.973,384.95C-706.022,384.635 -703.865,387.114 -702.536,390.423C-705.059,391.686 -705.485,395.394 -704.361,400.912C-714.392,394.21 -710.424,389.979 -710.973,384.95Z" style="stroke:black;stroke-width:1px;stroke-linecap:butt;"/>
                                    <path id="path4160" d="M-686.347,387.458C-684.782,383.072 -681.977,382.818 -678.594,384.494C-679.199,393.317 -683.316,395.117 -687.487,396.807C-686.886,393.728 -683.713,391.077 -686.347,387.458Z" style="stroke:black;stroke-width:1px;stroke-linecap:butt;"/>
                                    <path id="path4162" d="M-606.325,202.981C-606.325,202.873 -606.325,202.765 -606.325,202.981Z" style="fill:none;stroke:black;stroke-width:1px;stroke-linecap:butt;"/>
                                    <path id="path4164" d="M-700.996,199.504C-698.778,200.86 -696.13,199.64 -693.246,197.004C-695.483,188.054 -703.944,190.235 -708.246,191.254C-705.247,193.856 -698.543,192.66 -700.996,199.504Z" style="stroke:black;stroke-width:1px;stroke-linecap:butt;"/>
                                    <path id="path4166" d="M-724.746,219.754C-721.85,222.986 -722.18,225.681 -723.246,228.254C-726.593,227.879 -728.976,230.398 -730.996,234.004C-732.796,224.593 -729.57,221.215 -724.746,219.754Z" style="stroke:black;stroke-width:1px;stroke-linecap:butt;"/>
                                    <path id="path4168" d="M-718.996,254.753C-715.59,254.394 -712.29,254.194 -711.496,257.753C-714.956,260.815 -714.646,264.762 -714.246,269.753C-719.324,267.057 -723.289,260.602 -718.996,254.753Z" style="stroke:black;stroke-width:1px;stroke-linecap:butt;"/>
                                    <path id="path4170" d="M-695.996,259.503C-694.278,257.039 -692.567,254.565 -688.246,256.003C-688.627,261.751 -690.497,266.903 -697.496,270.003C-696.182,266.911 -692.435,265.034 -695.996,259.503Z" style="stroke:black;stroke-width:1px;stroke-linecap:butt;"/>
                                    <path id="path4172" d="M-613.208,407.129C-613.458,410.16 -614.733,412.336 -617.168,413.546C-619.983,410.127 -624.294,409.999 -628.91,410.542C-626.046,406.982 -620.486,401.88 -613.208,407.129Z" style="stroke:black;stroke-width:1px;stroke-linecap:butt;"/>
                                    <path id="path4174" d="M-625.77,423.924C-624.926,427.287 -625.388,430.071 -627.818,431.979C-632.833,428.177 -634.432,434.135 -637.103,437.032C-637.592,429.301 -637.097,422.345 -625.77,423.924Z" style="stroke:black;stroke-width:1px;stroke-linecap:butt;"/>
                                    <path id="path4176" d="M-616.758,446.316C-613.007,447.445 -611.617,449.753 -610.75,452.324C-616.035,452.04 -618.032,456.538 -619.352,462.019C-620.997,456.885 -623.863,451.8 -616.758,446.316Z" style="stroke:black;stroke-width:1px;stroke-linecap:butt;"/>
                                    <path id="path4178" d="M-595.048,453.007C-592.658,450.818 -589.334,451.198 -585.49,453.007C-590.95,456.624 -588.864,461.129 -588.494,465.432C-595.544,462.983 -596.322,458.352 -595.048,453.007Z" style="stroke:black;stroke-width:1px;stroke-linecap:butt;"/>
                                </g>
                            </g>
                        </g>
                    </g>
                </g>
            </g>
        </g>
    </g>
</svg>
