<?xml version="1.0" encoding="UTF-8" standalone="no"?>
<!DOCTYPE svg PUBLIC "-//W3C//DTD SVG 1.1//EN" "http://www.w3.org/Graphics/SVG/1.1/DTD/svg11.dtd">
<svg width="100%" height="100%" viewBox="0 0 151 150" version="1.1" xmlns="http://www.w3.org/2000/svg" xmlns:xlink="http://www.w3.org/1999/xlink" xml:space="preserve" xmlns:serif="http://www.serif.com/" style="fill-rule:evenodd;clip-rule:evenodd;">
    <g transform="matrix(1,0,0,1,-1272,0)">
        <g id="lubelskie" transform="matrix(0.138889,0,0,0.138889,1272.88,0)">
            <rect x="0" y="0" width="1080" height="1080" style="fill:none;"/>
            <g id="lubelskie.svg" transform="matrix(1.35,0,0,1.35,540,540)">
                <g transform="matrix(1,0,0,1,-340,-400)">
                    <clipPath id="_clip1">
                        <rect x="0" y="0" width="680" height="800"/>
                    </clipPath>
                    <g clip-path="url(#_clip1)">
                        <g id="Warstwa-1" serif:id="Warstwa 1" transform="matrix(1,0,0,1,-6.25935,-4.31151)">
                            <path id="path841" d="M11.324,9.376L681.195,9.376L681.195,474.451C681.195,574.774 632.75,652.804 579.684,706.297C520.729,765.725 431.676,798.092 348.483,799.222C265.699,800.345 174.737,763.953 117.802,708.319C60.909,652.726 11.324,575.438 11.324,474.451L11.324,9.376Z" style="fill:rgb(213,18,22);fill-rule:nonzero;stroke:black;stroke-width:10.13px;"/>
                            <path id="path2780" d="M287.467,92.499C287.467,92.499 304.146,66.85 328.987,66.85C328.987,66.85 321.89,73.619 324.374,77.893C326.858,82.168 323.31,92.143 317.632,93.924C311.954,95.706 309.47,102.831 309.47,102.831L286.048,97.843L287.467,92.499Z" style="fill:white;stroke:black;stroke-width:3.9px;stroke-linecap:round;stroke-linejoin:round;"/>
                            <path id="path4556" d="M524.522,81.1C524.522,81.1 547.944,77.893 562.493,68.987C562.493,68.987 535.878,100.337 494.713,97.131C453.548,93.924 523.812,80.387 524.522,81.1Z" style="fill:white;stroke:black;stroke-width:3.9px;stroke-linecap:round;stroke-linejoin:round;"/>
                            <path id="path3667" d="M324.374,101.049C324.374,101.049 340.698,88.581 348.151,79.675C355.603,70.769 365.539,53.313 391.8,53.313C391.8,53.313 358.442,72.906 359.861,88.581C361.281,104.256 419.48,60.794 419.48,60.794C419.48,60.794 434.739,46.9 456.741,49.75C456.741,49.75 419.48,68.631 419.125,80.743C418.77,92.856 460.645,69.7 469.872,62.219C479.098,54.738 494.713,50.819 504.649,56.163C504.649,56.163 474.13,67.919 472.001,80.387C469.872,92.856 501.886,80.95 519.199,72.194C530.821,66.315 541.911,58.656 545.105,53.669C545.105,53.669 544.395,82.525 492.938,96.774C492.938,96.774 471.291,104.612 456.032,97.131C456.032,97.131 453.193,94.637 446.45,96.418C439.708,98.199 422.319,102.118 408.479,94.281C408.479,94.281 402.091,90.718 394.284,94.993C386.477,99.268 364.12,106.393 354.893,106.393L327.213,111.38L324.374,101.049Z" style="fill:white;stroke:black;stroke-width:3.9px;stroke-linecap:round;stroke-linejoin:round;"/>
                            <path id="path6330" d="M506.778,170.161C506.778,170.161 537.652,141.661 538.717,121.355C538.717,121.355 540.136,146.649 535.523,158.048C530.91,169.448 507.133,170.873 506.778,170.161Z" style="fill:white;stroke:black;stroke-width:3.9px;stroke-linecap:round;stroke-linejoin:round;"/>
                            <path id="path5443" d="M343.892,125.63C343.892,125.63 360.571,142.374 384.702,130.261C408.834,118.149 423.383,128.48 423.383,128.48C423.383,128.48 418.77,132.755 408.479,134.18C398.188,135.605 383.993,140.236 381.509,148.074C381.509,148.074 381.154,164.461 422.674,146.292C422.674,146.292 454.612,127.055 470.227,136.674C470.227,136.674 437.933,147.361 429.771,161.611C429.771,161.611 442.547,174.792 466.678,158.048C466.678,158.048 496.132,132.043 514.94,129.905C514.94,129.905 490.638,153.122 488.325,158.761C485.841,164.817 479.098,171.229 496.487,168.736C513.876,166.242 556.815,147.361 566.397,124.561C566.397,124.561 558.945,191.892 470.581,180.492C470.581,180.492 432.255,186.192 416.996,173.011C416.996,173.011 392.51,175.861 368.733,160.542C368.733,160.542 333.956,143.799 332.536,135.249C331.117,126.699 334.665,125.986 334.665,125.986L343.892,125.63Z" style="fill:white;stroke:black;stroke-width:3.9px;stroke-linecap:round;stroke-linejoin:round;"/>
                            <path id="path2855" d="M373.401,317.544C373.401,317.544 403.102,332.169 435.868,327.164C468.52,322.176 537.475,324.406 557.961,389.515C560.918,398.914 563.992,404.541 574.997,417.306C574.997,417.306 554.657,423.988 546.616,406.281C546.616,406.281 534.069,475.141 563.451,504.957C563.451,504.957 569.519,510.727 570.796,520.345C572.074,529.963 576.491,529.438 579.419,531.887C585.542,537.009 589.562,543.394 584.21,556.894C584.21,556.894 574.948,598.892 583.571,639.608C583.571,639.608 587.723,649.226 580.058,650.829C576.865,651.042 572.079,659.446 578.78,663.653C578.78,663.653 584.529,668.142 579.1,676.798C579.1,676.798 575.906,685.133 568.561,693.469C568.561,693.469 564.09,700.202 560.257,693.79C560.257,693.79 551.634,703.087 549.399,690.584C549.399,690.584 545.247,672.951 553.87,658.524C553.87,658.524 558.66,653.715 555.786,646.982C555.786,646.982 552.912,641.852 556.744,634.158C560.577,626.464 564.09,587.671 564.09,587.671C564.09,587.671 567.283,555.932 542.053,533.49C542.053,533.49 530.237,585.427 534.069,625.181C534.069,625.181 536.624,636.402 529.918,642.494C523.211,648.585 530.237,651.15 530.237,651.15C530.237,651.15 535.027,654.356 529.598,663.333C524.169,672.309 517.143,678.401 517.143,678.401C517.143,678.401 507.243,688.019 505.965,678.08C505.965,678.08 497.981,685.133 497.662,674.554C497.342,663.974 501.175,645.7 507.243,641.211C507.243,641.211 512.798,638.536 510.436,632.235C508.256,626.417 512.113,621.772 512.672,619.09C517.254,597.105 520.975,585.427 515.866,548.879C515.866,548.879 512.991,537.337 503.73,530.284C494.468,523.231 442.412,488.606 435.386,464.24C435.386,464.24 311.153,489.888 242.17,425.127C242.17,425.127 235.463,431.539 232.589,432.822C229.715,434.104 223.647,437.631 220.134,433.463C220.134,433.463 216.621,431.539 214.385,432.501C214.385,432.501 177.658,434.745 126.56,395.953C126.56,395.953 119.534,393.067 117.937,399.159C116.34,405.25 103.566,456.867 108.676,468.088C108.676,468.088 114.424,481.232 105.801,479.629C105.801,479.629 96.859,480.591 104.205,491.812C104.205,491.812 111.55,494.377 110.592,514.254C110.592,514.254 107.079,529.001 101.33,523.872C101.33,523.872 99.733,536.696 93.666,527.078C93.666,527.078 71.31,499.186 82.807,481.873C82.807,481.873 86.959,477.706 85.043,466.164C83.126,454.622 83.126,452.699 85.681,446.928C85.681,446.928 99.414,403.006 99.733,388.899C99.733,388.899 74.956,405.543 70.991,414.547C69.073,418.901 70.033,422.883 70.033,422.883C70.033,422.883 70.671,433.783 63.326,433.783C55.981,433.783 58.855,441.798 58.855,441.798C58.855,441.798 65.733,455.614 53.511,471.369C53.511,471.369 49.622,477.365 44.622,473.739C44.622,473.739 36.01,483.639 34.622,472.485C33.233,461.33 32.677,453.243 33.788,445.296C33.788,445.296 34.066,437.209 41.288,430.098C48.511,422.988 46.288,417.132 46.288,417.132C46.288,417.132 44.761,411.554 52.539,405.001C52.539,405.001 97.4,367.356 105.178,353.134C112.956,338.912 124.137,341.075 125.456,341.143C129.458,341.35 134.623,346.72 138.234,346.72C138.234,346.72 161.568,352.019 181.291,363.173L184.902,365.961C184.902,365.961 173.513,329.152 204.624,302.382C204.624,302.382 197.957,283.141 224.347,251.073L232.68,213.985L244.903,214.542C242.16,213.441 280.594,170.761 273.236,162.675C273.236,162.675 258.514,164.07 228.513,158.771L223.513,157.377C217.589,161.435 197.592,166.682 199.346,153.752C199.346,153.752 190.457,154.588 191.013,143.992C191.568,133.395 191.568,132.28 197.68,130.607C197.68,130.607 211.011,125.605 214.116,126.272C214.116,126.272 246.915,106.381 253.812,104.455C260.988,102.451 263.345,100.786 268.892,96.637C273.949,92.083 292.804,93.065 294.686,96.081C296.396,98.823 303.932,95.773 304.819,94.437C305.706,93.101 315.464,89.984 321.452,96.663C321.452,96.663 328.105,101.784 329.213,107.349C329.213,107.349 352.277,100.448 369.132,109.13C369.132,109.13 356.269,112.247 349.616,120.484C342.963,128.721 340.745,132.283 332.318,135.4C332.318,135.4 338.306,142.969 334.979,147.422C334.979,147.422 360.261,185.491 334.536,242.038L339.415,266.972L331.875,277.658L329.657,293.687L373.401,317.544Z" style="fill:white;stroke:black;stroke-width:3.9px;stroke-linecap:round;stroke-linejoin:round;"/>
                            <path id="path1882" d="M215.738,187.766L219.451,249.743C219.451,249.743 251.891,252.349 276.869,261.565C276.878,261.568 276.89,261.562 276.899,261.565C301.961,270.545 328.14,289.239 328.14,289.239L373.478,241.189C373.067,240.437 359.735,233.393 349.832,246.829C349.832,246.829 339.986,229.289 326.634,248.513C336.442,249.497 337.082,256.204 332.19,262.379C329.789,265.41 324.136,267.173 320.35,265.622C313.525,262.826 313.533,251.337 313.533,251.337C313.533,251.337 295.488,260.751 292.752,246.904C289.904,232.491 307.689,231.822 308.331,239.266C308.331,239.266 321.272,229.082 301.789,221.03C301.789,221.03 304.696,209.386 298.412,200.748C288.075,203.342 283.198,214.28 283.198,214.28C263.098,207.938 266.553,224.085 266.553,224.085C271.812,218.794 285.793,231.797 273.43,240.213C270.28,242.358 267.533,242.591 265.203,241.794C258.922,239.646 255.63,230.133 255.63,230.133C255.63,230.133 250.297,238.527 242.319,237.271C235.291,236.164 232.635,229.509 233.813,225.826C237.208,215.206 247.018,221.214 247.018,221.214C249.028,197.865 229.796,206.491 229.796,206.491C228.648,190.637 215.738,187.766 215.738,187.766L215.738,187.766Z" style="fill:rgb(252,195,0);stroke:black;stroke-width:3.9px;stroke-linejoin:round;"/>
                            <path id="path10757" d="M542.056,533.558C542.681,532.556 452.134,490.834 434.657,432.224C434.657,432.224 430.387,417.045 421.519,413.257" style="fill:none;stroke:black;stroke-width:3.9px;stroke-linecap:round;stroke-linejoin:round;"/>
                            <path id="path11644" d="M435.059,464.277C435.059,464.277 443.029,462.504 446.803,457.579" style="fill:none;stroke:black;stroke-width:3.9px;stroke-linecap:round;stroke-linejoin:round;"/>
                            <path id="path13416" d="M242.341,425.606C242.341,425.606 239.85,397.926 256.128,387.754" style="fill:none;stroke:black;stroke-width:3.9px;stroke-linecap:round;stroke-linejoin:round;"/>
                            <path id="path14303" d="M99.482,390.653L101.465,378.98C101.465,378.98 101.482,374.081 105.469,371.413C109.455,368.745 117.761,363.742 122.91,366.41C128.059,369.078 129.056,367.411 130.551,367.411C132.046,367.411 157.881,364.607 194.424,389.786C194.424,389.786 195.739,382.013 207.182,376.652C207.182,376.652 193.705,338.106 208.708,328.916" style="fill:none;stroke:black;stroke-width:3.9px;stroke-linecap:round;stroke-linejoin:round;"/>
                            <path id="path15190" d="M184.805,365.675C184.805,365.675 191.162,385.076 194.722,389.416" style="fill:none;stroke:black;stroke-width:3.9px;"/>
                            <path id="path16077" d="M330.737,294.275C330.808,293.849 310.193,284.86 292.368,298.794" style="fill:white;stroke:black;stroke-width:3.9px;stroke-linecap:round;stroke-linejoin:round;"/>
                            <path id="path16964" d="M323.147,160.088C323.147,160.088 337.613,182.779 327.064,212.428" style="fill:white;stroke:black;stroke-width:3.9px;stroke-linecap:round;stroke-linejoin:round;"/>
                            <path id="path17851" d="M334.298,134.674C334.298,134.674 320.735,135.279 314.407,134.674" style="fill:white;stroke:black;stroke-width:3.9px;stroke-linecap:round;stroke-linejoin:round;"/>
                            <path id="path18738" d="M346.489,115.245C346.489,115.245 335.42,116.431 328.188,123.69C328.188,123.69 324.351,127.246 322.432,123.987C320.513,120.727 325.827,117.764 325.827,117.764C325.827,117.764 337.339,113.023 346.489,115.245Z" style="fill:white;stroke:black;stroke-width:3.9px;"/>
                            <path id="path18740" d="M309.149,113.467C309.149,113.467 315.264,118.209 329.369,107.245" style="fill:white;stroke:black;stroke-width:3.9px;stroke-linecap:round;stroke-linejoin:round;"/>
                            <path id="path19627" d="M302.484,142.012C302.484,142.012 304.682,159.714 273.471,162.695" style="fill:white;stroke:black;stroke-width:3.9px;stroke-linecap:round;stroke-linejoin:round;"/>
                            <path id="path19629" d="M213.846,149.721C213.846,149.721 210.056,152.658 199.02,153.81" style="fill:none;stroke:black;stroke-width:3.9px;stroke-linecap:round;stroke-linejoin:round;"/>
                            <path id="path19631" d="M230.896,152.857C230.896,152.857 227.888,155.141 223.62,157.338" style="fill:none;stroke:black;stroke-width:3.9px;stroke-linecap:round;stroke-linejoin:round;"/>
                            <path id="path19633" d="M198.926,140.281C201.275,137.698 205.893,133.291 210.408,133.754C216.786,134.407 215.614,138.719 215.614,138.719C215.614,138.719 215.749,142.34 209.371,140.381C205.975,139.338 203.782,140.08 199.679,141.184C197.489,141.773 198.926,140.281 198.926,140.281Z" style="stroke:black;stroke-width:1.95px;"/>
                            <g id="path19635" transform="matrix(0.492314,0.870418,-0.868781,0.495196,0,0)">
                                <ellipse cx="234.56" cy="-183.878" rx="5.476" ry="4.161" style="stroke:black;stroke-width:3.9px;stroke-linecap:round;stroke-linejoin:round;"/>
                            </g>
                            <path id="path20522" d="M262.292,115.451C262.292,115.451 269.578,99.604 288.108,113.965" style="fill:none;stroke:black;stroke-width:4.49px;stroke-linecap:round;stroke-linejoin:round;"/>
                            <path id="path26721" d="M547.441,408.121C547.441,408.121 541.976,395.365 532.237,385.94" style="fill:none;stroke:black;stroke-width:3.9px;stroke-linecap:round;stroke-linejoin:round;"/>
                            <path id="path26723" d="M204.327,302.637C207.733,299.173 211.771,295.948 216.111,292.483" style="fill:none;stroke:black;stroke-width:3.9px;stroke-linecap:round;stroke-linejoin:round;"/>
                            <path id="path27610" d="M44.695,447.96C44.695,447.96 41.386,457.509 43.868,472.87" style="fill:none;stroke:black;stroke-width:3.9px;stroke-linecap:round;stroke-linejoin:round;"/>
                            <path id="path28497" d="M93.006,507.493C93.006,507.493 95.488,514.135 101.691,524.099" style="fill:none;stroke:black;stroke-width:3.9px;stroke-linecap:round;stroke-linejoin:round;"/>
                            <path id="path28499" d="M510.709,663.289C510.709,663.289 506.573,669.102 506.16,680.311" style="fill:none;stroke:black;stroke-width:3.9px;stroke-linecap:round;stroke-linejoin:round;"/>
                            <path id="path28501" d="M560.587,673.417C559.901,673.279 557.324,682.477 559.346,694.175" style="fill:none;stroke:black;stroke-width:3.9px;stroke-linecap:round;stroke-linejoin:round;"/>
                            <path id="path2135" d="M268.609,96.839C264.709,99.427 262.061,105.946 269.224,108.843" style="fill:none;fill-rule:nonzero;stroke:black;stroke-width:3.9px;stroke-linecap:round;"/>
                            <path id="path4829" d="M262.292,115.451C262.292,115.451 263.253,109.41 269.281,108.843" style="fill:none;stroke:black;stroke-width:4.49px;stroke-linecap:round;stroke-linejoin:round;"/>
                        </g>
                    </g>
                </g>
            </g>
        </g>
    </g>
</svg>
