<?xml version="1.0" encoding="UTF-8" standalone="no"?>
<!DOCTYPE svg PUBLIC "-//W3C//DTD SVG 1.1//EN" "http://www.w3.org/Graphics/SVG/1.1/DTD/svg11.dtd">
<svg width="100%" height="100%" viewBox="0 0 150 151" version="1.1" xmlns="http://www.w3.org/2000/svg" xmlns:xlink="http://www.w3.org/1999/xlink" xml:space="preserve" xmlns:serif="http://www.serif.com/" style="fill-rule:evenodd;clip-rule:evenodd;stroke-linejoin:round;stroke-miterlimit:2;">
    <g transform="matrix(1,0,0,1,0,-1322)">
        <g id="lubuskie" transform="matrix(0.138889,0,0,0.138889,0,1322.8)">
            <rect x="0" y="0" width="1080" height="1080" style="fill:none;"/>
            <g id="lubuskie.svg" transform="matrix(1.71429,0,0,1.71429,540,540)">
                <g transform="matrix(1,0,0,1,-273.175,-315)">
                    <path d="M0,0L546.344,0L546.344,363.823C543.1,515.997 423.208,632.536 272.282,629.958C121.611,631.933 2.219,513.016 0,363.826L0,0Z" style="fill-rule:nonzero;"/>
                    <path d="M274.343,4.851L542.156,4.851L542.156,363.071C538.976,512.216 421.987,626.577 274.343,625.115L274.343,4.851Z" style="fill:rgb(0,146,63);fill-rule:nonzero;"/>
                    <path d="M192.277,105.375C191.827,99.18 190.036,92.535 193.941,87.044C196.123,83.993 199.451,83.77 205.631,85.065C212.341,86.471 218.555,91.064 222.105,92.943C224.565,102.423 229.119,106.889 238,109.836C241.743,114.144 245.709,117.822 248.406,122.914C251.792,129.285 249.183,133.497 245.074,133.27C229.122,132.386 221.387,118.571 207.076,119.536C210.046,116.269 213.29,114.855 223.151,120.27C230.806,126.057 240.375,127.079 239.114,122.553C237.519,116.815 227.055,109.302 218.013,107.999C214.151,105.521 210.588,102.608 206.699,100.164C201.53,96.901 197.626,95.602 192.277,105.375Z" style="fill:rgb(255,245,0);fill-rule:nonzero;"/>
                    <g transform="matrix(1.48665,0,0,1.48665,0,-71.3874)">
                        <path d="M329.882,121.963L299.066,153.621L331.326,185.883L287.39,174.207L275.714,217.541L264.037,174.207L220.103,185.883L251.881,153.621L219.139,121.004L264.521,133.158L275.714,89.224L287.39,133.158L329.882,121.963Z" style="fill:rgb(255,245,0);fill-rule:nonzero;"/>
                    </g>
                    <g transform="matrix(1.48665,0,0,1.48665,0,-71.3874)">
                        <path d="M329.882,284.081L299.066,315.739L331.326,347.998L287.39,336.322L275.714,379.657L264.037,336.322L220.103,347.998L251.881,315.739L219.139,283.122L264.521,295.279L275.714,251.34L287.39,295.279L329.882,284.081Z" style="fill:rgb(255,245,0);fill-rule:nonzero;"/>
                    </g>
                    <path d="M99.359,186.579C111.345,202.616 129.249,216.888 147.534,228.187C166.767,240.077 197.307,250.057 217.125,254.099C216.583,252.224 216.106,250.341 215.761,248.477C186.074,242.84 153.967,228.486 129.741,209.921C116.075,199.449 105.377,187.855 96.623,173.064C91.559,164.52 89.572,155.158 92.137,145.707C93.712,139.894 97.417,132.385 102.468,128.916C108.151,124.927 117.582,126.192 115.449,129.523C113.754,130.638 112.401,132.636 112.275,134.588C112.094,137.351 114.853,139.323 118.331,139.515C121.809,139.715 124.634,137.709 124.972,134.638C125.206,132.49 124.234,130.173 123.976,129.873C130.252,131.61 137.965,133.309 138.203,124.989C138.318,121.419 135.24,118.452 131.32,118.294C127.323,118.037 125.736,120.197 124.53,120.965C125.291,119.847 125.729,117.315 125.729,115.862C125.729,112.008 122.574,108.86 118.708,108.86C114.838,108.86 111.683,112.008 111.683,115.862C111.683,118.46 113.109,120.731 115.215,121.941C115.587,122.921 116.029,124.774 114.242,124.532C103.386,122.569 97.201,128.526 94.3,132.913C89.426,140.284 87.87,151.827 88.429,159.944C88.937,168.556 94.405,179.939 99.359,186.579Z" style="fill:rgb(255,245,0);fill-rule:nonzero;"/>
                    <path d="M128.027,469.483C125.556,463.449 132.496,456.947 136.005,457.443C137.142,459.042 136.919,461.578 136.07,464.541C131.793,464.783 130.709,466.274 128.027,469.483L128.027,469.483ZM132.358,499.331C129.637,495.941 128.319,490.015 133.272,486.153C134.518,485.185 136.078,484.785 137.899,485.008C139.667,485.258 140.52,486.941 140.393,489.754C134.575,489.816 132.085,495.253 132.358,499.331ZM159.097,498.531C153.882,500.449 153.06,511.697 159.051,513.503C160.142,504.019 162.244,503.581 165.514,503.877C167.932,499.484 164.496,496.544 159.097,498.531L159.097,498.531ZM223.166,463.834C223.274,462.285 221.533,460.602 221.056,460.586C222.928,453.765 219.335,452.516 223.743,453.162C226.037,453.35 227.866,461.97 223.166,463.834ZM211.998,402.485C211.115,401.525 210.258,401.69 207.414,402.758C206.526,400.821 205.742,397.789 205.32,395.91C204.482,395.311 203.571,397.159 202.929,398.581C200.135,404.749 198.037,411.458 195.205,418.383C192.999,423.787 185.244,442.713 181.536,449.745C178.642,455.249 174.726,459.699 168.089,460.214C163.19,460.613 160.684,460.294 157.252,458.365C153.778,456.405 154.286,457.266 151.123,456.682C151.027,454.192 148.859,454.199 147.918,453.742C146.308,452.958 138.852,455.375 137.892,455.983C139.679,459.714 136.581,464.03 137.792,466.362C139.398,468.695 141.358,469.337 144.329,469.387C147.495,469.429 147.895,468.591 148.179,465.221C148.871,464.852 149.186,465.505 149.847,466.228C150.008,465.671 150.17,465.098 150.396,464.602C150.658,464.579 150.938,464.541 151.219,464.51C151.676,464.979 151.761,466.189 151.914,467.369C154.72,467.407 160.665,469.321 169.185,463.983C169.523,464.318 169.857,464.641 170.203,464.971C165.468,468.318 162.782,471.988 153.986,474.052C152.583,474.378 152.333,474.206 152.045,475.62C146.992,474.786 139.617,475.873 140.155,482.422C144.405,483.821 144.409,491.38 141.723,494.193C149.939,496.671 155.481,491.752 153.409,484.032C153.744,483.986 154.078,483.986 154.416,484.001C154.977,487.214 161.199,481.692 165.046,478.049C167.467,475.751 173.881,471.896 174.534,469.659C176.84,469.494 176.451,471.151 175.652,472.842C173.562,477.296 169.469,479.909 166.675,483.867C167.463,483.805 168.773,482.987 169.749,483.287C169.715,483.632 169.707,483.963 169.749,484.339C168.493,484.939 162.917,486.964 159.796,491.868C157.952,496.095 157.579,496.748 159.085,496.706C161.014,496.671 164.592,496.199 166.779,497.167C169.972,498.585 170.107,500.491 169.707,502.174C174.48,503.005 181.163,490.742 178.269,487.725C178.607,483.502 181.324,479.916 183.28,476.246C187.435,468.426 192.653,469.544 199.69,465.425C201.799,464.195 203.794,462.961 206.003,462.308C202.157,465.321 202.891,466.289 203.955,466.793C209.17,469.294 214.543,466.85 217.44,461.97C218.067,460.905 218.908,459.971 219.3,458.592C220.372,449.484 212.391,449.565 209.612,451.398C205.392,454.192 206.069,458.661 198.752,457.178C194.325,456.321 194.194,452.382 194.725,448.666C196.78,434.405 206.43,413.753 211.998,402.485L211.998,402.485Z" style="fill:rgb(255,245,0);fill-rule:nonzero;"/>
                    <path d="M85.566,204.61C88.253,201.009 95.4,201.855 98.552,191.294C96.499,188.17 95.058,186.621 94.232,184.742C92.334,187.544 92.119,190.176 91.415,192.67C90.797,193.431 90.109,193.788 90.036,191.64C89.924,188.412 90.193,186.345 91.181,182.997C91.596,181.587 91.692,180.327 90.566,178.39C90.074,177.537 89.744,176.795 89.255,175.95C88.918,178.839 87.795,187.059 85.351,193.227C83.603,197.639 83.96,200.133 85.566,204.61ZM101.28,215.309C106.176,213.806 109.427,211.32 112.621,206.908C112.444,204.918 109.477,202.877 108.04,201.101C106.864,202.389 106.333,204.61 105.576,207.027C104.766,208.772 103.252,208.307 103.67,205.89C104.212,202.823 104.704,199.756 103.824,196.693C103.063,195.506 102.26,194.453 101.357,193.685C97.383,197.893 98.225,211.281 101.28,215.309L101.28,215.309ZM116.932,228.179C122.274,224.428 125.786,221.995 127.32,219.14C126.832,217.365 124.076,216.277 122.635,214.494C121.444,215.747 120.783,217.511 120.018,219.889C119.557,220.996 117.939,221.623 118.32,219.021C118.585,216.116 119.227,215.04 119.004,212.096C118.904,210.801 115.199,208.399 114.377,207.396C107.098,215.466 115.606,227.406 116.932,228.179ZM130.017,238.397C134.698,237.04 139.571,234.427 142.042,228.989C141.462,226.903 139.529,226.876 137.88,226.349C136.324,226.668 135.874,229.316 134.948,231.268C133.853,232.337 132.881,233.317 133.2,230.711C133.626,227.648 134.372,226.542 133.299,223.475C132.477,222.468 130.39,219.563 129.356,219.509C122.831,226.503 128.108,237.221 130.017,238.397L130.017,238.397ZM146.365,246.463C151.081,244.104 154.516,240.976 157.126,237.213C157.106,235.964 153.878,234.081 152.491,234.201C151.453,235.822 151.077,236.948 150.189,239.016C149.009,240.557 148.006,241.252 148.229,238.566C148.279,235.499 148.437,235.181 148.49,232.114C147.657,231.072 145.205,229.424 144.863,229.689C141.469,232.244 142.826,243.231 146.365,246.463ZM129.195,268.053C124.787,259.064 127.335,251.809 131.251,243.804C133.023,240.18 136.235,237.79 138.103,237.598C137.75,241.252 134.372,248.604 135.82,251.966C137.15,249.257 139.682,246.605 140.497,241.356C141.531,241.786 143.225,245.529 143.833,246.844C144.344,247.931 144.186,249.142 143.771,250.418C140.785,259.568 136.178,263.038 129.195,268.053L129.195,268.053ZM113.343,262.465C111.291,254.929 112.14,245.418 113.996,237.84C115.114,232.267 119.077,229.935 122.324,229.393C121.548,232.756 119.134,238.812 120.533,242.021C122.182,241.072 123.777,234.45 124.845,232.413C125.959,234.558 126.278,236.771 128.446,239.119C129.495,240.257 129.034,242.205 128.319,244.207C125.16,253.035 120.579,257.4 113.343,262.465L113.343,262.465ZM94.182,252.074C94.697,249.614 94.594,245.725 93.264,239.215C98.248,233.182 99.639,228.601 100.319,223.11C100.884,218.548 106.372,216.335 108.136,215.728C107.36,219.09 104.723,226.634 106.122,229.846C107.771,228.893 108.843,223.248 109.911,221.208C110.749,222.956 110.887,225.2 113.877,228.279C114.557,228.978 114.381,229.758 113.916,230.869C110.688,238.589 103.678,248.177 94.182,252.074ZM84.825,239.592C80.428,229.727 82.116,219.728 84.844,209.875C86.066,205.478 89.663,204.741 92.53,204.71C92.207,207.581 90.097,218.037 90.424,221.181C92.607,218.779 94.544,210.77 95.527,208.653C97.08,210.832 99.32,217.934 98.39,223.187C97.153,230.181 91.108,236.618 84.825,239.592ZM67.251,230.988C70.141,223.01 71.551,216.415 73.1,209.183C75.175,207.65 76.562,206.059 78.488,204.076C78.165,206.943 76.689,212.327 77.016,215.474C79.199,213.072 80.774,205.517 81.754,203.399C83.683,205.075 82.788,212.884 80.578,218.806C77.435,227.21 73.319,231.38 67.251,230.988ZM64.546,214.16C65.983,213.537 67.589,212.861 69.026,212.234C67.743,222.983 64.826,232.513 63.546,233.862C68.592,234.685 73.342,233.098 77.646,229.612C74.437,247.189 69.599,262.477 63.958,278.563C62.036,285.665 56.595,296.072 57.92,296.46C61.098,297.39 70.079,271.381 71.82,265.778C74.914,255.844 79.187,245.429 81.47,235.422C82.15,238.324 83.518,241.54 84.698,242.816C86.931,241.81 87.161,242.071 89.359,240.568C92.495,243.685 90.078,253.231 89.213,256.816C86.504,267.976 81.374,281.372 77.807,289.596C74.287,299.945 66.509,315.14 57.878,322.534C45.335,333.263 25.601,334.831 12.547,327.526C20.663,322.803 27.192,316.558 32.642,308.965C37.126,302.67 41.173,296.06 44.098,288.935C50.2,274.021 54.239,257.124 58.358,241.552C60.772,232.433 62.463,222.484 64.546,214.16ZM96.738,358.023C96.254,357.547 109.977,298.173 110.811,294.338C112.982,283.647 116.548,269.09 118.685,262.78C116.717,263.572 114.55,264.932 112.801,265.267C107.229,254.679 110.073,247.808 109.696,243.462C107.094,247.224 100.369,252.604 98.775,253.722C91.423,280.738 89.502,311.512 82.627,339.596C79.698,351.559 77.204,363.426 71.759,373.253C66.083,383.51 55.768,391.022 44.055,392.905C48.013,397.121 58.32,403.858 69.541,404.319C83.207,404.058 98.456,395.284 104.185,382.337C115.568,356.678 119.834,326.892 126.801,299.695C129.491,289.204 132.058,278.967 134.729,268.606C132.773,269.402 131.036,270.762 129.072,271.189C124.645,267.434 124.78,259.237 124.76,258.23C117.532,277.076 114.546,297.155 109.873,316.712C106.676,330.093 103.559,346.225 96.738,358.023ZM185.336,292.413C186.558,291.118 191.961,286.722 193.041,284.862C193.191,288.943 192.626,293.808 192.388,298.346C192.507,303.965 192.238,309.844 192.357,315.459C191.427,318.122 192.111,322.069 193.007,322.626C195.904,313.449 196.327,296.114 197.603,287.006C199.206,289.65 201.104,293.135 202.883,293.693C203.348,308.227 203.237,323.429 198.837,337.46C195.528,347.993 189.61,355.352 187.062,359.53C181.666,344.973 179.683,314.906 182.389,290.265C183.3,291.195 184.299,291.863 185.336,292.413L185.336,292.413ZM145.024,276.672C143.648,274.301 142.653,270.585 142.665,264.817C142.665,261.831 142.83,260.125 143.929,257.4C144.817,255.21 145.962,252.627 146.538,251.478C148.075,248.408 150.235,246.313 151.918,246.14C151.561,249.791 148.56,258.93 150.005,262.292C151.084,259.506 152.702,254.668 155.204,249.976C155.477,250.99 157.31,253.938 157.975,255.671C158.874,257.996 158.493,259.725 157.552,261.631C154.639,267.515 150.393,272.53 145.024,276.672ZM141.765,271.557C142.031,275.089 143.245,277.41 144.72,278.894C147.603,277.898 151.019,274.594 154.474,271.296C155.757,275.796 157.525,281.357 159.396,283.743C156.545,313.684 152.948,344.235 146.55,374.163C142.807,391.687 135.643,418.887 135.086,418.28C144.39,399.746 149.432,372.965 153.114,352.547C157.168,330.039 159.07,306.82 164.558,284.693C167.617,282.844 172.044,278.163 174.868,275.616C176.532,282.902 177.066,288.29 176.271,295.403C173.519,320.048 168.869,343.005 164.469,367.319C159.231,396.314 149.747,437.948 122.97,453.431C107.817,461.26 89.283,463.926 74.172,453.858C106.495,446.222 115.038,423.061 120.184,397.14C125.89,374.974 129.395,349.342 133.099,322.484C135.601,304.341 139.452,276.519 141.765,271.557ZM161.51,255.828C164.831,253.55 171.448,248.665 171.902,244.307C172.186,242.866 170.952,242.474 169.757,242.029C168.823,241.679 167.959,241.126 167.582,241.091C167.129,242.009 166.21,246.771 164.596,248.331C163.389,249.745 163.07,249.242 162.479,247.09C162.459,243.604 164.8,242.858 163.897,239.846C163.074,238.843 161.114,238.17 159.85,238.474C154.954,242.378 157.982,251.747 161.51,255.828ZM161.437,283.355C161.472,278.678 158.201,276.254 159.308,266.523C159.631,263.868 160.657,260.986 161.729,258.591C162.859,256.132 166.813,254.752 169.3,252.904C168.946,256.555 164.973,267.484 166.417,270.847C168.769,268.852 170.287,258.488 173.035,253.98C173.938,257.346 174.395,258.503 175.698,261.324C176.532,263.099 175.752,266.892 173.592,270.985C169.227,277.798 166.583,279.305 161.437,283.355ZM179.457,262.473C186.082,259.61 190.109,255.759 190.847,250.744C189.986,249.603 187.519,248.319 185.947,248.681C185.206,248.857 185.309,250.648 183.226,254.134C182.396,255.786 181.075,256.044 180.952,252.889C181.159,249.142 181.159,251.459 181.209,248.396C180.544,247.071 177.827,245.437 176.636,244.638C175.026,243.846 174.764,245.453 174.434,246.878C173.654,251.82 176.394,258.711 179.457,262.473ZM185.106,289.669C183.388,287.183 179.779,282.79 178.25,277.952C177.166,274.524 177.305,269.044 178.807,265.855C179.192,262.93 184.625,262.342 187.231,259.664C186.677,263.411 183.972,273.302 185.617,276.561C188.73,275.22 188.922,265.413 191.039,260.367C192.257,264.894 194.348,265.662 195.474,267.949C197.414,269.467 196.139,273.475 194.133,278.337C192.138,282.487 191.181,284.577 185.106,289.669ZM197.507,266.585C203.433,265.413 206.845,262.308 208.897,256.966C209.089,254.875 205.65,254.887 204.105,254.276C202.487,255.144 202.941,256.059 202.33,258.507C202.13,259.364 200.831,259.264 200.262,257.9C200.316,254.833 199.839,254.46 199.102,253.769C198.279,252.766 194.125,250.748 193.053,251.282C192.588,251.513 192.569,252.151 192.557,252.904C192.423,260.202 193.729,261.658 197.507,266.585ZM204.255,291.141C200.789,288.816 196.231,276.496 198.894,269.955C199.128,267.403 203.671,267.33 206.649,264.802C206.226,268.549 204.478,277.168 205.854,280.431C208.401,279.24 207.229,270.178 209.489,265.132C210.473,268.81 212.686,270.059 214.077,271.623C215.353,273.052 216.291,273.529 215.964,275.777C215.096,281.668 209.428,288.632 204.255,291.141ZM218.189,271.592C221.879,270.309 223.039,268.929 225.314,265.828C224.031,263.783 222.643,261.954 220.941,261.02C220.019,262.984 220.83,262.83 219.903,264.782C219.454,265.562 218.889,266.174 218.155,264.275C218.574,262.319 218.731,260.947 218.309,257.623C218.232,256.021 212.367,255.579 211.526,256.297C210.146,265.221 212.045,267.649 218.189,271.592L218.189,271.592ZM226.563,294.554C221.379,290.568 217.202,282.594 218.701,275.885C219.711,271.677 222.858,273.979 225.483,269.317C225.061,273.072 224.953,282.21 226.552,284.424C228.581,283.382 225.695,274.547 227.95,269.498C228.116,272.876 231.593,279.09 234.503,282.16C232.766,287.463 228.12,293.258 226.563,294.554ZM205.838,293.504C205.838,298.231 204.874,302.124 206.249,306.689C207.387,310.429 209.42,313.345 211.049,316.116C214.258,313.042 216.618,309.364 217.778,305.994C219.035,302.389 218.697,296.583 219.296,292.044C217.936,290.957 217.106,287.878 216.041,285.323C214.27,291.022 212.959,296.406 212.46,301.39C210.738,298.335 212.168,290.376 212.736,287.087C210.108,288.643 208.136,291.345 205.838,293.504ZM97.257,139.549C96.899,135.883 100.531,131.806 103.455,130.015C106.775,127.971 112.344,127.118 112.87,128.993C109.784,131.36 109.131,134.119 109.661,136.609C111.218,143.88 123.892,144.956 126.993,138.704C127.642,137.39 128.292,135.261 127.189,133.401C135.701,136.917 140.954,131.418 141.143,125.6C141.327,119.824 136.397,113.629 128.3,115.842C128.388,107.622 120.502,104.467 114.507,107.396C108.847,110.159 107.283,117.034 110.73,122.122C98.34,121.953 91.684,129.312 89.705,140.353C89.674,137.366 89.548,129.565 89.809,126.445C90.282,120.777 91.7,116.05 94.209,111.976C101.103,100.774 116.898,97.619 128.4,102.961C136.796,106.865 142.976,114.924 143.302,125.154C143.725,137.943 132.842,151.755 116.29,151.512C110.269,151.466 98.16,148.653 97.257,139.549L97.257,139.549ZM212.106,239.892C205.88,244.1 196.039,236.329 194.836,231.841C193.725,229.166 193.537,230.065 192.73,230.699C183.987,237.671 169.73,229.216 168.808,218.537C159.093,224.927 146.077,216.78 145.162,205.498C145.032,204.076 144.209,204.848 142.664,205.306C133.438,208.042 124.172,198.473 125.298,189.711C125.729,186.852 125.286,187.667 123.481,187.805C107.01,189.096 104.324,172.948 106.837,165.105C98.256,165.066 96.246,160.14 94.247,153.222C93.571,150.928 92.929,150.986 92.618,152.508C92.514,154.571 92.81,157.108 93.464,159.667C95.158,166.35 98.901,173.306 102.925,179.101C118.485,201.647 142.173,218.579 166.833,230.043C181.882,237.033 197.384,241.775 213.828,245.864C213.117,243.869 212.521,241.871 212.106,239.892ZM97.848,145.786C96.48,141.955 94.347,145.494 94.397,146.851C94.981,155.928 101.503,161.688 108.34,161.823C110.192,161.27 112.82,163.426 111.456,165.685C106.641,171.469 110.357,186.575 125.352,183.113C127.323,183.228 129.637,180.334 129.51,185.065C125.279,195.733 137.035,206.128 144.524,200.425C146.899,198.846 148.244,200.325 148.809,202.032C149.812,213.31 156.737,218.091 166.879,215.155C169.177,213.299 171.613,212.646 172.439,216.093C172.697,225.846 181.259,232.779 191.942,226.392C193.76,225.181 196.073,223.141 196.923,227.229C199.328,237.325 210.127,240.391 211.687,235.131C209.186,227.733 207.552,216.754 207.548,212.553C189.771,209.783 154.597,191.118 141.481,165.151C156.633,155.478 165.046,144.853 163.943,126.307C161.357,111.734 151.999,98.226 135.294,91.832C126.175,88.343 115.864,89.226 106.691,92.201C88.944,97.973 78.426,112.322 74.764,132.336C72.397,145.318 71.255,160.797 67.386,173.048C62.732,187.782 54.738,202.819 38.548,214.751C42.806,214.748 69.061,216.604 80.505,198.142C87.668,186.575 87.384,149.295 86.204,133.551C84.763,121.826 89.582,107.703 99.939,101.416C118.508,90.226 145.846,102.285 146.042,124.339C147.526,139.146 134.698,156.001 116.129,154.671C111.056,154.41 99.774,151.167 97.848,145.786ZM235.31,94.111C235.533,93.565 235.494,92.624 235.759,92.089C236.009,91.586 237.273,90.529 236.812,89.895C236.351,89.269 234.779,89.403 234.483,90.126C234.015,91.263 235.06,92.912 235.31,94.111ZM231.667,87.689C231.862,86.479 232.981,87.432 233.765,88.696C232.885,89.265 232.431,90.963 232.574,92.474C232.777,94.553 234.08,96.105 236.02,96.424C236.947,96.57 239.114,96.566 240.021,95.429C240.605,94.691 241.662,95.006 242.208,95.429C243.057,96.086 242.477,96.528 240.847,96.893C239.187,98.684 236.808,99.145 234.549,98.215C230.448,96.528 230.602,91.217 231.667,87.689ZM270.107,235.484C265.692,232.61 258.239,230.604 253.909,220.623C253.229,214.713 253.26,209.886 250.37,207.696C251.342,206.116 255.231,203.511 255.258,202.216C253.833,201.613 251.385,205.821 248.721,205.682C241.52,207.88 239.153,212.957 239.041,219.305C234.31,215.697 228.696,208.714 232.024,199.533C232.431,198.407 232.466,197.328 231.186,197.869C228.127,198.899 221.875,197.843 216.176,195.937C212.721,195.122 208.198,194.307 200.362,196.993C202.783,191.144 213.509,187.828 219.408,187.121C228.089,186.068 237.415,183.178 242.415,178.724C251.116,170.927 252.991,161.669 253.248,150.759C255.224,152.846 255.946,157.78 255.877,160.835C257.695,164.817 257.787,159.479 256.719,152.804C254.862,145.633 248.871,138.281 247.918,136.26C246.919,134.146 252.941,133.151 254.052,130.887C255.412,129.158 255.185,128.309 253.614,122.302C250.77,115.358 245.801,111.139 240.394,105.174C235.544,105.497 229.465,100.813 227.535,95.425C226.106,90.944 226.187,85.241 229.722,86.363C228.519,90.152 228.07,93.876 230.383,96.958C234.138,101.597 240.966,101.359 244.083,96.374C248.702,95.609 250.301,98.342 251.208,96.151C250.262,95.217 246.078,95.375 242.915,94.403C241.185,93.961 238.707,90.648 238.242,89.146C241.197,89.226 244.006,91.428 247.254,90.383C246.116,89.484 244.967,89.288 243.718,88.931C240.198,87.916 237.323,87.055 233.999,85.622C232.131,84.815 230.06,84.488 228.012,84.542C224.834,84.891 223.996,86.59 223.627,89.065C220.899,87.643 217.744,85.921 216.687,84.615C217.475,81.556 219.227,78.866 221.072,79.062C222.017,79.757 220.376,82.37 220.753,83.316C221.083,84.15 222.125,83.988 222.563,83.185C223.205,81.241 224.231,80.718 226.402,79.534C232.846,76.879 240.801,80.465 246.965,82.54C255.092,85.272 261.661,87.888 270.107,87.758L270.107,235.484L270.107,235.484ZM219.619,200.498C221.033,200.11 223.231,200.171 224.884,200.498C225.299,202.193 221.702,205.982 220.557,208.795C220.215,210.19 220.837,211.197 221.448,211.289C223.185,207.608 225.018,205.221 227.558,202.458C227.824,204.399 228.027,206.066 228.562,207.938C229.076,209.679 228.327,211.335 227.336,213.118C222.793,221.834 216.933,218.802 211.995,222.664C210.427,213.737 213.367,206.881 219.619,200.498ZM214.312,223.529C215.815,222.729 217.317,222.337 218.816,222.13C219.116,222.556 218.996,223.406 218.816,224.313C218.32,227.46 218.028,227.986 217.836,231.003C217.721,232.636 218.186,233.593 218.908,234.035C219.4,230.996 219.642,227.856 220.584,224.951C221.214,223.029 222.29,220.239 223.458,220.447C223.258,221.53 224.968,230.358 225.844,231.61C223.765,236.264 222.171,239.903 217.836,243.623C214.639,237.417 213.332,226.518 213.72,224.893C213.87,224.267 213.816,224.032 214.312,223.529ZM229.491,212.915C232.639,216.85 238.142,219.897 238.891,225.2C239.94,228.021 240.663,226.665 241.239,224.274C242.496,214.582 242.796,211.12 249.847,209.925C250.647,214.275 250.712,217 249.163,221.488C246.17,229.831 242.838,234.669 236.989,241.002C228.819,235.1 223.923,222.118 229.491,212.915ZM236.712,253.604C237.004,255.367 238.392,265.378 240.797,264.759C242.596,263.891 239.856,257.131 239.556,255.759C238.949,252.124 239.222,250.675 239.814,250.629C241.773,255.175 245.036,256.739 248.937,259.783C250.47,260.859 251.331,261.178 250.182,265.386C248.114,269.92 244.34,276.73 240.133,281.026C237.054,277.214 231.467,271.738 229.937,267.399C229.276,265.49 229.515,264.675 230.464,263.664C232.681,260.482 234.718,256.524 236.712,253.604ZM220.614,244.569C222.77,242.232 224.957,239.315 226.586,236.057C226.882,237.375 226.332,249.499 228.704,248.7C228.638,245.364 228.769,242.824 229.968,239.753C230.341,238.839 230.894,238.47 231.517,239.169C232.566,240.349 234.995,242.263 235.613,243.131C236.289,244.081 236.086,245.307 235.709,246.732C234.772,250.264 231.236,259.068 227.236,263.714C223.208,258.403 220.434,252.685 220.192,246.567C220.161,245.76 219.992,245.149 220.614,244.569L220.614,244.569ZM251.984,241.906C253.287,236.499 253.102,230.235 253.102,224.739C254.497,227.902 256.211,231.103 260.185,234.516C263.397,236.768 255.523,253.922 252.933,256.313C244.056,253.565 240.54,247.105 239.003,241.894C240.713,240.687 248.053,234.116 249.917,230.127C251.077,234.37 249.586,237.844 251.984,241.906ZM270.107,273.791C264.177,270.626 259.082,260.084 258.075,257.308C257.191,254.868 258.767,252.988 259.82,250.856C261.895,246.644 264.716,238.843 265.05,238.155C265.765,238.543 265.795,240.307 265.961,242.348C266.522,243.635 267.267,244.196 268.197,244.027C268.455,242.678 268.163,241.129 267.594,239.788C267.878,238.658 268.37,238.378 269.204,238.539C269.481,238.487 269.789,238.444 270.107,238.403L270.107,273.791ZM209.032,399.434C207.602,395.976 206.968,392.525 206.776,389.078C208.421,387.364 210.727,386.972 212.041,386.568C212.048,387.11 211.491,390.031 212.59,392.21C213.701,390.565 213.67,389.639 215.984,387.422C216.356,387.402 216.725,387.306 217.09,387.291C217.805,388.747 217.863,389.877 218.505,390.838C218.247,392.064 215.307,395.695 209.032,399.434L209.032,399.434ZM192.273,399.434C193.318,396.852 194.552,394.324 195.558,391.28C198.59,391.422 201.511,390.911 204.32,389.908C204.259,390.746 204.355,391.749 204.432,392.594C200.762,395.48 196.873,397.759 192.273,399.434L192.273,399.434ZM220.311,393.028C220.564,394.531 220.929,395.749 221.732,396.698C222.647,398.212 221.533,403.781 222.663,408.312C219.215,406.371 216.314,402.689 214.942,398.724C217.171,397.375 219.123,395.203 220.311,393.028ZM190.105,387.16C193.433,383.094 194.951,378.11 198.368,374.398C201.73,370.72 202.399,370.705 207.76,370.063C207.871,376.588 208.344,379.105 211.364,385.539C200.839,387.683 198.221,388.559 190.105,387.16ZM211.61,368.952C214.673,368.122 217.083,366.966 219.915,365.329C219.1,368.334 218.316,375.401 219.139,375.851C221.867,372.576 222.025,370.447 223.639,367.458C225.307,371.27 226.717,373.668 228.008,375.847C224.849,381.223 218.716,385.477 214.546,385.88C211.753,382.603 209.981,375.62 211.61,368.952ZM219.223,386.772C223.085,384.562 226.786,381.419 229.003,378.168C231.455,380.835 234.218,382.66 237.216,384.236C234.31,397.037 238.484,397.594 241.162,402.128C228.792,402.482 225.245,397.847 219.223,386.772ZM194.417,366.804C204.866,368.776 215.672,364.933 220.591,363.246C218.647,359.318 217.413,356.859 217.64,347.716L212.298,348.216C211.184,348.12 209.9,349.261 208.67,350.806C203.909,356.801 200.343,361.566 194.417,366.804ZM219.715,347.478C223.627,346.191 225.583,345.964 228.765,343.086C227.954,346.091 227.22,349.707 228.504,352.77C230.552,349.238 232.105,346.349 233.719,343.359C234.157,346.717 235.167,348.873 236.416,351.84C233.254,357.216 226.709,361.301 223.02,362.181C220.568,358.211 218.804,353.031 219.715,347.478ZM225.917,365.129C230.613,361.947 234.153,359.664 237.692,354.607C240.736,358.181 242.876,359.691 245.859,361.647C243.895,370.413 242.88,373.668 246.735,383.406C235.959,384.228 227.874,372.377 225.917,365.129ZM221.836,320.781C223.055,320.147 226.997,319.782 227.835,320.72C227.851,325.001 227.805,330.846 232.969,336.537C226.482,344.904 215.422,345.05 205.961,345.445C207.66,343.843 211.825,336.007 213.797,331.899C215.903,327.491 217.494,323.652 221.836,320.781L221.836,320.781ZM236.22,336.322C240.232,335.408 248.687,328.713 250.608,326.089C254.113,326.534 255.996,331.18 255.666,336.603C255.877,341.049 254.251,342.19 252.883,347.286C251.565,350.995 252.522,358.899 252.434,359.76C244.886,360.909 234.026,347.728 236.22,336.322ZM243.783,314.083C245.943,317.776 249.513,321.377 249.905,321.977C248.691,327.007 236.478,334.251 234.38,334.347C231.478,332.253 228.976,320.628 230.141,317.965C232.719,317.169 236.005,314.544 238.926,312.3C238.522,315.701 238.169,319.46 237.842,322.86C237.566,325.285 238.184,325.812 238.461,325.551C239.418,322.157 243.979,313.23 243.783,314.083ZM221.752,294.096C222.674,294.496 225.407,297.178 226.636,297.513C227.247,297.301 227.751,296.871 228.227,296.417C229.445,297.759 226.667,307.12 230.083,309.107C230.794,308.419 230.233,304.514 231.448,303.104C233.576,306.901 237.096,309.383 237.665,310.302C235.233,312.811 232.535,314.886 228.289,316.604C222.862,311.851 220.361,302.85 221.752,294.096ZM237.615,280.715C238.607,283.517 239.049,292.813 239.602,296.782C239.84,297.712 240.217,298.177 240.655,298.408C241.036,297.294 241.504,293.577 241.424,292.509C241.381,290.438 241.374,287.187 241.331,285.111C243.372,288.977 246.988,292.421 248.794,295.968C249.405,297.14 249.352,298.285 248.801,299.365C247.553,301.817 242.849,307.201 240.486,308.35C235.132,305.075 233.076,298.704 232.719,292.701C232.657,291.66 232.78,290.703 233.441,289.846C235.136,287.636 237.707,280.3 237.615,280.715L237.615,280.715ZM253.452,264.825C253.863,270.259 254.92,279.212 256.361,279.716C257.898,274.947 254.878,265.54 255.443,260.294C254.962,259.975 260.677,270.831 265.569,274.747C264.397,282.771 261.292,289.239 255.247,294.577C250.912,291.502 247.092,287.044 244.171,283.582C243.053,282.302 243.261,280.635 244.536,279.355C251.173,270.766 250.939,268.448 253.452,264.825ZM270.107,310.633C263.99,306.14 261.961,301.968 258.993,295.58C258.602,294.73 258.552,294.211 259.585,292.674C263.267,288.57 267.706,278.359 267.817,276.573C268.147,279.201 268.785,281.134 268.778,283.813C269.365,284.34 269.789,284.449 270.107,284.134L270.107,310.633ZM253.149,321.154C257.921,317.169 259.939,313.261 261.983,308.776C262.398,307.865 262.371,306.947 261.711,306.002C258.648,301.636 257.894,298.577 256.826,296.364C256.35,297.482 256.134,299.015 256.407,302.136C256.657,305.079 257.464,308.35 255.262,310.898C253.959,310.267 252.595,302.013 252.603,300.821C251.442,301.859 248.844,305.256 244.494,307.504C243.122,312.427 249.11,318.772 253.149,321.154ZM265.738,310.375C267.179,311.759 268.661,313.045 270.107,313.949L270.107,335.813C264.76,333.115 258.38,327.58 256.995,322.161C256.719,321.104 256.845,319.952 257.771,319.202C259.678,317.058 261.78,314.886 263.49,312.485C264.393,314.276 265.488,322.388 267.075,322.876C267.859,321.243 265.872,312.704 265.738,310.375ZM258.782,334.132C262.088,336.002 267.828,338.497 270.107,339.183L270.107,354.141C269.58,354.134 268.937,353.767 268.105,353.043C261.476,349.015 258.24,338.762 258.782,334.132ZM261.265,353.984C262.925,355.698 264.551,357.589 266.802,358.669C267.283,358.88 264.585,359.249 264.693,359.618C265.872,360.298 267.871,360.137 269.123,359.979C269.448,360.243 269.799,360.441 270.107,360.65L270.107,362.253C269.696,362.464 269.305,362.654 269.212,362.954C269.819,363.768 269.104,364.925 268.266,365.824C265.284,369.106 261.407,372.499 257.514,374.817C257.118,370.924 258.375,368.211 259.305,364.571C260.25,360.894 260.792,357.539 261.265,353.984ZM270.107,385.714C266.309,382.784 264.982,373.136 265.819,371.689C266.549,371.239 267.087,371.477 267.817,371.032C267.909,371.554 268.067,372.449 268.605,372.584C269.231,372.418 269.687,372.139 270.107,371.847L270.107,385.714ZM264.032,383.233C265.265,386.073 267.567,388.836 268.977,389.674C269.927,390.542 270.157,391.441 268.032,393.57C263.543,396.464 259.305,399.054 253.909,401.248C252.445,402.248 251.285,401.356 252.426,400.249C252.426,400.249 263.728,383.233 264.032,383.233ZM269.173,397.778C269.247,401.225 268.712,405.433 267.748,409.295C267.014,412.374 265.961,415.555 264.016,418.841C263.478,419.867 264.443,419.84 265.354,419.345C267.229,416.82 268.266,415.425 269.731,412.869C269.87,412.624 269.994,412.385 270.107,412.151L270.107,427.909C261.57,437.214 247.732,443.339 234.015,439.124C241.416,437.479 249.29,430.462 254.159,425.182C259.113,418.772 264.147,409.78 265.534,401.721C265.623,399.696 267.709,398.066 269.173,397.778ZM259.752,459.602C258.272,478.592 254.027,489.209 243.576,500.354C230.083,514.538 215.584,519.56 199.616,512.174C195.87,510.341 196.323,513.988 199.709,516.002C215.227,523.845 228.404,520.456 240.524,510.341C250.124,502.628 256.207,490.908 260.5,477.542C256.942,497.045 254.716,508.158 230.756,528.653C209.043,543.686 187.561,524.625 187.804,501.656C195.57,504.973 203.094,507.294 211.218,507.071C222.966,507.14 233.15,501.464 241.362,491.634C247.671,484.327 251.594,473.21 253.889,458.848C255.601,459.269 257.574,459.491 259.752,459.602L259.752,459.602ZM254.34,516.943C251.285,527.02 247.853,538.81 244.798,548.878C243.115,555.822 239.241,559.519 232.988,561.129C230.029,561.706 226.598,562.19 223.735,561.533C222.282,559.888 221.886,556.291 222.209,550.081C222.812,543.767 226.256,539.321 231.175,536.062C239.441,528.703 245.993,521.797 251.976,512.662C248.687,521.989 238.922,534.555 232.205,546.365C230.371,549.773 230.706,552.805 234.038,547.89C242.638,537.88 249.548,526.701 254.34,516.943ZM270.107,441.179C267.09,441.145 264.23,441.096 261.614,441.16C261.529,440.834 261.443,440.505 261.357,440.173C266.645,437.493 268.132,435.606 270.107,433.142L270.107,441.179ZM270.107,592.339C265.444,586.567 260.884,580.011 256.523,572.485C247.177,553.505 252.003,547.787 258.302,524.818C263.803,501.372 265.353,484.228 265.52,461.964C266.821,464.816 268.31,467.45 269.825,470.054C269.908,476 269.992,481.946 270.107,487.89L270.107,592.339ZM270.107,465.934C269.15,463.914 268.262,461.841 267.42,459.684C268.3,459.675 269.197,459.663 270.107,459.653L270.107,465.934Z" style="fill:white;fill-rule:nonzero;"/>
                    <path d="M270.107,457.812C258.666,457.912 249.678,458.49 249.678,450.419C249.678,442.341 258.666,442.918 270.107,443.018L270.107,457.812Z" style="fill:rgb(255,245,0);fill-rule:nonzero;"/>
                    <path d="M270.107,39.145C265.973,42.781 264.431,48.007 264.289,53.618C263.889,53.226 260.158,51.316 257.299,53.756C264.089,61.942 263.697,72.294 259.339,76.691C251.312,73.747 243.499,71.684 236.001,71.146C236.908,59.698 241.228,54.417 245.824,52.469C245.136,51.239 239.133,51.316 232.366,54.317C232.6,50.025 229.714,39.153 224.042,39.515C228.385,53.522 230.79,69.655 229.561,76.088C248.261,75.284 249.071,82.935 270.107,85.966L270.107,39.145L270.107,39.145Z" style="fill:rgb(255,245,0);fill-rule:nonzero;"/>
                    <path d="M4.225,4.851L270.105,4.851L270.105,34.105C270.003,34.155 269.906,34.206 269.811,34.258C265.177,36.529 261.388,45.521 259.835,48.853C258.848,48.86 251.984,50.036 250.962,53.076C251.83,54.567 262.441,60.216 257.714,71.638C252.368,69.524 243.372,68.075 241.378,67.756C240.517,63.402 247.15,53.983 249.705,52.876C246.727,47.608 239.744,48.161 236.724,49.249C230.498,38.638 230.644,38.12 218.985,32.413C223.035,47.162 226.071,61.684 225.522,75.388C214.481,75.657 213.251,84.688 212.675,84.431C205.623,80.419 190.659,76.898 188.856,91.11C188.246,95.929 188.441,108.164 191.093,111.416C191.827,112.165 192.45,111.462 193.076,110.186C193.965,106.315 196.37,101.246 201.248,102.246C204.965,103.007 209.154,106.242 212.162,108.076C214.715,109.632 218.157,111.577 221.024,112.629C225.087,114.119 228.557,115.198 232.093,118.998C233.334,120.481 234.868,124.016 229.691,120.323C206.926,106.823 203.052,121.922 205.097,121.419C212.371,118.952 239.226,136.264 241.335,138.243C252.749,147.927 249.014,168.11 238.626,177.153C234.191,181.019 227.255,182.721 221.571,183.931C212.029,185.976 204.367,186.33 196.231,195.968C195.328,198.054 195.843,201.713 198.014,201.132C201.711,197.985 213.255,197.893 214.112,200.283C212.648,202.454 211.584,204.914 210.965,208.68C187.296,203.434 160.519,188.493 148.867,166.565C160.33,159.268 168.896,146.54 169.461,132.755C169.88,122.687 166.31,112.507 159.904,103.872C141.934,79.654 106.464,77.498 86.062,100.075C75.767,111.473 72.931,121.626 69.822,136.556C67.854,146.006 67.355,155.997 65.138,165.309C60.307,185.576 50.757,204.322 31.739,215.882C36.23,220.228 53.873,219.036 59.811,216.673C57.33,229.42 51.808,258.273 43.04,281.304C34.006,305.037 24.222,315.719 7.371,328.74C10.648,336.256 27.375,338.523 37.28,337.608C61.317,335.385 73.788,312.51 81.41,292.478C85.408,281.973 89.798,268.216 95.166,253.542C90.735,274.048 87.874,295.288 83.903,316.146C80.535,333.844 73.041,361.346 70.268,366.589C62.211,387.746 38.896,390.074 35.07,393.667C46.516,406.295 57.977,411.351 71.078,410.415C91.587,408.95 101.439,399.805 109.166,380.977C117.838,362.048 136.448,268.645 137.852,269.977C138.027,270.126 136.765,277.994 134.848,290.288C130.921,315.46 123.743,359.191 117.023,393.217C113.958,408.737 110.324,427.427 98.122,438.508C90.447,445.478 81.42,449.365 66.582,452.701C68.154,459.194 82.305,463.932 88.857,465.086C110.981,468.985 134.502,457.528 146.911,439.179C164.423,413.285 169.503,360.083 175.914,330.443C177.588,322.704 178.98,296.504 179.971,287.276C179.071,306.656 177.514,327.712 180.604,346.938C181.892,354.947 184.266,361.222 186.458,364.218C198.198,351.862 206.765,335.478 206.922,318.154C207.649,319.708 208.841,321.263 210.246,322.819C211.482,322.221 218.382,311.653 219.119,310.148C218.8,311.018 221.502,315.484 223.558,317.988C221.097,318.332 218.499,320.121 216.632,322.151C214.202,324.794 211.589,330.938 209.758,334.266C207.395,338.832 204.87,344.2 201.946,347.847C203.548,348.374 205.592,348.213 206.872,348.093C201.384,354.948 197.456,360.492 189.318,367.688C190.752,370.695 194.647,370.374 197.734,370.336C197.097,371.156 194.715,374.189 192.663,377.904C189.974,382.769 186.574,387.862 185.352,389.093C187.996,390.9 190.482,391.215 192.807,390.773C191.671,395.565 190.355,399.125 187.396,403.039C190.359,403.524 194.29,402.24 199.178,399.196C199.017,401.233 198.698,403.124 198.168,404.949C192.797,418.666 185.22,435.483 179.839,447.94C176.568,455.512 169.482,460.441 160.074,456.818C158.193,456.093 155.293,454.283 153.993,454.396C149.624,448.187 142.111,451.635 136.692,454.047C128.789,457.565 121.991,462.378 127.861,472.569C128.361,471.57 128.868,470.552 129.391,469.537C133.966,464.359 135.985,467.155 138.174,470.19C140.855,473.907 147.311,473.454 149.098,469.66C150.95,469.268 153.44,469.81 155.715,470.644C151.33,476.804 139.287,470.217 137.165,482.422C132.984,483.783 131.305,484.517 129.237,488.118C127.189,491.696 128.599,500.369 133.146,501.199C132.627,491.834 139.506,491.073 140.37,495.35C148.282,500.042 155.51,494.787 157.533,486.5C161.691,484.079 164.085,479.663 168.112,478.195C166.26,488.198 153.982,487.829 154.481,502.268C151.276,507.156 155.846,515.061 159.547,517.731C161.314,511.148 159.808,513.404 163.393,505.861C178.36,508.549 181.803,493.802 181.378,486.431C183.6,485.519 185.868,474.644 190.034,472.451C193.68,470.532 198.296,468.536 202.414,467.27C203.317,469.568 206.326,469.806 208.407,469.802C214.263,469.788 215.982,465.46 220.656,461.94C223.093,463.496 220.437,465.61 221.314,466.371C223.808,466.44 227.455,460.829 227.574,459.188C228.427,453.712 224.411,450.711 219.957,450.73C218.343,450.734 217.394,448.613 215.084,448.336C207.912,447.457 205.853,452.677 201.795,454.232C198.57,455.469 197.322,453.276 197.747,450.244C200.083,433.569 208.002,419.861 213.248,404.246C216.895,408.949 220.496,410.476 224.641,412.585C226.286,410.017 224.913,403.403 225.041,400.311C230.777,405.991 239.494,405.808 246.957,405.091C247.407,404.619 247.307,403.847 246.654,402.759C241.077,396.639 239.617,395.635 239.607,385.435C242.819,387.364 249.654,387.299 253.31,386.88C247.503,378.391 247.372,370.112 248.214,362.873C250.305,363.119 253.102,363.246 255.193,362.88C256.692,362.996 256.907,362.335 256.688,361.093C254.565,356.443 254.654,350.92 256.487,346.103C257.292,347.745 258.254,349.43 259.301,351.171C258.121,359.533 255.374,369.663 250.712,377.211C249.571,380.101 250.282,382.152 253.195,381.941C255.212,380.815 257.552,377.945 259.639,376.869C258.678,386.322 246.639,403.146 247.515,405.748C253.652,406.67 257.898,403.881 258.532,403.719C258.606,408.984 256.246,416.581 249.425,425.024C242.926,432.045 235.855,437.856 228.819,437.783C230.289,443.468 243.783,443.725 252.064,442.552C248.822,443.808 246.904,446.14 246.904,450.418C246.904,454.731 248.856,457.063 252.149,458.312C250.593,469.723 248.012,476.539 243.292,485.047C235.16,497.091 227.067,502.551 212.713,504.154C202.568,504.431 193.168,501.529 183.465,497.39C183.492,516.136 190.62,530.67 207.583,535.416C224.653,540.896 239.986,526.696 248.66,512.996L251.458,510.914C244.198,521.681 239.794,525.555 229.834,534.228C224.211,538.075 220.299,543.317 219.777,550.761C219.396,558.085 219.865,562.328 221.575,564.261C224.953,565.045 229,564.472 232.489,563.792C239.864,561.894 244.429,557.532 246.416,549.343C250.017,537.464 252.676,528.018 256.4,518.442C249.375,546.806 243.895,553.335 254.501,574.875C259.51,583.515 264.748,591.028 270.105,597.627L270.105,625.106C122.8,625.864 6.4,509.233 4.225,363.069L4.225,4.85L4.225,4.851Z" style="fill:rgb(218,37,29);fill-rule:nonzero;"/>
                </g>
            </g>
        </g>
    </g>
</svg>
