<?xml version="1.0" encoding="UTF-8" standalone="no"?>
<!DOCTYPE svg PUBLIC "-//W3C//DTD SVG 1.1//EN" "http://www.w3.org/Graphics/SVG/1.1/DTD/svg11.dtd">
<svg width="100%" height="100%" viewBox="0 0 151 151" version="1.1" xmlns="http://www.w3.org/2000/svg" xmlns:xlink="http://www.w3.org/1999/xlink" xml:space="preserve" xmlns:serif="http://www.serif.com/" style="fill-rule:evenodd;clip-rule:evenodd;stroke-linejoin:round;stroke-miterlimit:2;">
    <g transform="matrix(1,0,0,1,-1260,-1422)">
        <g id="malopolskie" transform="matrix(0.138889,0,0,0.138889,1260.4,1422.64)">
            <rect x="0" y="0" width="1080" height="1080" style="fill:none;"/>
            <g id="malopolskie.svg" transform="matrix(1.31482,0,0,1.31482,540,540)">
                <g transform="matrix(1,0,0,1,-372,-410.701)">
                    <clipPath id="_clip1">
                        <rect x="0" y="0" width="744" height="821.403"/>
                    </clipPath>
                    <g clip-path="url(#_clip1)">
                        <g transform="matrix(1.28101,0,0,1.28101,-104.537,-115.409)">
                            <g id="Warstwa_x0020_1">
                                <g id="_68800864">
                                    <path id="_68821536" d="M662.395,90.095L662.395,433.713C662.395,610.036 524.803,731.307 371.173,731.307C215.932,731.307 81.605,610.036 81.605,434.6L81.894,90.092L662.396,90.092L662.395,90.095Z" style="fill:rgb(10,11,12);"/>
                                    <path id="_68821464" d="M656.985,95.436L656.985,433.331C656.985,606.718 521.957,725.969 371.187,725.969C218.838,725.969 87.015,606.719 87.015,434.205L87.298,95.436L656.987,95.436L656.985,95.436Z" style="fill:rgb(226,4,44);"/>
                                    <path id="_68801080" d="M418.048,180.561C426.153,160.202 433.428,138.838 439.567,117.992C433.156,116.222 421.089,120.574 420.063,127.688C409.41,119.785 402.797,140.133 411.23,147.912C414.673,143.809 416.052,147.935 414.69,151.154C412.98,155.173 405.236,157.697 401.429,157.566C397.713,157.442 389.123,154.99 387.79,150.334C386.95,147.401 388.515,143.589 395.377,147.739C398.554,146.035 400.988,142.663 401.829,138.429C403.318,130.93 399.07,121.584 389.257,125.99C388.863,122.326 382.655,116.222 378.76,111.549C376.186,115.201 368.495,123.318 368.889,125.699C351.837,118.971 351.449,143.767 363.754,147.989C367.678,142.96 369.95,146.908 368.947,150.578C367.608,155.476 361.766,156.628 355.72,156.991C349.721,157.353 344.742,155.381 342.656,150.014C341.334,146.611 343.073,141.35 347.293,146.677C355.031,134.315 344.459,118.906 336.077,126.631C335.376,120.503 330.843,116.543 316.973,116.472C320.859,127.285 334.539,168.913 337.503,176.744C327.627,176.955 309.502,182.679 309.502,199.884C308.969,213.458 318.811,220.993 321.309,220.494C321.309,220.494 328.716,205.68 344.006,205.68C358.201,206.38 371.329,216.439 367.776,229.127C367.764,229.119 367.75,229.109 367.737,229.101C364.402,217.179 357.811,214.294 349.577,214.236C341.665,214.236 338.059,217.59 333.579,221.106C322.306,229.288 312.916,224.431 302.663,213.571C293.632,223.617 306.767,236.116 321.483,236.579C327.31,236.579 331.385,234.705 335.172,232.211C337.427,232.243 339.947,231.963 343.002,232.081C348.249,237.013 352.098,243.466 350.655,251.079C348.162,264.225 336.732,276.534 333.446,280.619C336.083,282.78 337.88,283.451 340.517,283.724C333.4,298.307 315.947,305.159 315.947,305.159C318.17,309.368 320.963,312.25 324.111,313.922C322.56,317.37 321.182,320.888 319.994,324.462C309.821,323.696 273.096,316.327 273.729,246.329C273.729,219.977 274.505,203.595 272.43,190.372C268.13,162.928 256.218,156.67 232.391,156.67C197.063,156.67 135.706,162.168 127.012,162.975C118.312,163.783 107.259,162.578 113.327,178.241C118.711,193.917 124.032,216.094 161.585,216.088C187.685,216.088 208.203,211.849 208.203,211.849C207.664,211.855 196.148,216.646 166.935,223.665C137.132,231.217 127.313,234.346 120.897,235.766C115.367,237.179 107.247,240.076 111.484,251.275C114.996,260.579 120.908,272.941 128.159,279.271C133.926,284.312 142.018,287.554 154.503,287.554C169.816,287.364 186.901,280.904 195.684,277.119C195.489,277.557 195.296,278.001 195.104,278.451C164.629,294.708 138.12,307.48 109.496,322.64C99.329,327.111 99.132,331.113 108.922,345.381C118.944,359.424 130.773,364.293 144.481,364.293C158.774,363.723 174.592,360.475 196.026,346.331C210.871,336.433 217.686,331.027 220.535,328.573C221.296,328.631 222.046,328.661 222.785,328.663C211.644,338.648 168.701,377.203 155.21,390.323C139.653,405.447 129.411,414.389 117.286,425.19C107.809,433.627 102.906,438.686 110.139,446.286C128.907,466.064 155.662,468.44 178.168,453.69C197.533,441.097 218.816,424.115 233.967,406.165C242.468,396.09 249.333,387.618 253.233,382.748C253.36,383.585 253.506,384.44 253.665,385.308C243.755,401.063 212.614,450.475 207.752,457.045C204.129,461.938 203.515,463.63 207.798,465.684C223.998,473.475 246.122,471.8 262.096,462.128C281.733,450.247 295.365,423.076 302.779,401.837C309.195,397.013 315.608,391.52 320.192,386.155C321.4,389.93 322.789,393.659 324.332,397.34C301.886,403.703 306.329,428.324 302.211,438.526C297.898,449.207 283.802,453.643 283.802,453.643C284.973,458.798 287.605,462.476 292.112,464.314C280.589,471.766 241.435,493.855 230.449,496.863C223.807,499.862 208.412,500.295 201.665,497.469C192.965,494.553 180.956,487.589 169.265,487.482C155.818,487.618 152.352,498.953 156.769,509.386C168.888,504.404 175.403,506.797 183.605,508.994C140.905,519.118 139.108,521.534 138.737,534.318C138.366,544.519 143.252,552.333 150.034,555.522C151.129,548.913 153.175,542.773 158.861,538.576C167.225,532.388 179.594,526.641 188.41,523.975C196.582,521.499 196.287,527.478 190.525,529.651C180.034,533.611 165.04,541.515 158.931,549.441C154.271,555.498 155.505,561.139 159.603,566.31C165.283,573.483 172.627,579.225 176.418,578.803C174.76,572.272 174.766,563.805 180.092,558.924C191.864,548.165 208.198,540.018 217.246,535.612C223.326,532.65 230.02,530.969 237.723,530.969C262.791,530.975 254.207,541.841 252.55,550.7C258.549,550.997 266.362,543.254 269.787,535.411C273.734,526.385 271.109,518.934 262.681,515.555C253.831,512.004 237.839,512.242 237.648,512.046C266.657,496.628 294.957,483.961 317.37,475.371C321.058,488.577 330.435,493.559 334.495,495.195C333.106,474.413 348.199,454.986 355.12,447.24C355.583,447.823 356.047,448.404 356.513,448.982C356.422,456.782 356.224,473.97 356.097,485.973C355.703,493.644 355.348,505.6 351.792,512.512C346.534,521.432 336.915,527.344 326.183,526.047C308.899,523.951 305.311,505.485 309.977,493.152C309.693,492.612 288.236,495.943 288.555,521.92C287.628,552.808 322.364,565.752 347.252,547.832C332.484,579.516 293.546,586.581 266.286,572.432C257.285,567.819 240.036,557.552 225.412,557.552C209.728,556.774 186.346,570.122 187.656,597.608C189.036,625.105 213.391,640.864 238.332,635.977C225.076,625.871 218.926,617.784 216.701,612.131C210.829,597.186 225.453,591.593 236.622,596.575C244.568,600.12 252.057,604.715 260.2,607.743C271.775,612.048 285.715,615.973 298.119,615.611C319.587,614.981 340.871,604.614 354.057,586.938C350.759,629.79 332.837,656.432 290.862,627.082C279.925,652.347 301.243,672.708 324.734,671.615C333.817,671.17 342.98,668.278 349.681,660.696C346.991,669.377 343.38,676.805 349.385,687.273C355.071,697.189 366.918,703.655 370.356,708.369C377.102,701.945 387.367,695.033 391.772,687.089C397.331,677.066 394.033,668.296 391.656,660.892C399.07,673.658 421.228,673.687 433.319,669.276C447.177,664.217 460.792,644.124 450.342,628.442C410.366,656.688 388.712,630.051 387.442,587.532C406.402,607.381 420.724,617.101 448.331,616.389C467.388,615.902 486.011,607.417 499.678,600.511C507.399,596.61 516.081,594.865 521.298,598.641C525.9,601.972 526.607,609.097 524.329,614.049C521.368,620.48 514.308,629.327 502.721,637.652C527.169,643.387 552.707,626.269 553.373,598.688C553.843,572.426 530.734,559.47 515.768,559.298C501.139,559.298 482.754,569.73 473.752,574.344C445.392,586.54 408.563,579.504 394.444,548.117C415.762,564.119 452.278,557.368 452.962,524.824C453.211,510.336 446.94,495.646 431.661,493.657C436.663,509.255 431.655,525.269 414.296,526.789C402.288,527.844 392.811,518.903 387.616,508.152C387.216,502.622 385.715,496.88 385.483,485.38C385.36,473.702 385.417,457.531 385.457,449.679C385.895,449.146 386.332,448.608 386.768,448.066C394.314,456.565 408.146,475.662 406.326,495.967C412.253,493.406 420.393,488.587 423.487,477.235C444.715,484.774 473.575,498.798 502.396,514.629C502.203,514.823 486.135,514.261 477.333,517.919C468.671,521.513 465.299,530.593 470.05,538.152C474.578,545.37 482.699,553.95 488.7,553.705C487.853,544.471 477.531,533.122 502.156,533.551C509.858,533.618 516.538,535.363 522.592,538.373C531.595,542.857 547.875,551.698 559.535,562.559C564.71,567.373 565.553,575.752 564.033,582.467C570.13,583.197 579.882,573.645 582.326,567.972C584.597,562.749 584.663,555.79 581.002,550.942C574.974,542.969 559.819,536.69 549.363,532.645C543.627,530.421 543.377,524.445 551.528,526.987C560.314,529.73 572.641,535.924 580.945,542.177C586.589,546.419 588.918,552.472 589.956,559.09C597.375,556.376 601.679,548.165 601.108,537.763C600.968,530.589 599.455,526.615 591.297,522.981C584.033,519.747 571.937,515.028 556.464,512.049C569.364,507.607 574.212,507.976 583.29,514.551C588.374,503.866 585.035,490.619 570.99,490.662C559.299,490.667 545.017,498.63 536.292,501.469C529.521,504.237 517.003,502.673 510.387,499.616C499.624,496.475 459.092,473.354 447.992,466.112C455.049,463.719 458.094,458.745 458.352,455.703C458.99,456.481 444.111,452.176 438.732,440.2C434.817,429.082 439.067,405.165 417.009,398.318C418.642,394.443 420.108,390.55 421.378,386.663C425.82,392.17 431.809,397.65 438.176,402.306C445.537,423.507 459.673,452.089 479.173,463.949C494.65,473.604 516.125,475.276 533.093,467.499C537.347,465.449 536.737,463.759 533.14,458.875C528.312,452.317 497.431,402.14 487.59,386.413C487.749,385.546 488.016,384.692 488.141,383.857C492.014,388.718 498.668,398.028 507.11,408.086C522.154,426.003 543.71,443.728 562.939,456.299C586.024,471.169 613.295,468.447 631.198,448.557C638.381,440.97 632.459,435.78 623.049,427.357C611.008,416.576 600.305,407.368 584.857,392.272C571.46,379.175 530.055,340.688 518.992,330.721C519.726,330.719 520.47,330.754 521.226,330.695C524.055,333.145 530.05,338.477 544.791,348.358C566.075,362.476 582.864,366.491 597.058,367.06C610.671,367.06 622.206,362.296 632.158,348.279C641.06,333.762 640.092,328.93 630.721,324.709C602.297,309.575 576.409,297.098 546.147,280.871C545.956,280.422 545.764,279.924 545.571,279.487C556.447,282.443 571.499,289.823 586.137,290.222C598.535,290.222 607.107,286.449 612.834,281.417C620.035,275.099 625.585,262.865 629.073,253.578C633.282,242.399 625.586,240.158 620.095,238.747C613.791,237.534 603.638,234.513 573.688,225.909C548.523,219.144 536.399,214.593 532.948,213.994C533.339,213.819 553.431,218.731 578.957,218.979C616.248,218.985 622.143,196.308 627.491,180.661C633.519,165.025 623.013,166.322 614.374,165.516C605.989,164.96 545.485,158.943 510.151,158.69C486.488,158.69 473.544,165.195 469.272,192.59C467.21,205.79 467.894,222.228 467.893,248.533C468.528,319.834 430.492,324.908 421.298,325.173C420.086,322.459 418.657,319.832 416.992,317.318C421.794,315.842 426.444,312.587 430.536,307.142C415.646,303.598 410.204,291.455 408.222,282.198C412.053,282.436 415.16,281.925 417.733,280.868C405.984,261.713 408.853,247.107 414.023,234.875C420.347,223.534 422.915,218.54 422.915,200.448C422.915,191.152 420.448,184.669 418.048,180.561Z" style="fill:rgb(10,11,12);"/>
                                    <path id="_68801008" d="M381.984,453.807C381.809,462.024 381.596,475.478 381.701,485.439C381.875,501.411 384.784,505.71 384.616,515.537C384.124,543.795 370.085,552.013 370.085,552.013C370.149,551.751 356.018,545.404 355.352,517.93C355.439,508.24 359.722,501.144 359.652,485.047C359.759,474.876 359.792,461.122 359.8,453.002C363.449,457.403 367.139,461.657 370.798,465.75C374.508,462.123 378.265,458.116 381.984,453.807ZM288.488,456.054C288.766,455.341 301.581,450.347 305.598,440.42C307.076,436.75 308.322,431.24 308.867,425.694C309.539,418.866 310.542,411.693 316.297,406.557C318.625,404.48 321.803,402.518 326.002,401.173C332.917,416.473 342.412,430.884 352.676,444.125C344.375,453.725 331.958,471.096 331.35,489.952C318.999,479.893 319.821,468.273 320.957,458.589C314.651,458.791 292.87,467.157 288.488,456.054ZM433.512,429.393C432.417,419.428 431.316,407.753 414.934,403.051C408.022,418.158 398.725,432.824 388.765,445.553C395.5,453.093 410.558,470.802 409.545,490.848C421.021,484.976 422.146,471.901 421.021,460.341C429.484,462.734 447.828,468.089 453.41,458.506C438.937,450.543 435.118,443.976 433.512,429.393ZM318.885,328.007C309.673,326.648 268.678,319.22 270.555,246.501C270.555,226.616 272.473,203.019 268.248,185.206C264.393,168.961 254.32,159.312 232.202,160.464C196.874,160.464 138.618,164.739 129.923,165.547C121.224,166.354 111.637,163.801 117.705,179.465C123.096,195.122 128.782,212.852 167.378,212.846C186.349,212.846 201.989,209.992 209.118,208.433C209.697,200.754 217.4,193.161 226.058,194.986C225.179,191.325 224.652,187.765 225.192,184.85C201.968,189.223 174.497,190.8 162.173,190.188C158.011,189.98 146.077,190.342 142.912,185.094L144.802,184.957C148.535,187.748 161.686,188.027 183.758,186.756C199.443,185.858 214.175,183.202 227.029,180.774C229.166,178.082 233.046,176.244 239.128,176.098C244.727,175.961 247.99,178.924 249.747,182.16C252.077,186.453 251.787,191.898 250.888,194.516C260.023,193.074 266.532,198.299 266.063,207.425C265.709,214.283 262.666,219.051 253.978,219.443C252.233,219.52 250.297,219.3 248.228,218.79C248.228,218.79 248.228,234.299 249.283,249.422C250.434,263.439 246.936,339.176 315.273,346.779C315.845,340.427 317.081,334.145 318.885,328.007ZM422.881,329.087C431.994,327.808 472.872,320.811 471.012,248.153C471.546,228.037 469.96,204.594 473.773,187.004C477.602,170.788 486.92,161.478 508.884,162.628C543.965,162.628 604.205,168.142 612.838,168.948C621.478,169.754 629.945,166.995 623.917,182.63C619.039,198.831 612.252,216.02 573.464,215.461C555.129,215.125 540.782,212.119 533.428,210.745C532.083,202.97 524.322,195.179 515.884,197.024C516.757,193.37 517.925,190.073 517.388,187.164C540.45,191.529 566.719,193.519 578.958,192.908C582.976,192.815 595.547,193.704 598.738,188.417L597.159,187.745C593.452,190.531 579.976,190.869 558.058,189.601C542.482,188.704 528.716,185.583 515.951,183.159C513.071,179.512 506.589,177.305 502.134,177.542C496.887,177.824 493.793,181.217 492.103,184.221C489.789,188.506 490.85,193.555 491.741,196.169C482.937,194.734 475.866,199.719 475.985,207.879C476.143,218.623 483.83,223.004 493.995,220.27C493.995,220.27 493.428,236.447 492.379,251.544C490.949,266.115 494.703,342.264 426.713,347.691C426.249,341.325 425.037,335.038 422.881,329.087ZM370.874,459.83C342.461,427.944 317.549,388.738 319.352,348.581C319.856,337.353 322.059,326.327 328.122,315.431C340.514,317.011 347.504,311.976 354.592,307.03C354.697,319.974 360.557,330.43 370.758,338.998C382.153,328.108 385.955,317.225 384.564,306.323C391.583,314.867 400.961,319.273 413.487,318.193C419.022,325.537 422.859,340.091 422.859,349.419C425.235,391.024 396.632,430.925 370.874,459.83ZM353.594,189.316C354.395,190.632 355.249,191.623 356.758,192.746C356.466,190.951 357.284,189.735 357.721,189.201C356.345,189.143 354.969,189.182 353.594,189.316ZM366.137,198.403C363.421,198.157 361.208,196.226 361.037,193.875C360.711,189.45 362.643,188.105 367.207,188.473C370.151,188.707 372.525,190.278 372.525,192.851C372.219,196.064 370.248,198.762 366.137,198.403ZM320.238,306.989C324.945,304.566 337.901,297.615 345.078,281.829C342.441,281.556 340.507,282.217 337.87,280.055C342.059,274.348 354.27,261.181 353.941,247.071C353.941,239.507 348.149,232.878 348.149,232.878C357.932,233.814 364.942,241.432 368.992,242.728C371.268,243.457 374.375,243.311 375.946,240.66C382.803,229.09 383.057,211.822 369.836,202.663C375.302,201.541 376.78,198.643 376.687,190.865C380.663,191.079 383.648,193.175 385.961,196.559L387.989,195.395C388.227,188.947 380.884,186.305 372.833,185.289C366.498,184.494 361.142,184.173 355.925,184.963C351.474,185.634 346.628,185.248 344.884,182.356C344.109,181.073 343.854,179.579 343.807,178.053C371.547,178.254 400.647,178.772 412.299,180.326C415.733,185.098 418.865,191.693 418.865,199.872C419.392,213.453 418.942,220.688 411.516,233.717C405.131,245.008 403.187,265.507 413.196,278.456C412.082,278.855 408.719,279.357 404.717,278.82C405.95,288.146 410.342,305 425.494,308.338C407.397,323.287 388.138,310.979 381.89,293.564L379.09,294.334C382.935,311.93 383.889,318.587 370.762,334.36C354.862,317.909 356.94,309.218 361.846,292.869L359.129,292.054C347.732,322.921 320.611,310.743 320.238,306.989ZM513.523,224.544C521.068,224.814 534.957,227.323 542.221,243.677C528.667,258.223 518.184,256.163 512.788,254.539C512.954,250.126 513.532,245.849 513.522,241.506C531.876,244.274 532.274,243.216 533.251,242.49C532.625,240.772 520.532,239.563 513.876,237.901C513.82,233.367 513.74,228.852 513.523,224.544ZM508.464,288.684C514.168,290.559 528.996,293.249 542.858,280.605C539.181,270.366 528.988,259.162 512.541,257.459C512.31,262.402 511.642,266.584 511.154,271.452C515.722,272.739 522.341,275.04 526.771,275.926C529.604,276.388 531.09,277.184 531.312,277.835C530.676,279.932 518.506,276.883 510.739,275.052C510.217,279.633 509.252,284.324 508.464,288.684ZM499.189,320.328C505.574,324.53 519.44,330.784 534.891,322.159C532.961,301.267 519.147,296.793 508.238,293.611C507.369,297.794 506.7,300.947 505.576,304.752C509.956,307.271 514.077,310.421 519.417,312.744C522.456,314.072 524.601,315.363 525.395,316.964C519.67,316.969 512.431,312.193 504.189,308.047C502.78,312.385 500.991,316.474 499.189,320.328ZM480.584,346.226C483.34,350.611 491.124,359.87 511.186,360.291C513.642,341.108 508.518,329.309 497.552,324.043C495.711,327.6 493.742,331.01 491.499,334.157C493.987,337.549 497.384,342.867 501.574,347.704C503.628,350.075 504.686,351.911 504.335,352.7C503.46,352.584 500.164,351.053 488.865,337.158C486.223,340.475 483.77,343.363 480.584,346.226ZM453.404,362.605C454.814,369.517 460.542,384.434 483.321,385.269C487.767,372.358 483.511,355.567 478.341,348.057C475.042,350.88 471.768,353.164 468.146,355.456C470.513,360.128 473.919,367.477 476.547,372.885C477.773,375.404 478.454,376.945 478.132,378.036C476.633,378.188 471.081,369.87 464.663,357.375C461.088,359.42 457.245,361.13 453.404,362.605ZM422.375,383.485C425.564,388.003 431.028,394.228 440.086,399.755C452.148,384.022 454.387,373.207 448.883,363.681C444.913,364.939 441.128,366.137 436.925,366.731C437.3,371.983 438.029,379.662 438.671,384.579C438.763,385.338 439.171,388.689 438.118,389.121C436.227,388.237 434.946,377.269 433.886,367.242C430.914,367.334 428.232,367.187 426.018,367.051C425.271,372.454 424.029,377.956 422.375,383.485ZM530.931,217.942C540.71,221.247 558.208,226.598 571.89,230.134C584.242,233.032 593.522,236.336 600.694,237.913C610.461,240.059 615.79,241.714 619.094,243.012C626.605,245.963 627.475,247.842 625.644,252.915C621.442,264.562 616.697,274.692 609.001,280.531C603.93,284.377 596.985,286.379 586.567,286.379C579.804,286.159 572.494,284.037 565.726,281.933C556.724,279.134 549,276.051 543.732,274.553C539.917,267.526 534.885,262.118 526.844,258.714C530.977,257.042 536.938,254.29 543.568,248.696C551.877,251.458 561.754,254.703 572.416,257.441C585.431,261.237 597.91,263.1 603.864,259.077L600.779,258.708C590.023,260.853 570.26,254.97 546.093,244.814C541.999,232.663 533.303,225.743 525.004,222.919C527.345,222.04 529.224,220.744 530.931,217.942ZM544.216,284.241C551.758,288.276 570.61,298.179 584.319,305.24C599.56,313.087 615.689,321.277 630.706,329.415C634.28,331.354 635.847,331.97 634.632,335.283C629.842,350.834 616.839,363.147 598.532,363.839C582.589,363.839 560.719,355.411 547.735,346.71C535.277,338.36 529.17,333.003 525.621,329.95C529.751,329.006 534.07,327.257 538.601,324.055C538.972,315.033 535.578,308.14 530.672,303.108C556.027,317.664 582.248,339.661 610.986,341.555L607.42,339.266C579.581,330.967 553.583,312.245 523.622,293.683C530.477,292.684 537.912,290.512 544.216,284.241ZM514.204,330.592C520.057,336.374 563.855,378.549 579.292,392.692C594.371,408.577 613.683,423.679 627.364,436.369C630.046,438.852 632.435,441.679 630.018,444.998C628.682,446.835 625.764,449.803 622.137,452.168C598.756,468.012 581.657,463.14 558.301,448.268C548.056,441.743 533.858,430.2 524.983,421.404C515.422,411.92 496.363,390.164 488.963,380.497C489.557,370.703 488.276,363.495 486.384,358.15C491.965,360.752 500.52,363.616 511.072,364.939C517.948,371.707 525.146,379.454 532.942,386.833C546.773,399.925 560.527,413.324 573.137,422.888C583.768,431.139 592.448,438.591 597.933,438.379L597.392,436.999C575.662,422.998 557.473,406.152 531.402,380.216C525.978,374.82 520.473,368.819 514.505,362.449C516.934,346.665 514.931,336.361 508.27,328.498C510.248,329.304 512.226,330.009 514.204,330.592ZM485.2,388.895C488.07,393.95 493.525,403.232 499.88,413.039C512.144,431.964 526.402,455.034 530.143,460.902C531.15,462.479 532.071,463.854 529.85,464.69C515.304,470.172 499.291,469.42 486.036,463.457C477.413,459.137 470.948,452.854 464.555,444.732C454.251,430.533 455.047,432.739 441.734,403.454C449.045,394.173 453.533,386.19 454.926,378.689C477.925,431.598 502.133,450.984 501.526,450.542L501.779,449.214C477.914,419.418 465.734,393 460.019,380.324C465.631,385.119 473.823,388.868 485.2,388.895ZM229.374,222.296C222.309,222.368 207.856,224.708 199.709,241.401C213.357,255.972 223.722,253.973 229.156,252.345C228.989,247.924 228.917,243.513 228.927,239.162C210.446,241.935 209.598,241.066 208.614,240.338C209.244,238.617 222.252,237.279 228.954,235.615C229.011,231.072 229.155,226.613 229.374,222.296ZM232.68,286.741C226.936,288.801 212.895,291.454 198.938,278.457C202.641,268.2 212.715,256.913 229.277,255.207C229.509,260.159 229.863,265.109 230.354,269.986C225.754,271.276 218.961,273.01 214.5,273.897C211.927,274.408 210.24,275.299 210.182,275.619C211.837,277.342 223.284,274.961 230.708,273.276C231.233,277.865 231.886,282.374 232.68,286.741ZM242.408,318.768C235.978,322.977 222.338,328.662 206.78,320.021C208.724,299.092 222.571,294.416 233.556,291.229C234.431,295.42 235.429,299.416 236.56,303.228C231.983,305.751 227.183,308.52 221.844,310.848C218.783,312.178 216.882,313.407 216.083,315.01C221.848,315.015 229.268,310.618 237.568,306.465C238.987,310.811 240.594,314.907 242.408,318.768ZM261.53,344.776C258.467,349.332 249.451,358.605 230.324,358.414C227.852,339.403 233.012,327.883 244.056,322.102C245.909,325.665 247.957,329.017 250.216,332.17C247.71,335.568 244.159,341.153 239.939,345.999C237.87,348.374 236.74,350.149 237.094,350.939C236.813,351.216 242.136,349.358 252.738,335.499C255.398,338.821 258.322,341.908 261.53,344.776ZM288.121,361.184C286.75,368.501 281.128,383.774 258.058,383.566C253.581,370.632 257.982,353.747 263.188,346.222C266.51,349.051 270.002,351.629 273.649,353.925C271.265,358.606 267.852,365.549 265.205,370.967C263.97,373.49 263.089,375.485 263.414,376.578C265.194,376.191 270.872,367.557 276.914,355.881C280.514,357.929 284.254,359.707 288.121,361.184ZM319.194,382.872C315.96,387.289 310.49,393.249 301.517,398.696C289.44,383.205 287.654,375.012 292.506,362.712C296.503,363.973 300.625,364.915 304.858,365.51C304.48,370.772 303.59,378.671 302.943,383.596C302.85,384.356 302.387,387.61 303.447,388.043C305.441,387.246 306.796,375.962 307.815,365.868C310.396,366.129 313.018,366.261 315.675,366.258C316.417,371.879 317.613,377.421 319.194,382.872ZM210.915,215.754C201.068,219.065 182.622,224.166 168.844,227.708C156.406,230.612 147.155,233.45 139.933,235.029C130.097,237.179 124.446,239.025 121.119,240.326C113.555,243.283 114.007,245.07 115.85,250.153C120.082,261.82 124.006,271.214 131.755,277.062C136.861,280.916 143.475,283.487 153.966,283.487C160.776,283.267 168.137,281.895 174.953,279.787C184.019,276.984 192.745,273.801 198.05,272.3C201.892,265.261 206.772,260.106 214.87,256.696C210.708,255.021 205.551,251.759 198.875,246.155C190.507,248.923 178.955,252.51 168.218,255.253C155.728,258.442 143.776,259.973 137.592,256.132L140.838,255.9C152.398,257.542 173.645,251.858 196.333,242.098C199.832,229.771 208.94,223.847 217.591,221.092C215.234,220.211 212.634,218.561 210.915,215.754ZM197.252,281.292C189.657,285.334 169.829,295.859 156.023,302.933C140.675,310.794 124.637,318.252 109.515,326.404C105.916,328.346 105.498,329.438 106.721,332.758C112.622,348.73 125.426,360.867 142.936,361.229C158.991,361.229 179.99,353.397 193.066,344.681C205.611,336.316 212.475,330.949 216.05,327.891C211.891,326.945 207.476,325.064 202.914,321.856C202.541,312.818 205.829,306.171 210.77,301.13C186.876,313.828 165.812,333.996 130.063,338.143L133.152,336.475C162.762,327.264 188.585,309.882 218.279,291.559C211.472,290.746 203.823,288.019 197.252,281.292ZM228.105,328.217C222.123,334.538 175.467,377.441 160.04,390.899C144.854,406.812 126.133,421.098 112.355,433.811C109.654,436.299 108.576,439.345 111.011,442.67C112.355,444.511 114.743,446.571 118.395,448.94C141.939,464.812 158.985,461.059 182.506,446.161C192.823,439.624 207.035,428.319 215.972,419.507C225.601,410.006 245.298,388.53 252.75,378.846C251.809,369.206 253.097,361.881 255.156,356.45C249.537,359.057 241.709,361.389 231.082,362.714C211.946,380.334 187.785,405.631 167.274,420.736C156.568,428.622 148.5,435.147 142.976,435.379L142.692,434.666C173.973,412.97 194.438,394.307 226.988,360.729C224.542,344.916 226.666,334.735 233.375,326.859C231.734,327.426 229.972,327.898 228.105,328.217ZM256.173,387.35C253.282,392.414 247.846,401.399 241.446,411.224C229.095,430.183 214.541,453.198 210.773,459.076C209.759,460.655 208.832,462.033 211.069,462.87C225.716,468.362 241.841,467.608 255.189,461.635C264.515,457.467 270.879,451.499 276.919,443.264C287.296,429.039 286.348,431.539 299.757,402.201C292.28,392.905 287.975,384.569 286.717,377.055C263.736,430.058 239.03,449.14 239.592,448.697L239.337,447.367C263.876,417.518 276.222,391.465 281.446,378.767C275.794,383.57 267.63,387.323 256.173,387.35ZM387.485,516.221C393.037,525.685 403.079,530.483 415.295,530.316C431.147,530.102 439.244,513.881 436.051,498.989C445.91,502.771 449.394,513.934 449.092,523.713C448.269,546.853 430.626,552.582 420.419,552.826C406.79,553.152 393.184,546.192 385.095,534.928C385.84,532.663 386.457,530.213 386.886,527.578C393.178,535.778 404.302,543.507 417.567,543.254C425.287,543.112 433.153,540.57 438.804,534.045L435.036,534.817C415.388,547.642 396.988,536.655 387.376,523.578C387.569,521.254 387.616,518.802 387.485,516.221ZM384.949,535.368C396.321,575.039 428.332,583.843 443.725,584.313C453.822,584.622 464.881,583.173 474.015,578.993C482.849,574.985 491.699,570.609 500.365,567.017C509.244,563.335 519.457,562.296 530.591,567.925C553.77,579.646 554.303,610.896 536.005,626.097C528.551,632.29 519.706,636.423 509.882,635.9C518.727,630.111 525.67,622.962 528.383,616.116C535.75,597.536 519.138,586.552 503.257,594.414C484.512,603.575 468.758,612.701 447.226,612.939C417.08,613.277 397.86,599.217 383.387,575.935C383.579,605.285 388.946,622.635 396.197,632.486C410.241,651.564 434.671,644.658 448.97,633.299C452.512,650.691 441.319,663.908 429.113,667.328C421.862,669.347 411.997,669.394 404.972,666.639C389.085,660.411 381.886,642.336 382.813,642.503C381.985,643.138 383.416,649.355 386.071,655.738C387.659,659.55 388.981,663.059 389.873,666.681C391.815,674.59 392.105,679.934 386.969,686.489C382.993,691.518 376.612,697.836 370.653,703.287C366.724,698.679 360.319,694.154 354.198,686.495C348.292,679.102 349.011,674.162 351.416,665.927C352.697,661.533 354.048,655.999 355.653,652.822C358.476,647.235 358.905,644.177 358.279,642.639C358.134,643.286 348.535,668.112 326.441,668.088C315.915,668.326 306.079,665.725 299.871,658.778C293.988,652.193 289.438,642.562 292.475,632.266C305.563,642.788 328.423,650.281 342.2,635.55C350.239,626.958 357.334,609.561 357.821,575.852C343.302,598.694 326.041,611.953 297.448,612.06C271.407,611.935 255.096,600.529 234.346,591.385C221.415,585.685 206.704,596.824 212.402,613.123C214.396,618.823 219.699,626.038 231.529,634.101C218.494,634.813 207.331,628.846 198.248,616.496C192.585,608.794 190.394,596.349 193.223,586.872C198.48,569.327 214.848,562.077 226.962,562.077C240.809,562.854 255.45,572.919 265.158,576.82C273.313,580.994 286.546,583.773 295.652,583.702C324.868,583.465 346.891,563.628 355.692,537.195C357.013,540.619 358.76,543.878 360.865,546.877C358.448,552.281 351.466,567.364 345.527,575.015C339.088,583.167 330.295,597.014 305.053,599.199C292.371,600.292 279.121,596.325 266.996,591.088C258.858,587.567 251.224,582.603 244.767,578.512C239.453,575.14 233.778,572.925 228.504,572.925C220.099,572.925 216.123,577.051 214.344,580.192C217.804,577.865 222.256,574.766 228.579,574.766C232.283,574.771 237.349,577.093 244.061,581.048C250.761,584.996 257.571,589.711 264.637,593.238C275.794,598.807 292.243,603.308 304.16,602.869C310.924,602.625 327.472,600.731 341.285,586.991C354.11,573.708 361.228,555.323 363.105,549.81C365.125,552.243 367.395,554.458 369.871,556.394C370.686,555.963 374.139,553.445 377.78,548.741C378.703,554.818 385.149,572.904 398.962,586.789C409.789,597.673 424.296,603.831 439.528,603.831C454.207,603.64 467.073,598.462 480.086,592.325C489.484,587.893 503.924,576.542 511.875,576.523C518.205,576.523 522.494,580.353 525.954,582.68C525.201,579.551 520.465,574.481 511.62,574.487C499.031,575.027 489.358,585.483 477.499,590.477C465.652,595.768 452.135,599.975 439.355,600.167C421.01,600.167 406.589,590.631 395.461,576.303C387.184,567.507 381.519,552.38 379.944,545.692C381.8,542.835 383.578,539.399 384.949,535.368ZM355.381,536.36C349.206,544.557 336.333,551.437 323.386,552.036C306.328,552.82 292.226,541.241 292.122,521.511C292.081,511.702 297.06,502.083 306.009,497.736C302.682,510.983 306.073,528.499 328.226,530.097C332.699,530.203 345.444,528.646 353.113,517.496C352.857,519.618 352.781,521.741 352.872,523.849C346.569,532.044 336.737,540.773 323.177,539.917C318.083,539.597 313.324,538.13 305.395,533.57L303.042,533.012C310.519,539.769 317.891,542.47 324.858,542.744C336.639,543.207 345.521,536.195 353.273,528.054C353.692,530.888 354.405,533.672 355.381,536.36Z" style="fill:white;"/>
                                    <path id="_68800936" d="M370.601,546.44C370.601,546.44 369.117,536.008 369.117,526.691C369.117,517.375 369.806,494.385 369.806,494.385L371.487,494.385C371.487,494.385 372.478,519.804 372.478,526.691C372.478,533.579 371.586,543.097 370.601,546.44ZM306.39,648.058C306.39,648.058 312.916,658.277 327.349,658.277C341.787,658.277 358.393,644.205 359.378,618.684C353.159,635.423 345.293,654.483 327.152,654.946C316.672,654.946 312.522,651.3 306.39,648.058ZM370.369,693.874C370.369,693.874 368.28,691.872 368.28,673.646C368.28,655.421 369.671,649.409 370.542,641.6C371.587,649.409 372.28,666.636 372.28,673.846C372.28,681.056 372.454,687.867 370.369,693.874ZM434.948,648.873C434.948,648.873 428.311,658.836 413.873,658.836C399.145,658.919 380.667,641.409 381.954,619.499C386.921,634.901 395.482,654.128 414.4,655.321C424.886,655.321 428.815,652.115 434.948,648.873Z" style="fill:rgb(10,11,12);"/>
                                    <path id="_68800792" d="M147.879,550.113C144.611,547.788 143.081,542.779 142.139,536.892C144.835,538.8 148.408,540.588 151.562,541.501C149.833,543.939 149.227,547.125 147.879,550.113ZM592.175,553.821C595.464,551.524 597.294,547.301 598.287,541.423C595.575,543.307 591.128,543.777 587.967,544.663C589.675,547.66 590.853,551.194 592.175,553.821ZM597.16,537.439C597.393,532.055 595.505,529.213 589.753,526.333C582.924,522.914 571.122,519.017 550.518,514.028C548.736,513.597 548.27,511.242 550.374,510.577C556.225,508.729 563.949,506.451 570.303,506.094C573.647,505.907 575.519,503.666 577.378,501.188C578.89,499.174 579.66,496.868 576.907,495.211C574.239,493.605 571.315,493.747 566.86,494.773C557.225,496.987 547.868,502.159 538.317,504.67C527.195,509.211 516.904,506.401 506.111,501.823C492.137,496.155 449.815,472.351 442.28,467.32C437.625,467.791 431.829,467.293 424.718,465.204C424.831,468.313 424.658,471.111 424.257,473.636C453.622,485.27 481.438,498.484 507.053,513.821C510.087,515.528 507.884,519.535 504.962,518.916C491.751,516.113 471.672,519.933 471.032,530.499C470.805,534.248 473.476,537.291 476.937,538.109C481.385,539.16 481.421,537.685 484.032,534.878C485.33,533.482 486.521,532.548 489.663,531.851C492.619,531.194 497.648,530.757 502.847,530.802C512.787,530.889 517.1,531.539 523.509,534.991C528.869,537.882 536.242,541.242 543.1,545.702C552.097,551.552 560.973,557.989 565.435,564.108C565.844,564.67 566.313,565.615 566.607,566.229C568.971,567.088 571.273,566.901 573.673,566.547C577.19,566.03 578.876,565.297 579.925,563.841C580.143,562.613 580.195,561.22 580.11,559.664C579.542,553.117 577.732,551.68 573.103,548.689C565.456,543.748 553.829,538.379 545.848,534.934C538.386,531.713 540.339,522.007 549.624,524.067C560.931,526.602 573.902,533.547 584.396,541.12C589.06,541.246 593.875,540.381 597.16,537.439ZM477.402,541.549C479.053,544.089 480.514,546.46 483.944,548.927C483.813,546.391 483.716,543.889 483.638,541.52C481.146,541.886 479.514,541.988 477.402,541.549ZM567.609,569.73C567.932,572.166 568.491,575.208 567.797,577.832C572.279,576.385 575.862,572.531 578.32,569.204C574.876,569.609 570.45,569.771 567.609,569.73ZM577.087,507.278C578.903,507.779 580.915,508.372 582.352,509.559C583.063,505.92 582.622,503.217 581.834,500.858C580.553,503.403 578.86,505.887 577.087,507.278ZM231.923,198.27C231.923,198.27 228.382,195.509 228.382,188.217C228.382,182.606 233.511,179.845 238.531,179.845C242.797,179.572 247.393,182.155 248.274,187.564C248.5,189.161 248.494,191.697 247.863,193.098C246.547,196.002 245.649,195.883 246.019,197.337L247.434,199.748C249.092,198.466 252.018,196.791 255.206,197.248C259.64,197.878 263.448,201.737 263.304,206.47C262.84,216.706 252.407,219.016 244.866,212.698L243.811,213.417C244.518,216.778 246.049,234.311 246.808,247.998C247.567,263.58 245.46,344.809 315.071,349.45C314.802,353.908 314.863,358.393 315.288,362.881C273.983,360.992 247.356,334.451 238.491,298.533C232.984,276.499 231.164,244.447 233.541,213.441L232.758,212.829C230.486,216.902 226.817,218.915 222.377,218.523C219.16,218.202 213.961,216.902 213.289,207.942C214.222,198.774 222.377,196.286 227.71,198.691C228.933,199.244 230.463,199.659 231.158,199.629L231.923,198.27ZM510.833,199.913C513.44,197.027 514.528,193.808 514.425,190.892C514.207,184.698 509.102,181.503 504.088,181.563C499.512,181.616 494.999,184.372 494.308,190.009C494.089,191.799 494.412,193.666 495.235,195.45C496.449,198.076 496.823,197.08 497.048,199.113L495.787,201.087C495.079,200.968 494.014,200.725 492.967,199.931C491.821,199.066 490.002,198.627 488.235,198.775C483.671,199.154 479.273,202.77 479.486,208.247C479.877,218.459 490.577,220.457 498.065,214.15L499.199,214.992C498.497,218.347 496.504,236.709 495.749,250.371C494.991,265.987 496.836,346.27 426.862,350.282C427.049,354.763 426.879,359.265 426.422,363.701C468.187,362.411 494.37,336.898 503.274,300.645C509.112,278.472 511.779,246.032 509.093,215.241L510.026,214.63C512.19,218.507 514.97,220.629 519.281,220.718C525.324,220.842 528.859,216.658 529.337,210.215C528.929,204.015 524.808,200.725 520.163,200.115C516.295,199.605 513.279,201.804 512.3,201.786L510.833,199.913ZM323.247,233.682C330.678,233.296 334.805,230.303 339.992,226.509C347.62,219.26 355.3,219.841 364.533,227.584C363.072,220.815 356.419,217.086 350.535,216.825C345.075,216.588 339.216,219.901 334.045,224.122C323.496,231.978 311.545,227.709 303.297,217.834C301.726,219.503 302.37,223.315 304.114,225.921C307.72,231.283 317.045,234.003 323.247,233.682ZM374.004,237.69C376.653,232.851 378.171,227.548 377.794,221.913C377.244,214.485 372.381,208.506 364.985,203.691C360.522,200.787 357.323,198.721 353.659,194.862C348.942,189.892 343.783,185.052 338.792,181.324C331.692,181.24 319.497,182.286 314.704,192.534C311.133,200.17 312.745,212.562 319.961,217.187C319.961,217.187 326.661,205.157 339.1,202.705C346.716,201.238 354.332,203.738 360.98,207.592C369.79,212.71 374.85,222.038 368.121,233.159C362.33,227.798 348.634,218.927 340.456,229.686C345.725,230.624 350.112,225.637 367.889,238.877C370.12,240.534 372.381,240.647 374.004,237.69ZM416.454,176.275C423.756,158.25 429.872,139.409 436.248,120.734C431.32,121.837 421.758,120.281 424.261,136.481C419.827,123.978 406.017,128.387 412.066,143.634C415.882,139.26 418.379,142.4 418.8,146.47C419.906,157.056 410.259,160.649 401.639,160.603C396.577,160.649 391.796,158.732 388.687,156.321C385.168,153.582 384.316,150.798 384.798,146.349C385.415,141.177 391.409,137.773 395.399,144.501C406,130.545 392.75,121.222 385.746,133.261C386.774,124.495 383.07,123.071 379.304,116.808C373.569,124.202 371.616,124.787 372.548,132.801C369.669,129.311 367.166,126.423 362.233,128.249C356.621,130.333 357.861,138.99 362.89,143.915C366.223,138.037 373.687,140.941 373.574,147.664C373.574,152.101 369.484,160.27 356.722,160.27C347.092,160.948 338.315,156.596 339.331,145.362C339.718,141.062 344.118,139.294 345.908,143.502C351.357,133.157 341.335,119.471 333.972,136.504C333.742,130.252 338.147,121.733 322.271,119.965C328.321,139.833 334.398,159.369 340.801,174.725C367.862,174.14 392.806,174.823 416.454,176.275ZM141.756,533.077C141.707,523.249 151.235,519.947 189.537,511.026C191.322,510.611 191.809,508.259 189.711,507.577C183.876,505.678 176.174,503.121 169.823,502.709C166.672,502.505 165.284,501.405 163.125,498.976C161.104,496.701 159.051,493.765 162.33,491.83C165.012,490.247 168.919,490.283 173.366,491.349C182.981,493.647 192.29,499.181 201.819,501.775C211.912,505.999 225.323,503.946 235.146,499.881C248.312,494.425 288.843,471.17 297.641,465.56C302.348,465.946 308.345,465.076 315.846,462.759C315.81,466.016 316.059,468.96 316.525,471.622C288.267,483.038 260.358,496.048 233.002,511.198C229.953,512.879 232.121,516.905 235.048,516.311C248.282,513.624 268.328,517.619 268.876,528.19C269.13,533.105 266.783,536.211 261.929,536.629C257.506,537.01 257.981,534.801 255.838,532.455C254.552,531.048 253.369,530.104 250.234,529.38C247.283,528.697 242.258,528.216 237.059,528.216C227.119,528.216 222.801,528.827 216.361,532.224C210.977,535.068 203.575,538.363 196.678,542.763C187.63,548.534 178.698,554.894 174.183,560.974C173.769,561.532 173.414,562.118 173.114,562.729C170.743,563.567 168.321,563.716 165.924,563.342C162.411,562.793 160.732,562.046 159.696,560.581C159.489,559.351 159.449,557.957 159.548,556.402C160.209,546.257 180.877,537.511 194.024,531.972C201.513,528.817 199.645,519.094 190.342,521.073C178.831,523.446 165.523,529.896 155.511,537.565C150.845,537.869 145.011,536.529 141.756,533.077ZM264.602,538.881C262.748,541.222 260.255,543.851 256.963,546.45C257.116,543.915 257.622,541.354 257.72,538.985C260.209,539.373 262.486,539.302 264.602,538.881ZM171.96,566.576C171.616,569.009 171.866,571.638 172.537,574.268C168.35,571.17 165.072,568.904 162.561,566.028C166.001,566.463 169.118,566.593 171.96,566.576ZM163.243,503.554C161.422,504.04 159.755,504.829 158.307,506.003C157.892,502.229 158.075,499.248 158.763,496.954C160.023,499.511 161.482,502.148 163.243,503.554Z" style="fill:rgb(236,191,7);"/>
                                </g>
                            </g>
                        </g>
                    </g>
                </g>
            </g>
        </g>
    </g>
</svg>
