<?xml version="1.0" encoding="UTF-8" standalone="no"?>
<!DOCTYPE svg PUBLIC "-//W3C//DTD SVG 1.1//EN" "http://www.w3.org/Graphics/SVG/1.1/DTD/svg11.dtd">
<svg width="100%" height="100%" viewBox="0 0 150 151" version="1.1" xmlns="http://www.w3.org/2000/svg" xmlns:xlink="http://www.w3.org/1999/xlink" xml:space="preserve" xmlns:serif="http://www.serif.com/" style="fill-rule:evenodd;clip-rule:evenodd;stroke-linejoin:round;stroke-miterlimit:2;">
    <g transform="matrix(1,0,0,1,0,-2670)">
        <g id="mazowieckie" transform="matrix(0.138889,0,0,0.138889,0,2670.56)">
            <rect x="0" y="0" width="1080" height="1080" style="fill:none;"/>
            <g id="mazowieckie.svg" transform="matrix(1.22325,0,0,1.22325,540,540)">
                <g transform="matrix(1,0,0,1,-372,-441.445)">
                    <clipPath id="_clip1">
                        <rect x="0" y="0" width="744" height="882.891"/>
                    </clipPath>
                    <g clip-path="url(#_clip1)">
                        <g id="Warstwa_x0020_1" transform="matrix(1.1918,0,0,1.1918,-71.3492,-84.6683)">
                            <path id="path10" d="M684.133,71.042L684.133,465.378C684.072,632.796 615.235,719.19 542.325,763.855C469.457,808.494 392.558,811.36 376.218,811.848L376.114,811.848C359.465,811.416 280.458,808.353 205.574,763.609C130.637,718.834 59.867,632.412 59.867,465.377L59.867,71.042L684.133,71.042Z" style="fill-rule:nonzero;"/>
                            <path id="path12" d="M680.01,75.167L63.99,75.167L63.99,465.378C63.99,630.573 133.782,715.926 207.684,760.082C281.56,804.223 359.582,807.291 376.155,807.723C392.403,807.237 468.318,804.369 540.182,760.344C612.074,716.303 679.948,630.978 680.009,465.378L680.009,75.167L680.01,75.167Z" style="fill:rgb(230,13,46);"/>
                            <path id="path14" d="M447.935,310.424C448.759,310.961 449.739,311.344 450.835,311.607C453.882,312.34 457.854,312.218 462.056,311.883L462.113,311.883C467.35,311.604 471.58,310.684 474.568,308.976C477.252,307.441 478.931,305.22 479.421,302.184L479.607,284.159L479.607,284.135C479.692,280.291 478.945,277.522 477.594,275.535C476.281,273.605 474.336,272.347 471.998,271.512L471.926,271.487L471.797,271.424C468.64,269.896 466.092,267.935 464.396,265.372C462.68,262.778 461.87,259.642 462.219,255.816L462.213,255.815L463.148,234.471L463.172,234.294C463.586,231.143 464.606,228.399 466.293,226.104C467.95,223.849 470.227,222.059 473.178,220.776C479.261,216.563 484.956,212.109 488.276,206.19C491.565,200.323 492.585,192.834 489.422,182.357L488.031,177.753C494.84,181.201 500.939,184.475 505.246,191.204L580.929,120.667C581.591,119.705 582.07,118.751 582.365,117.809C582.655,116.88 582.76,115.937 582.679,114.982L582.679,114.974C582.262,109.829 582.916,106.704 584.064,105.027C585.538,102.877 587.972,102.575 590.136,103.854C592.026,104.969 593.83,107.396 594.604,109.935L594.599,109.936C599.708,125.165 601.317,137.127 600.377,146.709C599.415,156.53 595.807,163.856 590.546,169.623L590.544,169.621C580.074,181.589 569.877,193.147 559.801,204.229C550.268,214.715 540.717,224.919 530.943,234.88C532.2,234.87 533.477,234.905 534.775,234.985C546.977,227.744 559.064,219.999 570.939,211.897C584.537,202.618 597.813,192.899 610.629,182.953C611.818,181.854 612.832,180.48 613.629,178.771C614.617,176.65 615.088,174.457 615.418,172.151C615.96,169.216 617.099,167.485 618.378,166.61C619.838,165.611 621.668,165.581 623.158,166.534C624.322,167.277 625.181,168.588 625.346,170.042L625.346,170.049C630.992,222.004 620.56,229.767 608.82,238.503C607.441,239.528 606.07,240.559 604.737,241.639L604.726,241.645C582.201,256.457 559.671,271.368 536.136,284.547C558.695,279.943 581.129,273.351 603.561,266.759C607.51,265.599 611.434,264.445 616.475,262.982L616.474,262.978C620.601,261.689 623.793,259.793 626.336,257.477C628.873,255.165 630.793,252.404 632.364,249.39C633.871,245.816 638.056,241.327 641.595,245.239C642.57,246.316 643.207,247.991 643.268,250.009L643.268,250.017C643.718,267.1 640.915,280.386 635.14,290.199C629.293,300.134 620.463,306.457 608.93,309.505C589.958,315.69 570.954,320.713 551.932,324.931C545.146,326.436 538.36,327.839 531.574,329.153C540.766,329.414 549.978,329.63 559.23,329.76C576.852,330.007 594.704,329.942 613.002,329.275L613.074,329.275C623.472,329.248 627.678,325.607 631.935,321.922C634.076,320.068 635.768,317.311 638.459,316.371C642.546,314.943 644.663,318.589 644.191,322.134L644.175,322.252L644.151,322.352C639.701,340.528 632.75,353.167 623.774,361.319C614.702,369.558 603.643,373.192 591.063,373.297L591.063,373.298C570.724,374.163 550.507,374.702 530.472,374.755C525.085,374.769 519.715,374.747 514.365,374.687C525.127,377.816 536.014,380.748 546.993,383.535C567.798,388.815 588.938,393.571 610.187,398.156L610.186,398.161C614.177,398.869 617.602,398.637 620.661,397.802C625.144,396.579 629.919,391.802 633.725,391.471C638.003,391.098 639.87,395.538 638.357,398.946C629.784,413.663 622.247,424.892 611.647,431.467C600.97,438.09 587.449,439.85 567.093,435.478L567.093,435.477C545.688,432.021 526.027,427.038 507.783,420.949C498.546,417.867 489.678,414.504 481.135,410.916C481.508,411.629 481.861,412.35 482.197,413.082C496.271,422.132 510.327,430.779 524.361,438.997C543.195,450.025 562.055,460.318 580.941,469.817C587.954,473.353 595.224,474.202 602.729,471.754C611.927,467.64 614.832,475.476 608.821,481.028C597.628,491.364 586.101,498.441 574.19,501.749C562.183,505.083 549.843,504.583 537.129,499.728L536.984,499.663C515.25,489.378 495.73,478.683 479.018,467.373C485.629,480.711 492.156,493.252 499.009,503.564C507.14,515.798 515.723,524.914 525.455,528.504L531.375,530.687L525.31,532.418C501.265,539.28 484.568,526.959 472.535,511.275C483.275,532.892 495.159,550.886 513.386,551.789L526.001,552.413L513.845,555.832C509.165,557.148 504.736,557.873 500.529,558.061L523.438,589.011C525.979,591.75 528.66,593.294 531.479,593.641C534.35,593.994 537.467,593.134 540.83,591.061L540.94,590.993L541.055,590.94L574.893,575.442C579.45,573.356 586.571,575.313 590.547,579.031L593.611,580.888C598.843,584.058 602.008,587.567 603.288,591.67C605.176,597.727 602.549,603.209 600.05,608.555C596.872,603.866 593.819,600.318 587.821,598.977C587.775,599.013 587.73,599.049 587.685,599.085C583.377,602.446 577.321,603.778 570.922,600.46L548.282,607.332L579.644,614.496C581.37,614.891 582.661,615.799 584.134,616.743C589.054,619.898 591.708,623.281 592.72,626.513L592.738,626.48L592.744,626.589C593.234,628.194 593.348,629.884 593.024,631.536C593.772,637.272 593.803,644.163 589.913,649.636C586.382,654.675 580.884,656.02 575.337,657.438C576.563,651.582 576.639,647.113 574.372,641.302C570.431,640.302 566.688,637.736 564.105,633.087L539.939,623.357L554.815,650.268C555.919,652.265 556.414,653.342 556.837,655.723C557.719,660.674 556.474,664.319 554.147,666.68L552.584,669.61C549.385,675.612 545.143,678.89 540.025,679.871C532.675,681.281 525.923,677.815 519.57,674.654C525.303,671.622 531.774,669.119 533.788,662.22C532.268,659.291 531.647,655.549 532.541,651.042L522.404,624.626C521.921,623.411 522.093,623.199 521.224,623.832L499.854,646.175C500.323,652.157 498.304,656.037 495.188,658.259L495.243,658.501C496.409,663.629 501.275,667.509 504.941,670.892C499.189,673.118 494.102,675.058 488.321,671.152C484.709,668.713 481.462,664.346 477.484,658.214L476.129,655.896C473.942,653.571 472.929,650.545 474.051,647.153C477.151,636.842 485.49,630.319 497.013,621.303C498.617,620.05 502.664,617.148 505.471,614.687C507.724,612.711 509.007,611.263 508.879,609.34C508.766,607.652 507.22,605.984 506.042,604.886L453.885,556.277C450.976,570.457 442.643,581.77 433.941,592.894L433.897,586.989C433.737,565.498 429.68,548.369 423.27,533.876C417.317,520.413 409.323,509.188 400.53,498.842C400.029,501.493 399.455,504.074 398.81,506.582C403.133,535.395 410.361,560.009 421.827,578.491C433.167,596.769 448.696,609.062 469.732,613.48L474.206,614.419C454.751,629.018 434.128,630.164 410.941,629.644C412.412,632.309 413.953,634.934 415.564,637.513C432.355,664.381 456.79,686.253 489.472,696.27L493.295,697.442C486.517,702.62 479.717,707.304 472.028,711.104C465.86,714.153 459.518,716.586 452.937,718.617L452.937,718.616C436.968,723.768 429.908,716.174 420.664,706.227C415.421,700.589 410.266,694.934 405.444,688.927C406.836,694.231 407.603,699.973 407.448,706.424C407.176,717.816 403.342,733.05 396.983,746.491C391.477,758.13 384.041,768.489 375.314,773.996L374.077,774.777L372.938,773.867C363.06,765.977 355.108,755.814 349.328,744.506C343.31,732.735 339.635,719.72 338.581,706.738C338.167,701.65 338.714,696.411 339.93,691.048C336.969,695.525 333.876,699.975 330.659,704.398C326.973,709.465 323.326,713.613 318.786,716.4C314.157,719.243 308.731,720.611 301.618,720.01L301.586,719.994C290.073,718.848 280.61,716.487 272.64,713.243C264.618,709.978 258.099,705.819 252.522,701.103L249.877,698.866L253.11,697.616C287.842,684.187 313.061,663.167 330.13,636.687C331.612,634.388 333.032,632.047 334.393,629.667C311.426,629.898 292.121,628.585 273.056,614.419L277.53,613.48C298.566,609.062 314.095,596.769 325.435,578.491C336.323,560.94 343.39,537.86 347.777,510.906C346.606,506.999 345.736,502.987 345.152,498.874C336.247,509.314 328.144,520.635 322.126,534.244C315.716,548.737 311.66,565.866 311.499,587.357L311.456,593.262L307.819,588.614C298.617,576.852 293.591,566.567 291.557,556.871L241.527,603.509C238.458,606.259 237.874,608.647 240.737,611.811C244.399,614.84 247.67,617.399 250.707,619.775C262.23,628.791 270.569,635.314 273.669,645.625C274.764,648.935 273.826,651.896 271.748,654.199L269.145,658.212C265.149,664.373 262.163,668.364 258.773,670.436C253.349,673.75 248.074,671.412 242.779,669.363C246.525,665.906 251.304,662.13 252.476,656.973L252.531,656.731C249.416,654.509 247.397,650.628 247.866,644.647L226.496,622.303C225.882,621.742 225.883,621.785 225.316,623.097L215.179,649.514C216.072,654.019 215.45,657.761 213.931,660.69C215.947,667.591 222.414,670.093 228.149,673.126C221.797,676.286 215.045,679.753 207.694,678.343C202.577,677.361 198.335,674.084 195.136,668.082L193.574,665.152C190.772,662.31 189.537,657.606 191.696,651.004L191.758,650.814L191.848,650.65L207.781,621.829L183.614,631.558C181.032,636.207 177.288,638.773 173.348,639.773C171.146,645.585 171.415,650.054 172.383,655.909C166.634,654.44 161.293,652.976 157.775,647.615C154.304,642.326 154.314,635.865 154.657,629.802C154.689,630.013 154.646,625.649 155.427,623.838C156.958,620.289 160.521,616.612 166.915,613.3L167.146,613.18L167.398,613.123L199.437,605.803L176.797,598.932C170.399,602.25 164.343,600.917 160.035,597.557C159.989,597.521 159.944,597.485 159.898,597.449C154.125,598.869 151.117,602.702 147.67,607.027L146.266,604.023C143.828,598.805 143.153,594.104 144.424,589.838C145.697,585.57 148.866,581.881 154.109,578.705C158.11,575.582 165.995,572.012 171.832,573.458L205.041,588.668C208.715,590.385 211.918,592.643 216.241,592.112C219.06,591.765 221.741,590.222 224.282,587.483L245.763,558.462C241.291,558.343 236.565,557.61 231.551,556.2L219.395,552.781L232.01,552.157C251.06,551.214 263.181,531.602 274.308,508.697C262.749,526.644 247.766,540.685 220.087,532.786L214.022,531.055L219.942,528.872C229.674,525.282 238.257,516.166 246.387,503.932C254.664,491.479 262.463,475.775 270.511,459.341L270.515,459.343C270.606,459.134 270.7,458.928 270.794,458.723C267.608,461.151 264.293,463.551 260.855,465.922C243.681,477.77 223.427,488.939 200.766,499.663L200.621,499.728C187.907,504.583 175.567,505.083 163.56,501.749C151.649,498.441 140.122,491.364 128.929,481.028C127.062,479.303 125.912,477.159 125.706,475.358C125.459,473.202 126.515,471.296 128.671,470.696C132.572,469.609 140.031,473.479 145.347,473.123C148.979,472.879 152.779,471.849 156.808,469.817C175.695,460.318 194.555,450.025 213.389,438.997C227.967,430.461 242.568,421.462 257.188,412.029C257.642,411.379 258.114,410.728 258.606,410.072C249.452,413.978 239.924,417.627 229.967,420.949C211.723,427.038 192.062,432.021 170.657,435.477L170.657,435.478C150.3,439.85 136.779,438.09 126.103,431.467C115.503,424.892 107.966,413.663 99.393,398.946C98.758,397.516 98.666,395.729 99.274,394.268C100.074,392.342 101.97,391.292 104.025,391.471C105.467,391.596 107.121,392.324 108.773,393.826C111.331,395.533 114.041,396.97 117.088,397.802C120.147,398.637 123.573,398.869 127.564,398.161L127.563,398.156C148.811,393.571 169.951,388.815 190.756,383.535C201.736,380.748 212.623,377.816 223.385,374.687C218.035,374.746 212.665,374.769 207.278,374.755C187.243,374.702 167.025,374.163 146.687,373.298L146.687,373.297C134.106,373.192 123.048,369.558 113.976,361.319C105,353.167 98.048,340.528 93.599,322.352L93.575,322.252L93.559,322.134C93.086,318.59 95.204,314.943 99.291,316.371C101.982,317.312 103.674,320.068 105.815,321.922C110.072,325.607 114.278,329.248 124.676,329.275L124.748,329.275C143.046,329.942 160.898,330.007 178.519,329.76C187.772,329.63 196.985,329.414 206.176,329.153C199.391,327.839 192.604,326.437 185.818,324.931C166.796,320.713 147.792,315.69 128.819,309.505C117.287,306.457 108.457,300.134 102.61,290.199C96.835,280.386 94.032,267.1 94.482,250.017L94.482,250.009C94.542,247.991 95.18,246.316 96.155,245.239C97.578,243.665 99.694,243.359 101.535,244.391C102.9,245.156 104.275,246.756 105.386,249.39C106.957,252.404 108.877,255.165 111.414,257.477C113.957,259.793 117.149,261.689 121.276,262.978L121.275,262.982C126.315,264.445 130.239,265.599 134.188,266.759C156.62,273.35 179.053,279.943 201.612,284.547C180.57,272.763 159.551,259.088 138.579,245.3C135.225,243.096 132.144,240.894 128.93,238.503C117.189,229.767 106.758,222.004 112.404,170.049L112.404,170.042C112.569,168.588 113.427,167.277 114.591,166.534C116.082,165.581 117.911,165.611 119.372,166.61C120.65,167.485 121.79,169.216 122.332,172.151L122.348,172.264C122.854,176.192 124.138,180.194 127.121,182.953C139.936,192.899 153.212,202.618 166.811,211.897C178.867,220.123 191.143,227.981 203.535,235.317C203.591,234.135 203.681,232.954 203.773,231.773C195.052,222.799 186.493,213.627 177.949,204.229C167.873,193.147 157.676,181.589 147.206,169.621L147.203,169.623C141.943,163.856 138.335,156.53 137.373,146.709C136.433,137.127 138.041,125.165 143.151,109.936L143.146,109.935C143.92,107.396 145.724,104.969 147.614,103.854C149.777,102.575 152.212,102.877 153.685,105.027C154.834,106.704 155.487,109.829 155.07,114.974L155.07,114.982C154.99,115.937 155.095,116.88 155.385,117.809C155.68,118.751 156.159,119.705 156.82,120.667L236.076,194.533C236.216,194.3 236.358,194.067 236.504,193.834C240.162,187.991 245.526,182.5 252.891,177.863L257.499,174.96L255.959,180.183C254.198,186.154 253.652,191.404 254.367,195.905C255.571,203.478 260.027,207.382 265.944,211.37C271.487,215.107 276.491,219.388 278.773,225.902C279.883,229.07 279.614,231.763 279.614,234.962L279.614,260.476C279.725,263.244 279.272,265.778 278.082,268.032C276.744,270.57 274.381,272.726 271.778,273.909C266.006,276.556 260.232,279.204 261.043,285.158L261.051,285.206L262.784,300.807C263.818,305.592 265.082,308.7 268.223,310.482C273.354,313.393 282.312,313.11 287.816,313.11C294.82,313.138 299.119,312.709 301.81,311.661C302.533,311.38 303.134,311.043 303.644,310.645C307.833,298.712 315.234,286.947 325.294,275.324C321.614,274.582 318.05,272.592 314.649,271.043L321.365,269.962C331.122,268.392 338.277,263.392 343.4,256.347C349.41,248.083 352.685,236.989 354.104,225.253C338.255,214.629 332.105,214.329 326.32,214.048C319.677,213.725 305.647,211.44 307.125,201.971C301.11,202.026 295.158,201.752 289.411,200.208C281.868,198.182 277.555,194.298 272.814,188.451C266.649,180.85 271.184,181.098 278.191,184.829C279.931,185.739 281.768,186.467 283.69,187.031C289.399,188.704 295.354,188.632 301.357,188.559C303.135,188.538 304.919,188.517 306.717,188.538C315.108,188.644 321.599,189.152 326.696,189.966C326.354,188.651 326.161,187.327 325.968,186.005C325.448,182.435 324.926,178.864 320.618,176.529C319.249,175.787 317.164,175.468 314.945,175.356C312.561,175.235 310.026,175.364 307.968,175.479C305.108,175.638 301.978,178.257 299.726,180.143C298.038,181.557 296.718,182.662 295.411,182.738C293.729,182.835 292.757,182.014 292.635,179.91C292.635,178.304 292.842,176.616 292.914,174.996C293.347,165.324 293.781,155.652 307.176,154.163C312.185,153.606 317.325,153.776 322.381,153.942C323.856,153.99 325.325,154.04 326.755,154.07C325.984,143.024 328.324,135.759 332.755,131.002C337.51,125.897 344.49,123.838 352.539,123.174C365.792,122.082 378.449,125.006 391.141,127.939C406.951,131.591 422.821,135.258 439.61,130.807L441.264,130.369L441.994,131.918C444.58,137.403 443.387,141.963 440.245,146.043C438.118,148.806 435.099,151.276 431.812,153.657C438.825,155.276 443.924,153.278 449.968,150.614L448.086,155.192C445.638,161.147 441.765,165.512 436.982,168.86C432.64,171.898 427.551,174.084 422.109,175.862C419.672,193.953 420.459,208.337 423.611,219.751C426.794,231.276 432.399,239.771 439.524,246.003L441.711,247.917C437.307,250.4 434.367,251.197 429.452,250.364C430.008,255.662 431.22,260.408 433.395,264.341C437.125,271.081 442.574,273.4 449.254,275.935C445.146,278.299 441.598,280.417 436.692,280.881C442.246,291.021 445.879,300.849 447.935,310.424Z" style="fill-rule:nonzero;"/>
                            <path id="path16" d="M208.185,230.408C215.082,229.593 221.965,230.278 228.588,232.35C216.543,218.713 198.639,197.118 188.445,182.548C200.554,192.561 226.886,225.161 231.067,224.076C230.496,221.477 230.183,218.777 230.154,216.026C230.096,210.484 231.192,204.723 233.676,199.14L233.054,197.341L155.756,125.298C153.691,123.373 152.34,121.868 151.454,119.032C150.994,117.557 150.824,116.094 150.946,114.644L150.947,114.644C150.958,114.506 151.359,107.341 150.202,107.207C148.519,107.814 147.261,110.597 147.068,111.182C142.138,125.857 140.576,137.274 141.463,146.321C142.328,155.141 145.551,161.703 150.248,166.852L150.272,166.884C160.606,178.697 170.74,190.18 180.993,201.458C190.02,211.386 199.032,221.032 208.185,230.408ZM203.447,240.032C190.239,232.281 177.216,223.977 164.491,215.295C150.806,205.957 137.415,196.15 124.464,186.094C122.775,184.782 121.276,182.424 120.383,180.51C119.396,178.392 118.679,175.869 118.285,172.871C117.971,171.183 117.514,170.324 117.051,170.008C116.797,169.834 116.518,170.281 116.494,170.492L116.494,170.492C111.102,220.112 120.642,227.211 131.378,235.199C155.562,252.663 183.544,269.55 210.079,284.506C214.405,283.312 219.371,282.654 225.076,282.612C225.04,282.54 225.003,282.468 224.967,282.396C220.802,279.45 217.085,276.081 213.959,272.161L210.598,269.938C197.978,260.721 188.314,253.353 174.492,242.679C186.203,248.813 198.926,256.397 206.762,259.37C204.7,253.776 203.533,247.387 203.447,240.032ZM200.575,288.538C177.956,283.906 155.491,277.305 133.028,270.705C124.712,268.262 115.206,266.499 108.643,260.52C105.915,258.034 103.15,254.456 101.631,251.08C101.305,250.294 99.461,246.175 98.753,248.973C98.669,249.301 98.618,249.687 98.605,250.121L98.604,250.121C98.176,266.43 100.779,278.99 106.153,288.12C111.434,297.094 119.46,302.805 129.97,305.558L130.091,305.59C148.988,311.751 167.856,316.74 186.703,320.92C194.996,322.759 203.288,324.443 211.581,326.003C210.668,325.731 209.766,325.431 208.878,325.1C202.541,322.737 196.979,318.858 192.659,312.551C182.507,302.514 160.101,298.679 142.556,293.275C162.702,297.205 177.452,300.099 189.257,300.086L189.354,300.086C192.079,295.424 195.716,291.493 200.575,288.538ZM206.651,333.265C197.346,333.529 187.998,333.75 178.567,333.883C160.862,334.131 142.94,334.067 124.603,333.397L124.603,333.397C112.737,333.35 107.959,329.214 103.124,325.029C101.642,323.748 100.404,322.055 99.003,320.897C97.832,319.928 97.441,319.94 97.621,321.497C101.861,338.754 108.381,350.677 116.746,358.273C125.015,365.784 135.173,369.089 146.775,369.173L146.847,369.173C167.192,370.039 187.365,370.578 207.278,370.63C209.408,370.636 211.537,370.635 213.663,370.63C205.981,368.501 198.455,364.081 191.147,356.472C179.227,354.827 162.264,354.141 145.646,352.767C161.117,351.907 179.166,351.585 191.706,349.665C195.292,342.998 200.192,337.462 206.651,333.265ZM229.57,377.155C217.1,380.868 204.48,384.3 191.754,387.529C170.15,393.013 149.715,398.889 127.594,402.319C119.711,403.545 112.949,401.588 106.34,397.142C105.538,396.515 104.748,395.687 103.67,395.593C102.788,395.516 102.931,396.499 103.09,397.119C111.302,411.199 118.488,421.909 128.261,427.971C138.011,434.019 150.599,435.575 169.803,431.45L169.907,431.434C191.112,428.016 210.589,423.082 228.662,417.051C233.327,415.494 237.901,413.862 242.388,412.164C235.438,411.646 227.971,408.846 218.963,403.617C211.84,404.671 195.18,408.719 172.415,411.422C201.884,404.061 210.212,400.815 216.668,395.579L217.766,395.098C220.456,388.479 224.342,382.473 229.57,377.155ZM252.61,419.846C240.244,427.71 227.863,435.281 215.466,442.539C196.506,453.641 177.569,463.978 158.66,473.489C154.082,475.798 149.758,476.968 145.62,477.245C141.464,477.524 137.495,476.906 133.646,475.639C133.122,475.43 129.684,473.926 129.797,474.89C129.899,475.784 130.582,476.952 131.715,477.999C142.439,487.902 153.408,494.662 164.655,497.785C175.791,500.878 187.263,500.408 199.111,495.893C221.55,485.27 241.578,474.226 258.519,462.539C267.655,456.236 275.894,449.747 283.129,443.037C281.454,443.789 279.749,444.415 278.014,444.914C271.219,446.869 264.006,446.872 256.391,444.996L255.598,445.062C245.813,450.516 235.438,454.851 213.699,465.699C232.998,454.631 242.075,447.448 248.443,441.495L248.432,441.059C248.235,433.21 249.48,426.482 252.61,419.846ZM323.075,438.326C313.981,426.903 307.308,414.343 303.569,400.411C299.572,385.514 298.936,369.067 302.285,350.786C298.841,339.026 298.908,327.416 302.001,315.938C297.598,317.274 292.169,317.233 287.799,317.233C276.851,317.305 270.372,316.428 266.193,314.058C261.544,311.419 259.512,306.403 258.704,301.367L256.959,285.656L256.961,285.656C255.773,276.728 262.922,273.449 270.07,270.171C271.819,269.384 273.54,267.822 274.441,266.115C275.394,264.31 275.49,262.551 275.49,260.555L275.49,233.892C275.611,228.375 274.733,225.29 271.122,220.976C267.274,216.378 261.565,214.003 257.253,209.902C253.443,206.277 251.145,201.815 250.308,196.548C249.724,192.872 249.861,188.819 250.7,184.4C246.112,187.95 242.585,191.893 239.998,196.024C235.952,202.487 234.208,209.415 234.278,215.994C234.347,222.559 236.214,228.769 239.392,233.814C241.118,236.555 243.234,238.952 245.659,240.873C249.126,243.24 246.996,247.196 243.112,244.116C237.843,240.542 232.396,237.777 226.716,236.084C220.69,234.287 214.381,233.696 207.714,234.622C206.972,247.213 209.286,256.943 213.779,264.633C218.463,272.651 225.551,278.537 234.029,283.19C234.843,284.202 234.272,287.217 232.869,287.056C221.083,286.083 212.258,287.414 205.663,290.48C199.51,293.341 195.258,297.75 192.312,303.221C196.387,313.096 202.727,318.422 210.312,321.25C217.9,324.079 226.874,324.484 236.123,324.407C239.47,324.379 238.193,328.467 236.075,328.615C225,329.392 216.204,332.092 209.343,336.423C202.592,340.685 197.668,346.561 194.248,353.762C203.929,363.778 213.949,367.726 224.169,368.067C233.213,368.368 242.493,365.882 251.869,362.261C259.15,359.053 260.592,363.287 253.436,366.059C245.071,369.756 238.325,374.267 233.029,379.508C227.122,385.355 223.006,392.132 220.446,399.714C231.788,406.383 240.355,408.997 248.38,407.892C256.515,406.772 264.361,401.807 274.18,393.354C276.491,391.364 278.103,395.374 276.745,396.637C267.764,405 261.635,411.942 257.798,418.77C254.107,425.338 252.529,431.865 252.538,439.566C261.266,442.606 269.392,443.107 276.886,440.951C284.76,438.686 292.017,433.451 298.626,425.11C299.592,423.939 300.558,422.768 301.523,421.597C302.769,420.497 304.524,421.529 304.03,423.006L302.009,427.446C300.561,429.862 299.125,432.297 297.74,434.8C297.068,436.015 296.421,437.229 295.803,438.44C303.915,436.633 313.172,436.896 323.075,438.326ZM313.525,487.192C313.701,486.81 313.876,486.429 314.052,486.045C313.875,486.43 313.698,486.809 313.521,487.19C312.727,486.502 310.197,489.483 306.406,497.404C306.033,498.185 305.663,498.958 305.296,499.727C297.154,516.17 288.703,530.262 278.857,540.022C268.694,550.095 256.965,555.532 242.388,554.105C261.274,546.723 272.764,521.991 284.419,496.9C287.875,489.46 291.346,481.987 295.019,474.961C297.303,470.588 295.175,466.674 291.868,471.185C287.718,476.846 283.979,483.597 280.139,490.532C268.296,511.92 255.433,535.143 226.874,530.131C235.257,525.284 242.745,516.844 249.817,506.203C258.258,493.503 266.115,477.687 274.216,461.144L274.248,461.063C278.655,451.02 285.699,445.521 294.482,443.022C297.103,442.276 299.884,441.791 302.801,441.527C302.8,441.527 302.799,441.527 302.799,441.527C306.736,441.171 310.922,441.219 315.296,441.575C315.295,441.575 315.294,441.575 315.293,441.575C318.441,441.831 321.687,442.247 325.009,442.787C325.745,451.821 327.771,460.554 330.9,469.03C333.664,476.518 337.293,483.802 341.656,490.911L343.064,494.997C333.517,506.047 324.794,518.029 318.356,532.584C312.344,546.18 308.335,561.991 307.524,581.334C286.003,550.802 295.242,530.298 309.439,500.615C313.212,492.946 314.375,487.943 313.525,487.192ZM350.591,518.749C346.061,543.14 339.139,564.193 328.929,580.649C317.839,598.526 302.904,610.969 283.001,616.388C298.635,625.694 319.041,625.779 336.683,625.512C344.794,610.274 350.545,593.484 354.159,575.491C349.605,583.154 343.8,591.15 335.273,596.575C345.823,582.966 353.9,564.225 357.74,547.581C358.768,543.128 358.639,538.076 358.769,533.51C358.769,533.496 358.771,533.483 358.772,533.469C355.529,528.869 352.773,523.933 350.591,518.749ZM418.332,580.649C407.677,563.475 400.604,541.295 396.092,515.537C393.681,522.359 390.651,528.57 387.002,534.168C386.976,538.888 387.217,542.431 388.236,547.01C391.897,563.462 400.505,582.164 409.718,596.38C403.816,592.064 395.968,581.183 390.758,573.326C394.246,591.169 400.19,609.007 408.716,625.482C426.88,625.812 448.127,625.992 464.26,616.388C444.357,610.969 429.422,598.526 418.332,580.649ZM362.706,538.611C360.972,576.428 351.791,610.676 333.592,638.908C316.606,665.26 291.793,686.334 257.888,700.14C262.533,703.694 267.862,706.85 274.186,709.425C281.819,712.532 290.896,714.795 301.955,715.899L301.956,715.886C308.134,716.408 312.766,715.269 316.644,712.888C320.61,710.453 323.921,706.658 327.324,701.981C333.82,693.051 339.797,684.022 345.186,674.882C347.936,668.069 351.26,661.11 354.631,654.051C361.262,640.167 368.081,625.889 370.883,611.869L373.985,596.346L374.859,610.422L375.34,613.638C377.189,625.995 380.524,637.3 385.012,647.788C387.343,652.372 389.864,656.667 392.337,660.88C395.04,665.485 397.688,669.996 399.994,674.683C407.059,684.883 415.118,694.217 423.676,703.424C431.914,712.289 438.206,719.057 451.704,714.694L451.728,714.686C458.102,712.719 464.242,710.364 470.208,707.415C475.043,705.025 479.768,702.24 484.417,698.953C452.614,688.123 428.687,666.278 412.068,639.687C393.177,609.457 383.742,573.079 382.932,539.832C380.088,543.431 376.941,546.611 373.576,549.707C369.702,546.221 366.034,542.633 362.706,538.611ZM368.089,634.376C365.148,641.592 361.726,648.758 358.352,655.822C349.75,673.833 341.466,691.181 342.703,706.415C343.716,718.881 347.236,731.363 353,742.637C358.296,752.996 365.479,762.334 374.344,769.702C381.833,764.462 388.324,755.171 393.262,744.734C399.377,731.806 403.063,717.206 403.324,706.326C403.753,688.441 396.503,676.091 388.794,662.958C384.195,655.124 379.439,647.02 375.95,637.337C375.297,656.244 375.348,669.624 373.404,691.542C370.704,668.498 372.058,655.268 368.089,634.376ZM451.996,477.744C455.076,483.832 458.032,490.194 460.976,496.532C472.631,521.623 484.122,546.355 503.008,553.737C488.431,555.164 476.701,549.727 466.539,539.654C456.693,529.894 448.241,515.802 440.1,499.359C439.732,498.59 439.363,497.817 438.989,497.036C434.942,488.578 432.498,485.775 431.818,486.7C431.66,486.359 431.502,486.021 431.344,485.677C431.501,486.021 431.658,486.361 431.815,486.704C431.089,487.709 432.403,493.02 435.957,500.247C450.153,529.93 459.393,550.434 437.871,580.966C437.06,561.623 433.052,545.812 427.039,532.216C420.602,517.661 411.879,505.679 402.331,494.629L403.839,490.254C408.66,483.701 412.505,476.185 415.374,467.705C417.969,460.033 419.765,451.585 420.761,442.359C431.972,440.567 442.306,440.204 450.913,442.654C459.696,445.153 466.741,450.652 471.148,460.695L471.18,460.776C479.281,477.319 487.137,493.135 495.578,505.835C502.624,516.437 510.084,524.855 518.431,529.709C487.209,534.449 469.974,501.771 459.324,481.572C457.953,478.972 456.687,476.569 455.502,474.454C452.95,469.9 451.152,468.702 450.393,469.527C449.176,470.85 451.25,476.267 451.996,477.744ZM484.618,419.514C497.157,427.498 509.712,435.179 522.283,442.539C541.243,453.641 560.18,463.978 579.089,473.489C583.667,475.798 587.99,476.968 592.128,477.245C595.687,477.484 601.023,477.037 604.304,475.558C608.081,473.843 609.448,474.845 606.034,477.999C595.309,487.902 584.341,494.662 573.094,497.785C561.957,500.878 550.485,500.408 538.637,495.893C516.198,485.27 496.17,474.226 479.229,462.539C477.889,461.615 476.568,460.685 475.267,459.753C475.139,459.492 475.012,459.232 474.885,458.972L474.881,458.973C470.688,449.464 464.376,443.574 456.551,440.27C456.339,439.827 456.123,439.385 455.905,438.942C457.414,439.998 459,440.933 460.666,441.742C466.785,444.711 473.936,445.94 482.289,445.139C492.034,450.557 502.414,454.902 524.05,465.699C502.377,453.269 493.595,445.74 487.064,439.35C487.226,432.283 486.462,425.648 484.618,419.514ZM510.048,377.709C521.909,381.211 533.904,384.461 545.994,387.529C566.881,392.83 588.053,397.594 609.316,402.182L609.389,402.19C614.091,403.037 618.128,402.766 621.74,401.78C625.323,400.801 628.463,399.124 631.408,397.142C632.211,396.515 633.001,395.687 634.079,395.593C634.963,395.516 634.811,396.525 634.658,397.119C626.446,411.199 619.26,421.909 609.488,427.971C599.737,434.019 587.15,435.575 567.946,431.45L567.842,431.434C546.636,428.016 527.16,423.082 509.087,417.051C503.543,415.2 498.128,413.245 492.834,411.197C501.053,411.935 510.427,410.449 521.383,405.918C528.692,407.048 545.182,411.01 567.581,413.669C538.227,406.336 529.849,403.087 523.404,397.887C520.714,390.265 516.447,383.913 510.942,378.559C510.647,378.273 510.349,377.989 510.048,377.709ZM525.65,333.106C536.754,333.44 547.908,333.724 559.181,333.883C576.887,334.131 594.808,334.067 613.146,333.397L613.146,333.397C625.012,333.35 629.79,329.214 634.624,325.029C636.137,323.72 637.161,322.397 638.534,321.037C639.454,320.126 640.341,319.656 640.127,321.497C635.887,338.754 629.368,350.677 621.003,358.273C612.733,365.784 602.576,369.089 590.974,369.173L590.902,369.173C570.557,370.039 550.384,370.578 530.471,370.63C529.099,370.634 527.727,370.635 526.357,370.634C533.124,368.431 539.947,364.474 546.841,358.154L547.986,357.104L547.604,356.338C559.461,354.789 575.945,354.103 592.102,352.767C575.562,351.848 556.074,351.544 543.523,349.243C539.537,343.35 534.808,338.906 529.569,335.456C528.291,334.615 526.983,333.833 525.65,333.106ZM536.453,288.685C559.316,284.046 582.019,277.375 604.721,270.705C609.39,269.333 614.086,267.953 617.657,266.916L617.698,266.908C622.444,265.425 626.14,263.222 629.106,260.52C632.843,257.115 634.508,253.518 636.967,249.38C637.699,248.15 638.658,247.137 639.052,249.23C639.102,249.497 639.134,249.795 639.144,250.121L639.144,250.121C639.572,266.43 636.97,278.99 631.596,288.12C626.315,297.094 618.289,302.805 607.779,305.558L607.658,305.59C588.761,311.751 569.892,316.74 551.045,320.92C546.682,321.887 542.319,322.812 537.956,323.698C544.951,320.22 551.229,314.907 556.413,306.795C567.905,300.284 585.406,296.925 599.688,292.526C579.541,296.455 564.791,299.35 552.986,299.337L552.912,299.337C547.703,294.652 542.204,291.153 536.453,288.685ZM507.269,194.942L583.888,123.532C584.958,122.303 585.809,120.585 586.295,119.032C586.755,117.557 586.924,116.094 586.802,114.644L586.802,114.644C586.594,112.073 586.648,110.239 586.877,108.991C587.6,105.048 590.141,109.432 590.657,111.125L590.681,111.182C595.611,125.857 597.172,137.274 596.285,146.321C595.421,155.141 592.198,161.703 587.501,166.852L587.477,166.884C577.143,178.697 567.009,190.18 556.756,201.458C546.671,212.55 536.606,223.289 526.342,233.693C524.799,234.393 523.241,235.093 521.674,235.796C520.118,236.098 518.59,236.473 517.083,236.917C511.653,238.517 506.549,241.014 501.576,244.263C502.633,241.884 503.633,239.47 504.55,237.04C516.337,224.014 538.016,198.681 549.304,182.548C538.47,191.507 516.25,218.545 508.697,223.362C509.943,217.716 510.523,212.165 510.154,206.934C509.854,202.681 508.939,198.646 507.269,194.942ZM541.457,235.769C552.215,229.262 562.836,222.405 573.258,215.295C585.178,207.162 596.874,198.672 608.252,189.973C612.024,187.088 615.273,184.998 617.365,180.51C618.805,177.723 619.593,172.089 620.118,170.629C620.315,170.082 621.056,169.588 621.254,170.492L621.255,170.492C621.257,170.514 621.26,170.536 621.262,170.559C626.637,220.119 617.102,227.215 606.371,235.199C605.08,236.16 603.771,237.134 602.448,238.201L602.009,238.49C576.706,255.14 551.333,271.835 526.061,285.372C523.745,284.871 521.397,284.511 519.021,284.282C525.075,279.129 530.645,273.585 535.07,267.124C535.37,266.686 535.665,266.243 535.955,265.796L539.885,263.196C552.505,253.978 562.17,246.611 575.991,235.937C563.635,242.409 550.149,250.498 542.469,253.078C542.334,253.095 542.207,253.115 542.088,253.139C543.602,248.605 544.579,243.668 544.891,238.229L544.993,236.445C543.814,236.212 542.638,235.972 541.457,235.769ZM449.884,315.617C449.534,315.533 449.191,315.441 448.857,315.339C450.732,327.02 450.301,338.31 448.207,349.317L447.891,350.976L446.21,350.999C445.527,351.009 444.877,350.977 444.263,350.902C446.204,368.677 445.211,384.305 441.517,397.963C437.658,412.234 430.862,424.354 421.403,434.518C421.339,435.643 421.264,436.757 421.178,437.861L422.512,437.929C432.933,436.439 442.635,436.249 451.033,438.418C450.31,437.015 449.559,435.609 448.785,434.199C447.54,431.933 446.24,429.666 444.911,427.399C443.037,424.205 447.049,423.148 448.889,425.841C452.604,431.276 457.076,435.428 462.454,438.036C468.13,440.79 474.875,441.857 482.877,440.939C483.255,432.397 482.267,424.559 479.621,417.58C477.26,411.35 473.566,405.767 468.332,400.935C467.654,400.396 466.984,399.841 466.322,399.271C464.68,397.853 466.542,394.008 469.159,396.194C469.761,396.698 470.347,397.209 470.916,397.729C476.59,402.228 482.9,405.497 490.262,406.724C498.637,408.12 508.455,406.897 520.363,401.882C517.992,393.7 513.749,387.025 508.074,381.507C502.479,376.066 495.465,371.718 487.457,368.135C483.74,366.472 485.163,362.799 488.869,364.119C497.607,367.233 506.369,369.284 515.188,368.639C524.256,367.975 533.46,364.422 542.882,356.159C538.72,348.382 533.382,342.909 527.297,338.903C520.791,334.62 510.512,331.371 502.775,329.375C499.372,328.947 498.329,325.767 503.082,325.163C512.477,324.912 524.625,324.739 532.761,321.506C540.383,318.478 547.222,313.387 552.753,304.856C547.121,299.217 541.126,295.164 534.823,292.462C528.111,289.584 521.019,288.228 513.619,288.108C509.686,288.287 510.034,286.125 512.363,284.444C519.71,278.546 526.549,272.284 531.671,264.805C536.447,257.833 539.757,249.747 540.635,239.808C532.33,238.406 525.015,238.867 518.244,240.863C510.951,243.012 504.227,246.955 497.538,252.272C493.382,254.875 492.343,254.03 494.421,249.735C501.349,236.028 506.962,220.414 506.031,207.224C505.437,198.809 502.111,191.367 494.614,186.079C496.491,195.324 495.124,202.395 491.867,208.202C488.878,213.534 484.34,217.686 479.294,221.451C476.26,223.715 471.76,225.611 469.61,228.535C468.373,230.218 467.607,232.267 467.271,234.648L467.271,234.648L466.336,255.992L466.32,256.097C466.042,258.964 466.607,261.257 467.827,263.1C469.063,264.968 471.006,266.452 473.458,267.657C476.554,268.776 479.168,270.509 481.008,273.215C482.826,275.888 483.835,279.445 483.73,284.214L483.73,284.214L483.543,302.352L483.542,302.48L483.519,302.634C482.858,307.107 480.465,310.349 476.614,312.55C473.037,314.595 468.213,315.686 462.377,316.003L462.378,316.006C457.84,316.367 453.488,316.485 449.884,315.617ZM335.767,133.803C332.048,137.796 330.126,144.172 330.884,154.147C331.882,154.212 332.825,154.323 333.714,154.48C337.796,135.74 354.175,134.333 375.092,138.479C383.973,140.24 393.652,143.002 403.534,145.823C411.326,148.048 419.245,150.308 426.874,152.111C430.863,149.344 434.666,146.549 436.991,143.53C438.896,141.055 439.793,138.351 438.87,135.231C421.787,139.241 405.977,135.588 390.223,131.948C377.875,129.096 365.563,126.251 352.877,127.297C345.758,127.884 339.677,129.605 335.767,133.803ZM393.606,199.559C403.81,212.104 406.499,222.498 406.502,234.53C413.09,240.846 421.313,245.846 434.132,246.58C427.706,240.129 422.656,231.735 419.647,220.845C416.347,208.897 415.514,193.941 418.041,175.24C399.343,165.155 383.38,158.166 370.726,154.92C371.702,158.016 371.09,160.91 369.526,163.322C367.687,166.158 364.473,168.246 361.036,169.099C357.53,169.97 353.735,169.582 350.816,167.44C347.866,165.276 345.882,161.407 346.139,155.374C344.632,156.298 343.368,157.486 342.358,158.946C342.816,159.463 343.235,160.023 343.615,160.622C346.04,164.448 346.734,169.795 346.319,176.625C358.465,183.842 364.232,191.634 365.613,199.82C367.011,208.107 363.86,216.583 358.26,225.159C356.803,237.749 353.295,249.742 346.734,258.763C342.625,264.413 337.342,268.891 330.649,271.626C331.746,271.728 332.84,271.807 333.943,271.857L333.921,271.88C342.236,272.396 349.757,271.824 356.545,270.221C363.965,268.468 370.503,265.479 376.238,261.33C375.907,260.5 375.598,259.661 375.31,258.813C372.863,251.607 371.89,245.679 372.308,237.295C372.456,234.311 371.826,231.676 374.882,231.952C377.665,232.204 376.615,235.131 376.491,237.751C376.12,245.558 376.947,250.834 379.208,257.492C381.532,264.34 385.384,270.545 391.021,276.001C397.189,263.387 401.789,250.775 402.299,238.168C402.819,225.309 400.803,214.632 390.047,201.549C388.649,199.848 387.423,197.856 388.959,196.543C390.795,194.971 392.336,197.997 393.606,199.559ZM330.431,275.735C319.547,287.861 311.644,300.075 307.398,312.393C303.426,323.916 302.647,335.562 305.617,347.352C318.669,339.095 329.321,329.44 336.807,317.942C344.549,306.047 348.925,292.126 349.087,275.673C348.033,275.791 346.964,275.889 345.881,275.966C341.181,279.714 335.788,284.93 331.853,290.743C328.949,295.034 324.477,299.655 319.519,311.233C322.02,298.858 327.704,291.918 329.833,288.773C333.047,284.025 336.189,279.737 339.751,276.177C336.749,276.176 333.644,276.031 330.431,275.735ZM306.28,351.788C303.103,369.331 303.723,385.093 307.547,399.348C311.269,413.217 318.034,425.683 327.292,436.998C332.328,432.521 336.759,427.29 340.2,420.83C343.801,414.068 346.338,405.903 347.38,395.771C340.203,389.903 334.42,382.312 330.324,372.634C326.876,364.487 324.636,354.875 323.778,343.588C321.429,349.288 319.853,355.489 319.34,362.208C318.958,367.224 318.09,372.729 318.664,388.567C314.998,372.103 315.944,366.425 316.263,362.251C316.804,355.163 317.783,348.333 320.045,342.119C315.792,345.546 311.191,348.762 306.28,351.788ZM329.013,440.957C329.608,450.155 331.595,459.025 334.766,467.612C337.864,476.006 342.088,484.138 347.241,492.054C353.025,486.97 357.986,481.2 361.897,474.557C365.775,467.967 368.639,460.502 370.273,451.975C364.063,448.797 359.088,442.808 355.347,434.006C352.985,428.448 351.106,421.753 349.714,413.925C347.635,419.443 346.132,425.311 345.751,431.534C345.448,436.475 345.246,441.365 346.333,455.562C341.763,438.051 342.611,434.106 342.848,430.245C342.994,427.853 343.186,425.599 343.464,423.427C339.586,430.492 334.623,436.145 329.013,440.957ZM348.932,496.035C349.978,505.188 352.488,513.837 356.606,521.927C360.65,529.87 366.25,537.281 373.541,544.11C386.054,531.95 393.957,515.115 397.247,493.606C389.878,489.09 383.78,483.467 379.327,476.415C377.417,473.392 375.814,470.114 374.546,466.557L373.672,510.834L370.982,464.865C369.453,469.059 367.595,472.973 365.44,476.634C361.055,484.084 355.46,490.471 348.932,496.035ZM398.974,489.841C404.274,483.172 408.442,475.353 411.476,466.384C414.608,457.123 416.532,446.616 417.247,434.866C410.65,431.004 405.556,425.866 401.915,419.486C401.88,419.425 401.845,419.364 401.811,419.303C402.294,423.791 402.348,428.345 402.355,432.474C402.363,436.65 401.752,442.687 398.96,453.246C399.055,444.128 400.026,436.794 399.801,432.649C399.791,427.24 398.703,420.925 397.193,415.189C395.792,422.963 393.699,429.18 391.104,434.271C386.927,442.465 381.493,447.718 375.571,451.826C376.399,460.676 378.911,468.056 382.806,474.224C386.817,480.575 392.317,485.689 398.974,489.841ZM418.957,431.102C427.662,421.56 433.937,410.219 437.539,396.9C441.237,383.225 442.129,367.463 439.959,349.427C434.014,346.297 428.691,342.674 423.913,338.619C425.268,345.924 425.752,353.386 426.696,361.527C427.175,365.658 427.922,373.493 426.385,388.436C425.026,371.857 424.358,367.453 423.826,362.868C423.137,356.924 422.16,350.96 421.076,345.278C420.03,353.521 418.224,361.434 415.598,368.87C411.911,379.307 406.608,388.795 399.517,396.94C400.255,404.897 402.232,411.747 405.49,417.456C408.7,423.079 413.174,427.637 418.957,431.102ZM394.906,396.907C388.543,392.268 383.359,385.816 379.533,377.281C377.824,373.47 376.387,369.243 375.238,364.58L372.342,419.948L371.708,363.412C370.517,367.329 369.09,370.986 367.462,374.423C363.329,383.154 357.932,390.419 351.864,396.905L351.748,397.03C352.973,411.907 355.435,423.697 359.132,432.395C362.632,440.627 367.217,446.05 372.884,448.663C378.451,444.855 383.554,440.006 387.431,432.402C391.533,424.357 394.31,413.196 394.906,396.907ZM370.969,346.245C361.732,336.296 355.8,325.406 352.528,313.759C351.633,310.575 350.938,307.336 350.43,304.046C348.193,311.512 346.858,319.168 346.661,326.957C346.531,332.145 345.925,344.349 347.378,356.599C342.202,340.645 343.644,331.398 343.758,326.86C343.882,321.954 344.14,317.092 344.775,312.284C343.419,315.005 341.91,317.637 340.254,320.181C336.668,325.69 332.401,330.785 327.53,335.512C327.785,349.814 330.083,361.525 334.109,371.04C337.952,380.121 343.385,387.226 350.127,392.699C355.422,386.84 360.114,380.329 363.742,372.667C367.292,365.168 369.843,356.522 370.969,346.245ZM417.942,333.052C414.199,329.22 410.838,325.084 407.809,320.686C405.5,317.333 403.385,313.828 401.442,310.192C401.742,313.112 401.909,316.205 402.027,319.378C402.203,324.106 401.127,342.225 397.999,354.886C397.751,340.027 398.801,324.905 398.601,319.523C398.34,312.547 396.773,304.471 394.65,299.018C394.371,305.879 393.298,312.248 391.574,318.213C388.438,329.07 383.163,338.555 376.627,347.227C377.626,358.652 379.893,368.037 383.286,375.606C386.759,383.355 391.417,389.214 397.107,393.426C403.5,385.865 408.322,377.109 411.716,367.501C415.455,356.917 417.465,345.281 417.942,333.052ZM444.487,346.772C446.243,336.601 446.496,326.182 444.702,315.433C442.848,304.32 438.802,292.83 431.968,280.861C427.375,280.017 422.479,277.732 417.649,274.627C419.513,277.537 421.255,280.546 422.885,283.627C425.028,287.677 428.333,292.518 432.183,309.422C427.012,297.67 422.498,289.542 420.291,285.37C416.388,277.991 410.569,270.899 405.095,264.772C403.918,263.69 402.77,262.591 401.655,261.484C399.514,267.604 396.784,273.705 393.732,279.794C397.919,293.97 403.428,307.076 411.191,318.351C417.502,327.514 425.32,335.482 435.155,341.849C437.584,343.422 441.701,346.336 444.487,346.772ZM377.953,265.151C376.795,265.964 375.607,266.732 374.39,267.457L372.341,306.458L370.459,269.596C365.395,272.1 359.983,273.832 354.44,274.874C352.735,288.158 353.168,300.822 356.491,312.648C359.527,323.455 364.989,333.585 373.457,342.876L374.776,342.804C380.374,335.028 384.88,326.584 387.628,317.069C390.706,306.416 391.594,294.146 389.383,280.134C387.233,278.766 379.39,269.003 377.953,265.151ZM439.435,276.213C435.163,273.743 432.032,270.379 429.787,266.321C427.13,261.518 425.754,255.788 425.216,249.458C420.938,248.613 417.245,247.211 413.716,245.177C411.226,243.741 408.817,241.985 406.339,239.883C405.964,245.641 404.808,251.373 403.088,257.088C408.037,262.165 413.551,267.031 419.485,270.908C425.627,274.921 432.008,278.282 439.435,276.213ZM350.413,153.602C349.711,159.21 351.058,162.515 353.248,164.122C355.106,165.485 357.645,165.702 360.053,165.104C362.53,164.489 364.813,163.034 366.079,161.082C367.351,159.121 367.517,156.555 365.591,153.774C363.313,153.35 361.172,153.072 359.173,152.947C358.39,154.254 357.951,155.557 357.845,156.856C357.726,158.322 358.033,159.793 358.751,161.265L359.384,162.561L358.015,162.103C356.482,161.591 355.089,160.871 354.255,159.322C353.524,157.965 353.263,156 353.79,153.013C352.593,153.133 351.468,153.329 350.413,153.602ZM337.682,155.624C338.194,155.841 338.68,156.081 339.143,156.344C344.427,148.952 354.353,147.155 368.213,150.101C381.905,153.012 399.651,160.602 420.689,171.993C425.817,170.327 430.592,168.291 434.614,165.476C437.57,163.408 440.121,160.912 442.108,157.816C440.396,158.17 438.663,158.346 436.909,158.346C427.417,158.117 412.383,152.372 402.406,149.786C392.601,146.987 382.997,144.246 374.304,142.522C355.581,138.811 340.996,139.828 337.682,155.624Z" style="fill:white;"/>
                            <path id="path18" d="M369.146,582.271C369.915,579.828 370.342,576.409 373.55,576.392C374.511,576.387 375.402,576.751 376.205,577.479L376.205,577.487C380.08,582.093 382.739,600.725 386.179,608.067C391.078,622.546 397.788,635.445 404.773,648.93C389.808,631.496 386.407,611.678 376.777,593.738C375.719,591.766 372.488,591.412 370.999,594.288C361.047,613.504 355.404,634.253 338.428,653.224C352.072,634.973 360.379,610.117 369.146,582.271Z" style="fill-rule:nonzero;"/>
                            <path id="path20" d="M255.699,660.352C254.543,663.159 252.627,665.553 250.523,667.71C252.974,668.239 254.883,667.992 256.63,666.925C258.337,665.882 260.024,664.069 261.949,661.466C260.076,661.857 258.35,661.586 255.699,660.352ZM201.162,669.777C205.991,675.572 212.508,675.354 219.082,672.834C216.406,671.174 213.588,669.145 211.819,666.489C208.626,668.602 205.003,669.829 201.162,669.777ZM158.84,638.207C159.54,643.866 161.979,647.99 167.431,650.192C167.266,647.606 167.451,645.018 168.083,642.499C164.578,642.007 161.371,640.696 158.84,638.207ZM152.31,585.123C147.979,589.064 146.985,593.736 148.788,599.277C150.731,597.29 152.962,595.643 155.528,594.549C153.484,591.766 152.274,588.594 152.31,585.123ZM491.991,661.815C489.252,662.901 487.227,662.801 485.151,662.104C488.147,666.069 491.638,670.008 497.118,669.16C495.028,667.006 493.131,664.616 491.991,661.815ZM546.556,671.306C542.715,671.357 539.091,670.131 535.899,668.018C534.129,670.675 531.311,672.703 528.635,674.362C535.209,676.882 541.726,677.101 546.556,671.306ZM588.903,640.308C586.323,642.616 583.039,643.648 579.642,644.054C580.271,646.577 580.452,649.168 580.284,651.757C586.064,649.845 588.542,646.156 588.903,640.308ZM595.409,587.255C595.426,590.558 594.192,593.478 592.215,596.089C594.773,597.184 596.999,598.829 598.936,600.812C601.106,595.365 599.97,591.047 595.409,587.255ZM516.25,586.214L497.322,560.642C488.479,560.34 479.928,556.187 472.211,550.55C465.998,546.012 460.321,540.503 455.493,535.31C455.679,537.384 456.003,539.705 456.326,542.025C456.928,546.334 457.529,550.644 457.31,553.846L508.941,601.967L508.946,601.961C509.023,602.03 509.208,602.207 509.492,602.483C511.679,604.603 512.849,606.799 513.001,609.067C513.444,615.71 504.052,621.013 499.541,624.542C488.621,633.084 480.721,639.265 477.996,648.33L477.972,648.403C477.203,650.667 478.371,652.73 480.37,654.17C483.529,656.446 488.688,657.294 492.183,655.297C494.657,653.882 496.283,650.87 495.665,645.681L495.551,644.722L496.221,644.022L518.401,620.832C519.907,619.54 522.122,618.711 523.981,619.813C525.18,620.524 525.794,621.771 526.25,623.161L526.252,623.161L536.603,650.134L536.822,650.705L536.684,651.318C535.336,657.281 537.284,661.437 540.289,663.676C543.265,665.894 548.297,666.694 551.171,663.84C552.972,662.052 553.703,658.823 552.168,653.991L533.532,620.279L531.789,617.128L533.292,616.249L536.101,617.38L566.332,629.551L567.051,629.84L567.403,630.533C570.196,636.034 574.996,637.963 579.389,637.627C583.703,637.298 589.395,634.284 589.062,629.229C588.849,626.013 586.065,622.238 579.146,618.604L539.805,609.617L536.125,608.776L535.67,606.851L539.668,605.638L570.557,596.264L571.413,596.004L572.184,596.449C577.175,599.33 581.878,598.404 585.154,595.848C588.575,593.178 591.312,587.76 588.976,583.559C587.475,580.859 583.81,578.878 577.181,578.912L542.869,594.628C538.717,597.162 534.753,598.197 530.978,597.733C527.499,597.305 524.262,595.623 521.27,592.687C519.355,590.808 517.846,588.371 516.25,586.214ZM250.393,559.115L227.505,590.038L227.429,590.14L227.368,590.207C224.121,593.733 220.578,595.732 216.738,596.204C212.963,596.668 208.999,595.633 204.847,593.1L170.535,577.384C163.906,577.349 160.241,579.33 158.74,582.031C156.405,586.231 159.142,591.65 162.563,594.319C165.839,596.876 170.541,597.801 175.532,594.92L176.304,594.475L177.159,594.735L208.048,604.11L211.003,605.007L211.321,605.967L211.734,607.215L207.911,608.088L168.57,617.076C161.651,620.709 158.868,624.485 158.655,627.701C158.32,632.755 164.013,635.769 168.327,636.099C172.72,636.434 177.52,634.506 180.313,629.005L180.665,628.311L181.384,628.022L211.616,615.852L214.598,614.65L215.734,615.949L214.185,618.751L195.548,652.462C194.014,657.295 194.745,660.523 196.545,662.311C199.419,665.166 204.451,664.365 207.427,662.147C210.432,659.908 212.381,655.753 211.033,649.79L210.894,649.176L211.113,648.605L221.464,621.633L221.466,621.633C221.923,620.243 222.536,618.996 223.736,618.285C225.091,617.481 226.76,617.514 228.977,619.013L229.149,619.129L229.315,619.303L251.496,642.494L252.166,643.194L252.051,644.152C251.434,649.341 253.06,652.354 255.533,653.769C259.026,655.765 264.186,654.919 267.346,652.641C270.36,650.47 270.32,648.175 269.149,645.134C265.996,636.955 258.413,631.022 248.176,623.013C244.953,620.492 241.48,617.775 238.013,614.906L237.948,614.851L237.852,614.753C237.601,614.494 237.451,614.338 237.417,614.299C235.46,612.118 234.56,609.864 234.716,607.538C234.867,605.27 236.037,603.075 238.224,600.954C238.509,600.678 238.693,600.502 238.77,600.433L238.775,600.438L290.393,552.331C290.1,549.235 290.296,545.231 290.493,541.227C290.605,538.946 290.718,536.664 290.739,534.612C285.991,539.792 280.594,545.175 274.633,549.567C267.337,554.943 259.209,558.832 250.393,559.115ZM341.141,197.45C342.917,198.887 344.881,200.863 345.398,203.167C335.937,200.873 323.516,198.056 313.984,198.326C306.107,198.549 296.099,198.464 288.933,196.539C282.207,194.732 280.157,191.774 275.642,187.266C283.8,191.03 291.225,192.37 300.788,192.069C302.542,192.048 304.917,192.026 306.667,192.048C323.405,192.259 335.177,193.562 341.141,197.45ZM355.769,221.405C360.235,214.177 362.676,207.155 361.553,200.499C360.334,193.275 354.862,186.257 343.142,179.544L342.002,178.89L342.103,177.595C342.621,171.002 342.163,166.033 340.134,162.831C338.329,159.984 335.075,158.426 329.87,158.224C322.868,157.96 314.5,157.493 307.625,158.255C297.746,159.354 297.39,167.265 297.035,175.175C297.007,175.822 296.979,176.469 296.947,177.103C299.977,174.554 303.565,171.589 307.741,171.357C309.89,171.238 312.543,171.103 315.136,171.234C317.893,171.373 320.579,171.821 322.581,172.907C328.699,176.224 329.371,180.825 330.042,185.426C330.174,186.332 330.307,187.239 330.492,188.115C339.37,190.354 347.482,194.846 350.348,204.066C351.727,208.504 350.652,210.561 346.185,208.195C341.931,205.943 336.831,204.574 331.18,203.782C325.056,202.923 318.258,202.742 311.167,202.854C310.903,205.405 312.905,206.508 314.974,207.427C319.87,209.602 323.128,209.762 326.512,209.926C332.774,210.23 339.431,210.558 355.769,221.405Z" style="fill:rgb(230,176,18);"/>
                        </g>
                    </g>
                </g>
            </g>
        </g>
    </g>
</svg>
