<?xml version="1.0" encoding="UTF-8" standalone="no"?>
<!DOCTYPE svg PUBLIC "-//W3C//DTD SVG 1.1//EN" "http://www.w3.org/Graphics/SVG/1.1/DTD/svg11.dtd">
<svg width="100%" height="100%" viewBox="0 0 151 151" version="1.1" xmlns="http://www.w3.org/2000/svg" xmlns:xlink="http://www.w3.org/1999/xlink" xml:space="preserve" xmlns:serif="http://www.serif.com/" style="fill-rule:evenodd;clip-rule:evenodd;stroke-linejoin:round;stroke-miterlimit:2;">
    <g transform="matrix(1,0,0,1,-1260,-2782)">
        <g id="opolskie" transform="matrix(0.138889,0,0,0.138889,1260.4,2782.87)">
            <rect x="0" y="0" width="1080" height="1080" style="fill:none;"/>
            <g id="opolskie.svg" transform="matrix(1.24855,0,0,1.24855,540,540)">
                <g transform="matrix(1,0,0,1,-372,-432.503)">
                    <clipPath id="_clip1">
                        <rect x="0" y="0" width="744" height="865.006"/>
                    </clipPath>
                    <g clip-path="url(#_clip1)">
                        <g id="Warstwa_x0020_1" transform="matrix(1.21644,0,0,1.21644,-80.5159,-93.6095)">
                            <path id="path10" d="M677.703,453.892L677.703,76.954L66.19,76.954L66.19,470.627C73.387,631.145 200.904,736.569 370.771,788.05C535.039,736.577 677.81,624.73 677.81,456.12C677.81,455.38 677.703,454.632 677.703,453.891L677.703,453.892Z" style="fill:rgb(15,110,178);fill-rule:nonzero;"/>
                            <path id="path12" d="M475.833,644.852L475.833,646.972C475.516,654.914 472.871,659.678 472.871,659.678C472.871,659.678 467.043,654.173 463.974,652.584C456.981,649.192 443.004,648.03 430.929,643.58C427.33,642.207 422.139,637.651 417.583,631.19C416.844,633.203 415.679,635.323 413.776,637.336C410.915,640.304 404.131,641.784 399.789,641.252C397.669,640.936 396.189,640.304 395.982,639.032C395.558,637.227 398.626,635.214 399.789,631.614C400.322,629.919 400.529,627.906 399.789,625.469C399.581,624.944 399.365,624.306 399.157,623.672C396.406,617.636 392.164,613.613 387.399,608.846C386.02,628.122 390.367,638.184 395.024,643.58C396.506,645.385 398.093,646.865 399.789,648.137C412.928,657.989 430.189,652.694 431.037,655.445C431.985,657.989 425.949,678.43 402.866,677.473C401.694,677.473 400.746,677.372 399.789,677.158C395.872,676.624 393.328,675.145 390.684,673.556C390.577,680.226 389.519,686.263 388.356,691.46C386.02,701.62 379.56,711.258 374.269,717.935C373.521,718.883 371.085,717.618 368.125,714.442C363.035,708.928 356.684,697.597 356.16,682.346C355.944,678.744 356.05,674.297 356.368,669.423C348.95,675.777 338.366,681.074 325.651,677.582C313.468,674.297 306.377,661.374 307.332,654.597C308.073,649.092 324.595,659.154 341.434,649.302C348.111,645.385 357.215,632.779 359.012,608.632C347.787,616.681 340.477,623.989 341.01,632.145C341.325,636.803 346.415,641.252 344.186,642.741C341.325,644.751 330.524,645.593 325.967,640.304C323.854,637.867 321.843,635.531 321.203,632.994C316.97,638.706 313.053,642.839 309.344,644.22C297.272,648.668 284.873,649.726 277.996,653.224C274.811,654.814 268.991,660.319 268.991,660.319C268.991,660.319 266.238,655.554 266.021,647.606L266.021,645.492C266.021,644.004 266.131,642.415 266.445,640.728C267.934,630.657 276.3,622.717 286.993,617.844C290.593,616.257 301.719,613.72 313.154,610.011C310.933,609.27 306.483,608.099 304.257,606.726C296.946,602.386 291.017,591.686 292.606,581.099C293.987,572.302 301.612,562.14 307.856,561.817C310.085,572.202 321.843,581.84 330.74,581.623C338.997,581.307 344.716,578.555 350.121,572.626C354.779,567.538 360.183,553.243 362.196,537.885C356.575,544.87 346.729,555.68 344.61,559.703C341.01,566.48 347.787,569.549 346.622,571.778C341.965,576.226 333.809,578.446 326.815,575.902C320.038,573.367 314.316,568.6 313.685,561.292C312.837,551.547 317.077,544.446 325.336,535.555C334.44,525.81 341.965,518.395 344.402,510.66C346.513,504.417 347.361,503.144 347.47,497.53C347.361,494.138 345.991,490.438 345.991,486.622C343.13,488.526 341.749,489.374 341.648,485.564C341.54,480.479 340.457,475.771 339.072,471.471C334.552,488.715 320.066,501.485 306.267,514.161C301.927,518.185 297.794,522.842 294.411,527.506C293.347,528.988 292.182,524.962 291.443,519.667C286.253,524.648 280.533,529.836 275.452,534.067C269.199,539.258 244.311,560.228 244.311,560.228C244.311,560.228 231.281,569.866 230.542,570.93C229.908,571.986 232.128,570.93 235.099,571.455C239.546,572.202 239.546,574.639 239.546,574.639C239.546,574.639 242.514,572.943 245.582,574.739C248.126,576.118 247.595,579.403 247.595,579.403C247.595,579.403 253.208,582.264 254.373,586.604C256.068,592.748 251.728,600.049 247.803,601.745C247.803,598.994 247.488,596.666 246.431,594.12C245.792,592.424 244.951,591.369 243.463,590.838C243.463,590.838 241.559,594.12 237.426,593.172C232.878,592.11 233.086,587.876 233.086,587.876C233.086,587.876 229.593,590.628 223.872,585.223C221.544,583.003 218.15,583.112 216.454,584.168C214.975,585.223 212.114,588.508 210.951,592C209.994,594.653 209.146,599.418 208.198,601.745C207.243,604.182 206.394,604.715 205.446,605.247C207.349,607.259 207.667,610.535 206.185,613.396C204.174,617.319 199.932,616.471 199.932,616.471C199.932,616.471 197.711,617.212 196.756,619.332C194.536,624.206 195.808,630.135 194.96,629.818C189.979,627.906 187.652,623.034 187.543,619.649C187.543,617.105 188.598,613.296 189.555,611.807C184.998,608.846 187.859,601.645 192.731,602.386C192.947,599.842 194.536,597.514 196.549,594.968C199.084,591.793 200.673,587.876 200.148,587.135C199.617,586.288 196.332,584.168 189.348,588.401C183.733,591.793 181.189,590.097 181.189,590.097C181.189,590.097 179.386,594.013 174.513,595.285C170.913,596.24 168.052,593.806 167.311,591.686C157.783,592.11 154.922,600.473 154.498,598.786C153.543,594.861 153.125,590.521 155.138,586.711C157.783,581.731 164.243,580.352 164.243,580.352C164.243,580.352 164.136,576.966 167.104,575.27C172.292,572.41 177.056,576.118 177.056,576.118C177.056,576.118 178.328,575.478 181.399,574.846C184.258,574.313 185.847,574.846 190.187,574.639C192.84,574.422 194.536,573.889 196.332,573.257C198.769,572.41 198.452,569.866 194.744,569.234C191.144,568.6 186.487,566.69 184.367,564.043C179.81,567.114 173.564,562.564 174.513,557.583C171.444,555.256 165.615,553.874 160.427,554.514C162.123,551.23 165.301,547.838 170.172,546.99C175.47,546.041 178.645,548.262 178.645,548.262C182.461,542.966 188.924,546.358 189.448,550.906C193.688,550.698 196.647,554.09 199.617,557.693C203.009,561.923 205.022,563.619 211.266,562.881C213.279,562.664 221.968,554.932 226.199,551.123C230.441,547.307 258.612,515.217 262.422,510.77C264.011,508.973 266.555,505.896 269.623,502.404C264.542,503.252 260.201,503.568 261.049,502.404C265.706,495.41 271.85,486.198 277.465,475.079C284.799,460.093 301.517,437.642 319.443,422.69C318.038,418.377 316.672,413.573 315.381,407.61C314.002,408.565 312.52,409.938 312.52,408.459C312.527,408.256 312.53,408.051 312.53,407.845C312.278,408.911 311.993,409.965 311.672,411.002C303.308,437.687 284.133,439.706 285.405,435.781C287.21,430.385 289.43,425.088 290.385,418.521C290.593,416.724 290.91,410.579 291.974,402.313C289.745,410.786 287.948,419.576 283.709,430.809C270.687,465.758 252.576,467.029 254.589,461.942C257.34,454.957 263.062,435.573 263.801,432.498C260.942,437.903 258.505,441.295 257.34,443.199C248.977,455.588 232.878,468.402 220.056,472.11C201.844,477.408 186.911,473.275 192.523,466.815C197.073,461.625 207.881,450.717 220.056,433.137C218.367,434.933 201.521,455.905 176.425,464.909C156.303,472.11 138.823,464.695 144.121,462.683C150.581,460.145 170.065,448.28 176.742,442.351C186.804,433.661 194.003,425.722 203.11,416.401C195.909,421.589 191.883,424.133 185.215,426.884C140.629,445.102 89.788,423.925 104.723,418.311C136.496,406.339 166.256,388.759 167.735,387.596C160.643,391.729 137.344,403.054 110.229,400.94C94.978,399.778 85.764,386.748 90.846,386.324C116.057,383.994 135.539,379.547 149.417,374.249C99.85,378.275 87.46,350.95 91.901,350.102C100.59,348.406 117.854,344.596 142.316,335.059C144.121,334.427 156.303,329.022 157.89,328.175C149.626,330.828 143.164,331.676 134.376,331.776C96.565,331.883 94.021,315.785 97.413,315.892C103.659,316.102 113.721,316.316 125.586,314.937C138.695,313.495 158.954,308.122 159.961,307.854C159.077,308.077 144.489,311.513 116.472,303.819C86.612,295.554 82.904,266.01 88.625,266.325C95.293,266.749 114.884,270.351 139.031,269.295C141.577,269.186 147.83,268.445 150.05,268.338C135.331,265.794 117.43,261.246 106.835,251.284C90.846,236.458 93.597,222.687 96.989,224.807C107.16,230.736 126.642,242.287 137.021,245.139C141.892,246.518 146.665,247.899 152.485,249.164C139.248,242.287 129.185,235.077 122.194,219.726C113.828,200.976 113.721,180.853 119.233,185.409C123.149,188.694 141.792,202.78 155.879,209.981C159.055,211.57 160.11,212.625 163.603,214.107C155.455,205.957 150.365,197.908 148.038,189.219C141.044,164.223 149.102,155.65 150.581,158.926C153.967,165.919 157.359,172.065 164.243,183.399C167.735,189.118 171.868,194.199 172.609,195.154C171.444,184.03 173.249,172.803 178.114,159.883C188.076,133.515 214.234,127.055 212.962,132.558C209.994,146.221 209.994,161.048 214.767,171.108C217.302,176.197 222.816,184.671 223.979,190.808C226.092,202.249 221.328,209.343 219.632,215.803C225.992,221.839 237.957,227.244 247.064,232.64C259.353,239.85 265.597,251.284 265.173,259.758C264.542,273.419 251.936,276.595 246.116,278.607C242.722,279.772 235.313,279.672 235.099,283.38C234.989,285.068 233.824,287.08 236.578,288.993C241.767,292.592 249.608,301.275 249.608,304.984C249.401,316.102 242.298,318.537 238.167,324.682C234.673,329.763 239.229,330.511 242.407,330.404C245.899,330.187 248.019,330.611 251.828,330.404C258.505,329.98 265.075,332.2 270.578,337.288C273.863,340.356 277.465,344.273 280.957,346.185C285.621,348.622 291.017,347.558 294.619,346.185C297.629,345.032 302.701,341.767 307.513,339.175C308.685,337.407 310.096,335.705 311.781,334.113C323.539,322.986 328.728,321.083 338.68,310.172C343.237,305.299 345.881,297.991 347.263,294.922C346.198,295.453 344.085,295.13 342.389,295.029C344.186,291.106 353.931,277.128 355.836,264.845C356.474,260.822 355.836,253.828 356.684,247.368C353.299,246.734 349.483,243.659 336.353,245.886C330.316,246.835 320.462,251.175 318.766,250.76C317.177,250.436 319.297,241.646 322.899,237.514C325.651,234.338 328.194,232.225 334.972,231.377C341.117,230.736 349.483,232.225 352.027,232.749C344.085,227.351 336.353,224.591 331.372,223.221C324.488,221.315 316.546,221.315 308.073,220.043C294.094,217.816 288.897,212.942 284.981,203.945C280.848,194.199 282.544,182.866 282.544,182.866C282.544,182.866 285.621,189.219 291.758,196.951C297.903,204.685 302.884,204.685 308.179,204.261C312.306,203.945 314.957,200.87 323.214,201.608C328.404,202.032 324.595,205 324.595,205C324.595,205 321.518,206.482 319.514,207.861C317.394,209.45 316.015,211.353 316.015,211.353C316.015,211.353 318.342,211.039 324.488,209.981C330.74,209.026 338.997,210.829 341.965,212.201C346.198,214.006 350.539,217.075 353.931,220.36C355.627,221.946 356.684,223.328 358.271,225.764C357.746,221.099 356.474,218.554 351.286,213.897C347.577,210.614 337.091,206.381 333.175,203.096C325.443,196.743 321.203,183.399 315.164,180.429C311.248,178.525 300.978,179.581 296.631,179.797C293.246,179.897 300.764,171.217 306.801,168.78C311.357,166.975 320.355,164.223 329.676,168.039C332.644,169.311 335.081,171.217 336.777,173.337C338.04,172.172 341.749,169.412 346.937,169.311C342.597,167.191 342.066,159.035 348.111,158.611C344.085,155.966 346.098,152.999 346.306,148.866C346.622,144.633 344.926,143.675 345.567,138.703C346.198,133.616 344.826,130.971 343.869,128.641C342.706,125.99 336.136,120.168 339.738,119.213C346.198,117.307 350.862,119.429 352.552,121.65C354.986,124.825 353.507,129.806 353.507,129.806C353.507,129.806 355.095,129.382 359.228,130.123C363.145,130.862 366.22,133.939 368.125,136.9C368.44,137.324 368.656,137.639 368.864,138.063C371.41,136.159 375.01,134.256 378.611,135.735C380.307,136.476 382.952,138.596 383.8,140.5C386.02,135.842 389.729,132.343 393.752,131.71C396.829,136.476 394.917,141.455 393.862,145.797C395.656,145.057 397.885,144.84 399.789,145.588C401.061,146.012 402.119,146.853 402.966,148.125C404.345,150.354 404.769,152.575 405.303,154.902C407.838,153.637 412.395,152.575 414.407,152.999C419.595,153.637 420.653,157.238 420.653,157.238C420.653,157.238 423.088,152.365 427.33,151.41C433.681,150.037 439.186,156.814 439.403,158.827C439.61,160.838 433.574,161.155 430.506,162.32C427.861,163.375 425.525,167.932 423.621,169.945C421.291,172.379 420.019,172.913 416.735,175.557C415.362,176.621 413.136,177.677 411.547,180.114C410.384,181.91 409.851,183.182 406.675,182.866C407.63,188.163 404.239,194.516 400.106,193.034C405.827,199.705 407.414,210.722 411.123,214.006C415.463,217.715 419.281,213.689 425.525,214.854C428.602,215.486 423.728,231.801 416.103,232.966C413.667,233.28 410.275,232.966 407.206,231.27C407.414,234.762 406.99,239.526 406.675,244.398C406.041,257.428 413.136,264.845 414.191,268.338C412.08,269.817 408.478,270.982 406.465,269.71C406.99,275.331 405.617,277.552 408.902,280.727C412.819,284.753 416.735,285.601 423.621,287.08C422.987,293.117 417.476,297.466 415.039,298.097C411.123,299.055 409.534,298.631 407.099,297.783C406.99,300.958 408.262,306.464 409.96,309.965C411.971,313.881 414.939,316.95 418.964,320.342C424.152,324.682 430.082,329.98 437.176,337.712C438.157,338.782 439.036,339.927 439.822,341.125C443.758,343.495 447.469,345.823 449.779,346.71C453.381,348.089 458.786,349.147 463.443,346.71C466.942,344.806 470.544,340.888 473.82,337.813C479.332,332.731 485.895,330.511 492.571,330.935C496.488,331.142 498.501,330.718 502,330.935C505.276,331.035 509.725,330.294 506.233,325.106C502.1,319.07 495.006,316.633 494.792,305.515C494.792,301.806 502.631,293.117 507.822,289.517C510.573,287.614 509.408,285.601 509.302,284.012C509.201,280.303 501.676,280.303 498.291,279.141C492.462,277.128 479.856,273.95 479.225,260.396C478.801,251.816 485.053,240.374 497.336,233.173C506.55,227.775 516.826,222.48 523.286,216.443C521.483,210.081 518.306,202.78 520.428,191.339C521.59,185.195 527.203,176.722 529.64,171.641C534.513,161.686 534.513,146.753 531.436,133.091C530.173,127.577 556.331,134.039 566.286,160.414C571.267,173.337 572.954,184.561 571.791,195.679C572.53,194.73 576.663,189.75 580.155,183.921C587.041,172.696 590.433,166.559 593.825,159.459C595.414,156.174 604.727,165.178 596.262,189.75C593.718,197.268 586.725,207.013 578.675,215.171C582.067,213.689 585.352,212.094 588.528,210.505C602.615,203.304 621.249,189.219 625.274,185.934C630.679,181.386 630.57,201.608 622.206,220.25C615.212,235.61 605.15,242.811 591.913,249.696C597.742,248.424 602.615,247.051 607.38,245.67C617.756,242.918 637.246,231.27 647.418,225.341C650.801,223.221 653.555,236.989 637.67,251.816C626.97,261.768 609.075,266.434 594.457,268.871C596.577,268.969 602.93,269.71 605.474,269.817C629.514,270.882 649.105,267.282 655.782,266.858C661.503,266.642 658.002,295.453 628.035,303.712C599.221,311.552 584.395,308.376 584.395,308.376C584.395,308.376 605.474,313.989 618.821,315.468C630.679,316.841 640.739,316.633 646.994,316.425C650.377,316.316 647.833,332.414 610.024,332.307C601.343,332.307 592.444,330.611 584.08,328.074C585.776,328.922 599.013,334.744 600.703,335.485C625.174,345.02 643.809,348.937 652.497,350.635C656.946,351.474 641.797,379.013 592.236,374.99C596.47,376.893 601.874,378.906 605.898,380.078C623.585,385.052 647.418,387.063 652.39,387.379C657.478,387.703 649.428,399.985 634.171,401.465C623.369,402.529 611.088,401.574 595.838,397.232C587.255,394.797 579.316,390.457 572.322,386.215C573.802,387.379 575.29,388.544 576.663,389.499C597.318,403.585 628.559,414.495 639.369,419.368C653.979,425.829 603.778,445.635 559.292,427.417C552.515,424.664 545.423,420.64 538.222,415.452C547.434,424.773 557.279,434.194 567.341,442.983C574.018,448.811 593.825,460.669 600.286,463.213C605.574,465.226 587.996,473.168 567.982,465.443C550.078,458.556 543.094,452.837 527.944,438.218C526.355,436.738 524.659,434.933 523.072,433.137C535.145,450.824 547.327,462.258 551.883,467.346C557.496,473.806 542.562,477.939 524.344,472.644C511.528,468.935 492.255,454.316 483.882,441.927C481.976,439.066 480.497,436.738 478.27,432.498C479.017,435.467 479.542,438.111 479.856,439.599C481.869,448.28 485.053,456.546 487.698,463.53C489.711,468.618 473.719,466.29 460.689,431.334C456.458,420.107 453.488,410.154 451.261,401.681C452.216,409.099 452.957,415.977 453.381,418.627C454.336,425.197 456.242,430.809 458.045,436.098C459.527,440.655 441.199,438.751 432.726,411.527C432.305,410.166 431.942,408.795 431.627,407.419C430.838,411.8 430.1,414.003 428.702,417.887C427.618,420.839 426.739,423.381 426.018,425.613C443.382,440.394 457.299,460.362 464.606,475.079C470.12,486.198 476.364,495.41 481.03,502.404C481.769,503.568 477.529,503.252 472.447,502.404C475.415,505.896 478.06,508.973 479.542,510.77C483.357,515.217 511.638,547.307 515.871,551.123C520.111,554.932 528.792,562.664 530.697,562.881C537.048,563.619 538.961,561.923 542.453,557.693C545.423,554.09 548.382,550.698 552.624,550.906C553.155,546.358 559.509,542.966 563.425,548.262C563.425,548.262 566.494,546.041 571.791,546.99C576.772,547.838 579.84,551.23 581.643,554.514C576.348,553.874 570.626,555.256 567.558,557.583C568.406,562.564 562.26,567.114 557.596,564.043C555.483,566.69 550.926,568.6 547.22,569.234C543.618,569.866 543.194,572.41 545.631,573.257C547.434,573.889 549.13,574.422 551.883,574.639C556.224,574.846 557.813,574.313 560.674,574.846C563.742,575.478 565.014,576.118 565.014,576.118C565.014,576.118 569.678,572.41 574.866,575.27C577.934,576.966 577.828,580.352 577.828,580.352C577.828,580.352 584.288,581.731 586.832,586.711C588.952,590.521 588.42,594.861 587.465,598.786C587.149,600.473 584.288,592.11 574.759,591.686C573.911,593.806 571.05,596.24 567.558,595.285C562.684,594.013 560.78,590.097 560.78,590.097C560.78,590.097 558.344,591.793 552.732,588.401C545.738,584.168 542.346,586.288 541.922,587.135C541.398,587.876 542.877,591.793 545.423,594.968C547.534,597.514 549.023,599.842 549.23,602.386C554.211,601.645 556.965,608.846 552.408,611.807C553.363,613.296 554.528,617.105 554.421,619.649C554.421,623.034 551.984,627.906 547.01,629.818C546.162,630.135 547.434,624.206 545.314,619.332C544.359,617.212 542.029,616.471 542.029,616.471C542.029,616.471 537.896,617.319 535.886,613.396C534.297,610.535 534.721,607.259 536.633,605.247C535.676,604.715 534.828,604.182 533.873,601.745C532.924,599.418 531.969,594.653 531.121,592C529.957,588.508 526.988,585.223 525.507,584.168C523.811,583.112 520.535,583.003 518.199,585.223C512.379,590.628 508.985,587.876 508.985,587.876C508.985,587.876 509.201,592.11 504.644,593.172C500.404,594.12 498.608,590.838 498.608,590.838C497.128,591.369 496.28,592.424 495.539,594.12C494.582,596.666 494.267,598.994 494.267,601.745C490.342,600.049 486.002,592.748 487.591,586.604C488.753,582.264 494.475,579.403 494.475,579.403C494.475,579.403 493.844,576.118 496.488,574.739C499.563,572.943 502.524,574.639 502.524,574.639C502.524,574.639 502.417,572.202 506.974,571.455C509.832,570.93 512.062,571.986 511.421,570.93C510.79,569.866 497.65,560.228 497.65,560.228C497.65,560.228 472.871,539.258 466.619,534.067C461.537,529.943 455.925,524.746 450.837,519.875C449.996,525.386 448.724,529.519 447.559,528.031C444.167,523.483 440.25,517.969 435.803,514.161C423.611,503.963 413.418,495.316 407.394,483.963C407.369,484.141 407.341,484.32 407.313,484.5C406.889,487.254 406.675,488.001 403.705,485.665C402.866,490.115 402.335,493.714 401.802,496.791C402.018,504.948 402.442,515.324 409.003,522.418C413.028,526.868 418.964,531.947 424.469,535.555C429.127,538.624 434.321,545.825 434.955,551.863C435.587,558.007 434.214,563.305 429.341,569.549C426.266,573.574 412.395,580.568 404.031,572.726C403.29,571.778 409.851,568.386 409.003,563.513C408.054,558.748 404.239,553.343 399.789,548.795C397.354,546.249 394.817,544.029 392.481,542.226C393.121,552.178 395.241,566.48 398.941,571.455C399.157,571.778 399.474,572.202 399.789,572.519C404.131,577.491 411.44,581.416 418.433,580.883C426.165,580.251 435.379,576.226 439.72,564.992C448.193,569.658 452.957,584.274 449.889,594.437C446.811,604.606 438.979,608.632 431.037,610.011C440.882,614.559 449.889,615.732 453.381,617.319C463.974,622.086 473.927,630.026 475.415,640.088C475.625,641.784 475.732,643.372 475.833,644.852Z" style="fill:rgb(10,11,12);fill-rule:nonzero;"/>
                            <path id="path14" d="M368.126,146.646C367.386,144.74 367.062,142.513 366.962,140.607C365.159,141.879 362.612,144.417 359.337,144.417C357.747,144.417 356.476,142.305 356.476,142.305C356.476,142.305 360.816,142.937 362.09,142.404C364.311,141.665 366.221,139.969 367.486,138.704C367.703,139.228 367.91,139.759 368.126,140.293C369.606,143.892 371.086,147.494 373.315,148.766C377.548,151.203 379.985,149.397 379.985,149.397C379.985,149.397 379.351,151.834 377.765,152.365C373.739,153.847 372.36,152.475 369.715,149.397C369.075,148.55 368.55,147.601 368.126,146.646ZM399.79,158.404C401.486,158.188 403.184,157.663 404.771,157.023C404.88,159.567 405.719,162.211 406.567,163.592C408.479,166.56 410.169,166.344 410.169,166.344C410.169,166.344 409.751,167.085 407.632,166.768C406.467,166.66 405.404,165.179 404.98,163.907C404.557,162.635 404.456,158.404 404.456,158.404C404.456,158.404 402.336,159.774 399.79,160.307C399.158,160.524 398.627,160.624 397.993,160.624C395.559,160.731 392.589,159.567 390.578,156.815C388.458,153.847 390.045,150.453 390.045,150.453C390.045,150.453 390.893,155.434 395.135,157.871C396.297,158.612 397.993,158.718 399.79,158.404Z" style="fill:rgb(70,105,141);fill-rule:nonzero;"/>
                            <path id="path16" d="M575.076,215.596C590.643,202.457 595.84,185.834 594.668,163.376C591.39,170.476 583.125,184.879 575.5,194.831C574.02,196.744 572.431,198.65 570.628,200.444C569.356,207.654 566.819,214.322 563.11,220.568C565.754,219.619 572.531,216.651 575.076,215.596ZM573.065,577.072C569.148,575.377 567.243,578.661 567.243,578.661C567.243,578.661 565.44,577.597 562.262,577.173C559.51,576.749 556.65,577.173 551.669,576.749C549.025,576.434 543.303,575.269 542.247,573.681C540.335,570.929 546.48,565.524 550.08,564.893C553.789,564.252 558.022,562.456 558.022,559.171C561.414,562.139 567.45,560.76 565.123,555.779L562.046,549.85C559.193,545.717 554.322,548.053 554.423,552.077C552.2,551.753 549.025,553.559 546.056,557.158C542.671,561.291 537.69,567.113 531.438,566.372C529.425,566.055 519.472,558.323 515.239,554.514C510.368,550.066 481.871,519.133 478.379,515.109C476.366,512.572 472.134,507.375 467.468,501.446C464.085,500.707 460.907,499.859 459.104,499.225C456.134,498.163 452.535,496.15 448.725,493.613C450.098,497.315 451.162,500.814 451.586,503.882C452.01,506.426 451.903,510.135 451.586,513.944C458.147,519.981 465.879,526.867 472.025,532.055C478.271,537.244 501.154,557.366 501.154,557.366L518.731,572.409C518.731,572.409 512.063,573.257 509.096,573.15C506.125,573.15 503.481,576.749 503.481,576.749C503.481,576.749 501.154,574.738 497.978,576.434C496.282,577.49 497.338,579.927 497.978,581.73C498.717,583.635 500.305,586.918 500.305,586.918C500.305,586.918 501.577,588.931 503.905,589.355C507.823,590.096 507.931,586.179 507.19,583.426C508.562,585.539 513.652,587.875 517.459,583.111C519.579,580.351 526.673,579.402 528.262,580.351C531.654,582.578 533.875,586.387 535.888,592.323C536.843,594.967 535.678,599.417 536.635,601.744C537.583,604.181 538.538,605.029 539.487,605.563C538.008,606.41 537.474,608.845 539.063,611.706C540.658,614.667 543.62,612.764 543.62,612.764L549.656,610.434C553.789,608.631 551.986,603.657 546.797,603.333C546.697,600.796 546.273,597.513 543.836,595.284C540.127,591.999 538.322,583.111 539.172,581.098C539.596,580.25 549.872,582.578 556.333,586.918C558.663,588.507 563.11,588.4 564.592,586.918C564.275,588.931 564.483,591.368 568.084,592.323C571.793,593.381 572.531,590.627 573.279,588.616C573.279,588.616 574.868,584.167 575.292,582.047C575.292,582.154 576.133,578.445 573.065,577.072ZM564.382,549.957C564.382,549.957 566.495,547.73 570.735,548.261C573.804,548.685 576.457,551.015 577.729,553.342C574.02,552.71 569.572,553.342 566.712,554.722L564.382,549.957ZM576.133,588.824C581.221,589.563 584.082,590.312 586.202,593.171C586.095,590.736 585.671,588.616 584.823,587.027C582.917,583.526 577.622,582.788 577.622,582.788L576.133,588.824ZM550.821,612.971C552.733,614.558 552.941,616.571 553.05,618.584C553.365,622.085 551.776,624.305 549.656,626.425C550.08,623.457 549.131,621.552 548.284,619.755C547.645,618.376 545.849,615.939 545.849,615.939L550.821,612.971ZM495.432,583.111C495.432,583.111 492.68,583.635 490.984,586.71C488.548,591.261 490.344,594.119 493.528,596.772C494.16,593.381 493.845,593.912 494.584,592.323C495.541,589.888 498.185,588.931 498.185,588.931L495.432,583.111ZM269.948,532.055C276.301,526.867 284.034,519.773 290.811,513.737C290.496,510.028 290.496,506.426 290.811,503.882C291.336,500.499 292.4,496.791 293.989,492.658C289.856,495.726 286.047,498.062 282.97,499.225C281.066,499.859 277.891,500.707 274.496,501.446C269.841,507.375 265.708,512.572 263.588,515.109C260.096,519.133 231.706,550.066 226.734,554.514C222.495,558.323 212.649,566.055 210.636,566.372C204.383,567.113 199.409,561.291 195.91,557.158C192.949,553.559 189.874,551.753 187.544,552.077C187.653,548.053 182.887,545.717 180.028,549.85L176.951,555.779C174.514,560.76 180.66,563.195 183.945,560.126C184.052,563.512 188.6,564.676 192.208,565.208C195.91,565.839 201.739,570.929 199.833,573.681C198.771,575.269 193.049,576.434 190.298,576.749C185.324,577.173 182.463,576.749 179.812,577.173C176.634,577.597 174.838,578.661 174.838,578.661C174.838,578.661 172.928,575.377 168.902,577.072C165.833,578.445 166.682,582.154 166.682,582.047C167.106,584.167 168.694,588.931 168.694,588.931C169.542,591.051 170.491,593.064 174.307,591.999C177.799,591.051 177.799,588.931 177.375,586.918C178.964,588.4 183.411,588.507 185.748,586.918C192.101,582.578 202.478,580.25 202.795,581.098C203.752,583.111 201.846,591.261 198.246,594.543C195.81,596.772 194.745,600.158 194.538,602.592C189.349,602.909 188.6,608.631 192.625,610.434L198.137,613.188C198.137,613.188 201.63,614.667 203.328,611.706C204.807,608.845 203.959,606.41 202.587,605.563C203.435,605.029 204.491,604.181 205.448,601.744C206.396,599.417 205.231,594.967 206.079,592.323C208.092,586.387 210.319,582.578 213.812,580.351C215.293,579.402 222.394,580.351 224.505,583.111C228.323,587.875 232.454,585.963 233.826,583.743C232.978,586.604 234.25,590.736 238.169,590.096C240.396,589.672 241.769,586.918 241.769,586.918C241.769,586.918 243.364,583.635 243.998,581.73C244.736,579.927 246.117,578.13 244.312,577.173C241.244,575.377 237.535,576.01 237.535,576.01C237.535,576.01 234.891,573.15 231.923,573.15C228.955,573.257 223.342,572.409 223.342,572.409L240.82,557.366C240.82,557.366 263.695,537.244 269.948,532.055ZM177.591,549.957C177.591,549.957 175.471,547.73 171.238,548.261C168.161,548.685 165.517,551.015 164.354,553.342C167.953,552.71 172.403,553.342 175.362,554.722L177.591,549.957ZM165.941,588.824C160.752,589.563 157.992,590.312 155.771,593.171C155.979,590.736 156.403,588.616 157.253,587.027C159.056,583.526 164.354,582.788 164.354,582.788L165.941,588.824ZM191.994,612.971C189.981,614.558 189.874,616.571 189.664,618.584C189.45,622.085 191.037,624.305 193.157,626.425C192.733,623.457 193.581,621.552 194.538,619.755C195.169,618.376 196.975,615.939 196.975,615.939L191.994,612.971ZM247.39,583.111C247.39,583.111 250.141,583.635 251.83,586.71C254.267,591.261 252.471,594.119 249.186,596.772C248.653,593.381 248.978,593.912 248.229,592.323C247.28,589.888 244.629,588.931 244.629,588.931L247.39,583.111ZM320.995,628.436C320.571,616.787 326.924,610.858 331.264,606.085C314.428,613.612 300.657,617.318 291.552,619.331C282.023,621.552 272.062,629.07 270.049,639.132C268.353,647.819 271.113,651.204 271.745,653.54C275.03,649.192 280.434,646.971 283.711,645.699C294.728,641.252 298.753,643.479 310.719,639.031C315.166,637.442 317.603,633.517 320.995,628.436ZM472.025,639.663C470.012,629.601 458.68,621.868 449.15,619.539C435.381,616.156 425.21,614.667 407.84,604.398C414.617,611.383 419.707,617.211 418.966,627.804C422.351,632.779 425.634,635.954 429.876,637.543C441.948,641.99 448.933,642.74 459.104,645.808C462.387,646.864 468.85,650.256 471.708,652.693C472.342,650.363 473.721,648.243 472.025,639.663ZM370.455,643.579C370.455,643.579 368.127,657.457 359.23,666.138C358.806,671.011 358.273,677.371 358.489,681.288C359.545,700.878 366.962,705.859 372.575,711.898C376.491,708.613 384.333,694.634 386.238,685.313C387.086,681.18 387.51,676.624 387.718,671.967C373.632,662.962 370.455,643.579 370.455,643.579ZM440.145,570.612C436.437,578.021 426.799,582.578 418.542,583.111C409.962,583.526 400.007,578.762 393.863,569.548C390.045,563.935 388.782,548.477 387.401,537.351C385.814,535.554 384.649,533.434 383.377,531.739C380.733,536.82 375.328,545.617 374.371,540.212C373.739,536.719 372.151,533.01 370.347,528.987C368.975,531.314 367.386,532.794 364.626,536.612C363.363,551.546 357.534,568.916 352.029,574.422C345.568,580.991 338.042,584.698 329.785,584.374C317.712,584.059 306.693,574.846 304.258,565.948C299.809,568.492 296.847,572.201 295.044,580.991C293.248,589.04 300.025,599.734 307.543,603.757C311.459,605.987 317.712,606.834 325.652,605.246C337.943,602.809 357.217,587.875 366.322,580.141C358.589,590.096 334.442,605.346 330.209,611.175C324.28,619.432 322.269,630.449 326.924,636.485C330.633,641.252 336.879,642.1 340.378,641.359C339.954,639.77 335.821,633.626 336.455,628.969C337.834,619.115 350.224,610.01 361.35,602.062C361.026,629.286 350.757,645.915 343.98,650.463C328.62,660.742 314.428,655.13 309.663,654.596C309.77,663.069 319.091,673.662 328.406,674.827C343.132,676.624 355.838,665.93 362.939,650.997C369.823,636.911 371.62,616.894 371.836,607.573C371.836,616.995 372.043,637.335 376.283,650.789C381.148,666.562 393.23,672.5 401.913,673.448C418.01,675.251 426.484,662.014 426.375,656.185C423.413,655.868 405.088,659.47 393.013,645.492C388.358,640.087 380.409,624.729 383.484,601.644C388.035,606.301 398.095,616.256 401.062,622.607C403.392,627.38 401.062,633.84 399.266,637.335C403.707,638.29 410.386,634.365 413.03,631.19C417.584,625.577 412.93,615.515 407.101,608.421C401.596,601.644 385.705,590.837 379.461,580.775C389.621,590.736 406.677,601.22 415.681,603.441C429.452,606.834 442.897,603.757 447.03,590.52C449.466,582.578 445.126,574.738 440.145,570.612ZM366.746,516.272C366.322,514.585 365.898,511.724 365.69,509.812C365.374,510.345 364.842,511.932 364.525,512.355C361.134,517.12 353.401,523.158 353.192,518.184C352.977,511.3 351.812,507.799 350.333,501.022C350.016,506.535 348.32,510.235 346.731,513.52C343.446,520.297 335.821,527.715 327.564,536.82C319.408,545.617 315.592,553.666 316.124,559.803C316.864,567.22 322.053,571.777 329.153,573.366C334.018,574.422 338.999,572.518 342.284,571.036C337.626,565.839 338.466,559.912 342.491,553.342C345.776,548.053 354.466,540.105 361.241,533.434C364.101,530.574 367.594,527.929 369.183,524.321C368.335,522.21 367.279,518.501 366.746,516.272ZM429.876,550.164C428.387,544.237 425.103,540.004 420.555,536.927C415.041,533.328 411.441,529.094 407.416,524.647C402.12,518.925 400.855,513.944 399.476,507.375C398.628,513.42 398.842,514.685 398.842,517.968C398.842,520.514 393.647,518.608 388.673,513.628C388.142,517.861 386.662,521.786 384.857,527.398C386.129,530.784 390.369,536.927 394.495,540.004C401.379,544.869 409.535,553.666 411.972,561.499C412.713,563.728 411.549,568.175 410.593,570.081C415.79,572.942 425.103,568.068 428.18,564.152C431.139,560.443 430.931,554.19 429.876,550.164ZM367.81,503.675C368.551,514.161 373.099,526.657 376.808,534.706C379.885,531.107 385.497,518.394 385.598,505.688C383.484,499.435 380.834,493.713 380.941,483.551C379.245,486.412 375.012,491.81 374.48,489.69C373.947,487.677 372.575,484.825 371.086,479.844C371.303,488.842 367.81,503.675 367.81,503.675ZM460.483,475.078C455.547,464.21 441.735,444.265 425.204,428.226C423.133,435.129 422.744,438.787 422.141,443.305C421.826,445.742 420.338,444.678 418.642,443.622C417.053,451.354 414.617,459.296 410.7,467.345C408.544,471.725 408.17,475.145 407.898,478.687C414.755,491.983 425.286,500.915 431.038,504.947C434.848,507.484 442.79,515.009 445.55,519.666C447.03,516.696 447.237,506.535 445.65,499.225C444.485,493.713 440.884,481.007 433.899,466.814C439.404,474.863 444.803,482.279 448.085,490.013C450.631,491.276 452.751,492.026 455.286,492.972C460.8,494.985 470.545,499.225 474.246,498.587C469.588,491.6 465.565,486.412 460.483,475.078ZM322.457,431.282L319.515,425.721C301.721,442.134 285.516,464.484 280.325,475.928C275.137,487.253 272.276,490.013 267.612,496.998C271.428,497.638 280.218,494.354 285.83,492.341C289.224,491.069 292.717,489.48 296.209,487.677C299.177,481.324 303.093,474.654 307.434,468.086C301.297,480.583 297.057,492.45 295.261,500.075C293.879,506.112 294.413,513.837 295.261,517.653C298.22,514.685 301.614,509.919 305.637,507.06C312.713,502.213 331.922,487.825 338.183,468.857C337.039,465.667 335.798,462.723 334.766,460.037C333.177,455.697 332.114,450.93 331.374,445.742C330.209,447.538 328.305,448.703 327.881,447.224C326.089,441.089 324.26,436.205 322.457,431.282ZM590.326,212.941C582.069,217.181 572.108,220.566 561.523,223.003C560.459,224.806 558.022,227.027 556.226,228.408C560.358,227.56 565.971,226.078 568.725,225.34C574.227,223.851 566.602,244.821 556.543,254.142C555.271,255.416 553.474,256.795 551.352,258.275C552.834,258.384 554.423,258.485 556.118,258.699C557.598,258.808 559.401,259.123 561.206,259.547C569.68,257.112 579.842,253.403 588.315,248.215C597.743,242.494 608.544,236.14 616.702,220.99C622.315,210.504 624.535,198.115 624.218,189.959C620.302,193.35 604.413,205.74 590.326,212.941ZM601.769,248.847C596.047,250.335 591.067,251.283 585.778,251.922C578.046,255.2 569.356,257.851 561.947,259.757C568.191,261.029 575.5,263.149 581.429,263.78C582.701,263.89 583.341,264.945 583.341,266.748C600.921,263.572 619.563,261.453 633.856,249.911C641.058,244.082 644.135,233.813 646.462,228.616C635.976,234.761 612.677,245.986 601.769,248.847ZM602.084,272.47C595.416,271.938 588.739,271.198 582.386,270.35C580.373,275.007 575.185,281.467 565.44,287.82C562.686,289.624 560.035,291.005 557.39,292.167C558.446,292.692 559.51,293.225 560.459,293.756C567.667,297.889 581.429,301.274 585.247,302.013C586.095,302.122 586.095,303.394 585.138,305.298C597.527,305.615 613.201,304.666 625.383,300.003C644.873,292.692 653.664,277.442 654.295,268.969C645.507,271.091 623.056,273.949 602.084,272.47ZM610.133,316.208C599.015,314.305 589.902,312.399 582.069,309.964C579.101,313.347 574.651,316.949 569.039,319.7C580.373,324.15 593.827,328.39 607.488,328.073C626.548,327.649 642.015,321.506 644.026,318.645C637.989,318.96 622.422,318.437 610.133,316.208ZM583.765,331.034C578.677,328.497 572.956,325.105 567.026,321.289C564.592,322.354 561.947,323.302 559.193,323.833C555.802,324.574 552.517,324.889 549.341,324.998C551.461,326.487 553.474,328.283 555.17,330.403C560.883,337.18 572.531,345.02 576.881,347.981C579.208,349.677 567.136,356.67 553.898,358.574C563.32,363.555 576.457,368.319 588.63,369.801C628.137,374.672 646.996,357.509 649.107,351.797C640.426,349.993 612.886,345.336 583.765,331.034ZM599.863,380.494C595.516,379.013 590.326,376.685 584.606,373.717C571.793,371.921 560.251,366.199 549.872,358.891C548.176,359.107 546.588,359.107 544.892,358.998C549.549,364.295 554.637,369.801 559.718,374.88C569.039,381.025 580.581,388.226 594.035,392.466C607.381,396.7 615.114,397.548 626.655,397.231C631.529,397.124 647.094,391.728 649.854,388.651C643.071,388.651 616.386,386.113 599.863,380.494ZM575.923,392.567C565.33,386.006 550.397,369.908 540.234,357.094C538.538,356.878 533.667,355.713 531.654,355.081C532.395,356.561 533.027,357.411 533.667,358.998C537.583,367.895 544.26,375.52 547.221,379.97C549.549,383.462 530.489,387.278 510.468,378.164C509.727,377.85 509.096,377.741 507.4,376.685C507.823,379.329 508.138,381.766 508.879,384.417C520.43,396.807 534.406,408.25 547.536,415.766C578.677,433.56 619.03,432.821 636.824,420.639C624.111,416.723 596.364,405.49 575.923,392.567ZM524.56,403.584C520.43,399.777 514.815,395.428 510.682,390.978C511.954,396.175 514.815,400.939 516.297,404.117C517.352,406.554 512.903,406.661 507.19,405.597C508.672,408.882 510.892,413.646 512.164,416.19C517.676,422.967 522.44,428.896 528.262,433.984C541.292,445.211 546.164,451.78 563.744,458.979C572.531,462.581 586.202,463.005 595.516,463.005C589.054,460.461 570.204,449.975 563.534,444.146C548.708,431.333 535.463,416.931 524.56,403.584ZM503.057,404.749C496.173,403.269 490.137,400.833 486.321,398.081C482.618,395.428 479.443,392.359 476.683,388.867C476.683,390.239 476.683,391.618 476.582,392.89C476.259,397.972 479.758,409.937 480.608,412.374C481.456,414.603 477.106,414.603 470.646,412.166C475.734,423.284 480.608,431.973 485.055,438.11C492.997,449.127 503.374,459.189 516.721,465.018C528.162,469.889 545.849,469.889 549.232,467.453C543.513,460.992 526.466,447.114 511.954,421.271C509.943,417.672 505.918,411.426 503.057,404.749ZM474.779,425.404C473.08,421.588 471.07,417.147 469.057,411.95C464.085,409.837 458.788,406.762 454.871,402.736C454.231,402.212 453.599,401.464 453.066,400.833C455.503,408.565 458.571,417.248 462.072,426.992C469.905,448.81 478.695,457.283 485.263,461.517C482.828,453.26 479.65,449.444 478.379,440.971C477.747,436.945 476.051,431.549 474.779,425.404ZM170.815,217.714C155.241,204.575 147.931,184.246 149.205,161.685C152.38,168.886 159.057,183.398 166.682,193.458C168.162,195.363 170.175,197.691 171.98,199.496C173.252,206.697 176.32,214.32 180.029,220.566C177.376,219.618 173.353,218.663 170.815,217.714ZM151.856,211.145C160.113,215.278 169.65,220.566 180.237,223.003C181.301,224.806 183.736,227.027 185.532,228.408C181.402,227.56 175.787,226.078 173.036,225.34C167.53,223.851 175.155,244.821 185.217,254.142C186.489,255.416 188.286,256.795 190.406,258.275C188.926,258.384 187.337,258.485 185.642,258.699C184.053,258.808 183.736,258.275 181.933,258.592C173.46,256.155 163.714,253.403 155.349,248.215C145.92,242.494 135.541,236.14 127.385,220.99C121.773,210.504 118.912,197.267 119.128,189.01C123.152,192.393 137.771,203.944 151.856,211.145ZM139.991,248.847C145.711,250.335 150.691,251.283 155.98,251.922C163.714,255.2 172.404,257.851 179.813,259.757C173.567,261.029 166.258,263.149 160.329,263.78C159.057,263.89 158.316,264.945 158.417,266.748C140.839,263.572 124.317,260.821 110.021,249.163C102.713,243.341 100.801,233.703 98.58,228.616C109.066,234.761 129.081,245.986 139.991,248.847ZM139.674,272.47C146.344,271.938 153.021,271.198 159.374,270.35C161.385,275.007 166.575,281.467 176.32,287.82C179.072,289.624 181.725,291.005 184.26,292.167C183.312,292.692 182.25,293.225 181.192,293.756C173.991,297.889 160.329,301.274 156.513,302.013C155.665,302.122 155.665,303.394 156.62,305.298C144.231,305.615 128.764,303.711 116.584,299.054C97.101,291.853 91.064,277.658 90.424,269.185C99.212,271.305 118.704,273.949 139.674,272.47ZM131.625,316.208C142.742,314.305 151.856,312.399 159.689,309.964C162.659,313.347 167.314,317.688 172.929,320.448C161.595,324.889 148.147,327.966 134.486,327.649C115.42,327.225 102.713,321.506 100.7,318.645C106.739,318.96 119.336,318.437 131.625,316.208ZM157.993,331.034C163.083,328.497 168.802,325.105 174.732,321.289C177.168,322.354 179.813,323.302 182.564,323.833C185.956,324.574 189.241,324.889 192.419,324.998C190.299,326.487 188.286,328.283 186.59,330.403C180.877,337.18 169.226,345.02 164.879,347.981C162.55,349.677 175.263,356.67 188.601,358.574C179.072,363.555 168.586,367.156 156.306,368.636C116.799,373.509 97.525,356.771 95.405,351.058C104.086,349.362 128.874,345.336 157.993,331.034ZM141.895,380.494C146.244,379.013 151.325,376.685 157.154,373.717C169.967,371.921 181.402,366.199 191.885,358.891C193.582,359.107 195.17,359.107 196.866,358.998C192.209,364.295 187.121,369.801 182.04,374.88C172.719,381.025 161.07,387.278 147.723,391.511C134.379,395.751 124.741,396.492 113.199,396.175C108.325,396.068 97.625,390.978 94.872,387.91C101.649,387.91 125.372,386.113 141.895,380.494ZM165.834,392.567C176.32,386.006 191.361,369.908 201.524,357.094C203.22,356.878 208.093,355.713 210.104,355.081C209.365,356.561 208.725,357.411 207.984,358.998C204.177,367.895 197.5,375.52 194.429,379.97C192.209,383.462 211.268,387.278 231.283,378.164C232.031,377.85 232.664,377.741 234.36,376.685C233.937,379.329 233.62,381.766 232.772,384.417C221.33,396.807 207.776,408.565 194.639,415.976C163.605,433.77 126.22,431.647 108.426,419.475C121.139,415.55 145.396,405.49 165.834,392.567ZM217.622,404.008C221.862,400.301 226.943,395.428 231.076,390.978C229.804,396.175 226.842,400.939 225.463,404.117C224.299,406.554 228.855,406.661 234.568,405.597C233.088,408.882 230.868,413.646 229.596,416.19C224.082,422.967 219.318,429.427 213.388,434.508C200.468,445.635 195.487,452.519 178.016,459.72C169.226,463.213 157.993,462.474 148.68,462.474C155.141,460.037 172.188,450.506 178.965,444.678C193.691,431.757 206.712,417.355 217.622,404.008ZM239.341,404.648C245.585,403.053 251.624,400.833 255.439,398.081C259.139,395.428 262.317,392.359 265.077,388.867C265.077,390.239 265.077,391.618 265.176,392.89C265.501,397.972 262,409.937 261.152,412.374C260.304,414.603 264.651,414.603 271.114,412.166C266.024,423.284 261.152,431.973 256.703,438.11C248.763,449.127 239.018,458.979 225.671,464.801C214.237,469.673 197.29,470.947 194.005,468.51C199.62,462.05 216.457,447.855 230.968,422.012C232.979,418.41 236.48,411.318 239.341,404.648ZM268.677,424.663C270.266,421.171 272.801,415.451 274.714,410.685C279.264,408.674 283.397,406.338 286.996,402.635C287.637,402.104 289.54,401.464 290.073,400.833C287.737,408.034 284.983,419.792 281.698,428.796C274.39,449.127 263.913,456.545 257.876,460.461C260.945,452.519 262.955,446.376 264.651,438.641C265.392,435.573 267.512,430.384 268.677,424.663ZM416.106,367.895C415.151,377.216 411.766,384.627 410.701,382.09C410.07,380.494 408.481,377.317 406.044,373.824C406.785,381.025 407.102,388.651 406.993,396.276C406.785,403.376 405.937,410.361 407.102,416.614C408.581,424.239 413.245,432.605 418.967,438.858C420.555,432.712 421.08,425.404 425.634,415.976C427.016,413.014 429.236,409.413 429.876,404.541C424.155,399.137 418.859,385.79 417.802,376.578C417.478,373.617 416.737,370.649 416.106,367.895ZM341.861,375.629C340.165,377.426 338.683,379.437 337.203,381.766C335.822,383.886 333.178,377.957 332.223,369.484C330.951,373.193 329.578,377.216 328.197,381.766C325.338,391.935 321.52,401.573 317.497,405.389C320.681,423.183 325.021,429.003 329.255,440.337C332.647,438.11 336.246,427.1 338.259,414.918C339.424,407.076 339.848,393.1 342.175,385.475C341.544,381.025 341.861,378.482 341.861,375.629ZM337.411,342.051C334.767,345.437 326.925,351.689 322.694,355.182C316.548,360.37 311.46,360.904 308.392,366.94C308.499,377.216 312.947,392.676 314.004,402.952C321.205,398.612 322.585,385.79 327.349,373.824C329.255,369.167 330.951,365.244 332.539,362.066C334.126,348.621 337.411,342.051 337.411,342.051ZM361.668,347.24C360.503,353.486 358.49,357.835 352.768,364.396C349.7,367.895 347.156,369.908 344.719,372.552C344.719,374.041 344.612,376.792 344.719,378.698C345.252,390.139 348.529,395.535 349.7,405.49C356.053,400.625 358.066,392.042 364.526,377.533C365.267,375.944 365.899,374.565 366.432,373.083C363.93,365.3 360.818,355.481 361.668,347.24ZM399.901,367.047C392.7,358.998 389.522,354.126 387.609,347.133C387.609,353.593 386.871,355.398 384.01,363.979C383.269,366.308 382.106,369.167 381.149,372.235C381.789,374.672 382.954,377.109 383.485,379.86C385.391,392.359 389.839,402.312 395.027,405.49C395.768,397.657 402.761,386.747 403.185,374.88C403.293,373.617 403.293,372.445 403.393,371.28C402.338,370.008 401.28,368.529 399.901,367.047ZM426.692,356.246C419.39,351.583 414.41,346.285 414.41,346.285C414.41,346.285 416.313,352.538 416.206,360.794C418.011,365.46 420.763,370.432 421.928,376.154C423.731,385.582 426.799,396.383 431.988,400.939C434.11,391.511 438.981,378.698 439.405,372.235C435.382,366.623 429.876,358.259 426.692,356.246ZM364.95,229.463C364.526,224.275 368.76,223.427 368.443,219.725C367.912,212.2 357.426,209.766 353.192,206.588C349.062,203.627 342.709,200.019 340.589,191.969C336.779,190.49 334.443,187.522 333.702,183.081C333.178,179.796 334.343,176.935 334.974,175.132C333.388,173.544 331.692,172.064 329.255,171.107C321.737,168.462 317.921,168.571 313.156,169.835C310.296,170.582 302.354,174.284 300.981,176.828C304.897,176.621 314.428,176.295 318.452,177.884C328.831,181.909 327.666,195.678 335.715,201.607C339.64,204.367 348.529,207.121 354.565,213.265C363.678,222.686 360.818,236.14 359.546,236.881C358.273,237.729 349.376,233.596 338.792,234.237C332.006,234.551 323.642,236.988 320.781,245.986C323.542,245.245 332.43,240.798 337.627,240.374C351.182,239.425 359.122,246.309 364.526,245.562C369.076,244.93 371.196,242.07 369.717,238.361C368.235,234.761 365.374,235.292 364.95,229.463ZM382.321,359.315C386.871,345.229 387.087,330.827 387.087,330.827C387.087,330.827 390.794,351.897 399.684,361.328C403.609,365.567 409.113,372.128 411.342,375.629C413.669,371.811 414.517,356.878 411.866,345.12C410.494,340.463 406.044,332.623 404.348,329.979C407.733,333.895 415.791,344.696 423.731,348.829C430.716,352.43 438.45,365.884 441.418,370.856C441.842,369.691 442.05,367.995 442.05,366.092L442.05,364.82C441.949,356.561 438.874,344.171 434.958,339.191C427.864,330.403 419.915,324.998 414.727,320.765C411.125,317.904 407.209,313.771 405.721,310.596C403.393,305.191 401.28,299.369 402.545,290.788C405.406,294.18 407.95,294.921 412.506,293.332C415.365,292.377 417.478,289.84 418.643,287.928C410.701,286.448 408.581,284.859 405.721,281.15C401.804,276.17 402.338,269.392 402.338,263.041C403.924,265.476 405.721,265.369 407.417,265.268C406.144,262.191 402.021,256.048 403.5,243.025C404.033,237.937 404.558,234.02 404.558,228.723C399.452,223.694 395.418,217.039 393.648,210.08C392.942,206.246 392.432,203.376 392.386,203.115C393.62,208.966 397.191,217.442 402.145,222.704C405.879,226.671 410.359,228.887 414.735,228.057C416.723,227.68 418.69,226.673 420.555,224.916C422.667,222.903 422.776,219.087 423.939,217.605C419.708,215.802 413.455,220.042 409.536,216.333C406.044,212.941 403.609,203.837 400.639,197.059C399.684,194.73 397.671,192.503 394.603,190.066C388.154,186.151 381.861,182.423 375.113,179.055C366.747,175.132 360.286,173.119 352.137,171.323C349.91,171.323 345.884,171.323 344.088,171.848C340.589,173.019 336.67,175.132 336.88,181.068C336.987,187.205 342.392,187.421 347.049,186.997C353.509,186.357 357.218,185.725 361.668,187.845C367.387,190.599 368.336,193.775 369.824,200.344C367.171,195.578 364.843,193.034 361.983,191.338C363.038,192.295 365.16,202.031 356.477,199.603C352.554,198.539 350.541,194.73 349.91,191.447C349.276,191.545 348.852,191.447 348.113,191.545C346.201,191.969 345.036,192.186 343.556,191.871C345.353,196.843 349.801,201.292 353.826,203.52C359.655,206.588 367.912,209.241 370.248,216.967C373.74,227.875 363.571,227.35 369.608,233.172C374.905,238.153 373,249.063 366.856,249.695C365.374,249.802 362.299,249.063 360.079,248.423C360.286,255.307 359.863,261.767 359.338,265.686C357.535,277.767 350.965,285.915 348.321,289.733C350.225,289.733 351.713,289.733 354.15,287.403C353.302,290.788 351.072,298.206 346.94,304.666C338.792,317.589 333.278,321.189 320.257,330.403C304.473,341.737 305.214,357.094 306.379,363.447C311.36,357.302 318.668,353.486 325.445,349.146C335.614,342.683 344.829,329.763 344.829,329.763C344.829,329.763 338.683,343.533 337.52,350.949C336.355,358.467 334.443,371.18 336.355,376.792C340.803,370.856 347.049,364.396 353.085,357.933C361.242,349.146 365.798,330.51 365.798,330.51C365.798,330.51 364.627,350.634 366.432,359.632C368.019,367.156 370.248,375.944 374.057,379.97C377.329,373.195 379.763,366.341 382.321,359.315ZM352.03,190.706C352.454,192.719 353.509,195.894 356.37,196.843C359.655,198.008 361.558,194.515 360.71,191.231C358.273,190.066 356.37,190.066 352.03,190.706ZM403.5,181.486C406.569,181.809 408.057,179.372 409.963,176.295C411.549,173.76 415.465,171.955 417.054,171.216C420.022,169.734 421.187,166.974 423.2,165.07C425.21,163.274 425.427,162.109 427.964,160.623C430.292,159.349 434.641,158.826 437.178,158.509C436.968,156.497 432.521,152.257 428.495,152.788C424.255,153.422 421.08,159.349 421.08,159.349C421.08,159.349 419.39,155.008 414.194,154.377C412.183,153.953 407.95,155.966 406.144,156.39C405.721,158.826 407.733,161.362 408.798,163.798C410.386,166.875 415.465,166.235 415.465,166.235C415.465,166.235 410.918,169.203 407.526,168.886C405.305,168.779 404.134,168.672 403.185,166.659C402.652,165.387 402.121,162.109 402.121,162.109C402.121,162.109 400.108,162.002 396.723,162.426C393.123,162.85 390.046,162.109 388.674,158.293C387.295,154.801 389.308,148.34 389.308,148.34C389.308,148.34 390.894,152.888 394.92,155.649C397.04,157.021 400.639,156.497 403.924,155.542C403.924,152.888 403.708,151.94 401.804,148.764C399.791,145.479 395.136,146.111 392.059,147.492C393.123,143.152 394.819,138.595 393.014,133.191C388.674,134.57 386.346,138.702 384.117,143.36C383.269,141.454 382.106,138.91 380.41,138.171C375.86,136.266 372.576,137.323 369.824,139.019C371.621,143.152 372.151,146.011 374.796,147.599C378.929,150.036 384.541,146.644 384.541,146.644C384.541,146.644 382.421,151.94 378.929,153.736C373.74,156.28 369.501,153.736 367.488,150.561C366.432,148.764 365.899,147.175 365.16,144.524C363.254,145.796 362.299,146.328 359.014,146.111C354.467,145.904 353.618,138.702 353.618,138.702C353.618,138.702 355.738,141.664 359.438,140.291C363.038,139.019 366.747,136.69 366.747,136.69C366.747,136.69 362.83,132.874 359.014,131.501C355.098,130.122 352.344,131.394 352.344,131.394C352.344,131.394 352.878,125.565 350.441,122.388C348.745,120.268 343.871,119.743 340.803,120.377C341.327,122.073 345.036,124.717 346.1,127.478C347.156,129.805 349.062,132.666 348.428,137.638C347.79,143.152 348.638,143.784 349.376,148.024C350.124,152.148 346.732,157.021 350.648,159.674C345.143,160.837 346.841,166.452 349.91,167.507C356.053,169.52 363.678,169.734 375.644,175.447C387.609,181.068 392.59,184.453 396.509,187.205C400.639,190.173 404.134,183.712 403.5,181.486ZM334.019,219.087C339,220.466 344.829,222.479 350.017,226.712C351.389,227.875 354.989,230.628 357.85,233.065C358.066,232.324 358.49,231.269 358.49,229.887C356.163,226.187 354.25,224.275 352.661,222.479C349.486,219.194 344.719,216.117 341.861,214.854C339,213.472 332.963,211.886 325.869,212.2C319.617,212.417 313.58,212.517 313.58,212.517C313.58,212.517 315.276,209.665 317.289,207.652C319.193,205.847 322.16,203.52 322.16,203.52C322.16,203.52 318.137,203.727 316.548,204.151C313.797,204.892 313.156,206.38 309.771,206.697C304.473,207.121 297.275,206.164 290.812,198.648C288.268,195.787 284.352,189.218 284.352,189.218C284.352,189.218 285.093,197.691 289.857,206.588C293.673,213.689 299.81,215.802 309.979,217.074C319.409,218.239 327.034,217.181 334.019,219.087ZM398.096,411.633C397.995,413.438 392.166,409.098 388.783,404.117C388.359,409.622 387.402,413.963 386.554,419.151C388.46,427.1 395.243,437.903 400.432,442.35C401.597,436.204 402.545,424.873 404.134,418.943C402.338,401.149 403.817,400.625 403.293,391.195C401.697,396.492 398.096,405.389 398.096,411.633ZM358.59,401.363C353.618,408.25 347.364,414.07 347.049,412.481C346.732,410.785 344.612,399.243 343.556,392.676C342.175,402.736 341.968,408.775 340.803,416.614C342.709,422.543 347.049,437.162 349.7,443.622C355.522,437.585 359.969,429.637 361.242,420.747C359.546,415.55 358.807,405.28 358.59,401.363ZM382.845,391.195C381.473,386.43 380.734,381.342 379.777,376.368C378.505,380.077 377.449,383.679 376.708,385.79C376.068,387.91 371.727,383.462 368.128,376.578C367.064,379.86 366.432,381.666 365.267,384.841C363.462,389.608 362.83,392.042 361.027,396.276C361.027,401.997 361.242,411.426 363.462,417.779C367.171,427.624 371.304,433.661 374.164,442.774C378.614,437.052 381.048,430.592 384.01,417.248C384.858,413.115 385.922,404.008 386.346,400.092C384.65,397.34 383.586,394.263 382.845,391.195ZM346.94,448.071C345.46,442.35 342.392,432.922 339.314,425.404C337.728,430.808 335.822,438.75 333.702,442.35C334.974,448.596 336.032,454.739 337.411,458.448C340.272,466.074 344.505,475.078 345.252,481.007C351.606,473.167 355.314,461.309 356.477,455.163C357.325,450.607 356.687,445.525 357.325,440.23C354.357,444.57 347.689,450.716 346.94,448.071ZM406.044,426.359C404.241,431.973 402.652,441.502 402.338,446.376C402.228,449.127 394.396,442.881 390.794,436.421C390.156,445.318 391.004,454.425 392.806,460.461C394.603,466.497 400.215,477.407 403.293,480.375C404.982,473.167 408.481,461.517 411.342,455.804C414.41,449.658 414.517,446.483 416.106,441.718C413.669,439.489 407.417,431.973 406.044,426.359ZM348.952,483.76C349.7,496.366 355.946,503.358 356.794,513.944C361.242,510.028 363.995,503.882 366.539,496.15C367.811,492.234 368.659,479.844 368.336,474.654C364.211,467.029 360.393,458.765 359.762,449.444C359.122,458.448 357.111,470.947 348.952,483.76ZM383.693,479.103C383.802,486.304 385.282,503.882 395.344,511.932C396.192,505.471 396.616,501.762 398.419,496.366C400.956,488.842 400.856,482.279 400.856,482.279C395.768,475.711 389.839,468.193 389.415,461.093C388.359,469.566 386.663,473.806 383.693,479.103ZM384.757,426.035C380.834,440.022 376.284,448.703 373.633,448.496C372.261,448.496 367.912,436.421 362.94,424.449C362.406,427.307 361.983,430.168 361.242,432.288C361.558,445.211 362.299,453.791 365.374,461.517C367.811,467.662 373.524,476.767 376.385,482.812C381.789,477.407 385.922,462.05 387.511,449.444C387.194,443.515 387.402,438.217 388.25,432.712C387.609,431.232 385.282,427.307 384.757,426.035ZM556.119,320.125C566.92,317.056 577.622,307.735 578.47,303.818C574.445,303.818 564.383,300.85 557.074,297.142C550.505,293.756 540.659,288.775 532.61,288.885C538.432,287.296 545.948,288.351 553.158,291.105C555.486,289.94 558.023,288.461 560.567,286.555C569.04,280.519 575.393,272.677 576.351,266.641C570.629,266.11 561.207,263.041 553.899,262.084C546.274,261.029 539.064,262.191 528.903,266.433L528.903,266.324C535.364,261.767 540.235,259.647 545.948,259.016C548.177,257.003 550.081,254.883 551.67,253.294C560.783,243.549 563.22,234.761 564.059,230.419C558.871,232.324 549.873,232.639 543.514,233.703C533.982,235.185 525.826,241.014 518.524,245.986C518.524,245.986 528.903,231.269 552.734,229.04C564.383,207.652 572.642,188.901 562.372,161.786C556.434,145.796 541.717,136.582 533.876,134.679C538.749,148.124 539.704,160.197 532.711,171.747C529.85,176.511 524.137,185.725 522.865,191.762C520.004,204.684 534.407,219.194 518.732,236.457C518.732,236.457 523.289,226.288 522.965,219.725C520.745,221.738 519.049,223.003 516.512,224.806C509.728,229.787 505.812,231.052 498.186,235.5C487.908,241.538 482.088,251.707 482.512,260.18C483.144,273.842 501.047,273.525 506.867,275.538C510.259,276.703 515.664,277.866 515.026,284.968C514.816,286.655 509.728,290.788 507.084,292.908C503.058,296.193 498.503,301.165 497.869,304.349C496.49,311.551 504.116,313.88 508.987,320.972C512.381,325.846 509.944,334.112 504.854,334.112C501.471,334.112 495.643,333.786 492.15,334.21C487.384,334.85 482.512,337.287 475.204,341.52C470.754,344.171 468.426,347.664 464.825,349.57C460.585,351.797 456.352,351.689 449.251,349.993C447.512,349.614 445.245,348.402 442.837,347.017C448.352,361.102 444.924,378.281 443.214,377.002C443.007,376.792 442.159,375.944 441.949,375.629C441.801,376.648 441.631,377.668 441.42,378.699C445.567,386.496 449.977,393.439 453.491,396.916C462.073,405.173 469.589,407.293 475.735,408.141C474.146,401.464 472.658,396.175 472.658,392.042C472.658,383.779 470.861,372.345 468.534,365.244C472.026,371.073 474.887,379.013 475.735,385.475C477.848,387.062 480.707,389.182 484.84,392.042C491.409,396.7 502.21,401.363 510.469,400.408C507.084,394.055 505.604,388.651 503.591,380.077C500.938,368.953 498.394,363.13 492.998,356.561C498.718,360.27 503.058,362.807 506.028,373.617C506.867,373.933 507.615,374.141 508.139,374.358C518.308,378.805 538.432,379.437 541.717,377.64C537.16,373.617 532.503,368.319 529.327,362.707C525.302,355.505 523.075,346.709 517.677,341.204C522.017,343.216 525.826,347.24 529.111,352.538C530.807,352.854 532.503,353.169 534.299,353.486C548.809,356.137 564.807,350.418 569.781,346.816C563.644,343.424 556.757,339.615 551.038,332.838C544.893,325.422 537.377,322.137 527.739,317.165C527.739,317.165 535.995,318.645 544.578,322.878C548.709,322.137 552.734,321.189 556.119,320.125ZM447.988,393.314C449.043,399.984 450.632,414.286 451.587,419.899C452.328,424.449 455.187,432.181 456.037,435.682C443.493,429.89 437.702,418.199 435.207,405.385C435.844,400.518 437.157,392.696 440.461,382.407C440.47,382.378 440.48,382.348 440.489,382.319L447.988,393.314ZM185.642,320.125C174.839,317.056 163.714,308.159 162.766,304.242C166.89,304.242 177.376,300.85 184.684,297.142C191.254,293.756 201.1,288.775 209.149,288.885C203.22,287.296 195.81,288.351 188.601,291.105C186.273,289.94 183.736,288.461 181.192,286.555C172.719,280.519 166.258,273.101 165.41,267.065C171.132,266.534 180.551,263.041 187.862,262.084C195.487,261.029 202.588,262.191 212.857,266.433L212.857,266.324C206.397,261.767 201.423,259.647 195.81,259.016C193.582,257.003 191.678,254.883 190.089,253.294C180.978,243.549 177.592,234.237 176.745,229.995C181.933,231.8 191.885,232.639 198.247,233.703C207.669,235.185 215.932,241.014 223.234,245.986C223.234,245.986 212.333,230.104 188.502,227.875C176.952,206.481 170.916,188.477 181.085,161.362C187.121,145.479 202.371,134.777 210.213,132.981C205.339,146.328 205.656,161.154 212.65,172.695C215.609,177.46 219.958,188.053 221.224,194.091C223.981,207.012 207.352,219.194 223.026,236.457C223.026,236.457 218.793,224.916 219.211,218.346C221.33,220.359 223.026,221.415 225.57,223.22C232.348,228.198 236.373,229.68 243.999,234.127C254.268,240.166 262,251.707 261.576,260.18C260.945,273.842 241.028,274.583 235.208,276.493C231.817,277.658 228.956,277.866 229.596,284.968C229.804,286.655 233.196,289.416 235.733,291.529C239.866,294.812 246.118,301.491 246.75,304.666C248.129,311.975 239.341,313.88 234.468,320.972C231.076,325.846 233.196,333.578 238.277,333.578C241.669,333.578 246.118,332.838 249.611,333.154C254.375,333.786 259.249,334.743 266.557,338.983C271.005,341.628 273.335,345.76 276.827,347.557C281.176,349.786 285.407,351.689 292.508,349.993C295.736,349.288 300.788,345.719 305.156,343.491C300.425,354.166 302.647,365.894 304.542,370.261C299.379,381.181 292.961,392.216 288.161,396.916C279.688,405.173 272.063,408.25 266.024,408.989C267.512,402.312 269.101,396.175 269.101,392.042C269.101,383.779 270.898,372.345 273.225,365.244C269.733,371.073 266.872,379.013 266.024,385.475C263.913,387.062 261.052,389.182 256.919,392.042C250.35,396.7 239.125,401.888 230.868,400.833C234.144,394.479 236.157,388.651 238.17,380.077C240.821,368.953 243.365,363.13 248.763,356.561C243.041,360.27 238.594,362.807 235.733,373.617C234.892,373.933 234.144,374.141 233.62,374.358C223.45,378.805 203.329,379.86 200.044,378.064C204.601,374.141 207.883,367.364 211.061,361.751C215.084,354.55 218.686,346.709 224.082,341.204C219.742,343.216 215.932,347.24 212.65,352.538C210.954,352.854 209.256,353.169 207.459,353.486C192.95,356.137 177.8,351.373 172.828,347.773C179.072,344.381 183.629,339.615 189.241,332.838C195.487,325.422 204.384,322.137 214.022,317.165C214.022,317.165 205.656,318.645 197.183,322.878C193.05,322.137 189.027,321.189 185.642,320.125ZM309.739,393.705C309.805,409.852 306.384,426.157 287.637,434.618C289.324,429.744 291.87,424.449 292.608,419.899C293.88,412.374 294.521,400.725 295.045,392.991L306.202,376.393C306.924,382.949 308.395,388.683 309.739,393.705Z" style="fill:rgb(255,201,0);fill-rule:nonzero;"/>
                        </g>
                    </g>
                </g>
            </g>
        </g>
    </g>
</svg>
