<?xml version="1.0" encoding="UTF-8" standalone="no"?>
<!DOCTYPE svg PUBLIC "-//W3C//DTD SVG 1.1//EN" "http://www.w3.org/Graphics/SVG/1.1/DTD/svg11.dtd">
<svg width="100%" height="100%" viewBox="0 0 150 151" version="1.1" xmlns="http://www.w3.org/2000/svg" xmlns:xlink="http://www.w3.org/1999/xlink" xml:space="preserve" xmlns:serif="http://www.serif.com/" style="fill-rule:evenodd;clip-rule:evenodd;">
    <g transform="matrix(1,0,0,1,0,-4130)">
        <g id="podlaskie" transform="matrix(0.138889,0,0,0.138889,0,4130.63)">
            <rect x="0" y="0" width="1080" height="1080" style="fill:none;"/>
            <g id="podlaskie.svg" transform="matrix(1.27587,0,0,1.27587,540,540)">
                <g transform="matrix(1,0,0,1,-384.557,-423.24)">
                    <clipPath id="_clip1">
                        <rect x="0" y="0" width="769.115" height="846.48"/>
                    </clipPath>
                    <g clip-path="url(#_clip1)">
                        <g transform="matrix(1.00452,0,0,1.00452,-1548.72,10.5463)">
                            <g id="g3455">
                                <g id="g3324">
                                    <g id="g2943" transform="matrix(1.03567,0,0,1.03567,1119.96,-27.7925)">
                                        <path id="path2630" d="M409.677,19.101L409.677,460.291C409.677,663.238 574.201,827.949 776.918,827.949C979.635,827.949 1144.16,663.238 1144.16,460.291L1144.16,19.101L409.677,19.101Z" style="fill:rgb(220,43,25);stroke:black;stroke-width:4.81px;"/>
                                        <path id="path4574" d="M409.821,417.449L1144.02,417.449" style="fill:none;stroke:black;stroke-width:4.81px;"/>
                                    </g>
                                    <g id="g3567" transform="matrix(0.982998,0,0,0.982998,840.897,7.41598)">
                                        <path id="path2660" d="M1046.55,413.878C1042.27,413.227 1037.74,412.813 1035.32,410.654C1030.34,415.591 1031.24,424.967 1029.34,428.698C1025.76,423.802 1019.55,424.57 1014.57,422.673C1014.09,424.422 1013.69,426.162 1014.27,427.794C1011.7,427.153 1010.3,427.794 1009.15,428.698C1007.49,429.042 1006.12,429.688 1005.54,431.108C1001.48,431.379 1000.26,433.934 999.813,436.08L996.032,436.035C994.533,431.975 983.789,431.134 983.847,439.844C983.881,445.035 991.977,448.324 995.852,442.628L1001.23,442.825C1002.81,444.944 1002.56,446.497 1005.54,447.977C1006.6,448.927 1007.24,449.937 1007.47,451.246C1001.63,456.131 999.057,463.356 1007.04,463.944C1006.87,473.093 1008.64,480.877 1012.16,487.441C1010.43,490.662 1009.22,494.031 1010.06,497.985C1014.4,501.612 1020.02,502.241 1025.42,503.407C1034.37,512.127 1042.7,521.639 1055.54,525.398C1055.48,529.453 1057.48,532.221 1060.36,534.436C1059.92,545.396 1070.49,552.801 1073.62,562.452C1071.92,562.591 1070.14,562.467 1068.8,563.657C1070.65,560.063 1065.41,557.592 1066.39,553.414L1059.46,557.632C1062.77,560.905 1061.64,563.289 1059.46,565.464C1057.96,564.496 1058.26,561.367 1058.56,558.234C1057.48,554.875 1056.6,551.156 1053.74,551.004C1058.81,537.879 1041.2,524.934 1036.57,528.109C1035.61,517.458 1029.59,514.246 1022.41,512.746C1018.66,498.978 1005.66,498.149 994.993,494.068C1001.6,494.673 1003.59,490.357 1004.33,484.73C994.427,492.205 983.773,480.526 975.111,494.068C964.205,489.551 963.963,479.914 961.856,471.174C960.524,477.108 959.914,482.963 961.883,488.531C961.339,490.477 961.133,492.423 960.952,494.37C953.918,493.585 950.297,497.519 939.63,490.128C938.724,503.204 956.156,505.753 954.324,509.733C948.683,514.106 941.462,514.414 933.237,512.143C937.533,517.143 941.829,520.122 946.125,522.175C946.215,523.89 946.049,525.605 947.191,527.32C941.453,532.064 935.902,536.392 929.068,541.135C921.867,544.788 917.326,552.479 921.187,562.452C919.907,568.787 920.081,574.363 927.212,576.309C933.468,576.501 934.713,572.272 934.743,566.97C935.303,564.338 937.863,562.706 941.371,561.548L942.877,563.355C941.443,568.677 934.096,573.999 939.262,579.321C945.445,585.446 949.145,578.658 952.216,572.694C954.946,580.255 956.437,587.506 950.408,592.878C955.077,599.95 961.071,598.009 967.579,592.576C969.556,596.623 972.593,598.814 977.52,597.698C974.85,603.823 974.319,609.948 974.207,616.074C962.412,614.027 963.116,602.497 948.601,608.542C943.584,610.725 939.678,622.943 930.058,625.786C926.795,627.07 922.963,631.157 925.405,637.763C923.516,642.821 924.537,647.207 927.447,651.157C929.645,657.586 933.056,663.816 933.84,670.599C932.65,678.762 932.377,686.618 937.756,692.59C945.59,694.345 941.196,704.301 954.324,710.063L956.433,709.46C963.066,712.37 964.283,720.207 969.989,720.908C972.28,723.65 974.715,723.997 976.918,722.113C979.607,719.86 980.37,716.648 980.533,713.075C985.315,713.721 985.768,720.017 989.872,719.703C1001.2,708.514 994.362,689.012 986.257,684.758C983.746,683.071 981.236,683.819 978.725,686.566C976.1,685.618 973.285,685.432 970.291,685.963C970.418,679.472 967.054,678.412 963.964,676.926C952.28,669.655 960.631,655.406 948.902,645.897C950.007,645.224 951.111,644.739 952.216,642.282C956.124,646.497 958.024,651.787 971.797,650.717C979.593,649.704 984.306,652.616 988.064,656.742C993.37,664.908 1001.52,666.84 1012.74,662.074L1018.19,663.972C1013.22,688.016 1010.59,711.539 1018.79,732.656C1014.57,737.816 1012.28,742.754 1017.59,746.815L1022.41,742.598C1026.78,751.979 1038.94,780.317 1023.82,781.85C1035.8,793 1045.98,773.164 1048.92,760.07C1052.69,770.592 1069.61,783.643 1060.22,791.635C1069.66,796.288 1087.33,764.202 1078.14,748.924C1098.63,762.808 1110.61,782.498 1082.57,792.141C1086.8,798.447 1097.12,796.796 1106.95,791.458C1115.53,786.801 1120.76,774.97 1119.71,762.179C1119.21,743.696 1104.32,730.87 1094.4,716.088L1099.83,715.485L1093.75,710.316L1097.42,702.532L1090.44,703.761C1085.77,698.481 1084.11,685.698 1085.04,681.396L1096.42,683.252C1097.24,703.512 1108.56,716.831 1134.77,721.209C1157.49,726.265 1154.24,756.952 1146.52,765.492C1142.47,773.623 1133,772.609 1136.19,779.723C1132.86,783.652 1130.64,788.294 1124.25,791.171C1120.57,792.484 1120.8,795.539 1123.02,798.328C1132.78,803.587 1143.82,802.388 1156.16,794.713C1157.32,791.759 1156.04,791.727 1155.49,790.821C1155.64,788.249 1154.57,785.498 1156.85,785.399C1158.99,782.305 1160.74,788.646 1165.31,789.062C1169.85,784.072 1168.17,780.806 1167.01,777.241C1169.31,777.556 1170.6,776 1170.32,771.517C1167.24,755.454 1171.12,749.828 1171.52,738.983C1176.25,755.54 1181.74,768.017 1170.6,783.085C1167.07,787.31 1162.47,791.274 1165.2,798.328L1155.14,808.969C1157.56,812.506 1174.09,823.063 1190.13,808.962C1188.77,804.473 1189.61,797.235 1189.6,791.4C1190.12,789.209 1194.28,793.988 1198.64,790.195C1200.14,786.141 1196.68,782.707 1195.55,778.982C1191.91,772.353 1195.19,772.29 1197.73,773.024C1196.37,757.678 1189.42,741.501 1190.01,723.661C1194.99,714.257 1188.68,709.443 1181.21,711.015C1168.8,714.174 1160.99,703.214 1169.51,691.753C1179.13,678.593 1183.55,656.806 1177.31,639.896C1191.46,638.935 1200.54,633.515 1206.22,622.783C1207.33,618.138 1211.94,617.499 1215.51,618.994C1218.91,620.412 1222.05,626.074 1218.22,633.847C1216.04,637.464 1210.34,643.617 1202.38,650.045C1193.21,657.461 1190.39,676.359 1207.93,680.499C1200.99,661.168 1218.52,654.908 1228.71,650.09C1219.92,664.542 1217.34,689.001 1233.37,694.862C1232.79,687.099 1232.52,679.497 1236.29,673.913C1236.36,681.828 1241.79,691.6 1249.46,698.868C1259.78,708.634 1278.18,714.99 1285.09,704.038C1253.51,704.46 1244.56,674.336 1257.3,649.237C1272.43,619.452 1246.55,576.92 1205.26,592.576C1194.69,597.91 1186.12,613.933 1186.53,625.469C1183.17,628.105 1179.08,630.739 1174.02,630.81C1168.74,616.054 1153.09,606.416 1137.07,605.481C1137.15,599.786 1141.28,597.074 1146.31,595.035L1146.49,595.015C1144.62,591.728 1141.68,589.656 1136.95,589.611C1135.6,591.848 1133.12,593.37 1132.44,595.015L1132.08,593.754C1132.79,591.956 1133.88,590.093 1133.16,588.531C1130.2,588.2 1130.33,584.184 1127.4,582.587C1137.33,582.524 1147.77,582.471 1158.05,576.769C1167.1,563.08 1169.14,547.809 1162.7,530.624L1127.04,480.463L1115.51,491.27C1112.5,490.834 1108.77,490.694 1105.98,491.18L1100.3,489.289C1099.25,488.418 1099.3,487.548 1100.11,486.677C1110.99,469.864 1104.8,454.651 1090.66,445.161L1159.19,444.261C1170.79,444.312 1187.71,443.411 1192.33,438.392C1187.14,434.897 1173.38,433.328 1159.18,433.375L1038.88,432.103C1038.99,425.397 1042.6,419.594 1046.55,413.878ZM1085.77,445.391L1038.63,445.391C1039.58,451.764 1041.66,457.773 1046,463.069L1033.84,466.138C1031.28,460.452 1030.14,454.175 1029.42,447.724C1028.73,449.319 1028.21,451.306 1027.09,451.898C1028.27,455.251 1034.67,461.74 1027.21,464.787C1028.74,471.412 1033.39,477.766 1036.91,482.854C1040.21,483.615 1041.26,485.903 1041.58,486.537C1042.85,487.665 1044.34,488.356 1044.89,490.935C1048.68,489.418 1057.07,499.834 1062.2,504.193L1064.65,504.07L1064.9,502.351C1061.89,499.614 1058.8,496.924 1061.95,491.18C1062.1,489.562 1061.04,489.145 1060.97,488.111C1060.85,486.89 1061.46,485.328 1061.09,484.183C1059.98,483.649 1058.92,483.211 1058.37,481.691C1057.51,480.563 1060.79,477.239 1061.09,474.485C1059.47,472.998 1057.99,471.127 1056.67,468.715C1059.2,464.288 1060.24,459.544 1061.91,454.974C1063.4,453.438 1065.31,453.404 1067.72,454.475C1071.53,449.033 1078.66,447.223 1085.77,445.391ZM953.739,562.546C960.389,562.938 969.445,564.033 972.12,553.728C974.527,556.628 978.364,557.741 983.421,557.33C985.264,565.992 988.8,574.184 985.035,584.403C975.443,583.244 966.851,580.511 959.576,575.71C961.294,569.032 957.098,566.05 953.739,562.546Z"/>
                                        <path id="path3488" d="M1063.68,471.733C1065.29,471.142 1066.34,472.062 1066.38,473.876C1065.5,472.852 1065.77,476.425 1067.03,474.648L1069.09,474.734C1069.12,475.537 1069.49,475.115 1069.86,474.691C1070.66,473.1 1072.3,472.099 1074.23,471.304C1074.84,470.596 1077.93,472.39 1079.72,472.976C1085.85,473.841 1084.51,479.446 1083.75,481.251C1080.55,487.572 1075.59,490.46 1070.12,492.355C1067.47,492.671 1063.94,494.132 1062.31,493.127C1062.09,492.664 1061.88,492.201 1063,491.626C1063.86,491.329 1063.19,490.617 1062.87,489.997C1062.27,489.308 1061.94,488.643 1062.7,488.067C1064.72,488.057 1067.34,488.496 1067.2,486.867C1065.5,486.81 1062.2,487.367 1062.1,486.696C1061.35,484.943 1064.36,484.276 1061.93,482.58C1058.99,482.614 1058.71,480.992 1060.04,479.107C1061.97,476.53 1062.47,474.191 1063.68,471.733ZM1067.37,477.135C1068.69,478.761 1069.36,479.678 1071.1,482.708C1069.95,482.626 1069.8,480.632 1068.06,481.293C1068,480.85 1068.54,480.761 1069.04,480.65C1068.55,478.564 1065.65,478.201 1067.37,477.135ZM1063.43,482.537L1068.1,482.708C1068.69,482.384 1068.33,482.145 1067.91,482.306C1066.49,482.309 1065.04,482.194 1065.23,481.594C1065.37,482.045 1064.61,482.197 1063.64,482.28C1063.44,482.344 1063.15,482.393 1063.43,482.537Z" style="fill:rgb(251,206,189);"/>
                                        <path id="path3380" d="M1049.71,719.971L1078.33,712.309L1072.7,706.216L1081.74,708.063L1083.04,699.939L1087.47,705.755L1095.31,704.278L1092.08,710.647L1097.16,714.801L1089.87,715.725L1088.2,725.048L1083.04,715.817L1075.93,722.925L1078.51,714.986L1051.72,723.982L1049.71,719.971ZM1035.16,412.175C1037.43,413.293 1040.74,414.144 1044.87,414.779C1034.97,425.798 1034.46,450.689 1044.27,462.644C1040.59,463.132 1037.45,463.949 1034.46,464.847C1028.03,447.912 1028.96,424.844 1035.16,412.175ZM1000.06,436.967C1000.06,438.575 1000.26,440.205 1001.01,441.898L995.353,441.866C992.398,447.089 984.578,444.826 984.632,439.639C984.702,433.022 993.506,432.347 995.512,436.903L1000.06,436.967ZM1130.4,510.924L1116.79,523.663L1105.59,511.769L1097.89,519.48L1108.72,531.342L1095.65,543.658L1102.3,551.159L1115.74,538.961L1127.92,551.626L1114.61,563.851L1121.86,570.833L1134.94,559.001L1146.74,571.836L1154.74,563.999L1142.85,551.139L1156.22,539.006L1149.39,531.21L1135.74,543.734L1123.56,531.16L1137.39,518.843L1130.4,510.924ZM995.734,509.305C997.04,511.237 998.418,513.141 997.998,515.764C995.433,517.884 992.215,519.243 989.807,522.624C989.134,521.33 987.501,520.635 985.411,520.226L995.734,509.305ZM967.097,509.171L962.169,513.234C967.43,517.163 974.146,521.577 977.953,525.021C978.794,523.474 979.677,521.945 982.082,521.092L976.487,517.429L973.557,520.426C973.568,519.41 974.408,518.061 975.289,516.697L967.097,509.171ZM981.549,522.091C985.77,519.932 988.41,522.485 989.207,523.956C989.59,524.93 990,529.371 986.211,530.149C982.242,530.902 979.835,529.818 978.885,527.019C978.865,525.571 979.118,524.064 981.549,522.091ZM990.673,526.42C997.379,527.815 1001.71,534.2 1004.19,537.608C1008.6,543.042 1002.43,546.359 997.599,546.732C1003.89,538.777 987.59,531.05 986.677,531.015C988.803,530.278 990.318,528.929 990.673,526.42ZM977.686,527.352C978.41,528.872 979.441,530.29 981.749,531.281C971.415,539.267 960.89,547.157 949.849,554.79C949.898,552.437 948.206,552.043 946.919,551.194C957.626,543.337 967.867,535.387 977.686,527.352ZM934.798,538.607L930.403,541.87L940.326,555.123C941.009,553.63 942.251,552.204 944.521,551.593L934.798,538.607ZM940.925,556.055C941.683,554.281 943.034,552.903 945.387,552.193C947.399,552.157 948.945,553.388 949.716,556.721C948.281,560.298 945.4,561.524 943.389,560.983C940.778,559.838 940.35,558.086 940.925,556.055ZM944.521,563.114C946.191,560.33 951.069,560.991 953.312,563.314C955.489,564.735 959.927,570.403 958.839,575.168C956.731,573.554 954.995,573.279 953.155,572.629C951.668,567.914 948.672,564.634 944.521,563.114ZM954.111,574.303C955.978,581.258 957.823,588.208 951.714,593.083C955.032,598.396 963.001,595.846 967.697,590.153C970.356,595.428 973.539,599.412 980.75,593.482C983.079,599.481 988.65,601.587 994.335,594.015C996.768,600.482 1005.1,598.616 1008.05,592.95C1011.79,599.821 1019.91,595.231 1021.11,590.153C1024.38,595.049 1029.43,593.634 1032.43,587.089C1038.95,591.843 1043.54,587.269 1044.15,582.96C1046.88,586.328 1053.06,585.576 1054.94,582.028C1052.5,580.802 1051.78,578.886 1051.08,576.966C1032.84,585.693 979.752,592.722 959.078,576.345C957.569,575.15 955.193,573.909 954.111,574.303ZM1047.25,605.133L1052.15,610.705C1044.63,607.768 998.042,615.891 982.717,629.582C978.074,631.655 973.064,626.508 976.647,620.767C991.927,606.842 1026.79,605.229 1047.25,605.133ZM1137.13,606.519C1155.61,612.044 1156.4,638.864 1154.11,654.251L1177.18,670.269C1176.5,675.435 1174.97,679.461 1173.01,682.923C1169.26,675.379 1159.12,670.16 1151.07,664.182C1150.41,672.853 1147.18,683.91 1157.47,682.442C1154.43,691.767 1143.84,687.821 1141.06,682.314C1138.11,676.45 1138.94,665.676 1141.3,658.896C1136.56,656.675 1131.51,654.605 1125.92,652.81C1124.9,660.067 1122.44,670.864 1129.6,668.187C1128.88,680.118 1120.09,675.253 1117.97,672.467C1115.26,668.901 1113.26,659.414 1115.35,649.927C1109.4,648.334 1101.64,647.651 1094.04,646.883L1097.89,639.996C1104.62,640.432 1111.34,641.43 1118.07,642.719C1118.5,636.112 1121.01,628.983 1115.03,623.978L1123.36,619.493C1128.47,626.659 1127.99,634.995 1127.53,643.407L1143.91,649.109C1146.44,628.488 1144.99,620.374 1133.61,612.445L1137.13,606.519ZM1126.95,646.779C1126.95,649.697 1124.19,652.489 1121.27,652.489C1118.36,652.489 1115.86,650.578 1115.86,647.661C1115.86,644.743 1118.36,641.918 1121.27,641.918C1124.19,641.918 1126.95,643.861 1126.95,646.779ZM1125.81,646.867C1125.81,649.182 1123.62,651.399 1121.3,651.399C1118.99,651.399 1117,649.882 1117,647.566C1117,645.251 1118.99,643.008 1121.3,643.008C1123.62,643.008 1125.81,644.551 1125.81,646.867ZM1153.01,656.241C1153.01,659.259 1150.84,661.763 1147.82,661.763C1144.81,661.763 1142.64,659.427 1142.64,656.41C1142.64,653.393 1144.75,650.832 1147.77,650.832C1150.79,650.832 1153.01,653.224 1153.01,656.241ZM1151.79,656.298C1151.79,658.52 1149.99,660.324 1147.77,660.324C1145.55,660.324 1143.74,658.52 1143.74,656.298C1143.74,654.075 1145.55,652.271 1147.77,652.271C1149.99,652.271 1151.79,654.075 1151.79,656.298Z" style="fill:rgb(255,255,0);"/>
                                        <path id="path3507" d="M1046.53,686.611C1049.15,692.515 1052.18,701.356 1046.89,712.923C1046.81,710.705 1046.2,709.824 1045.44,709.319L1046.53,686.611ZM1130.54,509.481L1117.01,522.111L1105.97,510.352L1096.13,519.436L1107.18,531.289L1093.96,543.608L1102.7,552.35L1115.67,540.404L1126.09,551.572L1113,563.798L1121.74,572.509L1134.59,560.687L1146.61,573.402L1156.64,564.202L1144.63,551.448L1157.92,539.19L1149.61,529.64L1136.05,542.301L1125.63,531.226L1138.88,519.031L1130.54,509.481ZM1067.12,538.402L1126.99,482.191L1161.58,530.948C1166.95,544.955 1166.57,562.461 1156.69,576.284C1145.59,580.907 1126.72,584.218 1113.8,577.14L1067.12,538.402ZM1065.4,555.378L1060.6,558.055C1062.12,559.858 1062.86,561.918 1061.43,564.701C1063.53,565.1 1065.62,564.625 1067.71,564.055C1069.81,561.371 1065.5,558.28 1065.4,555.378ZM1076.33,581.328C1074.5,584.263 1072.74,587.183 1072.16,589.869L1051.56,608.185L1047.86,604.294C1045.87,595.477 1048.83,589.467 1052.09,585.754C1054.92,584.822 1055.91,583.206 1056.4,581.993C1057.3,583.326 1057.96,584.768 1061.05,585.124C1064.22,590.288 1071.55,583.653 1076.33,581.328ZM1137.65,590.698C1141.37,590.532 1143.09,592.586 1144.91,594.532C1140.79,596.431 1136.58,598.174 1135.85,605.791C1133.71,611.344 1130.63,616.125 1124.6,618.436C1122.07,617.362 1118.18,621.049 1114.89,622.678C1110.43,622.578 1099.44,625.196 1092.53,622.923C1096.62,621.506 1100.19,619.41 1103.63,617.13C1113.39,615.824 1131.52,607.967 1132.59,596.572C1133.17,594.983 1135.91,592.674 1137.65,590.698ZM1113.09,623.331C1105.01,629.677 1097.29,636.495 1092.53,647.153C1086.55,660.833 1077.37,684.724 1089.27,704.423L1087.8,704.75L1082.09,696.754L1080.62,707.034L1069.04,703.934L1076.22,711.602L1069.04,713.724C1069.02,708.942 1067.18,704.772 1066.1,700.344C1064.96,693.996 1065.33,687.383 1067.57,680.438C1068.18,670.189 1069.77,660.109 1060.39,648.132L1061.7,645.521C1063.61,645.402 1065.55,645.548 1067.08,641.768L1069.69,640.952C1070.18,639.347 1067.6,639.969 1066.1,639.81C1064.46,639.255 1062.9,638.28 1060.88,639.81C1059.88,639.802 1059.32,639.41 1059.9,638.015C1062.31,635.31 1065.69,633.584 1069.69,632.468C1076.32,628.051 1084.35,626.431 1091.88,623.82C1097.21,624.879 1103.45,625.293 1113.09,623.331ZM1026.34,648.044C1032.81,652.633 1036.64,661.012 1040.04,670.031L1037.34,709.319C1034.69,714.158 1032.69,718.24 1032.11,720.672L1036.97,714.545C1037.34,715.446 1037.7,716.347 1038.06,717.248C1032.26,722.999 1025.95,727.201 1019.85,732.026C1010.93,709.898 1014.61,667.572 1026.34,648.044ZM1093.16,716.495L1110.05,739.21C1134.12,776.812 1102.32,802.935 1084.49,793.157C1102.19,787.492 1102.1,777.298 1098.09,766.109C1092.02,757.046 1082.59,749.906 1073.88,742.348C1085.74,753.152 1075.88,788.261 1063.12,791.065C1070.42,780.906 1050.06,768.507 1048.63,751.613C1047.57,762.197 1040.34,789.01 1027.11,782.846C1040.81,774.521 1025.28,747.61 1023.37,741.75L1030.25,737.715L1030.25,739.658C1039.36,738.178 1060.53,739.149 1055.95,731.289C1064.49,729.317 1076.27,729.329 1071.19,719.035L1076.28,717.691L1073.14,726.358L1082.85,718.438L1088.68,727.105L1091.07,716.794L1093.16,716.495Z" style="fill:rgb(0,142,224);"/>
                                        <path id="path3438" d="M1005.95,431.416C1006.98,430.05 1008.24,429.4 1009.67,429.236C1010.95,427.841 1013.03,427.953 1014.81,428.227C1016.55,430.985 1018.37,432.389 1020.63,433.151C1020.85,435.118 1020.51,437.257 1021.48,439.009C1021.2,440.608 1019.29,441.36 1018.02,441.114C1016.91,439.304 1015.76,437.574 1014.78,435.551C1014.64,435.536 1014.32,435.085 1014.41,435.626C1015.15,437.221 1015.87,438.824 1016.44,440.475C1016.61,441.872 1014.75,443.596 1013.47,443.219C1012.39,442.375 1011.25,441.572 1010.73,440.287C1010.4,440.164 1010.25,440.236 1010.39,440.626C1010.9,441.611 1011.63,442.48 1012.45,443.294C1012.94,444.002 1011.45,446.294 1009.07,445.4C1007.99,444.602 1006.96,443.772 1006.67,442.58C1006.52,442.485 1006.35,442.135 1006.25,442.618C1006.33,443.667 1006.97,444.375 1007.53,445.136C1007.72,446.797 1005.76,447.142 1005.09,446.527C1002.53,443.322 1000.53,439.951 1000.95,435.852C1000.86,434.189 1001.71,433.664 1002.49,433.07C1003.17,431.903 1004.6,431.714 1005.95,431.416ZM1015.22,424.098C1019.91,426.226 1026.1,424.722 1029.25,430.599C1028.55,435.713 1028.87,440.743 1029.59,445.739C1027.62,447.831 1027.85,450.742 1025.91,451.555C1027.27,455.617 1033.28,460.917 1026.77,463.787C1026.61,459.833 1025.82,456.671 1022.83,456.26C1022.29,456.429 1018.92,456.363 1014.8,457.516C1010.73,458.654 1006.03,459.103 1007.11,462.556C1004.36,462.57 1002.95,461.4 1002.96,460.055C1003,457.491 1005.65,453.522 1008.12,451.897C1008.93,450.042 1007.93,448.719 1006.75,447.449C1007.24,447.463 1007.72,446.998 1008.21,446.423C1010.45,447.052 1012.28,446.727 1013.34,444.627C1014.97,444.164 1016.55,443.635 1017.36,441.889C1018.89,442.101 1020.36,442.551 1022.58,440.35C1022.74,438.145 1020.32,436.043 1021.81,433.165C1018.78,430.785 1014.26,429.577 1015.22,424.098ZM1038.26,438.229C1038.3,436.611 1038.28,434.992 1038.57,433.374L1160.25,434.407C1170.2,434.528 1183.84,435.036 1190.77,438.598C1183.86,442.192 1170.21,443.209 1160.29,443.198L1038.42,443.95C1038.32,442.37 1038.17,440.815 1038.27,439.106C1066.06,439.09 1121.34,439.647 1121.64,439.057C1121.39,438.354 1066.06,438.505 1038.26,438.229ZM1016.31,458.139C1020.47,457.327 1023.2,456.203 1025,459.283C1026.08,468.368 1030.54,476.213 1036.27,483.59C1031.01,483.981 1025.43,483.868 1020.32,485.01C1017.72,476.832 1015.67,468.324 1016.31,458.139ZM1014.89,458.712C1013.02,459.078 1007.53,460.023 1007.98,462.515C1007.44,472.311 1009.74,479.947 1013.07,486.794C1015.08,486.015 1017.11,485.32 1019.27,485.156C1016.48,476.839 1015.18,467.964 1014.89,458.712ZM1040.82,487.045C1040.17,485.701 1039.35,484.44 1036.89,483.999C1028.65,485.032 1019.31,484.885 1012.96,487.929C1011.61,491.109 1010.11,494.273 1011.29,497.707C1011.65,497.944 1011.76,498.326 1012.72,498.198C1015.47,493.244 1032.98,487.046 1040.82,487.045ZM1013.55,498.984C1019.55,491.411 1036.01,488.196 1041.31,487.684C1042.31,488.506 1043.96,488.867 1043.38,490.779C1036.16,492.006 1027.17,495.157 1024.66,501.539C1020.2,501.645 1016.57,500.712 1013.55,498.984ZM1061.56,504.725C1059.4,506.901 1057.73,509.544 1057.21,513.263C1044.59,511.445 1034.97,502.575 1030.18,496.561C1034.33,494.01 1038.89,492.084 1044.48,491.693C1048.95,490.457 1056.61,500.32 1061.56,504.725ZM1029.36,496.986C1035.2,503.676 1042.43,511.349 1056.74,514.256C1056.04,517.741 1055.32,521.225 1055.73,524.71C1042.57,520.707 1033.3,510.252 1025.57,502.252C1025.96,500.31 1027.53,498.621 1029.36,496.986ZM1062.35,505.234L1067,505.001C1067.96,508.984 1064.79,511.814 1062.66,512.203C1061.56,513.007 1061.29,513.904 1062.04,514.914L1064.67,517.315C1062.23,517.979 1060.07,526.52 1060.57,532.958C1054.6,529.933 1056.67,521.552 1057.86,513.752C1058.92,510.244 1060.43,507.092 1062.35,505.234ZM1066.69,502.523C1069.62,507.095 1067.13,512.148 1062.66,513.442C1067.1,522.074 1085.25,514.081 1093.77,511.894C1093.94,509.854 1094.1,507.815 1094.41,505.776C1085.99,505.683 1081.67,502.665 1080.47,497.412C1076.42,500.048 1072.17,502.335 1066.69,502.523ZM1061.96,494.004C1060.45,497.91 1063.36,499.603 1065.37,501.749C1071.14,501.177 1076.79,499.599 1081.94,494.314C1083.16,489.274 1088.18,486.621 1089.77,479.445C1085.58,478.8 1088.37,475.147 1084.19,473.947C1089.07,483.97 1075.96,491.861 1070.4,493.23C1069.27,494.323 1068.73,495.778 1068.62,497.489L1068.16,493.617C1065.89,494.003 1063.45,494.601 1061.96,494.004ZM1114.7,492.068L1094.67,511.049C1095.09,494.363 1104.51,490.51 1114.7,492.068ZM1057.94,468.448C1060.07,464.432 1061.41,460.013 1062.74,455.593C1063.29,454.165 1065.1,454.519 1067.08,455.128C1074.94,458.306 1082.69,461.929 1089.53,469.378C1089.77,470.209 1089.95,471.054 1089.38,472.088L1087.06,474.489C1075.26,468.59 1065.4,466.295 1057.94,468.448ZM1087.98,474.954L1090.77,471.779C1093.33,470.545 1095.82,473.993 1094.8,475.341L1092.24,478.516C1088.93,479.4 1087.56,477.641 1087.98,474.954ZM1069.06,454.804C1072.58,448.583 1081.53,447.796 1088.99,445.53C1100.84,452.821 1111.15,468.358 1100.17,484.831C1095.74,489.216 1099.51,490.808 1104.32,492.042C1099.88,493.482 1095.87,497.458 1094.49,505.077C1088.27,504.619 1082.15,502.587 1081.56,497.41C1085.5,488.283 1089.6,486.817 1091,479.925C1091.47,479.932 1091.74,480.228 1092.84,479.603L1095.85,476.358C1096.87,475.016 1096,473.119 1094.46,471.751C1092.44,469.955 1091.63,470.51 1090.8,470.95C1091.46,465.231 1075.14,457.425 1069.06,454.804ZM1058.66,469.339C1059.66,468.905 1060.79,468.78 1062.02,468.86C1063.18,470.151 1062.93,471.768 1061.86,473.573C1060.49,472.216 1059.4,470.81 1058.66,469.339ZM1067.61,473.126C1068.25,472.066 1067.59,471.319 1066.84,470.597C1068.53,469.567 1070.11,469.73 1071.64,470.468C1071.84,471.381 1071.32,471.998 1070.27,472.397C1069.55,473.603 1068.54,473.148 1067.61,473.126ZM1092.59,513.027C1083.74,515.411 1074.88,520.024 1065.39,517.612C1062.02,521.281 1061.19,529.12 1061.57,534.438C1062.46,546.916 1072.77,553.174 1074.4,562.202C1079.45,562.211 1081.99,554.331 1084.21,559.514C1085.35,558.158 1087.11,558.242 1088.63,557.774L1065.39,538.537L1092.59,513.027ZM1089.65,558.701L1098.24,565.838L1090.46,568.681C1088.29,566.313 1086.17,563.898 1084.98,560.687C1085.64,559.008 1087.97,559.224 1089.65,558.701ZM1091.1,569.272L1098.93,566.696L1106.5,572.867L1092.87,574.262C1093.4,572.116 1092.56,570.561 1091.1,569.272ZM1081.6,559.184C1082.17,558.61 1082.79,558.418 1083.64,559.828C1085.04,564.049 1087.42,567.358 1090.67,569.862C1093.47,573.197 1091.37,575.492 1089.6,577.857C1084.83,579.106 1082.14,574.143 1078.65,577.266C1077.93,575.274 1078.13,573.942 1078.38,572.652C1076.92,572.888 1077.85,575.712 1077.95,577.642C1074.54,583.911 1060.9,589.217 1062.13,583.974C1059.37,584.472 1057.04,582.884 1058.37,580.54C1053.64,582.423 1051.32,576.203 1055.63,574.637L1055.31,574.208C1051.41,575.891 1049.66,574.773 1048.6,572.759C1052.1,571.184 1056.69,569.055 1058.1,565.999C1058.71,566.633 1059.76,566.394 1060.94,565.891C1063.88,565.771 1066.81,565.628 1069.05,564.389C1072.21,562.515 1077.02,564.301 1081.6,559.184ZM1107.42,573.677C1112.64,577.875 1118.37,581.394 1126.12,582.257C1130.63,585.748 1128.42,589.09 1132.35,589.509C1131.9,596.322 1123.58,601.504 1118.46,601.459C1121.77,598.474 1120.39,590.744 1115.1,587.578C1111.49,585.416 1106.8,582.92 1105.27,576.999C1106.73,588.287 1120.73,587.021 1114.06,601.459C1109.9,600.796 1106.85,596.888 1103.49,592.781C1097.79,585.799 1080.32,584.224 1073.31,589.815C1074.2,586.062 1077.67,581.772 1079.23,577.558C1081.44,575.414 1085.46,579.876 1090.17,578.886C1091.58,577.443 1092.37,576.231 1092.51,575.107L1107.42,573.677ZM1115.44,589.283C1118.66,594.608 1116.99,598.596 1114.18,602.493C1110,601.742 1106.18,598.085 1103.43,594.627C1106.17,600.992 1109.54,608.452 1103.85,616.063C1112.37,614.877 1132.92,606.915 1131.53,594.807C1127.64,600.541 1122.18,602.711 1116.7,602.973C1121.27,597.78 1119.03,592.411 1115.44,589.283ZM1102.53,595.227C1105.64,601.975 1108.63,608.736 1102.83,616.423C1098.38,619.622 1093.8,621.691 1089.2,623.628C1092.93,614.774 1088.77,609.079 1086.98,602.373C1091.7,599.156 1097.01,597.011 1102.53,595.227ZM1102.51,593.958C1096.66,587.392 1085.69,584.424 1073.38,590.368C1066.55,596.204 1059.51,602.419 1052.14,609.317L1054.93,612.409L1049.35,611.411C1044.38,615.899 1040.88,620.387 1036.88,624.875C1044.16,624.853 1048.69,627.789 1052.54,631.458C1064.63,612.925 1082.19,601.615 1102.51,593.958ZM1085.85,602.835C1087.54,609.413 1091.73,614.856 1088.05,623.878C1081.5,626.179 1074.25,628.213 1069.69,631.258C1071,624.27 1069.79,619.565 1068.2,615.201C1073.68,610.129 1079.58,606.046 1085.85,602.835ZM1067.3,616.199C1069.09,620.26 1070.08,624.917 1068.7,631.358C1065.36,633.156 1061.77,634.19 1058.92,637.442L1053.34,631.956C1057.75,626.124 1062.12,620.221 1067.3,616.199ZM1036.39,626C1047.29,624.489 1051.78,632.86 1058.36,638.013C1058.76,640.805 1060.26,640.509 1061.6,640.666C1062.96,639.06 1065.94,640.168 1065.21,642.877C1063.58,646.418 1061.07,644.069 1060.71,642.656C1050.84,646.281 1033.17,646.553 1023.94,642.435C1021.59,641.301 1021.98,637.985 1024.9,637.276C1028.01,636.571 1028.78,635.142 1029.39,633.665C1030.82,630.33 1033.63,628.189 1036.39,626ZM1023.86,643.467C1034.34,647.174 1046.48,647.571 1060.49,644.204C1059.01,652.529 1041.77,659.558 1036.32,658.501C1032.22,652.595 1028.15,646.341 1023.86,643.467ZM1053.31,551.5C1058.55,554.83 1056.72,560.63 1057.46,565.532C1056.13,568.051 1053.25,569.471 1049.71,571.255C1046.13,569.728 1047.83,565.651 1049.06,561.47L1053.31,551.5ZM1059.31,648.983C1076.77,670.396 1059.45,683.409 1065.56,704.282C1066.42,707.236 1067.3,710.613 1067.74,713.953L1059.32,716.353C1058.11,696.032 1056.63,676.423 1048.79,656.46C1052.52,654.355 1056.31,652.307 1059.31,648.983ZM1047.86,657.106C1054.87,675.361 1058.09,699.336 1057.37,716.814L1049.25,719.14L1047.03,714.34C1054.13,704.452 1050.85,692.765 1047.22,683.784C1044.25,675.432 1040.86,667.366 1037.16,659.506C1040.3,659.343 1043.29,659.407 1047.86,657.106ZM1052.3,724.73L1069.52,719.167C1076.12,724.763 1065.44,730.543 1054.81,729.673L1052.3,724.73ZM1040.8,671.496L1045.46,682.01L1044.61,709.108C1042.59,709.347 1040.43,708.849 1038.75,711.013C1039.18,698.013 1039.81,684.872 1040.8,671.496ZM1044.68,710.166C1046.83,712.332 1045.58,715.781 1043.62,716.8C1040.74,717.398 1038.14,716.333 1038.26,713.483C1039.23,711.115 1041.27,709.901 1044.68,710.166ZM1046.16,715.388L1054.49,731.195C1056.13,733.956 1054.35,735.09 1052.09,735.994L1031.49,738.464L1036.99,720.187L1039.53,717.576C1041.89,717.973 1044.34,718.966 1046.16,715.388ZM1035.6,721.071L1031.12,735.448C1030.24,732.597 1028.24,730.493 1028.59,726.82L1035.6,721.071ZM1027.63,727.621C1027.46,730.485 1029.03,733.35 1030.5,735.994L1026.12,738.111C1025.03,735.775 1022.99,734.134 1023.02,730.984L1027.63,727.621ZM1022,731.812C1022.27,734.932 1024.03,736.328 1025.11,738.433L1020.62,741.569C1019.15,739.921 1017.52,738.389 1018.5,735.077C1019.26,733.895 1020.67,732.651 1022,731.812ZM1017.36,737.188C1017.5,739.61 1019.12,741.15 1020.19,742.642L1017.53,745.218C1015.64,743.037 1014.93,740.052 1017.36,737.188ZM976.194,494.716C982.059,483.75 995.839,491.315 1002.76,487.021C1002.17,495.744 991.024,492.269 984.987,495.449C988.035,494.929 991.146,494.783 994.33,495.082C1000.58,497.028 1009.69,499.11 1014.85,503.069C1020.53,507.429 1022.66,512.848 1020.16,522.562C1021.09,520.771 1021.89,517.924 1022.54,513.952C1039.67,514.962 1037.58,540.212 1032.99,547.294C1037,542.576 1037.87,535.984 1037.38,528.974C1041.2,526.917 1059.32,540.004 1052.48,551.179C1050.27,558.467 1043.46,565.914 1047.82,572.758L1047.27,573.491L1050.02,576.239L1040.57,579.315C1030.49,575.693 1035.27,565.463 1038.16,561.323C1041.05,557.181 1042.73,552.945 1039.95,544.362C1041.87,556.315 1026.57,572.686 1013.31,561.691C1026.63,561.391 1026.52,549.647 1025.11,537.218C1024.33,533.465 1025.35,528.688 1025.84,524.211C1024.51,528.809 1023.39,533.371 1024.38,537.584C1020.79,542.294 1018.01,547.692 1018.7,556.087C1013.38,553.959 1013.08,547.486 1013.57,540.332C1013.65,536.359 1012.66,533.744 1011.18,531.722C1007.05,523.545 1007.04,516.199 1007.7,504.425C1004.18,517.411 1005.05,524.333 1010.27,532.455C1001.59,529.95 1000.72,522.843 999.46,515.967C999.269,506.773 992.054,504.444 985.903,506.44C989.635,499.878 980.099,498.369 976.194,494.716ZM962.968,488.66C964.339,495.019 967.903,499.948 973.357,503.644L967.097,507.573C961.791,502.102 962.601,495.334 962.968,488.66ZM961.304,494.853C961.028,498.079 962.28,500.965 963.568,503.844L960.638,505.708C958.825,496.007 939.713,500.129 940.459,491.989C947.502,496.89 953.449,495.074 961.304,494.853ZM942.657,497.117C948.551,499.879 956.92,498.791 959.972,505.975L955.11,509.105C953.058,503.445 945.838,502.782 942.657,497.117ZM963.967,504.776C964.645,506.001 965.171,507.287 966.698,508.172C960.734,513.184 954.339,517.715 946.786,520.959C941.501,519.228 939.994,516.788 937.329,514.566C949.564,517.106 956.118,508.925 963.967,504.776ZM961.586,474.65C963.853,489.862 970.814,493.641 979.038,497.741C983.309,500.018 988.037,502.222 984.809,507.553C982.845,508.806 980.499,509.868 979.547,511.627C981.349,509.951 983.341,509.037 985.319,508.062C989.505,506.286 993.141,507.607 994.995,508.911L984.809,519.946L982.636,520.285C976.791,516.693 971.696,512.583 967.663,508.266C970.629,506.09 973.662,504.713 976.491,504.328C970.812,501.001 962.087,495.481 961.586,474.65ZM961.609,513.74C966.966,517.794 973.241,521.503 977.307,526.04C967.35,534.955 956.236,542.944 945.436,551.184L935.582,537.932L950.396,526.244L947.814,526.516C947.175,524.839 947.004,523.255 947.27,521.759C952.292,519.813 956.938,516.74 961.609,513.74ZM948.494,539.971C948.799,538.372 949.581,536.782 949.165,534.382C947.708,526.71 956.363,528.923 958.551,525.429C959.496,531.767 956.864,535.44 953.531,535.681C951.388,536.036 949.89,537.317 948.494,539.971ZM951.946,530.383C952.656,529.327 955.332,528.559 956.722,529.039C956.683,530.743 956.615,532.437 954.768,533.484C954.357,531.827 953.111,530.949 951.946,530.383ZM940.446,560.518C939.284,558.866 939.472,557.383 939.623,555.896L929.747,542.411C922.973,546.015 918.339,551.023 922.276,561.657C922.663,562.277 923.054,562.876 923.606,562.67C924.372,561.931 923.924,561.193 923.733,560.454C921.537,557.695 922.201,554.1 925.632,554.187C927.742,554.654 929.493,556.633 930.76,560.644C928.992,564.269 925.496,565.975 922.276,567.988C921.33,571.622 923.524,575.225 928.354,575.395C932.085,575.12 933.909,572.59 933.925,567.925C934.172,562.886 937.884,562.468 940.446,560.518ZM923.733,555.769C929.535,554.104 931.296,563.405 922.403,566.912C922.043,565.59 923.978,565.976 924.112,562.67C926.193,560.803 924.988,557.472 923.733,555.769ZM943.772,563.421C948.355,565.566 950.939,568.332 951.582,571.703C949.693,575.279 945.841,584.134 940.417,579.409C935.65,574.079 942.653,568.75 943.772,563.421ZM982.447,531.862C983.669,532.342 984.988,532.148 986.386,531.403C989.946,533.915 997.013,536.734 998.402,543.681C989.815,558.901 976.885,559.011 970.299,550.116C973.488,562.184 957.322,563.134 948.96,560.687C950.555,558.873 950.38,557.281 950.667,555.631C961.323,547.865 972.115,540.438 982.447,531.862ZM998.585,517.011C999.245,522.638 1000.48,531.257 1010.71,533.607C1015.12,537.13 1007.53,555.958 1019.94,557.419C1019.42,549.056 1021.08,543.745 1024.13,540.39C1024.42,552.003 1023.29,562.075 1011.57,560.739C1020.7,573.604 1035.7,563.281 1039.14,554.822C1040.19,556.977 1037.49,561.051 1034.64,565.569C1032.46,569.022 1032.88,577.531 1038.34,579.754C1024.83,582.812 1008.79,586.434 986.751,584.406C990.249,574.953 987.91,565.994 984.442,557.131C990.035,556.255 993.371,551.186 997.43,547.461C1005.3,546.419 1007.62,543.351 1006.67,539.091C1002.02,532.424 997.172,526.374 990.648,525.237L990.359,523.361C993.3,524.147 996.119,524.627 998.585,524.226C996.028,523.706 993.595,523.031 991.513,521.917C993.592,519.933 996.032,518.402 998.585,517.011ZM1050.05,586.525C1046.3,591.777 1045.55,597.812 1046.65,604.328C1023.25,604.423 989.492,606.985 976.073,619.994C975.094,612.215 974.942,604.025 980.029,594.991C982.206,600.799 990.127,601.522 994.113,595.387C996.524,600.67 1005.16,599.546 1007.8,594.358C1013.09,600.457 1020.55,594.673 1021.25,592.143C1024.78,594.712 1029.51,594.689 1032.57,588.345C1037.03,591.771 1043.67,589.397 1044.51,584.547C1046.43,586.112 1048.34,586.368 1050.05,586.525ZM974.531,617.153C974.631,618.437 974.776,619.709 975.529,620.83C974.281,623.183 974.507,625.371 974.718,627.562C968.264,625.381 961.867,623.522 957.515,621.017C953.222,619.561 946.349,617.074 942.618,624.944C937.905,634.13 930.86,630.892 926.474,637.846C924.187,633.656 926.29,627.354 932.707,625.443C936.292,624.66 939.488,620.915 942.743,616.342C948.163,607.791 956.016,606.103 961.13,609.611C965.23,612.52 968.441,616.387 974.531,617.153ZM1048.08,611.272C1038.86,609.29 995.569,619.167 984.418,629.226C993.331,630.425 1005.62,627.934 1009.07,635.844C1004.55,629.941 993.995,630.205 982.758,630.622C979.352,631.578 976.467,629.866 974.672,628.583C967.97,626.313 961.31,623.916 956.624,621.748C951.728,619.962 946.248,619.597 943.444,625.401C941.5,629.524 938.011,632.032 933.615,633.591C927.208,634.875 922.487,642.908 927.882,649.255C930.284,656.216 933.827,662.198 934.844,670.346C934.136,677.437 933.727,690.153 939.041,691.334C945.75,694.182 944.942,706.357 954.194,708.534C957.528,707.383 956.799,702.335 956.549,700.651C954.871,696.339 955.891,692.443 957.06,688.57C959.139,685.12 957.958,681.195 954.808,681.198C952.967,680.804 951.392,679.674 951.811,677.605C949.925,673.081 944.721,661.396 946.822,659.698C947.453,652.045 945.62,648.539 942.01,648.027C943.815,647.539 945.679,647.186 946.618,644.751C949.961,644.741 951.151,642.039 951.839,638.71C954.766,645.336 959.14,650.861 972.213,649.767C981.788,649.008 986.137,652.968 990.027,657.344C994.415,664.307 1004.02,665.519 1011.63,660.722C1014.94,658.717 1017.07,656.564 1018.9,654.375C1017.52,656.85 1015.7,659.072 1012.65,660.62L1018.97,662.877C1020.76,657.715 1022.54,651.963 1025.93,646.825C1021.22,643.699 1019.61,636.635 1025.08,635.83C1027.39,635.496 1028.42,633.752 1029.44,631.646C1030.95,629.186 1033.01,627.277 1036,625.094C1039.57,620.395 1044.01,615.872 1048.08,611.272ZM947.755,645.368C951.901,649.396 954.769,654.793 955.593,662.38C956.21,668.973 957.759,675.168 964.945,678.946C968.707,680.001 969.999,682.703 969.488,686.606C967.632,687.623 966.997,689.25 966.548,690.97C965.297,692.575 960.954,689.659 957.285,690.97C959.441,686.703 961.064,682.56 956.217,679.926C953.911,680.683 953.265,678.951 952.832,676.898C951.576,674.018 946.574,662.096 947.844,660.331C948.235,655.844 947.912,649.327 944.371,647.862C946.333,647.676 947.143,646.454 947.755,645.368ZM957.374,692.128C961.599,690.414 964.649,694.537 968.241,691.683C978.015,697.855 975.353,722.395 970.467,720.095C965.056,718.487 963.004,710.936 956.306,708.249C959.919,704.545 955.15,698.148 957.374,692.128ZM970.022,691.327L973.407,691.238C977.725,697.567 979.059,704.891 978.394,712.881L979.762,712.592C979.837,716.916 976.529,726.093 970.944,720.964C976.109,721.969 978.873,700.284 970.022,691.327ZM967.984,690.206L973.683,690.256C978.88,696.417 979.898,706.899 979.583,711.303C982.026,711.273 983.884,712.996 985.532,715.353C995.314,709.484 989.813,692.241 981.182,685.857C980.199,686.373 979.549,687.023 979.233,687.806C975.837,686.596 969.317,685.498 967.984,690.206ZM981.732,685.557C982.153,684.82 982.864,684.267 985.782,685.107C993.999,691.033 999.632,707.782 989.731,718.552C987.618,718.716 987.38,717.004 986.332,716.103C997.241,709.278 990.42,690.891 981.732,685.557ZM1114.02,624.465C1119.51,627.991 1117.79,636.746 1117.27,641.799C1111.63,640.464 1105.19,639.812 1098.67,638.944C1102.79,633.686 1107.89,628.303 1114.02,624.465ZM1124.79,619.318C1128.21,618.697 1130.44,615.703 1133.04,613.425C1145.27,620.355 1145.28,634.136 1142.86,647.603L1128.83,642.889C1129.03,634.093 1128.98,627.169 1124.79,619.318ZM1141.57,606.858C1157.98,609.701 1169.77,621.894 1173.33,631.552C1179.3,631.799 1183.82,629.346 1187.7,625.715C1186.87,614.697 1194.89,599.699 1206.11,593.501C1233.7,584.33 1256.99,598.929 1260.1,625.491C1262.23,651.235 1246.64,656.858 1250.67,679.93C1254.24,693.294 1263.19,702.979 1282.88,705.297C1272.03,716.918 1236.01,698 1237.54,668.93C1232.91,675.332 1231.58,683.673 1232.04,693.063C1217.26,686.395 1223.49,657.275 1232.71,646.593L1206.11,678.807C1191.52,674.537 1196.48,655.869 1202.92,650.592C1222.26,634.745 1223.43,627.943 1219.69,620.664C1215.82,614.231 1207.31,616.617 1204.45,623.043C1200.44,632.061 1185.99,639.253 1175.24,638.399C1178.81,645.834 1179.23,656.414 1177.71,668.93L1155.15,653.777C1156.87,635.173 1157.21,617.223 1141.57,606.858ZM1097.72,683.464L1100.81,684.191C1101.07,703.635 1118.5,712.998 1133.6,714.576C1144.66,716.151 1165.53,724.062 1170.22,738.706C1169.08,749.159 1166.78,759.396 1169.13,770.506C1169.6,774.195 1169.91,777.665 1166.04,775.412C1164.72,778.385 1170.18,782.826 1164.77,787.95C1160.85,786.927 1160.36,783.239 1156.05,781.772L1155.5,784.316C1149.37,783.604 1143,783.825 1137.51,780.5C1136.14,777.406 1136.43,774.62 1141.33,772.686C1151.78,763.728 1156.99,751.374 1150.23,731.255C1144.75,720.061 1132.82,720.149 1123.74,717.351C1104.1,711.327 1097.69,695.99 1097.72,683.464ZM1155.16,785.035C1145.75,784.633 1137.17,782.753 1136.68,780.477C1133.39,785.744 1129.11,790.207 1123.66,792.442C1130.19,798.59 1144.39,798.528 1154.35,791.465C1154.21,789.535 1154.07,787.171 1155.16,785.035ZM1123.41,793.093C1122.73,793.913 1121.68,794.422 1123.5,797.326C1133.38,803.482 1145.21,800.463 1155.4,794.396C1156.54,793.133 1155.49,792.688 1155,792.035C1147.28,797.022 1133.7,800.944 1123.41,793.093ZM1156.46,808.966L1157.85,807.582C1166.28,813.565 1180.95,812.181 1188.78,805.466L1189.1,808.315C1180.72,816.013 1166.97,818.308 1156.46,808.966ZM1158.25,807.175L1166.07,798.303C1173.57,803.55 1180.09,794.543 1188.29,794.721L1188.45,804.57C1179.7,811.503 1166.69,812.648 1158.25,807.175ZM1174.86,777.953C1171.98,784.305 1162.34,790.849 1166.47,797C1176.11,802.61 1181.89,791.779 1188.45,793.989C1188.8,792.283 1188.21,791.043 1187.72,789.756C1189.93,787.963 1194.12,792.36 1197.08,789.268C1200.12,787.993 1191.21,777.569 1193.33,771.197C1194.39,771.814 1195.45,771.91 1196.51,771.442C1195.24,760.814 1191.51,749.479 1189.51,737.58C1189.05,731.703 1188.65,725.871 1189.67,721.057C1193.66,714.802 1187.22,710.791 1183.16,712.103C1171.32,714.614 1161.45,709.429 1165.74,695.661C1167.18,691.658 1171.34,687.994 1172.58,684.184C1166.83,675.374 1159.15,671.522 1151.98,666.358C1151.81,670.476 1147.04,684.326 1158.74,681.579C1156.72,690.494 1148.51,691.035 1142.87,686.056C1136.18,678.04 1137.82,669.007 1139.86,659.927C1135.79,658.001 1131.39,656.183 1126.67,654.474C1126.13,659.226 1124.54,664.806 1126.83,667.335C1127.82,668.197 1128.97,667.127 1130.17,665.625C1131.8,673.601 1127.8,678.44 1121.38,676.614C1112.7,672.079 1113.33,661.41 1113.97,650.73C1107.84,649.154 1100.65,648.639 1093.7,647.881C1089.55,655.748 1085.17,667.742 1084.75,679.951L1099.89,682.637C1100.55,677.357 1099.04,672.861 1094.27,669.532C1099.69,670.431 1100.98,676.942 1101.68,684.265C1102.44,700.348 1114.58,710.849 1130.98,712.917C1148.49,716.176 1165.51,720.51 1174.29,743.36C1176.85,754.836 1181.19,766.27 1174.86,777.953Z" style="fill:white;"/>
                                    </g>
                                    <g id="g3314" transform="matrix(1,0,0,1,831.897,0)">
                                        <path id="path3870" d="M1089.31,19.422C1088.18,21.75 1087.11,24.109 1085.42,26.157C1079.26,23.44 1075.9,28.703 1076.45,33.013C1072.82,29.891 1068.65,28.155 1065.52,31.993C1060.71,30.163 1057.74,31.178 1054.44,31.694C1058.65,35.646 1062.77,40.023 1066.27,47.407C1065.14,49.342 1065.23,50.99 1066.57,52.345C1065.69,53.634 1065.86,54.471 1065.97,55.338C1062.33,56.081 1061.2,58.737 1060.58,61.773C1051.59,57.997 1039.36,64.608 1052.65,83.473C1054.96,70.99 1072.35,80.369 1076.59,87.962C1058.25,76.189 1049.75,94.338 1037.53,76.589C1032.18,88.669 1041.73,97.502 1062.67,92.302C1068.61,92.337 1070.38,97.355 1075.99,100.233C1081.01,111.199 1077.49,115.02 1066.57,112.654C1067.43,116.685 1070.8,118.828 1073.9,121.184C1072.58,129.728 1067.82,139.063 1057.44,137.346C1058.61,141.938 1061.24,145.484 1067.61,146.325C1062.61,149.807 1058.13,148.726 1053.69,147.373C1055.86,152.52 1057.99,157.691 1065.52,158.597C1057.34,164.326 1058.79,172.365 1057.29,179.697C1047.87,177.026 1033.48,171.527 1043.07,162.937C1052.58,155.38 1044.89,151.611 1040.67,147.074C1030.19,143.421 1036.9,135.67 1043.52,133.156C1053.95,129.367 1059.77,118.222 1045.31,107.566C1036.82,103.11 1026.87,101.552 1020.17,93.499L1021.07,98.288C1001.66,90.191 982.415,49.451 984.856,20.62C984.589,17.8 981.284,15.609 979.319,18.524C961.328,46.143 964.271,68.808 976.625,91.853C969.058,84.381 961.057,75.172 952.532,63.868C953.504,73.171 956.115,79.852 958.637,86.675C952.501,80.54 947.98,64.072 942.026,66.473C930.599,74.021 939.666,100.857 952.083,115.049C947.075,112.465 939.003,106.432 931.581,101.131L939.512,114.899C934.572,112.894 930.054,106.457 924.547,110.409C916.703,121.887 935.263,140.038 943.553,146.924L926.044,141.686C931.099,146.982 938.108,151.79 944.301,156.801C937.267,156.552 926.367,149.72 923.919,156.172C921.518,167.728 956.241,180.648 971.088,183.888C959.7,186.97 947.036,187.754 934.065,187.988C932.504,199.071 951.943,192.203 972.285,195.111C956.967,201.37 929.968,199.313 925.744,203.641C927.914,217.204 961.464,218.767 980.815,215.314C969.596,221.13 958.375,226.945 943.104,230.578C946.372,241.694 972.442,229.188 989.495,225.49C975.368,237.627 950.642,238.466 944.6,244.795C948.516,260.071 995.523,247.034 1014.19,236.265C1006.67,246.869 997.066,255.05 987.699,263.501C997.934,269.486 1019.22,241.658 1034.99,230.728C1030.55,239.623 1023.97,247.752 1017.91,254.913C1011.36,262.652 1002.09,263.97 1002.22,268.29C1004.05,273.555 1024.32,268.496 1036.63,257.732C1045.26,250.18 1051.71,239.63 1056.84,230.429C1056.91,234.328 1056.96,238.238 1059.53,241.204C1063.76,237.672 1065.53,233.085 1067.61,228.633C1069,232.222 1069.37,235.356 1065.07,236.415C1067.36,239.049 1069.41,239.217 1072.46,238.629L1071.2,243.448C1046.74,241.748 1050.74,263.667 1040.67,266.345L1043.97,268.739C1034.72,271.895 1030.41,281.57 1014.04,275.324C1015.5,279.176 1018.74,282.016 1022.42,284.602C1013.59,289.643 1007.65,285.718 1001.62,282.058C1001.48,292.159 1009.7,297.178 1016.58,303.009C1011.81,306.972 1007.69,309.618 1002.07,315.28C997.793,319.972 994.6,318.728 991.59,316.477C987.043,311.341 982.696,305.853 976.924,302.859C970.561,293.171 959.158,300.425 959.266,307.349C957.383,313.614 959.362,317.246 964.504,318.722C964.343,315.326 963.662,311.57 967.497,310.94C969.293,313.634 968.517,316.899 975.578,318.423C979.811,318.478 983.415,319.037 986.053,320.368C979.823,321.537 973.567,323.087 967.646,319.62C961.739,319.867 954.76,317.843 954.028,329.048C952.757,335.241 953.031,340.385 960.613,340.571C958.786,338.41 958.939,331.048 963.456,332.191C964.442,335.79 967.877,336.414 973.333,334.585L983.359,329.497C981.615,334.729 968.681,335.3 968.544,344.462C962.537,352.738 973.466,356.057 979.618,360.774C977.985,357.095 971.993,352.544 976.027,349.999C980.901,350.795 985.915,352.104 987.999,342.666C988.897,339.84 987.695,335.146 991.141,334.585C994.605,332.287 992.168,331.215 995.93,329.198C997.047,332.65 1000.49,331.454 1003.41,331.293C1006.52,330.915 1009.66,330.479 1010.89,333.837C1013.15,337.328 1012.86,339.313 1021.07,338.775C1022.52,341.242 1019.07,344.086 1016.58,346.856C1019.35,346.372 1032.03,344.214 1026.61,334.884C1026.15,326.322 1018.9,326.635 1012.6,325.457C1011.3,324.142 1009.7,323.269 1007.75,322.912C1018.02,319.593 1021.42,313.288 1030.05,311.389C1028.98,321.476 1033.88,328.58 1043.67,333.238C1048.9,335.269 1046.93,338.048 1052.35,339.374C1041.3,342.074 1028.14,341.954 1025.26,355.536C1025.14,360.878 1031.95,366.457 1039.98,369.46C1051.24,373.669 1064.79,373.159 1064.02,362.869C1073.31,364.825 1078.02,359.072 1082.28,352.543C1079.35,364.805 1074.26,381.717 1065.97,373.494C1061.37,383.528 1077.33,383.949 1085.42,379.33C1083.76,387.046 1089.52,392.702 1093.2,398.935C1098.34,394.175 1102,388.109 1101.73,378.582C1112.98,384.208 1122.36,380.238 1123.13,372.746C1110.02,381.715 1105.77,367.327 1102.78,354.937C1113.59,371.7 1128.47,354.247 1127.92,349.101C1134.07,349.174 1144.18,353.775 1142.14,357.631C1140.79,364.155 1129.71,365.687 1124.48,359.427C1117.49,364.98 1129.01,370.92 1139,368.855C1144.88,367.58 1154.81,367.824 1156.8,355.985C1151.64,345.511 1141.86,343.543 1132.71,340.421C1142.86,332.784 1157.63,331.703 1158.75,311.24C1166.13,315.66 1173.52,320.189 1180.9,323.062L1175.66,325.756C1168.67,324.429 1160.47,328.71 1161.14,334.286C1156.09,340.629 1164.75,346.564 1171.62,346.557C1169.24,344.22 1165.18,342.305 1167.58,338.775C1171.5,339.734 1174.82,338.158 1177.45,333.687C1179.1,330.262 1182.24,329.631 1186.43,330.993C1188.43,331.854 1190.3,331.396 1191.97,328.749C1193.96,331.57 1195.65,334.929 1198.86,335.633C1200.58,345.345 1200.37,353.109 1212.17,350.149C1214.78,352.256 1210.16,356.62 1208.13,360.175C1212.72,355.5 1224.99,355.115 1219.96,345.061C1215.57,336.505 1209,332.445 1203.79,329.647C1207.68,327.883 1212.96,338.652 1223.4,333.538C1224.76,329.923 1226.81,332.229 1228.79,333.837C1229.27,335.961 1228.6,337.701 1228.19,339.524C1233.54,339.851 1234.38,334.925 1234.02,328.599C1234.17,319.291 1222.31,318.012 1218.76,320.668C1212.53,323.441 1206.75,321.225 1200.8,320.817C1209.56,315.672 1215.36,321.745 1219.06,313.335C1219.66,309.233 1221.44,310.981 1222.95,311.389C1223.12,313.902 1223.67,316.509 1222.65,318.722C1225.09,317.997 1231.39,316.403 1228.34,306.9C1228.69,301.327 1218.03,293.211 1211.58,301.961C1206.84,305 1202.1,309.924 1197.36,314.831C1194.49,319.142 1190.9,319.98 1186.43,316.627C1182.9,311.486 1176.58,307.276 1171.32,302.71C1178.6,297.373 1185.46,291.782 1185.54,282.058C1177.86,287.362 1171.27,287.258 1165.18,284.602C1168.37,282.846 1170.72,279.702 1172.97,276.371C1159.56,280.624 1153.84,271.547 1144.68,268.44L1147.08,266.494C1134.7,259.289 1139.64,239.204 1114.15,244.197C1114.38,243.174 1114.41,241.964 1114,240.306L1117.89,240.904C1117.11,238.136 1118.4,234.538 1119.09,231.177C1120.91,236.236 1123.11,238.546 1125.23,241.503C1126.36,238.011 1127.26,234.519 1128.07,231.027C1139.59,251.684 1152.81,270.005 1178.5,271.134C1182.75,270.644 1185.31,266.555 1180.75,264.699C1169.41,259.67 1158.23,244.528 1151.27,231.327C1166.81,242.741 1189.57,270.746 1196.61,262.603C1187.06,254.859 1177.79,246.572 1169.82,235.666C1182.93,243.698 1229.11,261.781 1240.46,245.244C1232.48,237.215 1208.65,236.507 1195.41,224.892C1209.8,227.914 1232.15,239.931 1242.55,230.728C1229.57,229.175 1218.01,221.487 1205.89,216.212C1226.62,218.426 1253.01,219.112 1259.76,203.941C1258.34,199.611 1233.01,201.273 1216.36,195.71C1229.92,195.057 1248.11,198.545 1251.53,188.826C1237.97,188.83 1224.93,187.913 1213.67,183.888C1228.91,179.983 1261.65,171.07 1261.26,155.903C1257.96,151.451 1249.12,154.897 1242.1,155.753C1247.22,152.739 1252.88,147.574 1258.57,142.285L1241.65,146.924C1250.61,139.184 1269.53,123.546 1260.21,110.11C1256.72,109.346 1253.18,108.682 1246.29,114.151C1250.21,109.455 1251.47,105.424 1253.18,101.281C1246.29,106.347 1239.18,112.517 1232.83,114.899C1240.1,105.352 1257.08,82.23 1244.35,65.963C1237.28,64.83 1232.8,77.503 1227.29,84.67C1230.4,77.633 1231.87,70.924 1232.08,64.467C1224.73,73.846 1218.34,83.799 1208.28,91.554C1221.5,67.43 1222.79,43.077 1205.89,18.375L1200.05,20.47C1199.27,50.45 1191.45,77.984 1164.14,98.737L1164.29,94.397C1152.77,105.197 1131.95,105.829 1131.81,120.436C1131.06,127.735 1135.85,131.196 1142.59,133.306C1152.49,138.285 1150.96,145.006 1143.78,147.972C1137.2,153.075 1134.28,157.95 1141.54,162.188C1150.69,172.074 1138.49,178.479 1127.92,179.997C1126.36,180.362 1126.3,178.728 1125.53,178.051L1127.62,177.902C1127.95,168.69 1121.51,165.39 1119.24,158.746C1126.81,159.308 1128.69,153.294 1130.91,147.672C1121.71,151.117 1117.64,146.495 1114.45,140.489C1118.26,139.873 1121.33,138.112 1122.53,133.456C1115.13,134.254 1112.37,129.674 1112.21,122.082L1117.45,120.436C1110.19,117.853 1111.34,110.426 1111.31,103.675C1113.47,103.843 1115.91,103.151 1118.64,101.58C1111.51,95.937 1117.75,77.848 1109.66,70.154C1117.84,66.514 1118.29,58.606 1116.85,49.652C1115.02,51.885 1113.15,54.83 1111.46,54.889C1112.25,53.856 1112.32,53.025 1112.1,52.281C1113.1,50.714 1113.09,49.44 1113.11,48.155C1114.46,42.182 1119.3,36.965 1123.88,31.694C1118.51,30.212 1115.46,31.056 1112.66,32.143C1109.4,26.694 1104.23,31.082 1102.63,32.292C1101.81,28.038 1099.06,23.942 1093.5,25.857L1089.31,19.422ZM1076.45,283.993C1078.51,301.001 1074.49,333.194 1057.49,320.887C1056.93,324.351 1056.44,327.798 1060.35,330.368C1054.35,333.716 1052.72,329.271 1050.87,325.228C1047.97,327.436 1046.45,329.949 1046.3,332.766C1042.01,330.607 1039.97,327.207 1044.47,320.202C1047.94,315.71 1046.46,311.054 1053.15,306.838C1053.32,308.177 1054.13,309.304 1056.12,310.036C1059.17,303.778 1064.57,303.391 1068.8,298.385C1073.17,293.96 1072.83,286.67 1076.45,283.993ZM1107.52,281.252C1112.74,281.891 1114.46,287.935 1116.43,293.588C1121.56,303.029 1128.15,303.595 1132.42,309.693L1133.91,307.18C1140.69,309.788 1145.28,321.496 1145.22,327.626C1144.22,335.183 1140.29,333.423 1137.68,335.85C1142.93,327.303 1135.6,324.246 1132.88,325.113C1135.47,337.747 1123.3,332.776 1118.26,332.081C1123.01,331.261 1131.17,327.041 1127.97,321.23C1107.51,328.326 1104.78,292.142 1107.52,281.252ZM1110.75,342.392C1112.84,346.608 1117,349.286 1125.73,348.587C1120.47,347.394 1115.51,345.552 1110.75,342.392ZM1065.26,346.738C1056.33,348.82 1043.06,349.602 1040.76,353.672C1038.02,364.417 1055.41,366.504 1061.56,361.808C1055.33,357.987 1055,354.165 1054.53,350.343C1058.91,350.384 1063.51,350.754 1065.26,346.738Z"/>
                                        <g id="path3893" transform="matrix(0.995505,0,0,0.995505,746.464,3.54628)">
                                            <path d="M292.685,75.925C304.125,93.743 317.696,70.327 336.591,91.326C330.303,89.858 322.101,83.924 317.933,87.402C308.227,91.61 288.281,90.375 292.685,75.925Z" style="fill:rgb(229,0,0);"/>
                                        </g>
                                        <path id="path3872" d="M1073.65,39.494C1069.35,37.779 1071.45,45.847 1075.45,45.297C1073.98,43.619 1072.94,41.814 1073.65,39.494ZM1082.85,34.904C1080.44,37.84 1085.21,37.898 1083.04,42.922C1084.93,43.161 1086.5,36.108 1082.85,34.904ZM1095.83,34.904C1098.23,37.84 1093.46,37.898 1095.63,42.922C1093.74,43.161 1092.17,36.108 1095.83,34.904ZM1104.95,39.494C1109.25,37.779 1107.15,45.847 1103.15,45.297C1104.62,43.619 1105.66,41.814 1104.95,39.494ZM1057.34,32.523C1061.55,36.987 1065.28,41.658 1067.05,47.15L1111.91,47.053C1113.46,41.109 1117.14,36.518 1121.53,32.377C1118.47,31.81 1115.41,31.701 1112.35,33.446C1110.76,30.948 1107.82,30.33 1104.57,32.571C1103.23,33.877 1101.67,37.826 1104.23,38.257C1111.12,32.589 1110.72,49.908 1100.68,45.644L1100.86,44.281C1102.57,45.051 1106.02,39.751 1101.7,37.771C1097.93,36.261 1095.25,41.12 1097.59,43.351C1097.73,43.64 1097.41,44.148 1097.62,44.38C1091.66,45.782 1090.31,36.652 1094.46,33.592C1095.56,32.897 1098.17,33.053 1098.25,36.265C1106.1,32.697 1097.37,22.515 1093.05,28.343L1089.46,21.686L1085.62,28.246C1079.12,21.992 1074.99,34.86 1080.22,36.313C1080.47,32.807 1084.78,31.518 1086.74,37.82C1087.09,42.348 1085.81,45.273 1080.61,44.38C1083.96,42.746 1081.64,36.09 1077.4,37.48C1073.97,39.143 1074.23,44.868 1078.81,44.672C1078.22,45.174 1077.41,45.676 1077.55,46.178C1073.65,47.015 1069.15,44.772 1069.92,39.083C1071,35.675 1075.03,37.273 1074.68,38.306C1078.82,32.419 1068.11,28.156 1066.81,33.835C1062.14,31.535 1059.7,32.152 1057.34,32.523ZM1052.14,80.998C1045.65,71.992 1045.41,58.411 1060.33,62.553C1071.35,65.053 1072.46,71.572 1076.02,76.789C1083.44,82.243 1090.29,87.903 1085.51,97.759C1078.73,92.479 1078.74,84.641 1070.89,80.08C1065.83,77.245 1056.82,72.244 1052.14,80.998ZM1066.91,48.318L1111.69,48.471C1111.75,49.569 1112.65,50.474 1110.23,52.145C1111.32,52.957 1111.44,54.011 1110.08,55.436L1067.3,55.359C1067.04,54.257 1066.36,53.086 1068.44,52.374C1066.15,51.022 1066.64,49.67 1066.91,48.318ZM1084.82,97.668C1079.02,95.731 1070.56,89.882 1065.99,91.403C1071.65,94.342 1075.2,101.857 1084.82,97.668ZM1017.78,303.821L1006.75,312.436C1002.21,317.988 997.671,323.544 989.363,315.611C985.629,311.802 983.552,307.31 977.573,304.425C974.568,302.332 972.254,297.384 965.784,299.589C963.217,301.838 959.706,303.543 960.796,307.902C958.105,313.147 960.861,315.367 963.365,317.727C963.022,314.066 963.519,310.869 967.446,309.565C971.856,311.629 968.577,317.196 978.027,317.122C983.203,317.814 987.118,320.018 991.63,321.506C987.398,321.845 984.151,321.724 977.876,323.017C971,322.915 963.927,318.591 959.889,321.203C957.884,322.017 955.057,323.491 955.354,329.668C954.356,333.977 953.689,338.066 958.377,338.586C957.54,336.345 958.048,334.021 959.586,331.633C961.848,329.881 964.634,330.309 965.33,332.237C967.52,339.247 980.669,327.161 987.549,328.156C983.596,332.698 977.915,334.118 972.434,339.341C970.426,341.143 969.487,343.917 969.109,347.201C967.107,352.044 971.789,354.145 975.306,356.724C974.092,353.884 972.36,351.082 975.004,347.957C979.164,349.897 984.609,350.735 985.887,343.725C986.863,340.08 986.552,335.981 989.817,333.144C990.921,334.047 993.744,329.222 995.712,327.249C996.367,327.283 997.021,327.119 997.676,327.854C997.726,331.009 999.73,329.672 1001.15,329.668C1005.55,329.846 1010.3,328.778 1013.14,334.465C1013.7,338.1 1018.33,337.585 1021.71,337.981C1022.55,339.7 1021.86,342.034 1021.26,344.329C1024.38,343.466 1029.59,338.888 1025.64,335.714C1025.89,328.559 1019.93,326.83 1012.2,326.517C1009.28,325.044 1005.9,323.469 1005.54,322.564C1014.79,319.515 1021.85,313.166 1029.95,310.201C1030.43,309.519 1030.42,308.743 1030.02,308.355C1025.12,307.669 1020.76,306.431 1017.78,303.821ZM1169.67,303.474L1181.4,312.436C1185.94,317.988 1191.75,323.544 1198.09,315.611C1201.82,311.802 1206.33,306.037 1212.31,303.152C1215.31,301.058 1215.89,297.384 1222.36,299.589C1224.93,301.838 1228.44,303.543 1227.35,307.902C1230.04,313.147 1226.47,315.599 1223.97,317.958C1224.31,314.298 1224.74,308.785 1220.7,309.565C1216.29,311.629 1219.57,317.196 1210.12,317.122C1204.94,317.814 1201.03,320.018 1196.51,321.506C1200.75,321.845 1203.99,321.724 1210.27,323.017C1217.14,322.915 1224.22,318.591 1228.26,321.203C1230.26,322.017 1233.09,323.491 1232.79,329.668C1233.79,333.977 1232.83,338.645 1229.07,338.47C1229.91,336.23 1230.1,334.021 1228.56,331.633C1226.3,329.881 1223.51,330.309 1222.81,332.237C1217.18,338.483 1207.48,327.161 1200.59,328.156C1204.55,332.698 1209.53,334.349 1215.02,339.573C1217.02,341.375 1218.66,343.917 1219.03,347.201C1221.04,352.044 1215.89,354.839 1211.8,356.839C1213.01,354 1215.67,351.777 1213.02,348.651C1208.86,350.591 1202.72,350.967 1201.45,343.956C1200.47,340.312 1201.59,335.981 1198.33,333.144C1197.22,334.047 1194.4,329.222 1192.43,327.249C1191.78,327.283 1191.12,327.119 1190.47,327.854C1190.42,331.009 1188.41,329.672 1186.99,329.668C1182.59,329.846 1177.85,328.778 1175,334.465C1174.44,338.1 1169.81,337.585 1166.43,337.981C1165.59,339.7 1166.29,342.034 1166.89,344.329C1163.76,343.466 1158.55,338.888 1162.5,335.714C1162.26,328.559 1168.21,326.83 1175.94,326.517C1178.86,325.044 1182.24,323.469 1182.61,322.564C1173.35,319.515 1166.29,313.166 1158.19,310.201C1157.71,309.519 1158.07,308.28 1158.24,307.892C1163.14,308.431 1166.69,306.658 1169.67,303.474Z" style="fill:rgb(253,250,0);"/>
                                        <path id="path3292" d="M1060.4,180.931C1056.46,185.448 1054.01,190.709 1056.55,198.467C1050.56,205.579 1042.19,209.41 1034.74,214.506C1033.88,206.967 1033.21,199.475 1037.94,193.334C1029.71,201.918 1021.83,200.252 1013.78,203.385C1009.48,191.262 1019.37,187.487 1028.53,183.283C1014.71,186.559 1010.84,183.197 1002.44,182.856C1006.32,176.611 1013.12,173.737 1021.05,172.163C1013.71,171.367 1005.78,171.322 1001.16,167.031C1004.45,161.845 1012.31,159.596 1021.26,158.049C1010.06,156.967 1000.91,153.155 995.815,143.935C1002.89,140.997 1010.6,140.435 1018.7,141.368C1008.75,138.879 1003.07,133.212 1003.51,122.977C1011.84,121.91 1020.81,122.296 1032.17,128.11C1017.12,115.933 1024.92,107.956 1022.33,98.17C1033.21,106.036 1053.8,106.61 1051.63,124.26C1048.88,132.863 1036.84,130.077 1033.56,140.65C1032.17,147.955 1043.11,146.723 1045.64,155.91C1046.05,161.818 1038.1,160.187 1038.62,170.88C1042.75,176.286 1049.15,180.202 1060.4,180.931ZM1047.24,187.028C1049.13,185.655 1049.99,186.041 1050.45,187.105C1049.47,196.771 1043.98,202.524 1036.91,206.917C1041.53,201.266 1047.27,196.55 1047.24,187.028ZM1042.11,180.756C1042.98,181.572 1043.03,182.592 1042.27,183.815C1035.37,185.244 1030.14,190.987 1024.6,195.902C1027.26,189.203 1034.43,184.842 1042.11,180.756ZM1033.78,173.871C1035.72,173.7 1035.95,174.814 1035.46,176.472C1028.42,178.594 1021.4,180.981 1013.96,179.149C1020.99,178.437 1032.4,176.471 1033.78,173.871ZM1033.16,162.55C1034.66,162.962 1034.66,163.872 1033.09,165.304C1024.62,166.526 1015.22,169.776 1009.22,165.686C1018.77,166.867 1027.99,164.699 1033.16,162.55ZM1004.86,146.41C1012.59,149.579 1021.66,149.394 1030.56,149.622C1031.93,150.832 1031.23,151.522 1029.34,151.917C1019.01,151.405 1006.44,150.787 1004.86,146.41ZM1030.73,135.157C1032.4,136.814 1032.56,137.871 1029.64,137.691C1020.41,134.606 1011.74,131.087 1007.35,124.217C1014.5,130.617 1022.52,133.322 1030.73,135.157ZM1041.56,124.966C1042.34,125.661 1043.13,125.554 1043.92,124.102C1040.55,116.752 1035.13,111.343 1028.54,107.059C1032.97,112.967 1040.87,116.425 1041.56,124.966ZM1116.11,51.642C1115.06,53.927 1113.07,56.537 1109.7,57.21L1067.73,57.117C1067.37,56.721 1066.8,56.39 1065.68,56.37C1063.01,57.048 1062.41,59.427 1061.48,61.846C1065.31,62.709 1067.41,63.994 1069.72,65.237C1081.08,60.922 1089.1,73.459 1104.88,71.676C1112.63,69.41 1118.45,62.627 1116.11,51.642ZM1074.17,66.263C1073.08,66.277 1071.87,66.409 1070.94,66.854C1073.08,68.188 1073.38,71.293 1075.17,73.294C1074.75,71.044 1073.37,68.56 1075.2,66.263C1074.87,66.248 1074.54,66.258 1074.17,66.263ZM1078.25,66.419C1079.61,67.54 1079.76,70.123 1078.87,73.138C1080.6,71.535 1083.11,69.621 1085.4,69.187C1083.33,68.124 1080.98,66.871 1078.25,66.419ZM1077.35,68.099C1076.86,68.099 1076.47,68.957 1076.47,70.027C1076.47,71.098 1076.86,71.987 1077.35,71.987C1077.83,71.987 1078.25,71.098 1078.25,70.027C1078.25,68.957 1077.83,68.099 1077.35,68.099ZM1086.3,70.525C1081.93,70.653 1080.5,74.728 1077.03,76.094C1084.06,81.615 1091.62,86.928 1086.71,97.622C1083.57,100.111 1080.76,100.616 1078.03,100.67C1082.14,113.978 1078.34,115.421 1069.51,115.354C1077.96,125.432 1084.52,115.743 1088.54,108.665C1089.56,112.878 1090.45,116.499 1093.46,120.114C1096.29,116.607 1099.02,113.567 1099.84,108.448C1102.33,114.272 1103.83,120.946 1113.81,120.269C1107.34,115.907 1110.85,107.121 1109.26,100.141C1110.9,102.737 1113.53,101.94 1116.17,101.137C1109.39,90.919 1117.28,79.02 1108.73,70.961C1104.01,74.387 1097.98,73.361 1091.84,71.956C1089.55,70.868 1087.76,70.483 1086.3,70.525ZM1088.2,111.621C1084.52,117.717 1080.26,121.374 1075.29,121.047C1072.46,129.192 1071.33,138.819 1059.02,138.717C1068.9,151.418 1086.08,139.119 1087.8,127.518C1088.35,132.91 1091.23,137.217 1093.71,141.735C1096.7,137.075 1100.25,132.599 1101.7,127.424C1101.23,134.921 1112.11,145.942 1120.43,135.015C1111.53,133.021 1111.39,127.362 1111.07,121.794C1102.53,121.062 1102.43,116.347 1100.06,112.71C1098.2,116.297 1096.29,119.286 1093.18,121.794C1090.63,118.748 1088.74,115.399 1088.2,111.621ZM1101.21,131.002C1099.41,135.419 1096.91,139.61 1093.46,143.477C1090.8,139.728 1089.06,135.835 1087.67,131.904C1084.05,138.459 1078.96,143.724 1070.03,145.53C1066.34,151.171 1061.62,150.557 1056.84,149.73C1058.1,159.432 1076.7,160.159 1085.59,149.326C1086.59,156.962 1089.75,161.617 1092.5,166.809C1095.38,160.936 1099.11,154.92 1099.78,149.388C1107.37,155.163 1120.95,164.868 1128.89,149.948C1118.87,152.208 1116.07,146.523 1113.4,140.708C1104.27,140.162 1102.28,134.127 1101.21,131.002ZM1100.46,152.405C1099.22,158.358 1095.54,163.879 1092.4,169.485C1089.34,164.08 1085.71,158.896 1084.9,152.623C1079.01,158.036 1072.97,158.565 1066.89,158.752C1060.03,163.478 1060.07,171.448 1058.77,178.786C1067.7,174.343 1077.71,171.783 1084.28,163.294C1082.07,179.969 1089.53,183.057 1093.3,189.644C1099.56,184.743 1104.45,178.115 1103.98,164.663C1110.25,173.68 1118.83,173.116 1126.4,176.764C1126.26,170.098 1120.81,165.214 1118.01,159.436C1109.89,158.731 1105.4,155.404 1100.46,152.405ZM1082.14,168.24C1077.91,171.602 1073.63,174.653 1069.1,176.515C1068.22,184.52 1068.05,192.165 1072.83,197.483C1079.68,186.726 1082.55,192.879 1087.24,184.79C1084.29,179.838 1081.8,174.687 1082.14,168.24ZM1105.28,169.018C1105.49,175.326 1102.46,180.586 1099.06,185.693C1101.62,192.375 1108.92,195.777 1117.2,197.95C1114.75,190.305 1123.26,189.423 1117.66,175.147C1113.01,173.271 1108.46,172.075 1105.28,169.018ZM1119.81,176.049C1125.45,189.45 1116.63,189.475 1119,200.003C1113.42,198.678 1109.33,197.182 1106.77,195.554C1110.58,203.617 1117.78,207.877 1126.72,210.207C1127.83,196.93 1132.18,181.861 1119.81,176.049ZM1067.17,176.951C1048.98,190.025 1062.7,199.824 1058.65,209.865C1074.28,211.323 1080.31,201.441 1080.55,191.821C1077.98,192.335 1075.4,196.107 1072.83,199.536C1068.02,194.645 1065.94,187.286 1067.17,176.951ZM1088.48,185.817C1087.23,188.562 1084.78,190.301 1082.6,191.821C1081.57,201.376 1089.69,203.132 1093.02,212.913C1095.45,205.597 1101.22,201.904 1103.82,194.217C1101.68,191.661 1098.49,189.43 1098.03,186.595L1093.27,191.386L1088.48,185.817ZM1104.85,194.434C1103.27,201.426 1097.32,204.691 1095.86,210.891C1098.54,217.136 1103.81,221.055 1109.48,224.611C1109.87,216.203 1119.21,216.615 1116.98,207.594C1110.42,204.272 1107.24,199.244 1104.85,194.434ZM1081.36,195.337C1079.64,200.732 1078.17,206.706 1069.66,209.74C1070.52,215.732 1076.19,218.695 1076.82,224.393C1080.09,217.479 1088.05,217.95 1089.41,209.056C1086.72,204.751 1082.17,201.524 1081.36,195.337ZM1117.94,208.092C1120.4,217.37 1110.09,215.766 1110.94,227.006C1108.88,226.238 1107.18,225.216 1105.69,224.02C1103.78,235.792 1110.99,236.781 1116.73,239.543C1115.88,229.206 1121.83,225.769 1123.11,210.487C1121.26,209.78 1119.25,209.203 1117.94,208.092ZM1090.29,210.238C1089.65,216.347 1084.74,218.35 1080.89,221.375C1080.1,235.586 1088.47,235.242 1092.18,241.663C1091.15,250.781 1084.43,254.122 1080.24,261.351C1080.09,276.107 1088.53,278.198 1092.68,286.612C1096,276.8 1104.11,277.607 1105.69,262.16C1103.94,256.649 1094.47,251.422 1093.89,241.529C1094.51,236.791 1104.43,235.696 1104.94,223.895C1101.1,219.79 1095.23,216.049 1095.02,211.296L1093.27,215.807L1090.29,210.238ZM1068.79,210.331L1064.34,211.327C1064.36,220.792 1074.02,235.444 1066.7,236.837C1076.33,240.212 1081.02,231.737 1079.65,222.9C1078.25,222.653 1077.31,225.419 1076.16,226.819C1074.69,219.023 1070.01,216.553 1068.79,210.331ZM1080.67,229.215C1079.37,233.541 1077.55,237.408 1073.39,239.077C1070.75,249.736 1077.35,253.385 1079.65,260.293C1083.66,254.23 1089.64,249.594 1091.1,241.659C1087.53,237.696 1080.45,232.933 1080.67,229.215ZM1104.53,230.864C1102.25,236.621 1098.07,237.589 1094.77,240.788C1095.72,251.901 1102.42,254.047 1106.28,260.636C1108.62,253.79 1113.6,251.287 1113.03,239.637C1108.5,237.772 1104.52,235.566 1104.53,230.864ZM1106.61,262.519C1109.94,291.622 1094.8,296.743 1092.67,314.376C1091.13,291.269 1072.66,288.804 1078.97,263.433C1079.66,275.687 1089.15,278.616 1092.56,290.047C1098.36,275.712 1104.93,277.472 1106.61,262.519ZM1078.51,285.706C1092.72,302.359 1089.36,313.402 1092.79,315.404C1095.3,303.832 1102.46,299.003 1105.01,289.019C1106.76,304.437 1109.8,327.676 1127.65,322.708C1127.91,334.323 1103.87,334.789 1100.9,325.342C1100.64,319.666 1100.65,313.852 1098.04,309.351C1101.17,319.012 1098.12,329.784 1091.64,336.65C1085.59,329.318 1083.91,319.956 1086.39,308.665C1083.35,313.615 1083.52,318.565 1083.76,323.514C1084.12,335.437 1058.06,333.828 1058.41,323.286C1077.76,332.894 1077.49,299.82 1078.51,285.706ZM1084.68,324.999C1085.88,329.814 1087.94,334.345 1091.87,338.249C1095.7,334.947 1098.39,330.734 1099.18,324.999C1108.3,332.139 1105.99,352.909 1126.6,349.671C1120.61,367.131 1105.36,362.681 1101.49,349.437C1101.98,344.923 1101.73,339.79 1099.3,334.365C1102.63,348.354 1097.68,355.289 1093.02,362.464C1089.02,354.102 1082.28,347.932 1085.36,333.909C1084.05,338.497 1082.37,343.157 1083.99,347.158C1076.19,366.898 1057.79,365.633 1055.44,351.156C1068.36,353.249 1072.11,340.902 1075.42,333.109C1079.54,332.059 1083.54,330.823 1084.68,324.999ZM1084.45,347.958C1086.13,354.65 1089.81,358.948 1092.9,363.949C1096.77,360.778 1099.15,355.267 1100.9,348.757C1102.43,358.933 1106.08,383.438 1122.37,374.115C1119.39,382.499 1107.08,382.34 1100.1,375.6C1101.77,385.348 1098.12,391.542 1093.47,397.074C1088.8,390.791 1084.51,384.387 1087.31,375.714C1080.76,382.667 1064.52,383.403 1066.29,375.029C1078.69,382.495 1082.23,355.95 1084.45,347.958ZM1073.83,333.223C1069.55,333.428 1065.5,332.862 1061.83,330.939C1055.14,335.223 1052.6,331.483 1050.07,327.74C1044.28,334.049 1049.24,340.567 1062.63,338.934C1049.91,341.412 1028.35,341.086 1026.54,355.497C1024.96,368.47 1067.47,379.884 1062.75,361.665C1057.75,367.777 1038.38,365.619 1039.67,355.154C1039.41,348.506 1057.63,348.214 1067.43,345.102C1069.99,341.657 1072.73,338.429 1073.83,333.223ZM1104.65,330.557C1108.4,332.968 1112.76,333.381 1117.5,332.592C1125.3,335.122 1136.43,336.45 1134.14,326.119C1142.13,327.429 1137.71,339.047 1128.96,340.543C1136.58,342.388 1151.47,345.171 1155.68,356.908C1152.01,373.851 1118.02,368.383 1124.62,361.069C1130.58,367.483 1142.52,364.187 1143.85,357.74C1144.7,352.084 1136.12,348.552 1128.73,347.61C1118.14,346.26 1109.21,343.419 1104.65,330.557ZM1071.34,244.317C1071.78,251.9 1076.47,254.916 1078.59,262.185C1069.25,275.508 1049.11,269.186 1042.43,266.591C1053.2,260.797 1047.62,243.122 1071.34,244.317ZM1078.26,263.611C1075.49,269.473 1076.73,275.807 1077.09,282.036C1071.38,285.635 1071.36,297.766 1064.59,299.803C1060.85,302.354 1057.09,304.9 1055.45,308.211C1047.75,289.715 1070.87,271.366 1078.26,263.611ZM1070.58,269.826C1064.97,271.939 1059.37,271.863 1053.76,271.069C1041.55,278.009 1043.99,285.754 1036.65,292.345C1042.24,293.107 1046.35,295.759 1053.84,294.1C1056.05,286.373 1061.16,278.333 1070.58,269.826ZM1052.67,270.776L1045.28,269.095C1037.66,269.524 1031,282.966 1015.96,276.772C1017.21,279.36 1027.84,290.46 1038.41,289.055C1042.43,284.886 1042.61,275.531 1052.67,270.776ZM1023.13,285.18C1026.71,288.061 1031.1,289.995 1037.02,290.152L1034.46,293.003L1038.12,293.808C1033.79,298.175 1031.68,302.43 1031.25,306.603C1025.26,307.166 1021.18,305.239 1017.72,302.508C1012.67,296.543 1005.58,296.077 1002.8,284.01C1008.69,286.568 1013.89,290.801 1023.13,285.18ZM1053.25,295.27C1046.87,296.868 1043.33,294.783 1038.7,294.1C1027.8,307.543 1028.05,325.291 1043.6,332.339C1041.56,330.089 1040.12,327.604 1041.55,324.004C1042.99,319.524 1046.66,316.238 1046.89,312.452C1048.13,310.185 1050.16,308.212 1053.25,306.237C1052.79,302.879 1052.32,298.823 1053.25,295.27ZM1113.78,245.379C1134.88,239.504 1136.3,258.919 1144.85,266.574C1139.38,270.943 1107.19,273.741 1107.21,262.157C1107.59,257.034 1113.35,252.708 1113.78,245.379ZM1135.33,270.593C1138.01,270.224 1140.69,269.854 1143.72,268.959C1153.43,271.946 1156.52,279.539 1170.52,278.069C1168.04,281.096 1161.54,288.574 1150.68,289.234C1146.19,282.683 1143.4,277.582 1135.33,270.593ZM1118.29,270.892C1124.09,271.78 1129,271.207 1134.1,271.054C1146.37,280.938 1146.31,286.493 1151.28,292.623C1145.21,294.531 1139.49,295.081 1134.14,294.118C1131.35,285.947 1127.3,277.995 1118.29,270.892ZM1108.42,267.403C1110.81,268.957 1113.2,270.071 1115.6,270.194C1129.55,279.33 1137.15,297.131 1132.64,307.476C1127.23,301.678 1119.35,300.843 1116.09,290.066C1114.62,284.942 1112.46,280.995 1107.42,280.162C1108.12,275.909 1108.24,271.656 1108.42,267.403ZM1134.39,305.501C1135.6,302.45 1134.82,298.634 1134.56,295.164C1139.46,296.045 1144.58,295.268 1149.69,294.42C1158.35,306.158 1161.58,321.879 1145.06,332.295C1150.21,322.694 1138.74,307.592 1134.39,305.501ZM1150.52,294.254L1153.09,293.097L1151.18,290.368C1155.76,289.85 1160.16,288.508 1164.08,285.158C1170.65,287.879 1177.8,288.52 1184.84,283.504C1181.95,296.63 1171.16,300.354 1164.58,306.328C1161.95,306.936 1159.1,307.664 1157.3,306.99C1155.85,302.765 1154,298.233 1150.52,294.254ZM1127.42,181.395C1130.66,186.376 1130.87,191.173 1130.11,198.467C1136.1,205.579 1142.69,209.1 1150.14,214.196C1151,206.657 1152.21,199.475 1147.48,193.334C1155.71,201.918 1163.59,200.252 1171.64,203.385C1175.94,191.262 1166.05,187.487 1156.89,183.283C1170.71,186.559 1173.96,183.043 1182.36,182.701C1178.49,176.457 1172.3,173.737 1164.37,172.163C1171.71,171.367 1179.64,171.322 1184.26,167.031C1180.97,161.845 1173.11,159.596 1164.16,158.049C1175.36,156.967 1184.51,153.155 1189.61,143.935C1182.53,140.997 1174.82,140.435 1166.72,141.368C1176.67,138.879 1182.35,133.212 1181.91,122.977C1173.58,121.91 1164.61,122.296 1153.25,128.11C1168.3,115.933 1160.5,107.956 1163.09,98.17C1152.21,106.036 1131.62,106.61 1133.79,124.26C1136.54,132.863 1148.58,130.077 1151.86,140.65C1153.25,147.955 1142.31,146.723 1139.78,155.91C1139.37,161.818 1147.32,160.187 1146.8,170.88C1142.67,176.286 1138.67,180.667 1127.42,181.395ZM1138.18,187.028C1136.29,185.655 1135.43,186.041 1134.97,187.105C1135.95,196.771 1141.44,202.524 1148.51,206.917C1143.89,201.266 1138.15,196.55 1138.18,187.028ZM1143.31,180.756C1142.44,181.572 1142.39,182.592 1143.15,183.815C1150.05,185.244 1154.12,190.755 1159.66,195.669C1157,188.97 1150.99,184.842 1143.31,180.756ZM1151.64,173.871C1149.7,173.7 1149.47,174.814 1149.96,176.472C1157,178.594 1164.02,180.981 1171.45,179.149C1164.43,178.437 1153.02,176.471 1151.64,173.871ZM1152.26,162.55C1150.76,162.962 1150.76,163.872 1152.33,165.304C1160.8,166.526 1170.2,169.776 1176.2,165.686C1166.64,166.867 1157.43,164.699 1152.26,162.55ZM1180.56,146.41C1172.83,149.579 1163.76,149.394 1154.86,149.622C1153.49,150.832 1154.19,151.522 1156.08,151.917C1166.41,151.405 1178.98,150.787 1180.56,146.41ZM1154.69,135.157C1153.02,136.814 1152.86,137.871 1155.78,137.691C1165.01,134.606 1173.68,131.087 1178.07,124.217C1170.92,130.617 1162.9,133.322 1154.69,135.157ZM1143.86,124.966C1143.08,125.661 1142.29,125.554 1141.5,124.102C1144.88,116.752 1150.29,111.343 1156.88,107.059C1152.45,112.967 1144.55,116.425 1143.86,124.966Z" style="fill:white;"/>
                                        <path id="path3316" d="M1020.66,100.492C1021.63,104.339 1020.66,109.155 1020.66,113.487C991.121,99.281 978.04,70.128 975.697,44.613C976.931,73.276 992.04,104.059 1020.92,114.526C1020.98,117.77 1023.11,121.361 1024.93,123.855C1009.63,115.691 990.425,107.259 980.257,93.401C965.693,73.552 963.672,46.365 978.036,22.781C981.484,18.145 983.567,17.352 983.02,23.96C984.011,48.07 993.117,82.809 1020.66,100.492ZM1017.93,121.572C1012.24,120.85 1005.62,120.76 1002.42,121.916L1002.25,124.375C980.289,111.639 960.43,97.077 954.864,70.102C973.454,93.888 995.41,112.63 1017.93,121.572ZM1008.5,138.492C1004.21,134.402 1002.08,130.4 1001.92,125.359C975.707,111.633 959.145,92.781 948.306,73.382C944.649,67.09 941.18,64.135 938.468,74.529C936.824,95.484 953.04,116.484 968.802,129.622C975.286,134.311 983.521,143.719 996.02,141.592C1000.22,140.764 1004.79,138.968 1009.29,139.923C986.604,133.831 957.542,111.881 945.846,85.187C956.562,104.816 982.597,130.817 1008.5,138.492ZM977.847,139.023C970.268,133.014 962.618,127.495 955.34,119.374L936.048,106.036C943.594,122.48 959.59,131.716 977.847,139.023Z" style="fill:white;"/>
                                        <path id="path3328" d="M1164.67,100.492C1163.7,104.339 1164.67,109.155 1164.67,113.487C1194.21,99.281 1207.29,70.128 1209.63,44.613C1208.4,73.276 1193.29,104.059 1164.41,114.526C1164.35,117.77 1162.22,121.361 1160.41,123.855C1175.7,115.691 1194.91,107.259 1205.08,93.401C1219.64,73.552 1221.66,46.365 1207.3,22.781C1203.85,18.145 1201.77,17.352 1202.31,23.96C1201.32,48.07 1192.22,82.809 1164.67,100.492ZM1167.4,121.572C1173.1,120.85 1179.72,120.76 1182.92,121.916L1183.08,124.375C1205.04,111.639 1224.9,97.077 1230.47,70.102C1211.88,93.888 1189.92,112.63 1167.4,121.572ZM1176.84,138.492C1181.12,134.402 1183.25,130.4 1183.41,125.359C1209.63,111.633 1226.19,92.781 1237.03,73.382C1240.68,67.09 1244.15,64.135 1246.86,74.529C1248.51,95.484 1232.29,116.484 1216.53,129.622C1210.05,134.311 1201.81,143.719 1189.31,141.592C1185.11,140.764 1180.54,138.968 1176.05,139.923C1198.73,133.831 1227.79,111.881 1239.49,85.187C1228.77,104.816 1202.74,130.817 1176.84,138.492ZM1207.49,139.023C1215.07,133.014 1222.71,127.495 1229.99,119.374L1249.28,106.036C1241.74,122.48 1225.74,131.716 1207.49,139.023Z" style="fill:white;"/>
                                        <path id="path3286" d="M1011.88,159.035C1005.01,155.501 998.869,151.605 994.713,146.715C977.728,141.187 957.643,134.982 943.081,119.465C936.831,115.768 929.013,108.153 925.741,111.903C921.68,119.986 927.391,125.277 930.434,131.33C944.85,150.783 970.759,159.578 1000.06,165.23C1002.12,162.539 1005.51,160.965 1009.19,159.623C981.679,153.164 955.166,145.562 938.388,126.767C959.324,145.48 985.334,152.871 1011.88,159.035ZM996.93,166.533C980.123,162.467 963.314,158.402 951.296,151.409L933.433,145.803C949.057,161.949 971.532,166.676 996.93,166.533ZM1000.84,168.88C983.092,167.665 965.351,166.427 949.731,159.623C941.412,158.476 927.092,151.589 924.828,156.233C924.292,160.797 930.749,165.36 937.997,169.923C956.029,179.269 975.899,185.528 1000.71,183.483C1001.43,181.449 1002.29,179.397 1005.14,177.095C984.856,175.361 961.631,171.931 952.469,168.228C967.094,171.299 968.975,172.012 1006.58,176.312L1011.14,173.313C1007.26,172.093 1002.92,171.134 1000.84,168.88ZM1001.62,185.048C991.057,185.769 981.717,185.57 973.33,184.657C961.204,187.633 948.474,189.099 935.258,189.351C936.376,195.858 962.689,191.908 976.851,193.001C986.251,192.309 994.113,188.979 1001.62,185.048ZM1018.97,186.352L1005.14,184.787C990.625,194.994 961.902,200.695 940.604,202.519C935.73,202.841 929.964,201.864 927.397,204.567C930.14,210.692 937.893,213.393 949.34,215.166C970.146,217.377 991.106,213.303 1012.18,204.345C1011.33,200.823 1010.39,197.31 1011.92,193.523C998.627,199.096 985.343,204.722 970.983,205.779C984.253,202.956 998.129,198.271 1011.92,193.001C1014.05,190.349 1016.3,187.923 1018.97,186.352ZM1012.38,205.574C1004.17,209.065 995.044,212.102 985.195,214.775C972.476,221.73 959.374,227.765 945.298,231.464C949.129,234.325 955.811,233.859 963.71,231.295C975.577,227.84 985.98,223.928 996.563,221.488C1002.1,216.589 1008.9,211.298 1012.38,205.574ZM1032.65,199.39C1026.55,202.747 1019.7,201.502 1015.44,204.475C1002,224.677 972.057,237.673 959.51,240.2C953.271,241.672 948.657,243.28 945.689,245.024C950.32,251.123 961.248,251.813 976.199,248.675C1000.24,242.682 1020.88,233.788 1033.81,215.864C1032.12,211.379 1032.75,206.508 1032.54,201.776C1016.77,223.603 999.244,235.976 981.023,239.548C1005.72,233.006 1022.5,214.403 1032.65,199.39ZM1043.35,211.385L1035,216.079C1030.99,223.732 1024.25,229.113 1017.01,234.072C1009.84,244.883 999.349,255.271 989.498,263.408C992.881,264.392 997.304,261.214 1001.75,257.932C1013.74,248.798 1025.58,235.989 1035.65,228.726C1038.97,222.731 1041.92,216.84 1043.35,211.385ZM1054.69,202.91C1051.38,206.133 1047.97,208.871 1044.39,210.733C1040.64,224.886 1030.15,245.175 1014.01,260.149C1009.9,263.266 1003.09,264.554 1003.32,268.102C1006.2,270.877 1012.27,269.131 1020.01,266.929C1039.9,261.184 1061.43,226.471 1062.77,211.516L1057.19,211.255C1058.02,207.012 1058.65,202.93 1057.07,200.563L1055.4,202.24C1055.66,223.043 1041.18,245.032 1022.77,258.834C1038.35,243.8 1053.03,228.112 1054.69,202.91ZM1063.58,214.207C1064.48,218.311 1065.36,222.408 1067.06,226.777C1065.34,231.461 1063.25,235.777 1059.9,238.837C1057.75,237.457 1058.16,232.396 1057.76,228.515C1060.63,223.932 1062.02,219.051 1063.58,214.207Z" style="fill:white;"/>
                                        <path id="path3312" d="M1173.08,159.035C1179.94,155.501 1186.09,151.605 1190.24,146.715C1207.23,141.187 1227.31,134.982 1241.87,119.465C1248.12,115.768 1255.94,108.153 1259.21,111.903C1263.28,119.986 1257.57,125.277 1254.52,131.33C1240.11,150.783 1214.2,159.578 1184.9,165.23C1182.84,162.539 1179.44,160.965 1175.77,159.623C1203.28,153.164 1229.79,145.562 1246.57,126.767C1225.63,145.48 1199.62,152.871 1173.08,159.035ZM1188.03,166.533C1204.83,162.467 1221.64,158.402 1233.66,151.409L1251.52,145.803C1235.9,161.949 1213.42,166.676 1188.03,166.533ZM1184.11,168.88C1201.86,167.665 1219.6,166.427 1235.22,159.623C1243.54,158.476 1257.86,151.589 1260.13,156.233C1260.66,160.797 1254.21,165.36 1246.96,169.923C1228.93,179.269 1209.06,185.528 1184.25,183.483C1183.53,181.449 1182.67,179.397 1179.81,177.095C1200.1,175.361 1223.33,171.931 1232.49,168.228C1217.86,171.299 1215.98,172.012 1178.38,176.312L1173.81,173.313C1177.7,172.093 1182.04,171.134 1184.11,168.88ZM1183.33,185.048C1193.9,185.769 1203.24,185.57 1211.62,184.657C1223.75,187.633 1236.48,189.099 1249.7,189.351C1248.58,195.858 1222.27,191.908 1208.11,193.001C1198.7,192.309 1190.84,188.979 1183.33,185.048ZM1165.99,186.352L1179.81,184.787C1194.33,194.994 1223.05,200.695 1244.35,202.519C1249.23,202.841 1254.99,201.864 1257.56,204.567C1254.82,210.692 1247.06,213.393 1235.62,215.166C1214.81,217.377 1193.85,213.303 1172.77,204.345C1173.63,200.823 1174.56,197.31 1173.03,193.523C1186.33,199.096 1199.61,204.722 1213.97,205.779C1200.7,202.956 1186.83,198.271 1173.03,193.001C1170.9,190.349 1168.66,187.923 1165.99,186.352ZM1172.58,205.574C1180.79,209.065 1189.91,212.102 1199.76,214.775C1212.48,221.73 1225.58,227.765 1239.66,231.464C1235.83,234.325 1229.14,233.859 1221.25,231.295C1209.38,227.84 1198.98,223.928 1188.39,221.488C1182.86,216.589 1176.06,211.298 1172.58,205.574ZM1152.3,199.39C1158.41,202.747 1165.25,201.502 1169.51,204.475C1182.96,224.677 1212.9,237.673 1225.45,240.2C1231.68,241.672 1236.3,243.28 1239.27,245.024C1234.63,251.123 1223.71,251.813 1208.76,248.675C1184.71,242.682 1164.07,233.788 1151.14,215.864C1152.83,211.379 1152.21,206.508 1152.41,201.776C1168.18,223.603 1185.71,235.976 1203.93,239.548C1179.24,233.006 1162.46,214.403 1152.3,199.39ZM1141.61,211.385L1149.95,216.079C1153.96,223.732 1160.7,229.113 1167.95,234.072C1175.12,244.883 1185.61,255.271 1195.46,263.408C1192.07,264.392 1187.65,261.214 1183.2,257.932C1171.21,248.798 1159.38,235.989 1149.3,228.726C1145.99,222.731 1143.04,216.84 1141.61,211.385ZM1130.27,202.91C1133.58,206.133 1136.98,208.871 1140.57,210.733C1144.31,224.886 1154.81,245.175 1170.94,260.149C1175.05,263.266 1181.87,264.554 1181.64,268.102C1178.76,270.877 1172.69,269.131 1164.95,266.929C1145.05,261.184 1123.53,226.471 1122.18,211.516L1127.76,211.255C1126.93,207.012 1126.31,202.93 1127.89,200.563L1129.56,202.24C1129.29,223.043 1143.78,245.032 1162.18,258.834C1146.61,243.8 1131.93,228.112 1130.27,202.91ZM1121.37,214.207C1120.47,218.311 1119.59,222.408 1117.9,226.777C1119.62,231.461 1121.71,235.777 1125.05,238.837C1127.21,237.457 1126.79,232.396 1127.2,228.515C1124.32,223.932 1122.94,219.051 1121.37,214.207Z" style="fill:white;"/>
                                    </g>
                                </g>
                            </g>
                        </g>
                    </g>
                </g>
            </g>
        </g>
    </g>
</svg>
