<?xml version="1.0" encoding="UTF-8" standalone="no"?>
<!DOCTYPE svg PUBLIC "-//W3C//DTD SVG 1.1//EN" "http://www.w3.org/Graphics/SVG/1.1/DTD/svg11.dtd">
<svg width="100%" height="100%" viewBox="0 0 151 151" version="1.1" xmlns="http://www.w3.org/2000/svg" xmlns:xlink="http://www.w3.org/1999/xlink" xml:space="preserve" xmlns:serif="http://www.serif.com/" style="fill-rule:evenodd;clip-rule:evenodd;stroke-linecap:round;">
    <g transform="matrix(1,0,0,1,-2608,-1422)">
        <g id="pomorskie" transform="matrix(0.138889,0,0,0.138889,2608.16,1422.64)">
            <rect x="0" y="0" width="1080" height="1080" style="fill:none;"/>
            <g id="pomorskie.svg" transform="matrix(1.1863,0,0,1.1863,540,540)">
                <g transform="matrix(1,0,0,1,-371.245,-455.196)">
                    <clipPath id="_clip1">
                        <rect x="0" y="0" width="742.49" height="910.392"/>
                    </clipPath>
                    <g clip-path="url(#_clip1)">
                        <g id="g2656" transform="matrix(1.00498,0,0,1.00498,-6.68774,-6.14518)">
                            <g id="g2590">
                                <g id="layer1" transform="matrix(1,0,0,1,-0.907889,-1.91651)">
                                    <path id="path4304" d="M10.205,10.685L743.732,10.685L743.732,599.098C736.443,798.548 546.269,914.508 375.974,911.195C222.245,908.544 16.831,776.682 10.205,599.098L10.205,10.685Z" style="fill:rgb(254,213,23);stroke:black;stroke-width:5.31px;"/>
                                </g>
                                <g id="g4563" transform="matrix(1,0,0,1,801.166,0)">
                                    <g id="g4546">
                                        <path id="path4457" d="M-316.434,715.484C-313.051,717.661 -304.519,718.955 -301.378,721.312C-300.511,723.519 -301.035,726.004 -300.892,728.355C-302.555,721.646 -317.78,721.281 -316.434,715.484ZM-402,849.375C-398.912,838.082 -382.247,838.577 -381.221,852.637C-380.293,853.231 -379.732,854.924 -377.959,852.981C-378.027,844.193 -382.585,840.362 -391.353,838.9C-399.687,838.849 -403.865,843.205 -405.262,848.859C-405.195,850.569 -403.303,851.483 -402,849.375ZM-416.939,814.859C-437.687,819.926 -435.28,813.397 -444.071,813.141C-459.992,814.969 -465.945,821.781 -469.143,829.97C-472.124,821.875 -474.771,813.495 -486.658,812.97C-487.627,813.865 -488.919,814.63 -487.688,816.404C-481.197,816.317 -476.436,820.556 -473.607,829.627C-471.128,829.912 -469.848,834.036 -469.658,841.647C-468.769,841.05 -465.933,841.597 -466.223,835.637C-463.34,815.038 -434.7,808.87 -421.061,835.809C-418.877,837.565 -417.464,837.198 -417.111,833.92C-420.457,827.397 -423.955,822.54 -427.758,821.041C-413.418,817.01 -397.312,814.494 -385.858,807.99L-392.727,807.131C-398.737,810.296 -407.791,812.591 -416.939,814.859ZM-337.549,824.576C-342.02,833.202 -356.191,836.249 -360.603,842.193C-364.626,854.987 -374.683,862.441 -387.79,861.332C-393.431,863.102 -397.373,868.551 -399.534,877.861C-412.943,872.873 -407.759,863.466 -408.017,852.197C-412.968,850.005 -410.972,838.32 -407.799,837.408C-408.565,822.689 -382.013,821.669 -369.085,831.318L-366.04,830.013C-373.865,824.897 -382.149,821.312 -391.705,821.966C-386.336,816.49 -373.247,814.755 -367.78,808.046L-371.478,807.829C-376.097,811.939 -390.376,815.824 -394.314,822.183C-404.631,823.053 -415.176,823.633 -414.759,838.06C-414.561,846.952 -412.316,858.493 -421.501,855.242C-429.302,862.074 -435.877,860.323 -441.945,855.025C-450.57,860.262 -453.106,868.205 -451.298,878.079C-470.076,875.589 -471.383,862.239 -468.915,846.542C-476.342,845.78 -481.766,844.106 -482.834,840.453C-489.723,846.324 -486.376,856.29 -485.009,865.464C-504.791,853.152 -513.407,838.607 -498.494,819.356C-500.99,803.719 -493.818,796.138 -478.919,794.997C-469.323,791.884 -459.727,790.473 -450.131,794.846C-436.013,776.98 -424.207,790.324 -412.097,799.552C-404.778,800.203 -397.458,799.158 -390.139,795.631C-382.862,782.78 -376.124,769.39 -370.926,754.46C-377.618,752.949 -378.685,750.313 -380.337,747.795C-384.996,754.114 -390.731,759.358 -399.55,761.518C-401.253,756.944 -394.108,752.369 -396.805,747.795C-403.484,758.569 -413.132,764.594 -425.036,767.007C-425.707,762.555 -425.755,758.414 -422.291,756.029C-445.474,764.356 -455.193,757.636 -460.717,746.226C-440.146,747.593 -426.81,740.519 -425.036,719.955C-439.348,728.947 -450.451,727.673 -459.541,719.955C-465.292,712.375 -470.52,712.636 -475.225,720.74C-476.228,710.359 -468.982,701.986 -455.62,707.8C-435.313,712.914 -433.48,687.071 -438.76,668.59C-444.708,644.285 -448.823,620.11 -440.328,596.836L-442.328,619.567C-441.912,617.058 -440.987,622.018 -440.849,619.478C-439.7,598.184 -418.876,575.503 -389.649,563.776C-378.377,558.928 -369.991,555.971 -367.644,543.327C-373.052,543.117 -375.127,556.734 -389.204,560.886C-380.738,523.475 -354.174,502.95 -326.078,499.316C-297.597,496.092 -284.839,498.915 -265.619,507.985C-253.675,529.873 -251.472,580.174 -261.396,589.338C-260.848,637.088 -253.68,689.128 -324.745,690.473C-324.145,700.929 -317.859,715.426 -302.739,716.924C-300.101,717.565 -298.669,719.292 -297.627,721.369C-296.53,727.267 -295.273,733.085 -291.848,737.818C-291.045,740.679 -290.876,743.328 -291.848,745.597C-296.758,752.416 -299.505,756.35 -302.739,760.934C-304.532,762.853 -304.052,765.909 -302.295,769.603C-291.293,776.556 -295.997,792.152 -299.405,800.499L-303.628,797.61C-307.324,808.187 -311.715,816.217 -317.187,820.282C-317.237,818.084 -317.788,814.859 -318.646,811.367C-322.98,807.241 -323.915,793.372 -326.745,792.497C-326.955,799.322 -324.399,812.066 -319.632,813.391C-321.275,826.327 -328.347,829.824 -334.969,834.508C-335.351,824.356 -337.022,814.087 -331.191,804.5C-332.98,804.037 -334.439,806.225 -335.636,810.502C-338.338,814.505 -338.382,819.394 -337.549,824.576ZM-326.298,667.576C-326.307,635.845 -308.913,619.152 -295.595,613.356C-293.081,641.641 -292.856,674.495 -326.298,667.576ZM-328.634,666.907C-335.595,668.67 -335.692,697.783 -328.911,696.972L-328.634,666.907ZM-445.102,716.291C-441.508,723.614 -420.791,714.862 -420.545,706.159C-429.041,706.086 -433.729,716.809 -445.102,716.291ZM-434.97,750.807C-434.614,748.302 -424.668,745.58 -420.869,741.893C-416.346,737.503 -413.089,726.636 -409.727,726.766C-408.855,739.548 -423.34,752.969 -434.97,750.807ZM-406.636,749.433C-400.235,748.194 -397.373,740.741 -398.909,727.452C-401.08,727.028 -401.743,733.675 -402.343,740.332C-404.093,743.206 -407.12,747.331 -406.636,749.433ZM-392.555,750.978C-390.154,747.612 -391.804,723.181 -387.575,727.452C-387.221,739.204 -385.471,753.665 -392.555,750.978ZM-378.302,742.221C-375.413,761.38 -345.35,740.539 -350.998,724.705C-355.067,724.92 -352.295,737.513 -361.672,742.098C-374.039,750.368 -376.073,740.633 -378.302,742.221ZM-501.083,835.637C-498.776,824.712 -488.933,823.862 -490.093,814.687C-493.782,821.58 -504.324,823.93 -501.083,835.637ZM-460.041,841.304C-455.114,843.684 -452.106,829.281 -441.466,835.044C-435.354,838.354 -431.21,844.425 -439.435,849.375C-437.277,852.849 -432.434,849.62 -431.364,843.364C-433.66,832.641 -439.867,830.746 -447.162,829.111C-457.153,831.639 -459.645,835.578 -460.041,841.304ZM-448.545,796.353C-451.641,803.106 -420.683,806.926 -414.546,802.182C-426.798,800.698 -438.84,799.11 -448.545,796.353ZM-314.977,777.897C-311.512,782.234 -301.893,794.504 -306.477,797.81C-312.721,790.32 -313.776,784.127 -314.977,777.897ZM-307.692,765.268C-304.711,773.598 -296.122,775.693 -298.22,784.454C-303.295,774.557 -310.321,777.408 -307.692,765.268ZM-326.391,715.727C-325.382,723.718 -317.632,727.495 -311.82,732.484C-310.627,756.007 -311.8,747.573 -319.834,760.897C-321.828,761.335 -323.461,761.195 -322.263,756.526C-318.578,752.648 -313.449,751.04 -314.006,740.498L-318.377,731.512C-325.29,727.841 -329.771,723.258 -326.391,715.727Z" style="fill:rgb(4,4,4);"/>
                                        <path id="path4484" d="M-703.97,700.357C-702.39,694.822 -683.59,691.124 -693.805,675.962C-709.687,673.758 -712.537,688.595 -719.072,698.614C-722.094,693.296 -709.412,675.915 -703.97,673.348C-698.771,671.451 -687.585,669.386 -686.835,684.384C-688.407,692.639 -700.171,701.429 -703.97,700.357ZM-673.767,706.455C-662.649,688.824 -649.844,691.769 -652.566,707.036C-652.397,708.924 -651.276,708.91 -649.952,708.488C-647.311,703.562 -648.115,691.212 -658.955,689.03C-665.666,690.227 -670.922,695.206 -673.767,706.455ZM-732.866,653.745C-727.203,644.69 -716.174,643.181 -715.732,656.359C-715.127,657.375 -715.418,659.57 -711.521,658.391C-711.469,651.074 -711.22,644.12 -721.685,641.693C-727.373,641.542 -733.325,645.716 -736.351,651.567C-736.22,654.217 -734.531,653.777 -732.866,653.745ZM-441.896,614.873C-439.193,594.596 -425.761,578.352 -410.528,571.35C-409.648,556.328 -400.397,534.445 -393.668,522.729C-405.333,508.901 -417.549,498.993 -431.31,489.401L-433.852,493.438C-472.361,499.916 -516.28,498.291 -558.085,499.498C-578.958,503.049 -600.573,515.774 -609.045,536.961C-613.637,546.48 -621.353,547.075 -631.082,541.919C-632.297,557.091 -620.35,564.058 -607.392,560.099C-607.573,571.899 -611.905,580.449 -628.878,579.106C-633.65,560.181 -645.972,565.42 -651.191,573.046C-644.599,571.412 -640.635,572.407 -642.1,578.831C-639.816,596.486 -624.988,612.397 -608.494,600.317C-606.285,612.109 -595.978,606.231 -585.906,600.868C-583.819,609.989 -591.361,613.494 -597.751,617.671C-594.604,621.631 -587.188,621.857 -578.193,620.701C-571.53,626.216 -571.549,632.685 -569.654,638.881C-572.798,646.069 -577.365,648.987 -581.223,654.032C-601.027,653.483 -617.306,648.974 -636.867,651.002C-646.964,645.789 -657.067,639.531 -663.586,627.312C-676.146,627.085 -681.506,626.676 -692.42,630.602C-695.495,627.858 -708.808,624.926 -722.535,628.689C-732.288,631.051 -741.068,642.726 -738.787,655.96C-745.524,665.016 -747.744,675.363 -739.892,688.587C-735.507,682.99 -734.496,675.464 -723.424,673.688C-722.36,677.851 -720.547,681.267 -716.366,682.314C-727.764,698.676 -726.269,713.918 -713.622,728.19C-710.133,719.51 -710.914,705.137 -701.859,703.879C-694.185,710.789 -685.455,707.135 -676.764,703.879C-679.421,714.273 -682.547,724.695 -668.922,734.071C-668.338,726.855 -664.931,720.768 -659.12,715.642C-641.716,725.547 -628.935,720.184 -621.478,701.919C-614.43,694.531 -605.553,699.944 -597.56,699.174C-600.673,706.755 -602.675,714.335 -602.657,721.916C-593.844,713.835 -583.489,714.241 -575.21,703.879C-574.076,714.351 -596.853,718.414 -579.131,733.679C-578.951,721.574 -565.083,730.606 -557.958,715.642C-555.769,720.543 -552.958,724.202 -549.724,727.013C-546.399,732.217 -551.134,734.734 -553.645,737.992C-543.091,737.666 -536.622,729.169 -534.432,712.113C-530.462,717.603 -533.123,723.092 -535.216,728.582C-532.821,728.191 -529.889,726.995 -525.414,723.484C-513.641,719.307 -510.137,710.407 -514.435,699.958C-519.513,692.68 -509.042,688.188 -502.672,689.372C-500.157,682.399 -488.012,663.697 -497.967,648.201C-514.637,639.843 -507.571,612.441 -494.782,607.332C-485.354,603.686 -473.156,600.483 -440.328,596.836L-441.896,614.873ZM-702.082,630.802C-693.491,628.476 -687.322,643.372 -673.041,645.323C-669.472,648.36 -655.417,647.709 -649.372,650.115C-650.264,654.755 -667.773,651.957 -671.588,648.663C-689.911,649.631 -692.946,640.752 -702.082,630.802ZM-716.458,670.444C-710.554,651.922 -692.43,650.754 -676.09,664.781C-670.836,658.982 -654.309,664.56 -641.821,663.329C-639.267,664.829 -638.56,666.33 -637.9,667.83C-650.908,667.969 -665.057,663.364 -676.671,669.427C-687.166,658.918 -707.518,654.536 -711.956,670.734C-715.127,674.456 -717.292,672.136 -716.458,670.444ZM-681.898,695.129C-679.543,693.645 -677.714,700.343 -678.704,701.518C-682.219,704.468 -686.447,697.991 -681.898,695.129ZM-679.606,690.903C-673.616,674.823 -649.929,668.38 -635.144,677.054C-628.22,675.112 -622.121,676.471 -615.61,676.18C-615.094,670.673 -630.085,673.257 -637.622,671.952C-659.897,662.113 -677.07,674.143 -680.772,688.133C-683.725,691.854 -680.962,691.325 -679.606,690.903ZM-621.369,554.592C-615.102,556.953 -607.536,552.852 -603.736,553.442C-607.361,557.678 -618.511,560.897 -621.369,554.592ZM-597.577,585.136C-597.685,607.42 -587.534,592.622 -577.931,585.374C-573.786,583.631 -574.583,585.038 -573.407,585.374C-584.039,597.368 -591.512,601.963 -597.815,602.281C-605.686,598.036 -600.861,591.974 -599.482,585.493L-597.577,585.136ZM-636.987,579.302C-633.451,588.626 -624.264,606.36 -613.412,593.232C-611.295,592.481 -610.348,593.682 -609.126,594.423C-615.373,596.884 -619.455,604.047 -624.366,600.733C-634.815,595.527 -637.047,587.385 -638.773,579.063L-636.987,579.302ZM-586.266,612.282C-573.809,614.325 -567.518,600.547 -566.859,595.613C-566.447,594.951 -565.948,595.328 -563.644,597.161C-563.413,604.118 -563.686,612.356 -559.834,613.949C-553.641,613.699 -549.135,610.41 -544.475,607.4C-542.726,606.443 -541.988,607.507 -541.498,609.067C-547.862,614.067 -553.515,618.934 -561.739,618.354C-565.916,615.904 -566.068,610.023 -566.978,604.305C-572.829,615.662 -584.655,617.739 -586.266,612.282ZM-560.588,702.696C-558.846,711.418 -564.13,722.906 -569.633,721.814C-570.327,715.227 -562.318,710.355 -560.588,702.696ZM-515.569,706.191C-515.464,714.519 -520.101,718.104 -524.819,721.609L-526.258,720.581C-522.753,716.822 -518.903,713.409 -518.035,707.013L-515.569,706.191ZM-504.262,646.781C-497.541,652.213 -495.845,660.471 -497.89,670.833C-502.012,671.76 -499.29,660.401 -500.562,656.649C-502.434,652.379 -507.515,655.513 -504.262,646.781ZM-522.558,642.259C-526.084,650.47 -511.712,659.218 -510.84,668.572C-511.393,674.482 -512.773,679.428 -516.596,681.523C-522.954,681.591 -529.009,681.66 -534.275,681.728C-533.363,680.361 -531.984,679.06 -527.286,678.234C-520.379,679.307 -516.171,676.064 -514.746,668.366C-515.344,663.663 -521.662,663.053 -521.324,658.499C-526.91,648.486 -526.834,643.505 -522.558,642.259Z" style="fill:rgb(4,4,4);"/>
                                    </g>
                                    <path id="path4550" d="M-172.361,681.136C-146.534,672.699 -134.583,667.324 -129.637,629.088C-131.273,619.508 -133.669,583.738 -157.763,561.521C-137.708,571.442 -122.121,558.455 -117.999,548.913C-116.972,574.716 -120.98,593.134 -132.87,599.992C-131.46,606.574 -129.617,613.589 -128.99,619.389C-105.8,607.716 -91.982,563.618 -110.563,526.283C-99.785,516.135 -95.734,501.706 -94.399,485.55C-93.565,471.648 -102.225,462.273 -103.128,444.493C-100.802,432.33 -99.234,420.774 -105.391,415.397C-107.68,437.295 -121.336,442.356 -124.788,458.717C-138.528,480.875 -122.04,501.619 -124.788,516.585C-151.218,501.937 -178.625,523.586 -166.168,553.439C-197.334,523.032 -244.407,492.722 -274.145,483.933C-327.736,473.424 -364.63,486.039 -390.527,522.081C-397.542,534.032 -403.525,551.54 -407.661,568.634L-392.79,561.521C-381.548,518.653 -355.214,497.278 -315.525,494.925C-299.038,493.839 -282.55,496.242 -266.063,504.623C-236.253,524.459 -233.7,523.587 -224.036,564.108C-219.518,582.881 -216.401,601.532 -192.677,621.975C-216.464,623.837 -223.506,637.085 -225.036,654.081C-224.656,668.801 -214.932,677.516 -201.204,683.337C-199.809,683.929 -199.692,685.149 -198.166,685.653C-238.963,706.327 -223.617,760.02 -238.807,766.263L-231.753,765.255C-232.826,777.006 -240.808,779.256 -248.883,781.377C-235.061,788.637 -223.184,783.742 -212.944,768.614L-209.25,783.057C-207.348,762.789 -194.404,765.278 -193.8,730.66C-193.722,703.227 -181.734,694.203 -172.361,681.136ZM-127.697,532.102C-140.174,525.205 -153.163,521.193 -152.913,543.417C-140.73,559.882 -125.912,541.72 -127.697,532.102ZM-165.521,664.002C-117.438,634.311 -171.818,558.189 -207.872,543.417C-207.678,573.828 -189.191,619.422 -154.038,610.532C-151.992,615.49 -150.775,620.405 -150.327,625.855C-162.207,627.915 -170.766,628.315 -177.483,627.795C-166.211,635.26 -162.575,647.286 -165.521,664.002ZM-186.746,670.203C-176.685,660.652 -178.81,635.001 -198.838,638.631C-215.45,648.178 -203.115,668.797 -186.746,670.203Z" style="fill:rgb(4,4,4);"/>
                                </g>
                                <g id="g2532" transform="matrix(1,0,0,1,801.626,0.42799)">
                                    <path id="path4822" d="M-659.66,71.921C-659.66,71.823 -659.66,71.725 -659.66,71.921Z" style="fill:none;fill-rule:nonzero;"/>
                                    <g id="path4768" transform="matrix(0.995047,0,0,0.995047,-799.603,1.59237)">
                                        <path d="M289.375,26.594C288.275,26.639 287.233,26.766 286.219,26.938C265.189,30.711 254.758,47.165 256.094,66.469C258.625,91.267 273.286,99.246 291.688,102.031L338.75,101.406C343.527,101.467 356.484,101.698 361.406,111.281C349.179,104.125 338.799,106.214 334.656,110.281C345.505,115.073 351.83,122.582 350.625,136.688C348.104,152.457 340.882,184.664 310.594,189.813L312.5,194.813C300.491,204.415 288.478,210.117 276.469,208.656C276.369,214.601 276.668,218.309 280.906,220.563C270.58,235.218 257.149,240.499 242.406,241.906C243.492,245.786 244.279,249.651 248.219,253.531C240.26,259.063 232.724,264.933 227.688,272.656C224.016,264.284 217.179,257.493 217.438,247.156C213.651,252.468 208.549,257.147 207.469,263.813C205.748,270.479 203.745,276.741 204.156,286.25C196.499,280.983 188.847,275.629 179.75,276.844C178.397,280.975 176.578,285 179.5,289.844L166.75,289.031C157.809,289.166 149.492,290.707 145.656,301.781C167.513,308.743 183.573,340.278 181.969,350.563C178.32,370.255 159.123,361.179 162.5,380.344C173.595,373.012 182.139,370.927 183.75,381.625L194.219,388C205.153,379.343 217.013,384.278 224.594,388.469C230.09,380.339 240.371,377.633 254.781,387.063C257.705,383.873 262.785,384.476 268.188,385.625L258.531,389.656L256.406,410.844C248.175,434.402 231.567,429.282 220.719,420.75C217.398,424.83 200.512,425.273 197.063,420.375C188.772,424.753 205.666,440.217 219.188,449.156C242.173,458.95 266.114,468.625 294.219,477.688C308.432,483.611 342.062,478.767 367.594,494.281L371.219,488.781C385.336,496.614 398.687,509.519 409.813,521.063C432.678,483.775 475.493,471.541 527.125,481.406C517.012,466.659 504.761,455.873 492.375,444.156C494.279,440.186 497.211,440.148 499.875,439.219C504.479,438.334 536.771,475.72 561.094,482.25C551.347,475.52 537.888,463.104 522.844,448.906C507.222,434.163 489.993,417.475 479.969,401.969C492.588,402.231 567.308,514.628 645.531,464.063C600.401,449.711 562.45,402.356 543.688,385.406C575.168,407.354 604.561,437.823 638.906,448.313C611.047,427.412 579.808,409.056 557.781,383.781C597.7,402.857 638.696,458.26 692.563,412.375C654.634,406.21 647.359,391.81 634.813,380.375L601.594,351.656C627.21,368.744 651.453,389.598 680,398.625L681.188,398.625C652.903,380.454 625.191,362.206 603.969,343.25C617.519,348.506 641.886,374.685 671,375.719C686.069,376.254 705.987,372.447 719.188,350.75C679.369,356.076 633.195,305.019 618.031,291.5C646.928,307.572 680.769,346.181 704.531,338.781C665.946,325.031 642.777,301.97 623.438,282.531C649.326,301.532 692.6,341.013 714.719,277.719C682.876,295.851 640.517,246.366 637.188,240.031C659.705,250.135 687.421,279.1 704.219,268.469C682.206,270.706 642.25,233.562 636.906,225.969C658.965,244.895 703.865,267.321 718,216.063C683.067,221.354 677.426,205.878 665.938,194.531C677.793,200.935 687.96,210.877 706.625,202.906C680.18,202.566 667.009,185.694 659.063,178.063C682.428,191.84 703.842,193.805 720.063,163.125C682.423,164.956 678.851,135.317 668.313,114.938C652.728,79.981 629.056,32.415 591.125,66.156C583.145,48.726 574.561,35.568 566.281,29.344C568.629,46.414 569.95,63.346 567.156,80.813C564.946,77.322 561.773,75.802 557.969,75.5L557.969,84.75C550.216,57.26 521.862,34.604 507.156,44.188C533.849,68.832 513.674,108.089 509.469,120.719C503.436,138.808 487.679,161.664 505.188,174.438C503.121,175.884 502.077,177.824 503.094,180.813C493.44,192.106 485.145,204.176 493.219,225.094C489.637,228.254 489.962,232.394 489.938,236.063C481.848,242.869 477.222,252.091 474.281,263.531C450.245,263.139 424.312,259.908 404.719,275.313L405.688,256.594C407.133,260.237 410.155,262.287 415.719,261.813C416.346,250.991 415.694,240.134 418.656,229.313C420.784,231.201 423.114,232.95 428.281,232.813C431.355,215.356 434.383,197.894 440.469,180.438C441.926,182.675 444.264,184.449 447.781,185.656C452.423,152.709 471.327,139.49 467.656,105.75C484.662,105.546 499.61,100.247 507.406,77.531C501.575,79.361 495.652,81.982 490.313,79.875C497.222,75.941 500.451,76.016 501.406,66.469C470.909,70.629 461.16,56.316 444.563,46.563C433.768,38.736 402.543,24.26 396.969,45.188C391.734,44.628 387.059,44.634 387.406,49.656C380.593,47.74 347.279,19.532 333.406,56.219C331.608,64.049 331.221,80.079 336.25,80.906C341.187,73.489 344.884,69.132 352.281,69.094C356.091,70.868 359.084,72.312 360.469,78.938C376.963,81.452 381.406,93.615 385.875,105.75C376.868,91.569 363.792,83.573 351.219,83.094L311.031,83.094C300.243,81.403 295.346,76.771 294.406,70.156C305.494,68.305 316.773,63.359 315.063,46.563C314.511,32.215 300.629,26.345 289.844,26.594C289.685,26.597 289.532,26.587 289.375,26.594ZM363.531,48.625C369.254,48.706 375.429,51.731 380.594,56.125C381.756,59.25 381.996,65.609 378.313,62.406C372.144,57.225 365.445,52.877 358.031,49.563C359.791,48.88 361.624,48.598 363.531,48.625ZM393.938,49.219C393.995,55.473 396.845,61.312 400.406,63.344C398.221,66.505 395.973,69.294 394.406,76.781L395.625,120.406C393.302,132.008 390.423,138.113 387.469,143.406C382.516,142.442 374.834,141.126 369.25,142.688C368.351,131.104 361.826,115.439 354.156,112C361.496,110.381 368.666,119.766 371.625,137.188C376.774,139.04 381.52,138.741 386.031,137.406C395.345,123.731 395.766,97.308 382.906,84.938L382.906,81.094C386.113,81.759 388.438,86.861 391.063,90.438C391.791,81.052 389.859,69.61 395.844,64.313C390.483,57.461 390.354,52.237 393.938,49.219ZM398.656,50.906C398.687,50.901 398.719,50.909 398.75,50.906C398.758,50.906 398.773,50.907 398.781,50.906C400.942,50.831 402.128,54.016 403.531,56.469C406.861,57.32 409.787,58.854 410.75,60.875C400.494,62.484 398.974,58.48 398.406,50.969C398.489,50.952 398.579,50.919 398.656,50.906L398.656,50.906ZM584.094,60.188C589.007,66.109 591.423,68.412 587.938,93.406C589.798,87.758 591.338,83.185 594.719,72.469C608.117,81.312 605.843,90.855 608.469,100.188C613.493,96.354 618.882,94.65 624.438,94L624.25,100L632.813,100.375C634.564,115.883 620.047,121.407 613.656,132.125C607.801,140.99 604.268,155.159 595.094,156.438C585.875,155.311 579.137,155.768 581.531,162.031C583.82,167.961 591.459,158.649 598.313,160.438C607.638,161.34 613.507,170.851 612.875,177.781C610.354,188.215 601.99,191.654 591.531,192.563C588.106,191.831 586.891,186.411 583.125,186.563C580.008,188.049 578.136,193.883 582.75,196.563C587.598,197.457 589.787,193.019 596.313,195.75C601.084,196.36 606.635,204.974 608.281,212.5C604.32,223.701 595.096,227.521 587.125,227.875C581.304,227.503 578.289,216.047 574.156,223.281C572.281,226.018 574.46,228.253 576.75,230.469C601.161,227.457 598.456,241.344 599.219,254.531C592.277,257.701 587.823,260.268 579.563,259C572.528,260.193 567.063,253.44 564,252.406C558.148,253.005 556.212,261.782 563.594,264.375C572.924,258.782 581.168,263.463 583.344,267.156C586.238,279.31 585.537,286.84 580.938,288.313C575.559,292.193 569.277,293.326 561.063,293.75C551.898,293.061 550.598,284.483 546.031,282.344C544.148,281.135 542.259,282.501 540.375,284.219C539.278,286.2 537.142,287.952 540.75,290.875C543.656,291.35 546.563,290.69 549.469,292.938C559.534,300.581 559.097,308.047 559.5,316.656C548.68,320.602 538.757,323.735 527.938,322.25C513.866,315.606 518.331,304.122 512.188,305C507.706,304.475 502.173,307.324 504.219,310.563C507.582,317.242 516.493,309.344 518.5,321.875C517.635,333.77 510.951,341.844 500.5,340.219C490.145,339.769 476.309,339.55 474.156,330.406C474.27,325.508 476.004,320.573 472.313,316.313C466.611,314.382 465.315,316.856 463.406,318.719C462.527,322.347 465.905,324.261 469.906,325.938C475.403,340.43 463.658,351.359 459.313,351.719C446.471,351.258 437.845,346.134 433.906,335.781C435.063,331.631 436.308,327.442 434.094,325.219C430.62,323.54 428.597,324.48 427.594,327.25C426.908,331.567 430.963,330.811 432.969,336.875C437.253,344.694 429.512,363.069 419.813,358.406C413.692,357.272 407.559,355.88 401.438,351.344C404.782,362.612 398.391,365.604 388.656,363.031C406.515,396.113 449.507,446.206 497.906,434.094C453.497,455.16 401.486,399.153 381.781,356C385.567,354.008 390.599,361.625 395.156,361C398.9,359.18 401.221,356.581 397.563,350.813C395.474,347.096 377.497,343.066 388.094,330.219C399.437,326.664 399.535,338.723 402.563,346.719C406.581,353.057 414.324,353.788 422.219,354.313C428.851,354.618 430.954,345.979 431.5,341.531C429.139,334.117 423.232,333.301 423.344,327.063C422.755,319.42 434.631,318.565 437.438,322.594C439.352,326.118 438.914,329.663 436.875,333.188C435.6,338.417 446.06,350.301 458.938,347.094C461.595,347.153 471.831,337.953 465.438,327.25C462.692,322.653 457.928,321.002 460.063,315.938C463.791,313.055 467.262,309.729 474.344,312.594C478.401,316.108 478.283,321.882 476.938,328.344C478.176,334.067 488.053,335.7 499.563,336.531C511.16,338.051 513.961,330.758 514.781,321.5C512.607,312.251 500.398,318.366 499.031,310.188C499.257,305.998 506.655,301.082 513.5,301.281C521.721,302.066 516.884,315.131 528.688,319.469C538.351,321.938 547.086,318.26 555.781,314.438C557.757,313.355 553.607,296.83 546.688,294.594L537.594,293.5C533.435,290.04 533.787,285.818 538.531,280.875C540.899,280.235 544.505,275.982 548.813,279.125C552.595,281.471 554.08,291.697 563.781,290.906C574.332,290.199 581.518,286.938 580.938,277.75C580.161,270.057 581.26,266.452 573.75,264.563L563.781,266.563C559.032,266.163 555.438,264.617 556,256.781C556.123,250.05 560.528,248.564 566.063,250.188C568.872,251.012 569.199,252.845 574.969,254.813C584.282,258.988 589.807,254.977 596.094,252.594C596.884,228.392 583.643,234.233 573.375,233.656C570.144,230.221 567.268,226.689 569.781,221.688C572.78,216.733 577.428,216.868 579.719,217.938C582.425,219.201 583.411,222.845 588.125,223.281C594.919,224.412 602.559,219.515 604.094,211.125C595.966,188.453 584.185,203.648 580.156,199.156C573.997,194.669 575.886,183.565 582.344,182.969C588.244,181.833 587.533,187.441 593.313,189.375C601.301,188.478 608.469,184.491 609.875,176.813C608.642,169.669 605.085,165.385 597.313,163.438C592.658,162.346 585.989,169.611 579.938,168.031C577.319,163.842 577.114,159.627 578.75,155.438C582.992,151.234 589.646,153.468 595.313,153.063C603.594,146.729 606.449,137.667 611.875,129.906C617.448,121.763 628.792,113.99 626.813,105.375L617.438,106.188L618.844,100C603.24,102.391 600.922,113.212 596.5,122.719C596.246,129.599 596.705,136.35 590.906,138.094C586.182,138.352 583.574,135.624 582.75,132.5C582.75,125.554 588.809,123.787 593.313,120.344C595.902,114.089 599.098,108.442 603.281,103.781C604.603,91.553 602.092,83.158 596.5,77.844C591.912,86.582 591.627,101.773 582.281,103.375C584.812,90.584 587.757,78.596 584.094,60.188ZM416.063,62.531C423.419,62.675 424.135,72.395 435.813,72.625C435.579,77.057 429.245,76.481 426.656,75.063C424.057,73.639 419.552,65.901 414.188,62.719C414.582,62.65 414.951,62.585 415.313,62.563C415.564,62.547 415.825,62.527 416.063,62.531ZM406.813,63.406C408.551,63.406 409.969,64.757 409.969,66.438C409.969,68.118 408.551,69.5 406.813,69.5C405.074,69.5 403.656,68.118 403.656,66.438C403.656,64.757 405.074,63.406 406.813,63.406ZM399.938,67.125C401.272,66.684 402.453,72.456 405.625,72.781C411.692,73.404 415.036,63.824 418,68.719C418.397,69.374 410.799,73.062 409.969,75.906C416.287,77.435 421.188,70.685 421.188,73C421.188,75.62 416.634,80.406 410.063,80.406C403.491,80.406 398.469,76.401 398.469,73.781C398.469,73.065 401.901,75.802 403.344,75.156C402.785,74.032 398.671,70.523 399.656,67.313C399.747,67.224 399.849,67.154 399.938,67.125ZM401.469,83.25C404.63,89.239 407.385,97.632 419.625,98.813C424.705,99.75 427.84,101.335 428.781,105.031C423.31,101.909 417.892,99.633 412.875,104.688C413.463,126.104 410.439,128.883 403.875,142.063C401.948,141.972 402.191,140.576 403.031,137.719C412.048,115.875 409.632,105.562 403.719,97.094C401.691,92.269 400.732,87.614 401.469,83.25ZM565.375,96.156C565.438,96.151 565.486,96.156 565.531,96.188C557.863,122.248 535.326,153.197 543.938,179.625C544.083,179.66 544.225,179.686 544.375,179.719L544.375,180.875C544.222,180.456 544.075,180.046 543.938,179.625C526.279,175.339 535.616,153.493 544.906,132.594C553.22,113.891 563.416,96.326 565.375,96.156L565.375,96.156ZM626.438,126.75C632.007,126.782 639.294,129.109 645.25,129.656C641.792,132.329 638.255,135.062 635.813,136.719C643.143,139.599 644.912,141.086 648.375,143C643.402,151.255 634.735,155.82 626.781,161.094C634.534,163.103 641.013,167.194 645.625,174.438C640.754,178.81 638.31,178.375 635.438,178.75C638.985,183.327 644.017,187.817 644.281,194.594C638.394,201.159 630.792,201.555 622.844,201.938C629.888,206.189 633.353,211.18 634.625,217.656L630.313,218.844C629.111,220.689 633.126,221.333 632.688,228.656C625.092,232.678 617.471,231.715 609.875,232.969C618.263,239.295 627.687,244.957 632.281,253.813L624.813,255.375C629.365,260.255 633.053,265.537 631.875,273.063C627.019,277.445 617.124,274.604 609.5,275.031C613.971,277.945 616.395,281.446 617.75,285.25L610.281,285.625C616.708,291.385 618.642,298.193 619.313,305.281C609.664,314.84 593.198,311.764 582.781,311.156C587.995,317.05 592.244,322.95 592.594,328.844L586.313,328.063C592.169,335.527 595.62,343.004 596.125,350.469C577.15,353.402 559.851,347.658 543.094,339.063C546.562,346.437 549.437,353.723 549.375,360.656L544.281,361.063C548.219,366.416 550.634,372.1 550.563,378.344C523.045,382.737 504.906,374.137 488.875,362.625C492.14,366.438 494.409,371.939 496.344,377.969C494.772,379.476 492.898,379.95 490.438,378.344C489.771,382.422 497.942,391.798 491.531,396.719C480.288,396.028 471.559,397.071 454.313,387.375L444.875,387L444.469,396.031C425.663,396.06 409.085,377.499 409.125,368.531C417.42,376.313 423.598,389.421 442.906,392.094L440.156,381.875L447.625,383.469C440.764,375.143 432.004,366.576 432.313,359.094C433.781,358.648 433.609,358.818 434.531,360.531C446.1,382.024 471.715,395.91 490.625,393.281C491.3,384.951 485.459,379.987 482.969,374.031L490.844,375.219C489.489,365.873 480.547,355.875 474.344,346.125C493.202,361.414 515.318,377.633 546.25,376C547.622,369.321 540.981,362.648 538,355.969L546.625,357.531C544.889,343.944 537.097,336.414 529.75,328.438C548.42,336.967 563.171,349.112 592.219,348.094C591.233,339.473 584.676,332.714 580.031,325.313L587.5,325.313C583.56,314.974 573.844,308.486 566.281,300.563C578.935,306.954 602.96,314.386 615.781,304.094C615.04,295.658 609.282,290.003 604.781,283.656L611.063,282.094C606.4,276.024 595.149,272.246 594.156,266.781C605.665,272.638 616.906,273.248 627.969,271.094C628.532,262.584 621.985,257.941 618.125,251.844L626,252.625C620.633,244.687 610.381,238.314 604.375,231C609.124,227.267 622.701,230.824 629.531,225.5L622.063,214.5L630.313,216.469C626.337,206.269 616.641,200.95 607.531,195.656C617.302,198.425 626.863,201.803 640.531,193.313C638.009,186.612 632.673,181.756 627.563,176.781C632.38,176.078 637.118,175.327 639.75,172.875C635.447,165.427 623.759,164.558 613.438,162.25C625.112,158.209 635.784,153.188 641.719,143.406C638.561,139.465 634.313,139.276 630.313,138.281L634.625,133.188C629.386,128.79 624.176,129.162 618.938,130.031C620.386,127.525 623.096,126.731 626.438,126.75ZM450.906,159.563L446.25,181.281L442.25,178.625C444.669,170.774 446.478,161.05 450.906,159.563ZM512.5,173.813C512.519,175.598 513.222,177.591 509.844,178.406C512,181.9 509.218,182.927 506.406,183.938C505.658,181.225 500.982,174.739 512.5,173.813ZM327.938,184.688C328.524,186.266 330.141,187.311 323.313,191.281C326.494,191.65 329.614,190.88 333.969,191.188C334.863,196.424 321.31,199.305 315.531,193.5C314.096,190.082 323.791,187.62 327.938,184.688L327.938,184.688ZM536.156,186.406C536.243,189.12 530.512,198.286 530.063,212.531C529.54,229.322 535.204,236.718 535.406,241.719C515.369,235.806 513.892,194.99 536.156,186.406ZM361.844,188.344C362.891,188.338 363.768,188.966 364.375,190.625C363.489,192.399 351.757,203.915 344.625,202.875C342.885,198.674 343.057,188.796 349,189.688C349.944,190.303 350.058,193.409 350.563,195.344C354.014,194.156 358.702,188.362 361.844,188.344ZM384.219,197.438L385.281,202.5L391.156,200.625C388.278,204.675 387.353,208.895 381.531,208.906C378.027,202.642 381.57,200.284 384.219,197.438ZM414.625,210.5C419.35,213.639 422.828,223.064 426.906,229.438C419.663,230.822 412.709,216.674 414.625,210.5ZM280.25,213.031C285.437,215.334 290.625,216.96 295.813,217.781C290.326,226.95 277.585,218.096 280.25,213.031ZM354.156,217.375C355.205,217.274 356.015,217.636 356.563,219.719C353.339,224.047 350.64,228.529 349.625,233.594C351.516,234.785 351.831,235.528 352.406,238.594C357.477,234.65 360.603,230.021 362.969,225.094C365.552,224.312 367.387,225.307 367.5,228.219C367.96,229.307 355.811,245.566 351.375,244.25C347.937,242.669 342.837,242.445 344.25,236.938C344.445,231.352 347.829,223.955 352.031,217.781C352.809,217.684 353.527,217.436 354.156,217.375ZM316.313,218.406C316.46,218.392 316.606,218.402 316.75,218.406C317.385,222.019 313.37,225.638 311.375,229.25C311.162,230.732 311.25,232.205 312.75,233.688C317.628,230.6 323.368,222.525 328.219,218.594C328.919,219.335 329.992,218.995 329.531,223.219C330.606,224.097 312.93,241.72 312.188,240.75C308.885,240.904 305.639,235.643 306,232.313C305.58,227.977 311.73,218.846 316.313,218.406ZM500.094,225.219C500.546,225.226 500.981,225.322 501.438,225.5C499.348,229.353 496.569,232.231 496.875,239.438C488.473,238.573 493.73,225.761 499.625,225.25C499.777,225.237 499.943,225.216 500.094,225.219L500.094,225.219ZM383.875,230.625C383.748,235.439 383.446,240.248 384.313,245.063C387.762,242.996 391.207,244.433 394.656,245.719C394.535,249.03 393.201,252.014 390.781,254.75C387.925,253.388 386.893,250.959 386.906,247.875C384.939,249.294 384.855,251.964 379.781,251.313C374.931,243.574 378.08,232.753 383.875,230.625ZM527.563,240.188C530.585,240.256 532.042,242.288 531,247.438C534.994,247.634 535.42,249.643 535.406,251.844C527.804,253.992 523.516,244.245 527.563,240.188ZM245.688,243.125C255.086,253.439 264.159,242.754 268.875,243.719C262.619,251.403 249.498,258.978 245.688,243.125ZM283.781,243.156C287.927,247.671 274.012,257.869 276.344,270.531C280.682,271.052 287.162,265.559 292.125,267.969C286.034,276.853 277.973,277.396 270.156,279.031C267.915,266.246 275.58,265.082 272.438,262.594L269.625,261.25C270.367,253.104 278.017,248.624 283.781,243.156L283.781,243.156ZM405,243.969C409.281,246.831 412.143,252.539 415.344,257.563C408.037,260.149 401.42,248.496 405,243.969ZM360.969,246.094C361.181,246.086 361.386,246.088 361.594,246.125C359.863,256.247 351.024,271.25 359.563,274.312C363.364,274.898 366.128,271.655 368.875,268.375C374.546,272.621 363.28,280.33 356.594,280.25C346.16,267.83 354.399,246.343 360.969,246.094L360.969,246.094ZM336.656,252.188C340.114,259.451 324.366,279.184 316.938,278.5C308.167,270.443 311.565,255.859 317.344,255.031C319.978,257.321 312.924,268.681 320.188,272.156C326.387,267.647 331.505,259.841 336.656,252.188ZM526.25,255.063C519.992,262.482 513.13,269.19 509.281,279.5C506.661,272.164 513.743,256.773 526.25,255.063ZM225.219,277.906C228.383,289.79 207.213,305.752 197.156,312.281L205.375,313.594C207.097,315.163 205.427,316.055 204.219,317.625C195.098,316.925 189.182,313.264 193.156,308.969C206.003,302.807 216.906,292.869 225.219,277.906ZM396.594,280.188L407.156,287.094C399.651,288.557 393.861,288.393 396.594,280.188ZM498.969,281.406C501.112,283.896 503.768,284.332 506.406,284.844C503.085,284.54 496.745,287.254 498.969,281.406ZM330.719,286.188C333.881,290.363 322.079,305.482 325.938,316C328.822,316.664 330.896,314.175 332.719,310.594L333.719,317C337.708,318.159 342.362,307.189 346.125,307C343.663,313.491 341.975,320.542 333.344,322.406C330.872,322.677 331.701,319.625 331.125,318C328.755,318.597 327.374,323.161 323.719,322.188C317.132,306.464 325.468,289.008 330.719,286.188ZM240.469,286.594C243.262,289.631 229.392,302.643 235.688,315C242.424,313.331 245.796,306.734 251.094,302.188L252.094,305C244.69,313.138 235.758,321.598 232.281,321.188C229.273,319.513 230.808,315.965 231.469,312.594L227.469,312.594C230.708,302.643 234.091,292.882 240.469,286.594ZM487.25,288.188C489.066,288.212 491.132,288.505 493.063,288.656L482.188,295.719C480.377,289.321 483.255,288.134 487.25,288.188ZM454.75,289.313C462.716,289.172 470.388,290.618 477.406,295.125C448.76,286.126 393.288,318.342 382.031,294C382.521,292.689 384.447,293.416 385.5,294C404.374,304.473 430.853,289.733 454.75,289.313ZM274.313,291.375C272.628,302.329 267.947,316.648 273.688,319.188C278.255,316.695 280.298,309.774 285.5,307.594C286.695,310.58 284.827,314.344 284.094,317.813C292.409,315.593 300.29,295.68 304.5,294.781C299.579,307.85 292.978,318.956 281.688,324.594L279.313,318.813C276.427,323.406 272.45,324.882 268.5,326.813C265.691,309.201 267,297.266 274.313,291.375ZM167.313,292.813C168.019,292.795 168.747,292.806 169.469,292.813C172.931,292.846 176.448,293.113 178.75,293.063L179.938,296.719C172.672,296.804 165.869,295.725 158.156,297C158.06,293.806 162.367,292.939 167.313,292.813ZM199.594,319.531C200.003,319.504 200.396,319.597 200.75,319.813C201.932,321.395 196.009,330.054 193.875,336C192.101,340.943 189.937,351.262 188.906,352.344C181.96,346.169 193.457,319.945 199.594,319.531ZM235.094,335.25C236.415,352.279 231.418,346.152 230.813,359.844C227.412,365.609 222.286,370.642 220.094,369.031C217.611,364.717 224.645,361.69 227.719,357.375C228.593,353.774 230.713,336.428 235.094,335.25ZM248.156,336.031C250.91,350.048 240.347,356.659 240.406,368.656C240.411,369.594 239.572,370.11 239.25,369.281C235.948,368.959 229.807,355.015 234.438,354.656C237.589,353.183 235.891,361.421 237.813,361.531C239.603,346.816 244.404,351.229 246.75,337.719C246.946,336.592 246.79,336.051 248.156,336.031ZM310.125,343.031C312.441,358.354 302.644,379.764 266.438,379.031L281.188,385.781C278.898,393.542 276.309,401.009 269.188,403.938C273.88,406.768 277.784,411.618 283.969,410.719C275.991,416.301 269.02,428.962 261.813,439.938C277.065,440.89 287.619,431.791 297.188,420.563C297.932,423.24 297.254,428.027 294.719,435.625C299.748,435.391 313.622,425.038 325.188,421.469L318.719,441.469C345.212,438.844 350.977,422.697 359.344,408.25C355.171,438.328 334.344,445.544 310.719,448.875L318.406,429.469C308.375,432.603 297.533,441.784 287.969,440.875C289.648,438.35 292.414,436.9 291.031,431.313C278.418,445.006 265.801,444.043 253.188,444.25C262.361,434.974 267.183,417.394 276.281,413.469L261.813,404.875C267.927,400.292 273.747,395.561 275.031,388.563C269.949,384.218 260.9,381.016 257.813,376.25C290.109,377.161 303.092,362.494 310.125,343.031ZM196,354.656C196.618,365.471 183.536,370.529 172.438,370.188C171.548,364.666 180.114,365.347 184.469,363.219C188.535,360.536 191.245,355.615 196,354.656Z" style="fill:rgb(4,4,4);fill-rule:nonzero;stroke:black;stroke-width:0.35px;stroke-linejoin:round;"/>
                                    </g>
                                    <g id="g2462">
                                        <g id="g4910">
                                        </g>
                                        <path id="path4544" d="M-430.01,125.479C-428.797,135.34 -417.709,136.697 -415.529,125.468C-417.493,89.306 -448.432,83.449 -475.381,87.202C-498.41,89.328 -510.281,83.933 -510.478,67.584C-492.102,65.311 -488.727,59.731 -491.079,45.992C-501.729,21.014 -536.412,36.702 -538.667,57.276C-543.018,79.419 -529.649,95.507 -511.684,99.467C-490.473,100.486 -477.12,96.252 -458.943,98.226C-443.725,100.667 -432.712,104.137 -430.01,125.479Z" style="fill:rgb(238,83,31);"/>
                                        <path id="path4922" d="M-375.35,228.838C-375.616,228.838 -375.881,228.838 -375.35,228.838Z" style="fill:none;fill-rule:nonzero;"/>
                                        <path id="path4926" d="M-417.026,204.682C-417.026,204.594 -417.026,204.505 -417.026,204.682Z" style="fill:none;fill-rule:nonzero;"/>
                                        <path id="path1548" d="M-266.477,188.027L-264.958,243.638" style="fill:none;fill-rule:nonzero;"/>
                                        <path id="path1556" d="M-264.389,179.296C-272.69,183.95 -259.452,191.973 -256.607,185.369C-265.079,184.52 -262.797,181.521 -264.389,179.296Z" style="fill:rgb(245,247,16);"/>
                                        <path id="path2450" d="M-328.159,329.984C-328.22,329.984 -328.282,329.984 -328.159,329.984Z" style="fill:none;fill-rule:nonzero;"/>
                                    </g>
                                    <path id="path2506" d="M-560.513,287.153C-560.446,287.153 -560.38,287.153 -560.513,287.153Z" style="fill:none;fill-rule:nonzero;"/>
                                    <path id="path2510" d="M-526.862,291.932C-526.796,291.932 -526.729,291.932 -526.862,291.932Z" style="fill:none;fill-rule:nonzero;"/>
                                </g>
                            </g>
                            <g id="g4859" transform="matrix(1,0,0,1,801.224,0)">
                                <path id="path4789" d="M-628.17,406.923C-630.424,407.756 -631.752,410.791 -632.994,414.031C-633.246,417.076 -629.903,415.327 -627.662,415.047C-626.383,413.446 -627.321,410.151 -628.17,406.923ZM-687.071,381.281C-685.426,385.952 -678.832,386.381 -672.599,387.12C-677.801,380.988 -684.306,380.579 -687.071,381.281ZM-687.324,408.7C-686.865,405.657 -682.28,404.382 -672.345,405.399C-675.359,407.654 -676.592,410.948 -687.324,408.7ZM-727.756,329.094C-732.095,331.283 -735.512,335.327 -737.701,340.382C-742.725,333.764 -734.921,325.443 -727.756,329.094ZM-600.803,419.875C-604.606,419.281 -607.109,415.178 -606.865,412.781C-610.394,421.368 -617.933,423.027 -629.74,417.125C-638.098,418.873 -643.095,414.767 -652.584,417.125C-653.971,418.695 -652.147,421.675 -658.115,421.281C-658.641,430.088 -658.073,440.484 -662.772,443.031C-656.996,447.439 -659.75,450.91 -661.147,454.313C-660.73,473.643 -672.839,475.552 -685.365,476.906C-705.454,484.007 -719.076,480.107 -726.678,465.906C-719.823,466.96 -713.578,469.416 -704.647,465.625C-710.137,449.538 -701.353,442.966 -691.709,436.969C-689.324,432.278 -686.733,428.212 -682.897,427.875C-682.66,424.779 -683.565,423.187 -685.647,423.188C-689.212,427.359 -694.8,426.501 -699.709,427.313C-702.792,431.024 -707.354,433.248 -714.834,432.563C-716.703,437.879 -722.055,438.345 -727.522,438.625C-735.821,451.408 -745.475,455.595 -753.678,447.719C-771.537,446.749 -779.99,439.22 -780.959,426.5C-776.087,430.249 -772.689,438.418 -764.428,432C-763.692,400.877 -751.896,402.99 -739.647,406.406C-735.515,404.114 -731.372,404.779 -727.24,406.125C-723.099,403.123 -718.416,401.713 -712.084,405.281C-700.654,401.489 -694.547,405.974 -673.24,403.906L-694.459,400.594C-700.564,401.67 -706.072,401.281 -710.709,398.688C-717.428,400.747 -723.171,400.36 -726.959,395.094C-743.301,397.013 -759.759,399.131 -762.49,378.844C-769.825,371.576 -775.267,378.646 -781.24,381.594C-782.724,370.072 -770.738,365.062 -760.022,359.281C-750.025,348.914 -740.636,353.317 -731.365,360.375C-727.601,360.567 -723.849,361.158 -720.084,364.25C-718.837,364.331 -718.093,364.168 -717.709,363.875C-717.639,363.819 -717.568,363.753 -717.522,363.688C-717.082,363.005 -717.776,361.807 -718.428,360.656L-727.24,355.969C-742.403,353.593 -744.506,344.357 -745.99,334.781C-756.147,329.828 -761.867,334.568 -768.553,337.25C-760.86,318.734 -745.982,321.808 -731.928,322.375C-717.08,315.153 -706.192,318.419 -701.615,338.344C-698.973,341.487 -696.087,345.547 -691.99,353.781C-685.714,357.11 -683.464,361.738 -683.459,364.531C-677.49,367.01 -673.183,371.151 -671.615,378.031C-661.414,385.75 -647.464,386.89 -631.397,384.344C-625.612,381.418 -619.806,380.567 -614.022,381.313L-600.903,388.49C-591.966,385.676 -582.605,387.098 -572.952,391.446C-562.756,382.342 -552.058,381.518 -540.432,396.015C-540.838,400.722 -541.211,405.394 -542.313,410.797C-553.103,425.888 -565.301,429.718 -579.671,416.172C-586.715,421.578 -593.759,420.773 -600.803,419.875ZM-754.095,362.152C-753.471,367.513 -756.907,370.052 -756.513,378.098C-758.434,378.596 -760.689,379.76 -760.545,376.127C-759.666,369.18 -758.497,362.756 -754.095,362.152ZM-758.894,418.242C-763.162,429.12 -759.38,446.17 -747.674,444.183C-753.89,438.328 -756.77,418.571 -758.894,418.242ZM-701.542,453.891C-696.235,460.099 -692.983,467.22 -681.993,470.901L-680.724,473.948C-689.23,474.881 -704.223,466.532 -701.542,453.891ZM-656.351,405.907C-663.395,403.863 -676.073,415.715 -672.092,429.518C-669.139,431.084 -671.932,420.572 -656.351,405.907ZM-647.719,400.322C-650.491,403.474 -662.176,407.006 -660.921,400.322L-647.719,400.322Z" style="fill-opacity:0.99;"/>
                                <path id="path4824" d="M-656.232,72.216C-663.308,73.787 -668.207,76.447 -672.149,79.585C-671.631,74.878 -665.105,69.636 -656.232,72.216ZM-679.813,150.031C-675.253,145.78 -661.623,161.334 -663.601,168.601L-679.813,150.031ZM-718.72,80.174L-725.5,96.091C-730.666,92.377 -724.187,80.861 -718.72,80.174ZM-739.353,147.968C-738.443,156.043 -737.922,163.483 -743.185,161.526C-743.9,151.527 -741.724,149.479 -739.353,147.968ZM-724.321,224.309C-725.879,218.821 -727.26,213.51 -727.268,209.571C-729.244,208.141 -731.081,207.405 -732.279,209.866C-731.992,216.1 -728.498,220.409 -724.321,224.309ZM-648.864,229.909C-650.259,225.442 -645.61,225.005 -640.021,225.193C-641.208,227.939 -643.021,230.267 -648.864,229.909ZM-619.636,290C-626.109,286.149 -623.359,280.017 -621.292,274.031C-613.518,273.108 -605.178,275.894 -598.136,280.094C-597.474,272.151 -596.952,267.072 -594.823,263.531C-593.763,246.145 -601.003,240.844 -607.792,234.875C-606.543,223.517 -613.379,214.64 -621.573,206.188C-623.769,196.31 -626.147,186.731 -631.23,181.906L-635.355,168.406C-635.717,160.225 -634.551,152.056 -637.573,143.875C-634.219,137.751 -634.235,130.782 -636.761,123.188C-633.48,116.034 -632.879,105.628 -638.136,99.75C-629.025,83.19 -640.487,66.43 -657.98,66.656C-672.753,52.689 -684.93,55.896 -696.042,66.094C-683.573,66.219 -669.91,65.399 -674.542,79.063C-685.103,90.895 -681.784,100.044 -669.573,107.469C-669.606,113.782 -669.483,120.033 -663.761,123.469C-663.84,127.881 -664.125,132.275 -659.917,136.688L-652.73,160.688C-659.299,150.194 -659.956,135.691 -669.855,130.063C-669.072,121.972 -673.946,119.002 -678.105,117.938C-676.196,108.479 -682.071,102.274 -688.855,96.438C-692.802,79.721 -696.464,62.522 -719.761,75.188C-741.567,73.857 -754.858,87.449 -757.261,96.438C-748.824,91.737 -740.384,87.062 -730.511,96.719C-733.167,112.513 -729.573,123.663 -709.542,122.625C-706.449,125.751 -705.72,130.275 -699.355,131.438C-698.502,135.412 -698.06,139.539 -690.792,141.375C-689.747,144.515 -689.034,147.407 -695.198,145.5C-700.079,135.902 -706.557,135.849 -712.855,134.75C-723.607,122.109 -749.254,120.231 -749.261,144.125C-763.87,149.018 -769.382,143.433 -774.636,137.531C-775.828,153.523 -765.158,161.588 -744.292,162.875C-740.533,181.114 -714.776,172.233 -716.136,169C-709.869,171.511 -704.518,171.834 -700.448,169.219C-698.349,171.666 -694.164,172.562 -689.136,172.813C-690.193,179.27 -697.41,178.992 -699.636,184.938L-710.105,188.813C-719.792,192.084 -733.081,188.422 -734.636,207.281C-744.413,217.558 -751.148,212.637 -758.073,208.656C-759.22,217.417 -751.17,224.231 -724.448,227.125C-705.877,232.038 -693.016,227.811 -689.136,209.219C-685.967,208.833 -684.145,205.471 -683.917,198.469C-679.475,195.848 -676.294,192.263 -674.792,187.438C-672.954,185.599 -671.13,185.581 -669.292,187.281C-662.491,199.645 -661.868,214.977 -653.011,226.313C-653.462,238.388 -652.156,249.757 -641.698,257.469C-641.368,268.564 -643.806,280.184 -632.323,289.188L-619.636,290ZM-637.368,259.68C-637.745,256.986 -637.69,254.508 -628.82,256.437C-628.284,259.55 -630.075,261.265 -637.368,259.68Z" style="fill-opacity:0.99;"/>
                            </g>
                        </g>
                    </g>
                </g>
            </g>
        </g>
    </g>
</svg>
