<?xml version="1.0" encoding="UTF-8" standalone="no"?>
<!DOCTYPE svg PUBLIC "-//W3C//DTD SVG 1.1//EN" "http://www.w3.org/Graphics/SVG/1.1/DTD/svg11.dtd">
<svg width="100%" height="100%" viewBox="0 0 151 151" version="1.1" xmlns="http://www.w3.org/2000/svg" xmlns:xlink="http://www.w3.org/1999/xlink" xml:space="preserve" xmlns:serif="http://www.serif.com/" style="fill-rule:evenodd;clip-rule:evenodd;stroke-linejoin:round;stroke-miterlimit:2;">
    <g transform="matrix(1,0,0,1,-2608,-2857)">
        <g id="slaskie" transform="matrix(0.138889,0,0,0.138889,2608.16,2857.75)">
            <rect x="0" y="0" width="1080" height="1080" style="fill:none;"/>
            <g id="slaskie.svg" transform="matrix(1.32386,0,0,1.32386,540,540)">
                <g transform="matrix(1,0,0,1,-372,-407.899)">
                    <clipPath id="_clip1">
                        <rect x="0" y="0" width="744" height="815.798"/>
                    </clipPath>
                    <g clip-path="url(#_clip1)">
                        <g id="Warstwa_x0020_1" transform="matrix(1.28981,0,0,1.28981,-107.811,-118.214)">
                            <path id="path10" d="M660.414,435.897C660.414,595.174 531.334,724.146 372.047,724.146C212.77,724.146 83.586,595.172 83.586,435.897L83.586,91.652L660.372,91.652L660.414,435.897L660.414,435.897Z" style="fill:rgb(10,11,12);fill-rule:nonzero;"/>
                            <path id="path12" d="M654.758,435.348C654.758,591.502 528.21,717.947 372.047,717.947C215.893,717.947 89.242,591.501 89.242,435.348L89.242,97.852L654.719,97.852L654.76,435.348L654.758,435.348Z" style="fill:rgb(48,68,181);fill-rule:nonzero;"/>
                            <path id="path14" d="M478.235,356.279C478.667,372.694 482.149,416.692 482.549,423.533C483.741,441.51 486.463,458.44 492.617,463.946C484.501,465.98 456.128,459.991 447.941,439.702C440.976,423.246 440.976,377.183 440.976,367.435C440.976,354.861 439.384,349.468 439.384,349.468C438.367,373.999 428.146,395.602 422.784,404.077C437.535,405.782 448.188,451.084 454.32,473.653C450.766,477.721 448.516,479.93 448.516,479.93C450.91,482.642 493.058,542.623 509.69,547.698C525.561,546.825 545.788,542.511 556.944,544.257C562.707,545.192 565.83,546.322 568.583,549.763C579.122,563.21 568.685,574.294 562.378,578.465C562.964,574.767 562.778,566.466 558.289,564.073C550.636,564.33 543.795,563.385 535.053,563.385C550.174,567.124 558.074,574.078 560.138,578.68C561.618,582.163 561.659,583.396 561.659,587.484C561.33,596.185 556.584,599.842 551.941,602.811C547.339,605.245 543.867,604.876 538.679,605.245C544.914,600.674 547.38,595.527 546.476,591.542C541.216,584.546 525.489,577.664 518.75,576.688C525.232,583.539 534.149,594.809 532.7,604.66C531.067,619.309 516.398,622.606 510.707,618.764C514.764,615.425 517.014,609.447 514.867,603.972C505.56,587.011 495.267,570.668 472.287,570.349C470.664,571.428 468.486,572.702 468.959,575.599C469.206,580.458 472.215,584.084 475.01,587.381C460.073,589.621 451.413,579.728 451.783,569.949C451.958,565.162 452.471,564.073 454.136,560.2C459.282,552.773 474.578,553.163 477.146,551.17C478.019,550.082 477.074,549.866 476.458,549.321C467.829,539.357 442.425,506.813 433.405,497.537C430.396,502.684 422.537,522.222 421.808,524.318C420.503,522.037 395.685,473.15 389.706,459.344C390.753,472.749 388.072,519.356 394.339,540.045C404.416,574.078 445.578,608.471 479.18,595.671C478.194,604.66 476.057,615.929 468.486,622.678C458.697,631.369 439.528,634.563 427.067,628.112C419.486,625.647 427.139,628.944 423.728,626.766C432.645,641.949 434.566,667.251 432.861,678.551C413.261,678.016 398.068,659.063 392.962,641.919C394.523,657.574 378.282,694.288 371.831,699.681C364.733,693.816 348.389,659.063 350.023,643.254C344.907,660.512 330.453,678.016 310.812,678.551C309.107,667.251 312.117,639.669 319.359,626.294C315.99,628.472 320.232,626.592 316.75,627.968C303.416,633.762 287.545,631.697 274.899,621.836C267.174,614.994 265.541,604.66 264.493,595.671C298.125,608.471 338.826,573.719 349.509,540.045C356.546,517.548 352.878,470.869 353.495,462.754C347.516,476.417 323.489,521.75 322.184,524.215C321.424,521.996 312.877,502.252 309.754,497.249C300.765,506.31 275.834,539.357 267.174,549.321C266.671,549.866 265.726,550.082 266.599,551.17C268.962,553.081 283.21,552.804 289.014,559.358C292.537,563.498 292.527,572.804 290.216,577.704C287.144,584.238 279.604,589.025 268.623,587.381C271.489,584.084 275.043,579.985 275.361,575.095C275.814,571.757 271.971,570.298 269.424,570.421C247.707,571.788 235.103,590.874 229.011,602.708C228.149,608.543 228.939,615.425 233.038,618.764C227.532,621.188 212.853,621.076 211.949,604.444C211.579,595.137 218.4,583.539 224.923,576.688C218.184,577.664 202.488,584.546 197.197,591.542C196.293,595.527 198.758,600.674 205.025,605.245C199.837,604.876 196.365,605.245 191.794,602.811C186.976,599.842 181.87,596.041 181.398,587.381C181.901,584.443 182.045,582.163 183.535,578.68C185.569,574.078 193.499,567.124 208.682,563.385C199.837,563.385 193.026,564.33 185.384,564.073C180.966,566.466 180.741,574.767 181.357,578.465C175.019,574.294 163.893,565.131 175.306,550.082C178.059,546.64 180.966,545.192 186.719,544.257C198.07,542.511 218.071,546.825 233.942,547.698C250.573,542.623 293.308,482.21 295.732,479.488C295.732,479.488 292.907,477.721 289.322,473.653C295.444,451.084 306.528,406.327 320.407,404.765C315.116,396.177 305.44,373.999 304.248,349.468C304.248,349.468 302.656,354.861 302.656,367.435C302.656,377.183 302.656,423.246 295.773,439.702C287.545,459.991 259.162,465.98 250.974,463.946C257.353,458.44 259.85,441.51 261.082,423.533C261.524,416.692 265.038,373.495 265.366,357.111C265.469,354.83 265.366,352.94 265.325,351.933C262.829,362.072 259.162,364.466 256.953,365.226C256.706,368.996 252.32,429.522 250.07,443.544C246.372,470.109 241.338,487.788 235.432,498.914C229.196,510.912 218.831,521.637 199.622,524.975C184.48,526.28 168.896,518.195 167.992,509.895C188.866,512.617 200.608,465.61 206.289,434.843C208.322,421.037 213.541,364.651 213.356,354.43C213.356,354.43 208.651,354.47 206.042,350.803C205.785,355.446 202.775,392.88 200.207,411.72C198.07,424.622 189.77,464.819 156.538,463.216C150.416,462.785 134.76,455.902 129.86,441.88C140.41,446.256 152.696,429.481 157.401,414.041C163.236,394.801 168.023,313.914 167.52,292.825C166.071,296.338 164.797,297.971 163.349,298.331C162.948,298.259 163.349,328.193 160.164,335.405C154.545,349.468 138.161,358.96 124.097,353.197C119.279,351.173 110.661,345.77 109.603,335.661C112.972,337.069 125.155,334.901 126.244,304.71C127.395,278.032 127.58,254.477 128.083,230.747C124.498,233.572 114.79,232.298 113.486,226.217C122.002,221.759 128.453,206.679 126.635,172.974C126.316,167.222 127.035,156.887 128.268,152.398C129.429,148.844 137.4,125.761 164.294,123.399C173.313,123.399 181.285,124.6 189.77,128.442C207.819,136.63 230.213,172.399 197.926,200.957C196.766,269.67 259.346,277.097 301.68,279.265C303.416,279.265 306.025,279.193 307.689,278.977L304.608,274.231C317.582,274.92 350.814,246.619 343.387,201.573C338.353,191.712 325.882,191.855 309.867,195.194C309.61,193.016 309.867,189.102 313.596,185.877C305.953,188.198 292.578,190.119 283.703,184.572C277.18,180.771 274.026,173.96 277.796,167.509C283.518,173.2 286.024,176.96 297.037,176.713C306.457,176.169 316.534,166.852 333.022,169.389C341.137,170.149 348.564,174.864 353.392,178.963C348.245,171.526 335.518,160.329 322.657,158.952C309.795,157.247 300.149,168.485 298.989,167.869C297.684,165.074 301.063,143.882 305.84,136.373C309.754,130.076 315.044,128.186 321.249,128.186C332.95,128.802 343.459,133.589 350.639,137.246C351.872,135.757 354.419,133.979 356.248,133.281C365.504,129.706 382.402,135.12 390.928,139.568C406.553,147.724 415.1,151.166 427.314,167.365C429.995,170.879 440.001,172.399 440.001,172.399C435.758,183.925 429.204,187.397 420.791,185.733C420.616,186.75 420.688,186.534 420.472,187.654C422.239,192.872 433.364,190.951 435.614,191.927C431.7,203.854 419.486,207.079 414.237,204.799C412.963,207.151 411.412,209.976 409.563,212.554C399.228,230.131 402.054,253.357 427.386,268.54C429.995,270.173 436.015,272.526 439.713,274.015C440.001,274.087 437.247,278.361 436.343,279.265C437.576,279.45 440.288,279.522 441.418,279.45C483.31,278.258 546.907,269.67 545.675,200.957C513.388,172.399 535.741,136.63 553.79,128.442C562.378,124.6 570.319,123.399 579.307,123.399C606.19,125.761 614.131,148.844 615.323,152.398C616.555,156.887 617.172,167.222 617.069,172.974C615.179,206.679 621.702,221.759 630.074,226.217C628.811,232.298 619.093,233.572 615.693,230.747C616.052,254.477 616.196,278.032 617.398,304.71C618.446,334.901 630.66,337.069 633.916,335.661C633.012,345.77 624.311,351.173 619.493,353.197C605.43,358.96 589.056,349.468 583.437,335.405C580.211,328.193 580.684,298.259 580.211,298.331C578.794,297.971 577.489,296.338 576.01,292.825C575.496,313.914 580.427,394.801 586.159,414.041C590.905,429.481 603.15,446.256 613.844,441.88C608.841,455.902 593.226,462.785 587.063,463.216C553.79,464.819 545.531,424.622 543.425,411.72C540.785,392.88 537.816,355.446 537.559,350.803C534.95,354.47 530.163,354.43 530.163,354.43C530.091,364.651 535.238,421.037 537.415,434.843C542.994,465.61 554.776,512.617 575.65,509.895C574.664,518.195 559.224,526.28 544.041,524.975C524.77,521.637 514.364,510.912 508.128,498.914C502.293,487.788 497.291,470.109 493.531,443.544C491.209,429.522 486.895,368.996 486.607,365.226C484.501,364.466 480.731,362.072 478.338,351.933C478.235,352.837 478.235,354.286 478.235,356.279Z" style="fill:rgb(10,11,12);fill-rule:nonzero;"/>
                            <path id="path16" d="M372.03,157.529C370.84,160.055 371.115,162.115 372.18,164.642C372.894,162.718 373.818,160.888 375.209,159.266L372.03,157.529ZM366.241,155.357C365.296,159.662 365.584,164.408 370.155,167.387C373.34,169.236 380.983,166.329 381.568,162.127C381.969,162.744 385.698,163.288 387.115,165.178C385.153,167.818 377.654,173.694 369.282,170.643C360.838,165.61 362.471,157.268 363.016,153.467C363.951,153.971 365.512,154.659 366.241,155.357Z" style="fill:white;"/>
                            <path id="path18" d="M169.162,266.661C168.834,285.511 167.241,297.541 154.627,297.356C140.348,295.979 144.015,277.643 144.015,258.833C143.573,247.78 144.734,226.475 145.248,217.887C150.569,235.319 158.869,253.358 169.162,266.661ZM370.906,326.448C374.604,325.944 399.607,294.736 390.516,275.352C396.813,288.901 416.639,291.839 426.789,288.47C429.429,296.082 436.537,314.09 436.681,334.173C436.178,366.316 429.973,380.225 422.258,396.538C409.973,420.668 380.983,462.272 371.45,475.287C361.958,462.272 333.801,422.414 321.515,398.243C313.759,381.93 307.524,366.316 306.979,334.173C306.866,313.258 312.886,297.53 316.369,287.309C330.504,293.432 343.766,284.987 350.936,274.92C342.132,296.411 367.28,325.8 370.834,326.232C370.474,326.232 370.721,326.232 370.906,326.448ZM353.216,591.152C349.087,606.623 346.909,619.309 348.542,637.03C342.163,653.846 333.791,672.367 314.18,674.679C314.18,674.679 312.188,650.949 324.402,624.744C333.822,618.149 343.139,612.499 353.216,591.152ZM353.72,456.304C339.841,436.991 329.107,420.832 322.409,407.386C307.37,408.546 292.947,472.76 292.947,472.76C305.952,484.214 320.128,505.088 322.624,516.172C324.946,512.043 349.292,463.587 353.72,456.304ZM390.619,591.152C395.005,610.249 396.31,618.477 394.687,636.157C401.138,653.014 409.973,672.367 429.47,674.679C429.47,674.679 432.007,651.38 419.906,625.175C410.373,618.693 404.035,616.659 390.619,591.152ZM391.379,453.962C406.059,434.608 413.886,418.552 421.272,407.396C436.281,408.516 450.559,472.73 450.559,472.73C437.688,484.183 423.563,505.099 421.098,516.152C418.704,512.053 395.766,461.101 391.379,453.962ZM371.748,481.081C374.1,477.784 384.425,464.121 387.249,458.759C387.249,458.759 383.736,521.525 391.605,543.847C401.385,571.716 436.609,609.191 475.029,600.706C474.043,608.061 471.731,615.313 465.352,620.275C453.682,628.318 439.619,629.007 425.998,624.446C408.165,615.2 395.878,596.792 387.249,575.158C385.585,570.843 383.562,565.666 381.671,558.126C381.384,556.277 379.032,557.006 379.535,558.598C380.295,565.984 381.456,567.402 383.305,575.733C387.435,593.679 390.331,607.814 391.163,618.467C393.269,645.494 385.441,672.932 371.82,694.351C358.086,672.932 350.432,645.494 352.497,618.467C353.258,607.814 356.308,593.679 360.325,575.733C362.215,567.402 363.119,566.354 363.951,558.814C364.496,557.253 362.071,556.636 361.701,558.526C359.822,565.984 358.086,570.843 356.452,575.158C347.566,596.576 335.537,615.2 317.745,624.446C304.052,629.007 289.947,628.318 278.247,620.275C271.981,615.313 269.731,608.061 268.601,600.706C307.02,609.191 340.355,571.028 352.097,543.847C359.924,525.695 356.093,459.622 356.093,459.622C358.846,464.922 369.283,477.784 371.748,481.081ZM194.381,591.553C194.238,594.963 195.511,599.925 198.439,602.277C195.902,602.319 190.396,599.124 188.732,597.059C187.098,596.083 184.818,590.68 184.53,586.879C184.438,586.639 184.386,586.316 184.372,585.923C187.031,588.807 190.519,591.166 194.465,591.348C194.436,591.416 194.408,591.484 194.381,591.553ZM184.929,582.231C185.111,581.576 185.336,580.883 185.608,580.171C189.204,572.097 206.883,567.412 217.577,563.396C219.683,562.379 222.22,562.091 220.659,561.218C210.396,560.057 199.097,560.971 188.403,561.474C187.116,561.583 185.667,561.447 184.102,561.809C180.154,558.323 178.832,553.544 179.067,550.073C179.169,549.998 179.273,549.922 179.383,549.846C183.256,546.939 188.732,547.411 194.741,547.309C210.725,547.411 231.969,552.63 236.458,550.709C253.202,543.61 294.221,488.128 297.703,482.653C299.768,484.646 306.979,492.258 307.339,494.323C297.159,506.321 263.126,548.973 261.102,552.199C260.773,555.352 269.721,555.352 274.323,556.256C278.822,557.016 284.801,558.249 287.77,563.211C288.55,564.598 289.05,566.865 289.262,568.967C285.111,571.978 280.291,572.293 276.996,571.391C276.837,571.018 276.702,570.715 276.644,570.535C270.491,564.731 262.365,567.957 255.698,570.679C243.413,575.939 234.753,586.838 228.63,597.419C227.985,598.717 226.819,601.194 226.087,603.72C221.443,604.971 217.113,603.803 214.282,601.984C214.33,601.244 214.441,600.4 214.639,599.524C216.56,589.128 225.364,580.458 232.328,572.559C222.58,571.943 210.222,578.291 202.353,582.852C200.086,584.386 197.623,586.454 195.92,588.81C190.68,588.286 186.865,585.236 184.929,582.231ZM181.527,563.232C179.508,565.541 179.121,569.869 179.085,572.929C173.281,570.718 171.088,558.291 176.443,552.841C176.994,556.718 178.494,560.724 181.527,563.232ZM225.477,606.753C225.525,610.364 226.289,615.16 228.846,617.604C221.521,618.425 215.406,613.538 214.407,605.174C217.823,606.796 221.821,607.739 225.477,606.753ZM289.325,572.353C289.248,573.185 289.083,573.783 288.828,573.976C288.098,578.075 282.336,584.3 273.717,585.214C275.757,583.885 278.037,576.8 277.814,574.392C281.658,574.832 286,574.459 289.325,572.353ZM164.313,127.498C205.877,124.314 227.326,171.64 194.536,200.67C191.957,285.83 294.847,281.947 309.301,281.803C310.503,283.724 312.023,285.357 313.831,286.662C310.749,292.281 305.171,310.505 304.555,317.326L304.483,320.366C303.507,320.253 301.802,320.582 300.025,320.582C228.846,320.654 167.241,288.624 146.336,209.361C145.936,205.775 145.432,199.54 142.566,201.831C141.734,202.519 142.351,205.991 143.07,209.258C142.022,221.616 139.844,268.798 140.748,281.187C141.19,287.638 142.351,292.065 144.559,295.075C143.583,315.549 143.655,321.63 138.437,329.098C136.803,331.45 139.7,330.69 139.7,330.69C146.121,325.081 146.511,315.764 147.168,297.715C150.466,299.749 154.709,300.212 160.174,299.523C160.174,299.523 161.088,323.88 156.917,334.974C152.962,344.322 144.744,350.229 132.705,351.749C122.781,352.55 113.752,342.905 112.704,338.919C115.817,338.662 117.994,337.583 123.028,332.293C133.763,322.76 128.575,237.672 130.825,224.081C122.484,233.974 118.107,227.841 117.45,226.619C122.196,222.263 131.616,216.397 130.496,161.85C130.465,151.166 141.621,127.899 164.313,127.498ZM574.448,266.661C574.777,285.511 576.328,297.541 588.943,297.356C603.253,295.979 599.596,277.643 599.596,258.833C600.14,247.78 598.949,226.475 598.363,217.887C593.114,235.319 584.773,253.358 574.448,266.661ZM542.49,296.421C543.137,305.368 543.579,309.508 544.155,316.535C544.596,323.273 548.253,333.536 558.875,333.68C573.586,331.142 573.729,315.559 573.473,301.639C573.37,298.414 572.209,279.533 571.593,270.185C562.789,280.837 552.742,289.569 542.49,296.421ZM510.954,312.518C511.611,321.435 512.443,330.095 512.731,335.426C513.388,342.822 517.918,353.187 529.876,351.77C538.392,349.962 542.49,341.117 541.761,325.349C541.001,311.039 540.241,307.557 540.128,298.024C530.379,304.3 520.384,309.149 510.954,312.518ZM476.746,321.096L476.818,322.616C477.835,333.094 478.338,346.829 480.259,352.366C482.149,355.992 485.734,364.549 496.387,364.035C506.639,362.155 507.913,355.992 509.361,348.493C510.193,341.209 509.032,326.314 508.128,313.484C506.166,314.172 504.4,314.716 502.623,315.148C493.665,317.829 484.902,319.719 476.746,321.096ZM439.302,323.602C439.99,333.936 441.439,347.558 444.017,355.026C445.969,358.94 449.01,367.415 458.615,367.415C466.843,366.84 471.517,360.573 474.023,351.759C475.544,346.438 474.383,333.793 473.869,321.435C459.087,323.53 446.698,323.859 439.302,323.602ZM579.297,127.498C537.806,124.314 516.275,171.64 549.075,200.67C551.612,285.83 451.413,282.348 434.382,281.803C433.108,283.724 431.587,285.357 429.738,286.662C432.851,292.281 438.398,310.505 439.014,317.326L439.128,320.366C440.175,320.253 441.737,320.582 443.586,320.582C514.754,320.654 576.4,288.624 597.305,209.361C597.706,205.775 598.219,199.54 601.044,201.831C601.835,202.519 601.26,205.991 600.531,209.258C601.661,221.616 603.797,268.798 602.822,281.187C602.421,287.638 601.26,292.065 599.051,295.075C600.14,315.549 599.996,321.63 605.174,329.098C606.807,331.45 603.869,330.69 603.869,330.69C597.49,325.081 597.089,315.764 596.37,297.715C593.176,299.749 588.943,300.212 583.427,299.523C583.427,299.523 582.492,323.88 586.652,334.974C590.638,344.322 598.866,350.229 610.896,351.749C620.829,352.55 629.962,342.905 631.081,338.919C627.784,338.662 625.544,337.583 620.5,332.293C609.848,322.76 615.066,237.672 612.786,224.081C621.086,233.974 625.544,227.841 626.089,226.619C621.374,222.263 611.985,216.397 613.073,161.85C613.145,151.166 601.907,127.899 579.297,127.498ZM574.181,320.223C573.38,330.331 566.312,335.847 558.341,336.237C562.584,425.208 570.483,428.691 578.167,440.32C580.52,442.826 577.479,442.025 576.863,441.193C571.891,436.303 558.885,429.482 556.061,335.95C551.787,335.159 546.456,332.221 544.863,327.146C544.966,330.875 544.175,344.753 540.405,347.805C542.573,373.096 543.415,391.001 544.535,400.78C547.647,426.256 556.019,453.725 580.52,459.488C589.364,461.409 606.211,453.263 608.348,444.706C599.904,442.929 588.018,435.974 581.793,407.303C577.91,389.08 574.942,335.847 574.181,320.223ZM489.484,366.655C489.484,366.655 493.542,422.897 496.623,442.651C501.77,476.428 506.516,491.754 516.593,505.777C529.742,521.648 552.907,530.133 571.675,512.628C563.631,512.228 557.108,504.112 555.804,501.534C545.367,484.543 536.666,456.057 534.272,433.766C532.608,423.082 526.886,364.261 527.605,354.872C519.161,354.328 514.343,349.839 512.751,344.589C512.607,349.078 511.847,353.567 510.029,357.266C515.104,453.191 525.428,484.286 538.7,501.359C541.165,503.927 539.131,504.4 537.138,503.136C529.783,494.98 512.31,474.794 507.492,361.58C503.763,366.151 498.031,368.647 489.484,366.655ZM475.369,357.152C472.945,363.963 468.055,369.213 461.131,370.302C463.124,432.707 469.534,441.408 469.534,441.408C469.534,441.408 468.959,442.929 467.583,441.624C466.853,439.919 460.875,443.329 458.522,370.63C452.646,370.743 446.452,366.86 443.914,361.642C444.603,367.877 443.986,422.199 451.126,437.967C459.282,457.855 484.327,461.45 487.655,461.265C484.502,458.04 481.564,449.781 479.468,427.849C477.075,396.466 474.794,360.881 475.369,357.152ZM549.347,591.355C549.576,594.85 548.199,599.57 545.387,601.918C547.781,602.02 553.39,598.764 555.095,596.699C556.526,595.792 558.79,590.809 559.184,586.976C556.494,589.54 553.112,591.457 549.347,591.355ZM559.108,583.022C558.889,582.085 558.547,581.04 558.074,579.955C554.622,571.799 536.902,567.011 526.106,562.995C524.113,562.091 521.617,561.834 523.168,560.93C533.317,559.584 544.586,560.602 555.352,561.218C556.913,561.218 558.658,561.011 560.6,561.709C564.349,558.332 565.679,553.785 565.54,550.376C565.233,550.087 564.882,549.787 564.484,549.476C560.57,546.538 555.136,547.011 549.085,547.011C532.958,547.052 511.827,552.229 507.368,550.349C490.593,543.313 449.606,487.799 445.979,482.283C444.028,484.389 436.744,491.929 436.487,493.994C446.565,506.023 480.588,548.603 482.622,551.757C482.909,554.91 474.065,554.982 469.462,555.958C464.973,556.718 458.882,557.992 455.985,562.851C455.242,564.209 454.781,566.361 454.58,568.388C458.455,571.579 463.061,572.234 466.491,571.636C466.756,571.004 467.047,570.474 467.213,570.237C473.202,564.33 481.492,567.556 488.056,570.35C500.301,575.599 509.032,586.478 515.094,597.059C515.907,598.373 517.069,600.935 517.769,603.503C522.281,604.961 526.559,604.077 529.535,602.443C529.568,601.58 529.507,600.497 529.259,599.268C527.195,588.687 518.391,580.171 511.539,572.199C521.247,571.542 533.461,577.993 541.401,582.523C543.821,584.107 546.512,586.374 548.159,588.851C553.194,588.513 556.972,585.85 559.108,583.022ZM562.695,563.523C564.239,565.964 564.57,569.857 564.628,572.631C570.191,570.604 572.399,559.266 568.061,553.405C567.422,557.256 565.823,561.157 562.695,563.523ZM518.312,606.504C518.144,610.242 517.44,614.776 515.022,617.275C521.996,618.072 528.003,613.522 529.25,605.593C525.794,607.059 521.855,607.759 518.312,606.504ZM454.509,571.828C454.582,572.755 454.75,573.418 455.009,573.607C455.769,577.705 461.532,584.044 470.12,584.804C468.22,583.623 465.979,577.127 465.894,574.477C461.975,574.789 457.673,574.215 454.509,571.828ZM356.577,191.845C346.397,182.414 333.751,176.805 318.383,181.798C313.822,183.976 297.263,188.003 285.984,182.815C279.286,178.942 277.796,175.676 279.07,172.049C283.744,177.309 286.528,179.559 297.479,179.158C306.97,178.573 318.281,170.971 330.741,172.306C340.675,173.251 348.215,177.124 353.392,181.798C355.17,184.017 357.378,191.013 356.577,191.845ZM348.009,139.783C348.595,142.105 349.14,144.93 349.571,150.549C350.804,159.681 352.581,164.314 356.669,169.933C365.802,180.411 370.301,192.615 364.898,200.669C358.159,208.055 352.509,204.798 346.921,199.292C336.812,187.725 322.893,189.934 312.456,192.615C315.723,184.356 324.67,181.13 337.429,184.253C341.774,185.733 348.41,187.982 355.981,194.762C357.183,195.666 359.207,195.337 359.535,193.601C360.008,191.711 359.35,187.725 358.662,185.517C354.861,173.96 345.544,164.427 334.059,159.239C316.842,151.237 305.101,159.424 302.019,162.105C302.132,159.753 302.605,140.287 312.456,133.589C324.167,125.905 346.561,139.526 348.009,139.783ZM415.028,157.565C421.839,163.143 424.489,172.851 436.015,174.011C431.988,183.976 421.839,184.233 418.839,182.209C418.541,183.544 418.254,185.363 417.678,187.715C420.175,194.926 429.235,193.951 431.957,193.951C425.896,204.85 414.812,202.569 412.85,200.648C411.258,203.874 408.361,208.188 405.32,213.694C396.876,231.312 401.335,248.231 409.779,258.565C416.004,265.92 429.923,275.299 434.34,275.741C430.428,282.253 427.947,285.159 420.247,286.201C410.608,287.506 397.306,284.582 389.768,268.417C389.336,266.937 386.758,266.855 387.015,268.704C388.905,276.142 390.209,287.513 387.343,294.982C383.789,306.323 371.76,321.978 370.64,322.42C369.264,321.762 356.679,303.97 353.382,291.9C351.574,284 353.783,271.427 356.433,265.807C356.679,264.472 354.584,263.743 353.567,265.376C344.722,282.223 330.957,290.02 315.333,283.528C311.675,281.792 309.857,277.118 309.754,276.214C330.515,273.82 353.382,231.815 347.003,203.299C352.766,208.517 357.008,209.02 362.124,206.668C366.654,204.459 370.054,198.697 370.126,194.926C370.239,189.348 369.726,184.017 365.093,176.991C364.805,176.076 357.368,167.601 355.344,161.797C354.656,159.558 351.461,150.744 352.262,146.471C355.488,150.456 358.282,151.443 359.515,152.09C358.282,156.147 358.785,162.023 360.234,165.249C363.459,171.844 366.572,173.251 369.911,174.124C379.916,176.189 386.583,171.443 389.953,167.416C390.713,166.872 393.866,169.954 396.476,171.947C397.564,172.06 399.486,172.091 399.229,170.971C397.965,167.273 389.768,162.126 387.128,160.75C381.395,158.469 358.785,147.703 355.056,144.734C351.801,141.568 353.505,137.95 356.86,136.184C363.112,132.889 372.355,136.581 378.612,138.098C389.367,141.694 407.601,151.186 415.028,157.565ZM201.194,296.42C200.474,305.367 199.961,309.507 199.427,316.534C198.985,323.272 195.328,333.535 184.675,333.679C170.037,331.141 169.883,315.558 170.139,301.638C170.253,298.413 171.413,279.532 172.03,270.184C180.864,280.836 190.798,289.568 201.194,296.42ZM232.648,312.517C232.032,321.434 231.128,330.093 230.871,335.425C230.224,342.821 225.694,353.186 213.736,351.769C205.22,349.96 201.194,341.116 201.882,325.348C202.683,311.038 203.474,307.555 203.546,298.022C213.336,304.299 223.156,309.147 232.648,312.517ZM266.815,321.095L266.702,322.615C265.726,333.093 265.325,346.827 263.332,352.364C261.452,355.991 257.826,364.548 247.245,364.034C236.983,362.154 235.648,355.991 234.23,348.492C233.367,341.208 234.6,326.313 235.607,313.482C237.456,314.171 239.233,314.715 241.082,315.147C249.927,317.828 258.73,319.718 266.815,321.095ZM304.238,323.601C303.694,333.935 302.132,347.557 299.523,355.025C297.643,358.939 294.602,367.414 284.956,367.414C276.8,366.838 272.095,360.572 269.558,351.758C267.996,346.437 269.229,333.791 269.743,321.434C284.525,323.529 296.914,323.858 304.238,323.601ZM169.431,320.221C170.263,330.33 177.217,335.846 185.23,336.236C181.059,425.207 173.057,428.69 165.445,440.319C163.092,442.825 166.164,442.024 166.678,441.192C171.752,436.302 184.686,429.481 187.582,335.949C191.794,335.158 197.156,332.22 198.749,327.145C198.564,330.874 199.437,344.752 203.238,347.803C201.029,373.095 200.197,391 199.077,400.779C195.852,426.255 187.582,453.724 163.092,459.487C154.135,461.408 137.39,453.262 135.295,444.705C143.77,442.928 155.624,435.973 161.818,407.302C165.661,389.079 168.67,335.846 169.431,320.221ZM254.149,366.654C254.149,366.654 250.153,422.896 247.009,442.65C241.935,476.427 237.035,491.753 227.07,505.776C213.808,521.647 190.685,530.132 171.917,512.627C179.96,512.227 186.452,504.111 187.829,501.533C198.266,484.542 206.956,456.056 209.319,433.764C210.983,423.081 216.674,364.26 216.058,354.871C224.43,354.327 229.207,349.837 230.881,344.588C230.912,349.077 231.785,353.566 233.563,357.264C228.591,453.19 218.154,484.285 204.933,501.358C202.467,503.926 204.532,504.399 206.412,503.135C213.808,494.979 231.385,474.793 236.131,361.579C239.757,366.15 245.551,368.646 254.149,366.654ZM268.325,357.151C270.708,363.962 275.639,369.211 282.522,370.301C280.642,432.706 274.16,441.407 274.16,441.407C274.16,441.407 274.776,442.928 276.081,441.623C276.8,439.918 282.82,443.328 285.131,370.629C291.038,370.742 297.17,366.859 299.78,361.641C299.05,367.876 299.667,422.198 292.568,437.966C284.371,457.854 259.295,461.449 256.111,461.264C259.193,458.039 262.161,449.78 264.226,427.848C266.579,396.465 268.941,360.88 268.325,357.151Z" style="fill:rgb(252,209,22);fill-rule:nonzero;"/>
                        </g>
                    </g>
                </g>
            </g>
        </g>
    </g>
</svg>
