<?xml version="1.0" encoding="UTF-8" standalone="no"?>
<!DOCTYPE svg PUBLIC "-//W3C//DTD SVG 1.1//EN" "http://www.w3.org/Graphics/SVG/1.1/DTD/svg11.dtd">
<svg width="100%" height="100%" viewBox="0 0 151 151" version="1.1" xmlns="http://www.w3.org/2000/svg" xmlns:xlink="http://www.w3.org/1999/xlink" xml:space="preserve" xmlns:serif="http://www.serif.com/" style="fill-rule:evenodd;clip-rule:evenodd;stroke-linejoin:round;stroke-miterlimit:2;">
    <g transform="matrix(1,0,0,1,-2608,-4242)">
        <g id="swietokrzyskie" transform="matrix(0.138889,0,0,0.138889,2608.16,4242.95)">
            <rect x="0" y="0" width="1080" height="1080" style="fill:none;"/>
            <g id="swietokrzyskie.svg" transform="matrix(1.24193,0,0,1.24193,540,535.092)">
                <g transform="matrix(1,0,0,1,-372,-430.856)">
                    <clipPath id="_clip1">
                        <rect x="0" y="0" width="744" height="861.711"/>
                    </clipPath>
                    <g clip-path="url(#_clip1)">
                        <g id="Warstwa_x0020_1" transform="matrix(1.22109,0,0,1.22109,-82.2461,-95.2568)">
                            <g id="_65761448">
                                <path id="_65835440" d="M676.645,481.412C676.645,647.907 539.793,783.699 372,783.699C204.46,783.699 67.355,647.656 67.355,481.412L67.355,78.01L676.645,78.01L676.645,481.412Z" style="fill:rgb(10,11,12);"/>
                                <path id="_65835368" d="M373.207,430.136L373.207,90.929L663.309,90.929L663.309,430.136L373.207,430.136ZM222.776,729.344C203.754,717.91 186.124,704.372 170.222,689.051L370.679,689.051L370.679,729.344L222.776,729.344ZM131.497,643.305C122.796,630.596 115.068,617.174 108.435,603.143L370.679,603.143L370.679,643.305L131.497,643.305ZM91.425,557.661C87.73,544.486 84.932,530.946 83.129,517.104L370.679,517.104L370.679,557.661L91.425,557.661ZM80.693,472.28L80.693,432.664L370.679,432.664L370.679,472.28L80.693,472.28Z" style="fill:rgb(219,38,27);"/>
                                <g id="g13">
                                    <path id="_65835296" d="M529.354,328.605C532.586,329.745 534.92,332.837 534.92,336.448C534.92,340.462 532.036,343.834 528.237,344.597C530.488,361.735 544.313,367.554 558.262,358.896C560.237,357.67 561.984,355.408 561.777,359.979C561.296,370.609 546.643,379.936 533.312,372.762C536.049,376.87 545.745,382.565 557.289,379.202C559.521,378.553 561.348,377.891 559.228,381.68C552.162,394.304 533.418,392.167 528.142,384.332C528.149,390.034 526.358,395.696 523.053,400.333C521.942,401.892 520.975,401.953 519.811,400.316C516.513,395.68 514.729,390.027 514.736,384.332C509.46,392.167 490.715,394.304 483.65,381.68C481.529,377.891 483.357,378.553 485.588,379.202C497.132,382.565 506.829,376.87 509.565,372.762C496.235,379.936 481.581,370.609 481.101,359.979C480.894,355.408 482.641,357.67 484.616,358.896C498.56,367.551 512.381,361.739 514.638,344.612C510.801,343.88 507.878,340.489 507.878,336.448C507.878,332.813 510.243,329.704 513.509,328.582C512.928,323.433 511.935,317.822 510.762,312.538C508.657,316.402 505.702,321.45 501.717,326.752C498.696,330.771 497.186,334.771 497.165,338.736C497.152,341.042 497.372,341.846 494.672,340.617C493.01,339.859 491.327,339.005 490.119,338.118L460.942,378.745C459.071,381.351 458.746,382.002 462.601,382.333C466.067,382.63 469.492,382.52 473.527,382.992C478.886,383.62 481.724,389.806 478.049,395.708C476.794,397.724 476.766,397.518 475.428,396.173C471.977,392.705 459.507,390.839 453.731,389.735C451.248,389.261 449.402,389.237 447.856,389.644C440.519,391.578 431.153,396.038 423.255,399.746C420.689,400.95 419.048,402.845 417.672,405.127C416.867,406.463 416.595,406.866 415.197,405.529C412.345,402.797 407.852,396.394 414.376,391.798C418.778,388.697 427.679,387.401 431.972,385.816C422.292,385.592 411.959,386.026 406.904,391.341C405.792,392.509 405.775,392.744 404.673,391.178C400.932,385.859 401.847,379.053 409.242,377.524C415.42,376.248 422.228,378.08 429.43,378.293C421.677,375.212 412.421,371.996 404.921,373.13C402.483,373.498 402.584,373.187 403.385,370.877C406.246,362.619 413.849,360.197 422.295,364.229C429.017,367.439 437.827,373.219 443.463,375.989C444.856,376.673 446.741,376.974 447.743,375.427L474.825,333.611C472.314,333.538 469.816,332.779 467.93,331.483C466.393,330.427 467.522,329.49 468.557,328.631C472.294,325.535 476.211,321.038 479.593,314.774C484.316,306.023 485.299,297.869 486.678,288.331C488.076,278.657 490.556,273.762 497.783,273.404C495.605,267.833 492.779,259.913 490.575,252.215L480.95,296.735C478.928,306.091 473.711,317.665 461.22,319.512C458.489,319.915 458.072,318.722 459.188,316.462C462.54,309.679 465.294,302.546 465.668,294.896L467.512,257.226L454.081,331.43C452.083,341.74 445.186,348.335 436.382,351.089C433.333,352.043 432.446,351.377 433.471,348.479C435.485,342.781 437.622,334.608 438.014,329.508L443.438,258.934L431.934,323.506C429.854,334.845 422.911,338.712 413.754,340.7C410.989,341.3 409.262,341.734 410.831,338.294C413.47,332.51 416.313,326.603 416.68,320.239L420.779,249.229L412.451,299.113C411.497,308.706 404.346,313.104 394.342,314.37C391.524,314.727 391.296,313.619 392.422,311.401C395.425,305.48 397.888,299.568 397.969,293.947L399.149,211.881C399.296,201.655 398.924,185.019 401.022,169.556C403.384,152.151 415.843,126.247 437.384,127.03C452.779,127.59 462.109,140.704 462.495,153.505C462.889,166.546 456.84,177.653 443.637,181.559C445.203,196.839 460.414,210.136 494.491,210.567C498.828,205.546 503.579,200.755 507.335,195.282C511.285,189.526 514.588,183.454 514.307,175.768C513.058,174.707 511.876,173.55 510.702,171.413C508.599,167.586 506.052,163.755 503.824,160.42C500.907,156.054 499.198,151.745 497.103,149.355C494.912,146.855 491.942,146.656 489.06,147.009C488.935,142.77 488.443,136.887 490.621,132.767C493.733,126.878 500.641,127.052 505.641,129.807C510.15,132.292 514.741,136.239 518.178,137.739C519.862,131.808 519.728,121.052 515.999,114.012C515.221,112.542 515.262,111.964 516.948,111.798C519.572,111.539 523.075,111.621 524.075,114.318C526.256,112.245 532.655,110.26 533.764,118.99C533.986,120.739 533.451,120.728 531.991,120.54C529.283,120.189 527.398,121.349 527.335,123.121C527.127,128.942 533.651,129.464 536.635,127.266C539.749,124.973 540.332,121.85 537.85,120.202C536.786,119.497 536.291,119.213 537.122,117.838C538.699,115.232 542.313,115.153 543.155,115.926C544.778,112.996 547.343,112.31 549.229,112.149C550.899,112.006 551.634,111.902 552.415,113.652C553.384,115.821 553.074,119.218 552.674,120.755C555.294,121.467 555.135,124.961 553.67,127.332C552.867,128.631 552.636,128.501 551.616,127.664C549.719,126.107 548.496,126.959 547.768,128.682C546.774,131.031 546.663,134.907 548.474,136.864C550.066,138.584 552.45,138.421 554.469,137.377C557.027,136.055 556.967,134.178 555.255,131.866C554.305,130.582 554.163,130.073 555.737,129.453C561.44,127.206 565.712,129.809 564.441,134.848C567.059,134.412 570.509,136.541 571.617,139.081C572.286,140.614 571.217,140.661 569.978,140.801C561.693,141.743 551.331,148.767 547.101,153.709C547.366,159.5 545.741,165.316 543.517,168.92C539.717,175.076 538.528,178.789 540.464,185.771C542.872,194.456 547.491,202.342 551.145,210.495C583.143,209.35 597.517,196.388 599.036,181.559C585.834,177.653 579.785,166.546 580.178,153.505C580.565,140.704 589.894,127.59 605.289,127.03C626.83,126.247 639.29,152.151 641.651,169.556C643.749,185.019 643.377,201.655 643.524,211.881L644.705,293.947C644.785,299.568 647.248,305.48 650.252,311.401C651.377,313.619 651.15,314.727 648.331,314.37C638.327,313.104 631.177,308.706 630.222,299.113L621.894,249.229L625.994,320.239C626.361,326.603 629.203,332.51 631.842,338.294C633.412,341.734 631.685,341.3 628.919,340.7C619.762,338.712 612.82,334.845 610.739,323.506L599.235,258.934L604.66,329.508C605.051,334.608 607.189,342.781 609.203,348.479C610.227,351.377 609.341,352.043 606.291,351.089C597.488,348.335 590.591,341.74 588.592,331.43L575.161,257.226L577.006,294.896C577.379,302.546 580.133,309.679 583.485,316.462C584.602,318.722 584.184,319.915 581.454,319.512C568.963,317.665 563.746,306.091 561.723,296.735L552.524,254.184C550.368,260.385 547.787,267.173 545.683,273.463C552.302,274.135 554.65,279.02 555.996,288.331C557.374,297.869 558.357,306.023 563.081,314.774C566.462,321.038 570.379,325.535 574.116,328.631C575.152,329.49 576.281,330.427 574.743,331.483C572.858,332.779 570.359,333.538 567.849,333.611L594.931,375.427C595.932,376.974 597.817,376.673 599.21,375.989C604.846,373.219 613.657,367.439 620.379,364.229C628.824,360.197 636.427,362.619 639.289,370.877C640.089,373.187 640.191,373.498 637.753,373.13C630.253,371.996 620.996,375.212 613.244,378.293C620.446,378.08 627.253,376.248 633.431,377.524C640.826,379.053 641.741,385.859 638.001,391.178C636.899,392.744 636.881,392.509 635.77,391.341C630.714,386.026 620.381,385.592 610.701,385.816C614.994,387.401 623.895,388.697 628.298,391.798C634.822,396.394 630.328,402.797 627.476,405.529C626.079,406.866 625.806,406.463 625.001,405.127C623.626,402.845 621.984,400.95 619.419,399.746C611.52,396.038 602.155,391.578 594.818,389.644C593.271,389.237 591.425,389.261 588.943,389.735C583.166,390.839 570.696,392.705 567.246,396.173C565.908,397.518 565.88,397.724 564.624,395.708C560.949,389.806 563.788,383.62 569.147,382.992C573.181,382.52 576.606,382.63 580.072,382.333C583.928,382.002 583.602,381.351 581.731,378.745L552.554,338.118C551.346,339.005 549.663,339.859 548.001,340.617C545.301,341.846 545.521,341.042 545.509,338.736C545.487,334.771 543.977,330.771 540.957,326.752C537.091,321.609 534.194,316.705 532.103,312.889C530.885,318.78 529.942,324.209 529.354,328.605Z" style="fill:rgb(10,11,12);"/>
                                    <path id="_65835224" d="M435.358,149.926C435.646,147.103 438.043,144.887 440.94,144.887C444.03,144.887 446.551,147.408 446.551,150.498C446.551,153.347 444.408,155.712 441.653,156.063C441.014,156.145 440.96,156.382 441.502,156.752C442.985,157.763 443.962,159.467 443.962,161.391C443.962,164.481 441.441,167.002 438.351,167.002C435.261,167.002 432.74,164.481 432.74,161.391C432.74,160.727 432.857,160.09 433.07,159.498C433.538,158.2 433.399,158.124 432.192,158.655C431.502,158.96 430.739,159.129 429.939,159.129C426.849,159.129 424.328,156.608 424.328,153.518C424.328,150.428 426.849,147.907 429.939,147.907C431.77,147.907 433.402,148.793 434.427,150.157C435.127,151.089 435.263,150.855 435.358,149.926ZM490.574,144.064C490.574,141.317 490.67,137.324 491.966,134.269C494.061,129.334 499.818,128.821 504.101,131.023C508.73,133.402 512.727,137.119 517.369,139.661C517.165,143.085 517.25,146.732 517.274,149.905C517.299,153.245 517.422,155.859 519.007,158.988C520.54,162.015 520.734,165.186 519.138,167.103C517.523,169.044 516.994,169.972 515.923,172.052C514.752,174.327 514.094,173.039 513.284,171.747C511.313,168.604 509.191,164.855 506.885,161.697C504.287,158.141 502.658,154.734 500.481,151.166C498.185,147.403 496.006,144.777 493.005,145.635C493.683,141.639 499.503,144.531 500.714,145.811C504.861,150.194 510.046,156.625 514.027,163.104C514.509,163.887 515.909,165.288 517.076,164.194C518.039,163.291 517.322,162.023 516.572,161.139L503.569,145.826C500.133,141.779 494.915,139.427 490.574,144.064ZM607.313,149.926C607.025,147.103 604.628,144.887 601.731,144.887C598.641,144.887 596.12,147.408 596.12,150.498C596.12,153.347 598.263,155.712 601.018,156.063C601.657,156.145 601.711,156.382 601.169,156.752C599.686,157.763 598.709,159.467 598.709,161.391C598.709,164.481 601.23,167.002 604.32,167.002C607.41,167.002 609.931,164.481 609.931,161.391C609.931,160.727 609.815,160.09 609.601,159.498C609.134,158.2 609.272,158.124 610.48,158.655C611.17,158.96 611.932,159.129 612.732,159.129C615.823,159.129 618.343,156.608 618.343,153.518C618.343,150.428 615.823,147.907 612.732,147.907C610.901,147.907 609.269,148.793 608.244,150.157C607.544,151.089 607.408,150.855 607.313,149.926ZM565.062,333.197L593.406,376.857C594.838,379.062 597.419,378.82 599.454,377.973C605.347,375.524 613.482,369.61 620.058,366.466C627.649,362.837 633.305,362.866 637.207,371.133C628.579,369.563 618.194,374.363 610.557,376.951C607.058,378.136 608.308,380.988 611.53,380.763C618,380.311 625.832,379.032 632.215,379.378C636.528,379.612 639.989,383.382 636.695,389.372C631.549,383.815 620.334,383.929 610.261,383.731C607.094,383.669 605.072,385.159 608.719,387.031C612.578,389.013 621.297,390.065 626.187,392.949C633.273,397.128 627.236,402.337 626.429,403.505C624.844,400.496 622.917,399.337 619.801,397.763C612.087,393.867 602.777,389.743 595.584,387.662C594.046,387.217 591.599,387.002 589.133,387.561C582.796,388.999 568.813,390.425 566.233,394.264C563.207,387.786 566.686,385.459 570.744,384.974C574.665,384.505 578.66,384.668 582.372,384.123C586.202,383.56 585.966,381.223 584.096,378.617L554.023,336.712C556.681,334.015 557.24,332.381 557.189,329.854C559.813,331.359 562.438,332.653 565.062,333.197ZM555.996,224.24C588.01,219.578 618.205,204.925 640.475,179.658C641.177,188.882 641.397,198.105 641.397,207.328C615.616,217.816 588.818,227.287 556.801,231.536C556.662,229.039 556.379,226.615 555.996,224.24ZM614.267,160.501C623.317,168.62 625.334,183.898 624.481,192.3C619.517,196.521 613.478,200.563 607.286,204.58C609.659,202.913 621.801,182.835 610.957,164.048C611.288,163.226 611.47,162.329 611.47,161.391C611.47,161.105 611.453,160.823 611.42,160.546C611.846,160.626 612.284,160.668 612.732,160.668C613.259,160.668 613.772,160.61 614.267,160.501ZM516.283,329.957L526.512,329.957C530.081,329.957 533.001,332.877 533.001,336.446C533.001,340.015 530.081,342.935 526.512,342.935L516.283,342.935C512.714,342.935 509.794,340.015 509.794,336.446C509.794,332.877 512.714,329.957 516.283,329.957ZM517.785,113.617C521.06,118.994 521.979,126.155 520.605,137.085C530.961,131.412 543.722,139.507 546.662,151.354C554.166,143.969 561.689,139.532 569.37,139.161C568.378,137.117 565.554,136.192 563.048,136.94C562.097,137.223 561.371,136.944 561.896,135.704C564.298,130.035 559.636,129.833 556.629,131.128C558.43,132.173 559.499,135.569 558.21,137.022C554.205,141.536 549.048,141.137 546.44,137.811C545.339,136.407 544.829,134.482 544.777,132.183C544.669,127.353 548.12,122.348 551.956,125.764C553.16,123.907 552.316,122.219 551.23,121.729C550.005,121.175 549.898,121.978 550.369,120.393C550.729,119.183 551.244,116.405 550.277,114.498C547.068,113.99 545.189,115.817 543.974,118.395C543.451,119.503 543.331,119.001 543.013,118.516C541.991,116.96 539.686,117.575 538.794,118.923C542.841,119.927 541.884,124.873 539.983,126.955C538.146,128.967 535.279,130.562 532.509,130.639C528.683,130.744 525.153,127.083 525.194,123.253C525.226,120.351 527.576,118.128 531.703,118.737C531.681,114.439 527.197,112.774 525.036,116.47C524.459,117.456 523.393,119.227 522.945,117.046C522.621,115.467 522.545,113.496 517.785,113.617ZM477.609,333.197L449.265,376.857C447.833,379.062 445.252,378.82 443.217,377.973C437.324,375.524 429.189,369.61 422.613,366.466C415.023,362.837 409.367,362.866 405.465,371.133C414.092,369.563 424.477,374.363 432.114,376.951C435.613,378.136 434.363,380.988 431.142,380.763C424.671,380.311 416.839,379.032 410.456,379.378C406.144,379.612 402.682,383.382 405.976,389.372C411.123,383.815 422.337,383.929 432.41,383.731C435.577,383.669 437.599,385.159 433.953,387.031C430.093,389.013 421.374,390.065 416.484,392.949C409.398,397.128 415.435,402.337 416.242,403.505C417.827,400.496 419.754,399.337 422.87,397.763C430.584,393.867 439.894,389.743 447.087,387.662C448.625,387.217 451.072,387.002 453.538,387.561C459.876,388.999 473.858,390.425 476.438,394.264C479.464,387.786 475.985,385.459 471.927,384.974C468.006,384.505 464.011,384.668 460.298,384.123C456.469,383.56 456.705,381.223 458.576,378.617L488.648,336.712C485.99,334.015 485.431,332.381 485.482,329.854C482.858,331.359 480.233,332.653 477.609,333.197ZM487.065,224.296C454.907,219.697 424.557,205.028 402.196,179.658C401.494,188.882 401.274,198.105 401.274,207.328C427.218,217.882 454.191,227.407 486.478,231.616C486.333,229.361 486.413,226.881 487.065,224.296ZM428.404,160.501C419.354,168.62 417.337,183.898 418.19,192.3C423.155,196.521 429.193,200.563 435.385,204.58C433.012,202.913 420.87,182.835 431.714,164.048C431.383,163.226 431.201,162.329 431.201,161.391C431.201,161.105 431.218,160.823 431.251,160.546C430.825,160.626 430.387,160.668 429.939,160.668C429.412,160.668 428.899,160.61 428.404,160.501Z" style="fill:rgb(250,207,0);"/>
                                    <path id="_65808976" d="M492.785,212.499C475.554,213.031 443.337,206.23 440.9,180.008C453.067,178.126 460.147,166.722 460.225,155.093C460.317,141.188 451.468,129.971 437.699,128.982C427.631,128.259 419.282,134.565 413.387,143.276C407.204,152.412 402.479,165.04 402.479,176.195C406.412,181.653 411.213,186.751 416.501,190.852C415.906,173.588 422.673,163.489 426.72,159.901C424.391,158.719 422.787,156.3 422.787,153.518C422.787,149.579 425.999,146.367 429.938,146.367C431.576,146.367 433.088,146.924 434.296,147.857C435.351,145.22 437.933,143.348 440.938,143.348C444.877,143.348 448.089,146.56 448.089,150.498C448.089,153.355 446.398,155.83 443.967,156.974C444.927,158.192 445.501,159.726 445.501,161.391C445.501,165.329 442.288,168.541 438.35,168.541C435.974,168.541 433.862,167.371 432.561,165.578C426.155,176.737 427.849,193.746 438.189,205.805C455.757,215.827 472.069,220.549 487.602,221.987C488.624,218.824 490.373,215.66 492.785,212.499ZM516.382,344.758C514.21,362.909 499.812,370.666 483.321,360.343C483.289,372.133 503.08,377.358 510.701,368.968C513.023,366.412 513.308,370.448 512.583,371.927C507.661,381.971 493.033,383.51 485.819,381.36C493.493,393.065 511.224,388.382 514.354,381.391C515.196,379.509 516.47,380.294 516.481,382.045C516.515,388.032 517.725,394.393 521.436,399.25C525.144,394.396 526.357,388.029 526.392,382.045C526.402,380.294 527.676,379.509 528.519,381.391C531.649,388.382 549.38,393.065 557.054,381.36C549.84,383.51 535.212,381.971 530.289,371.927C529.565,370.448 529.85,366.412 532.172,368.968C539.793,377.358 559.584,372.133 559.552,360.343C543.06,370.665 528.662,362.91 526.49,344.758L516.382,344.758ZM551.969,212.526C569.586,212.47 599.427,205.206 601.769,180.008C589.602,178.126 582.522,166.722 582.444,155.093C582.352,141.188 591.201,129.971 604.97,128.982C615.038,128.259 623.386,134.565 629.282,143.276C635.465,152.412 640.19,165.04 640.19,176.195C636.257,181.653 631.456,186.751 626.168,190.852C626.763,173.588 619.996,163.489 615.949,159.901C618.278,158.719 619.882,156.3 619.882,153.518C619.882,149.579 616.669,146.367 612.731,146.367C611.093,146.367 609.581,146.924 608.373,147.857C607.318,145.22 604.736,143.348 601.73,143.348C597.792,143.348 594.58,146.56 594.58,150.498C594.58,153.355 596.27,155.83 598.702,156.974C597.742,158.192 597.168,159.726 597.168,161.391C597.168,165.329 600.381,168.541 604.319,168.541C606.695,168.541 608.806,167.371 610.108,165.578C616.514,176.737 614.82,193.746 604.48,205.805C587.108,215.715 570.963,220.443 555.586,221.937C554.459,218.326 553.254,215.189 551.969,212.526ZM519.065,142.002C521.515,135.279 530.467,136.609 535.666,139.41C539.004,141.208 542.277,144.886 543.821,148.57C544.938,151.235 545.274,154.055 545.14,156.775C544.904,161.588 542.921,166 540.94,169.248C536.257,176.923 536.688,182.278 539.971,190.636C543.488,199.587 548.731,209.79 551.821,217.869C555.584,227.71 555.718,238.748 551.771,249.66C549.765,255.206 547.854,261.169 545.696,267.195C541.72,278.296 536.09,288.828 532.923,300.184C530.278,309.669 528.373,318.842 527.402,328.175C527.14,328.15 526.875,328.136 526.607,328.136L516.186,328.136C515.967,328.136 515.751,328.145 515.536,328.161C513.938,315.024 510.838,301.965 506.128,289.333C501.571,277.11 496.789,265.286 493.105,252.731C489.624,240.863 484.914,228.004 492.452,216.657C494.86,213.033 497.985,209.694 500.765,206.531C508.345,197.91 516.575,188.707 516.542,176.787C516.538,175.283 516.914,173.307 517.918,171.887C518.774,170.678 519.788,169.435 520.858,168.272C523.369,165.545 522.596,161.493 520.985,158.57C519.219,155.367 519.152,150.397 519.317,146.435C520.032,146.545 520.746,146.614 521.462,146.623C522.604,150.586 525.007,152.068 527.771,152.121C530.424,152.171 532.694,149.863 534.536,146.298C535.461,146.12 536.968,146.29 538.493,146.533C537.021,142.344 527.052,141.035 522.697,143.872C521.891,144.16 520.929,144.331 520.071,144.185C518.656,143.945 518.642,143.162 519.065,142.002ZM523.218,146.92C524.052,149.098 525.892,150.258 527.933,150.186C530.062,150.112 532.612,147.284 533.082,145.416C533.373,144.26 532.682,144.336 531.945,144.168C531.053,143.964 530.608,143.98 530.451,144.92C530.18,146.532 529.756,147.806 527.851,148.077C526.722,148.238 525.441,147.94 525.046,146.662C524.752,145.71 522.961,146.115 523.218,146.92ZM641.213,209.598L642.537,294.095C642.64,300.677 644.682,304.745 648.405,312.187C636.914,310.348 632.939,305.835 631.669,296.477L620.047,224.589L618.38,224.699L624.083,320.224C624.421,325.895 627.611,333.496 629.976,338.998C619.869,336.336 614.133,333.095 612.582,322.32L597.2,232.839L595.258,232.976L602.514,329.283C602.969,335.317 605.029,343.061 607.122,348.841C599.134,347.488 591.683,337.975 590.507,330.077L574.026,236.657L571.905,236.941L574.836,294.474C575.263,302.856 577.944,309.776 581.825,317.176C570.135,316.062 565.43,303.933 563.37,294.147L554.022,249.723C555.837,244.694 556.792,238.905 557.037,233.353C585.623,229.874 613.438,221.184 641.213,209.598ZM544.914,275.793C549.759,275.448 552.148,280 553.304,285.037C554.274,289.263 554.634,293.567 555.253,297.842C556.723,307.989 561.106,316.455 567.042,324.599C568.697,326.87 570.647,329.069 572.911,330.038C569.209,331.88 564.712,331.911 557.887,327.606C556.318,326.616 555.512,326.033 555.542,328.56C555.62,335.007 550.868,336.451 547.473,338.41C548.118,334.971 546.696,330.861 544.65,327.969C543.568,326.439 541.587,323.162 539.329,319.752C537.577,317.106 532.951,311.038 533.324,307.708C535.772,297.07 539.909,286.431 544.914,275.793ZM401.456,209.598L400.132,294.095C400.029,300.677 397.987,304.745 394.264,312.187C405.755,310.348 409.73,305.835 411,296.477L422.622,224.589L424.289,224.699L418.586,320.224C418.248,325.895 415.058,333.496 412.693,338.998C422.8,336.336 428.536,333.095 430.087,322.32L445.469,232.839L447.411,232.976L440.154,329.283C439.7,335.317 437.64,343.061 435.547,348.841C443.535,347.488 450.986,337.975 452.162,330.077L468.643,236.657L470.764,236.941L467.833,294.474C467.406,302.856 464.725,309.776 460.844,317.176C472.533,316.062 477.242,303.934 479.299,294.147L489.119,247.425C487.338,242.668 486.617,237.883 486.406,233.434C457.586,230.011 429.45,221.275 401.456,209.598ZM498.488,275.881C493.148,275.001 490.579,279.752 489.365,285.037C488.395,289.263 488.035,293.567 487.416,297.842C485.946,307.989 481.563,316.455 475.627,324.599C473.972,326.87 472.022,329.069 469.758,330.038C473.459,331.88 477.957,331.911 484.782,327.606C486.351,326.616 487.157,326.033 487.127,328.56C487.049,335.007 491.801,336.451 495.195,338.41C494.55,334.971 495.973,330.861 498.019,327.969C499.101,326.439 501.082,323.162 503.34,319.752C505.091,317.106 509.845,311.038 509.473,307.708C506.44,296.491 503.627,287.096 498.488,275.881Z" style="fill:white;"/>
                                </g>
                                <path id="_65808880" d="M80.692,430.136L80.692,90.929L370.678,90.929L370.678,430.136L80.692,430.136ZM663.307,479.562C663.307,639.559 533.101,770.113 373.206,770.769L373.206,432.664L663.307,432.664L663.307,479.562Z" style="fill:rgb(0,147,221);"/>
                                <g id="g19">
                                    <path id="_65808808" d="M509.285,452.419L518.336,476.182L543.412,472.144C545.358,471.83 545.802,472.527 544.552,474.063L528.499,493.783L544.533,513.48C545.777,515.008 545.396,515.742 543.442,515.427L518.336,511.385L509.295,535.12C508.594,536.961 507.768,536.998 507.063,535.147L498.012,511.385L472.936,515.422C470.99,515.736 470.546,515.039 471.796,513.503L487.849,493.783L471.815,474.086C470.571,472.558 470.952,471.824 472.906,472.139L498.012,476.182L507.053,452.446C507.754,450.605 508.58,450.568 509.285,452.419Z" style="fill:rgb(10,11,12);"/>
                                    <path id="_65808736" d="M508.174,455.28L517.011,478.479L541.519,474.53L525.846,493.784L541.519,513.037L517.011,509.089L508.174,532.288L499.336,509.089L474.828,513.037L490.498,493.784L474.828,474.53L499.336,478.479L508.174,455.28Z" style="fill:rgb(250,207,0);"/>
                                </g>
                                <g id="g23">
                                    <path id="_65808640" d="M428.229,452.419L437.28,476.182L462.356,472.144C464.302,471.83 464.747,472.527 463.496,474.063L447.443,493.783L463.478,513.48C464.722,515.008 464.34,515.742 462.386,515.427L437.28,511.385L428.24,535.12C427.538,536.961 426.712,536.998 426.007,535.147L416.956,511.385L391.88,515.422C389.935,515.736 389.49,515.039 390.74,513.503L406.793,493.783L390.759,474.086C389.515,472.558 389.896,471.824 391.851,472.139L416.956,476.182L425.997,452.446C426.698,450.605 427.524,450.568 428.229,452.419Z" style="fill:rgb(10,11,12);"/>
                                    <path id="_65808568" d="M427.118,455.28L435.955,478.479L460.463,474.53L444.793,493.784L460.463,513.037L435.955,509.089L427.118,532.288L418.28,509.089L393.772,513.037L409.445,493.784L393.772,474.53L418.28,478.479L427.118,455.28Z" style="fill:rgb(250,207,0);"/>
                                </g>
                                <g id="g27">
                                    <path id="_65808472" d="M590.396,452.419L599.447,476.182L624.524,472.144C626.469,471.83 626.914,472.527 625.663,474.063L609.61,493.783L625.645,513.48C626.889,515.008 626.507,515.742 624.553,515.427L599.447,511.385L590.407,535.12C589.705,536.961 588.879,536.998 588.175,535.147L579.123,511.385L554.047,515.422C552.102,515.736 551.657,515.039 552.907,513.503L568.961,493.783L552.926,474.086C551.682,472.558 552.063,471.824 554.018,472.139L579.123,476.182L588.164,452.446C588.865,450.605 589.692,450.568 590.396,452.419Z" style="fill:rgb(10,11,12);"/>
                                    <path id="_65808400" d="M589.285,455.28L598.119,478.479L622.63,474.53L606.957,493.784L622.63,513.037L598.119,509.089L589.285,532.288L580.447,509.089L555.939,513.037L571.61,493.784L555.939,474.53L580.447,478.479L589.285,455.28Z" style="fill:rgb(250,207,0);"/>
                                </g>
                                <g id="g31">
                                    <path id="_65808304" d="M509.285,544.834L518.336,568.596L543.412,564.559C545.358,564.245 545.802,564.942 544.552,566.478L528.499,586.198L544.533,605.895C545.777,607.423 545.396,608.157 543.442,607.842L518.336,603.799L509.295,627.535C508.594,629.376 507.768,629.413 507.063,627.562L498.012,603.799L472.936,607.837C470.99,608.151 470.546,607.454 471.796,605.918L487.849,586.198L471.815,566.501C470.571,564.973 470.952,564.239 472.906,564.554L498.012,568.596L507.053,544.861C507.754,543.02 508.58,542.983 509.285,544.834Z" style="fill:rgb(10,11,12);"/>
                                    <path id="_65808232" d="M508.174,547.692L517.011,570.891L541.519,566.945L525.846,586.199L541.519,605.449L517.011,601.504L508.174,624.703L499.336,601.504L474.828,605.449L490.498,586.199L474.828,566.945L499.336,570.891L508.174,547.692Z" style="fill:rgb(250,207,0);"/>
                                </g>
                                <g id="g35">
                                    <path id="_65808136" d="M428.229,544.834L437.28,568.596L462.356,564.559C464.302,564.245 464.747,564.942 463.496,566.478L447.443,586.198L463.478,605.895C464.722,607.423 464.34,608.157 462.386,607.842L437.28,603.799L428.24,627.535C427.538,629.376 426.712,629.413 426.007,627.562L416.956,603.799L391.88,607.837C389.935,608.151 389.49,607.454 390.74,605.918L406.793,586.198L390.759,566.501C389.515,564.973 389.896,564.239 391.851,564.554L416.956,568.596L425.997,544.861C426.698,543.02 427.524,542.983 428.229,544.834Z" style="fill:rgb(10,11,12);"/>
                                    <path id="_65808064" d="M427.118,547.692L435.955,570.891L460.463,566.945L444.793,586.199L460.463,605.449L435.955,601.504L427.118,624.703L418.28,601.504L393.772,605.449L409.445,586.199L393.772,566.945L418.28,570.891L427.118,547.692Z" style="fill:rgb(250,207,0);"/>
                                </g>
                                <g id="g39">
                                    <path id="_65762120" d="M590.396,544.834L599.447,568.596L624.524,564.559C626.469,564.245 626.914,564.942 625.663,566.478L609.61,586.198L625.645,605.895C626.889,607.423 626.507,608.157 624.553,607.842L599.447,603.799L590.407,627.535C589.705,629.376 588.879,629.413 588.175,627.562L579.123,603.799L554.047,607.837C552.102,608.151 551.657,607.454 552.907,605.918L568.961,586.198L552.926,566.501C551.682,564.973 552.063,564.239 554.018,564.554L579.123,568.596L588.164,544.861C588.865,543.02 589.692,542.983 590.396,544.834Z" style="fill:rgb(10,11,12);"/>
                                    <path id="_65762048" d="M589.285,547.692L598.119,570.891L622.63,566.945L606.957,586.199L622.63,605.449L598.119,601.504L589.285,624.703L580.447,601.504L555.939,605.449L571.61,586.199L555.939,566.945L580.447,570.891L589.285,547.692Z" style="fill:rgb(250,207,0);"/>
                                </g>
                                <g id="g43">
                                    <path id="_65761952" d="M509.285,637.249L518.336,661.011L543.412,656.973C545.358,656.66 545.802,657.357 544.552,658.893L528.499,678.613L544.533,698.31C545.777,699.838 545.396,700.572 543.442,700.257L518.336,696.214L509.295,719.95C508.594,721.791 507.768,721.828 507.063,719.977L498.012,696.214L472.936,700.252C470.99,700.566 470.546,699.869 471.796,698.333L487.849,678.613L471.815,658.916C470.571,657.387 470.952,656.654 472.906,656.969L498.012,661.011L507.053,637.276C507.754,635.435 508.58,635.398 509.285,637.249Z" style="fill:rgb(10,11,12);"/>
                                    <path id="_65761880" d="M508.174,640.107L517.011,663.306L541.519,659.36L525.846,678.611L541.519,697.864L517.011,693.919L508.174,717.118L499.336,693.919L474.828,697.864L490.498,678.611L474.828,659.36L499.336,663.306L508.174,640.107Z" style="fill:rgb(250,207,0);"/>
                                </g>
                                <g id="g47">
                                    <path id="_65761784" d="M428.229,637.249L437.28,661.011L462.356,656.973C464.302,656.66 464.747,657.357 463.496,658.893L447.443,678.613L463.478,698.31C464.722,699.838 464.34,700.572 462.386,700.257L437.28,696.214L428.24,719.95C427.538,721.791 426.712,721.828 426.007,719.977L416.956,696.214L391.88,700.252C389.935,700.566 389.49,699.869 390.74,698.333L406.793,678.613L390.759,658.916C389.515,657.387 389.896,656.654 391.851,656.969L416.956,661.011L425.997,637.276C426.698,635.435 427.524,635.398 428.229,637.249Z" style="fill:rgb(10,11,12);"/>
                                    <path id="_65761712" d="M427.118,640.107L435.955,663.306L460.463,659.36L444.793,678.611L460.463,697.864L435.955,693.919L427.118,717.118L418.28,693.919L393.772,697.864L409.445,678.611L393.772,659.36L418.28,663.306L427.118,640.107Z" style="fill:rgb(250,207,0);"/>
                                </g>
                                <g id="g51">
                                    <path id="_65761616" d="M203.341,165.238L185.356,165.243C176.576,165.156 154.607,164.359 149.048,154.45L144.713,154.45L144.713,212.984L149.048,212.984C154.607,203.074 176.576,202.278 185.356,202.191L203.334,202.196L203.327,243.014L154.276,243.028C145.496,242.941 123.526,242.145 117.968,232.235L113.633,232.235L113.633,290.769L117.968,290.769C123.526,280.859 145.496,280.063 154.276,279.976L203.327,279.99L203.343,370.122C203.256,378.903 202.46,400.872 192.55,406.43L192.55,410.766L251.084,410.766L251.084,406.43C241.175,400.872 240.378,378.903 240.291,370.122L240.306,279.99L289.087,279.976C297.867,280.063 319.836,280.859 325.394,290.769L329.73,290.769L329.73,232.235L325.394,232.235C319.836,242.145 297.867,242.941 289.087,243.028L240.305,243.014L240.299,202.196L258.161,202.191C266.941,202.278 288.91,203.074 294.468,212.984L298.804,212.984L298.804,154.45L294.468,154.45C288.91,164.359 266.941,165.156 258.161,165.243L240.293,165.238L240.291,151.736C240.378,142.956 241.175,120.987 251.084,115.428L251.084,111.093L192.55,111.093L192.55,115.428C202.46,120.987 203.256,142.956 203.343,151.736L203.341,165.238Z" style="fill:rgb(10,11,12);"/>
                                    <path id="_65761544" d="M238.117,277.802L238.117,369.767C238.058,377.763 239.147,401.14 248.913,407.766L248.91,408.695L194.724,408.695L194.72,407.766C204.486,401.14 205.575,377.763 205.516,369.767L205.516,277.802L154.631,277.802C146.635,277.744 123.258,278.832 116.632,288.598L115.703,288.595L115.703,234.409L116.632,234.406C123.258,244.172 146.635,245.26 154.631,245.202L205.348,245.202L205.43,200.017L185.712,200.017C177.716,199.959 154.338,201.047 147.712,210.813L146.783,210.81L146.783,156.624L147.712,156.621C154.338,166.387 177.716,167.476 185.712,167.417L205.489,167.417L205.516,152.092C205.575,144.096 204.486,120.719 194.72,114.092L194.724,113.164L248.91,113.164L248.913,114.092C239.147,120.719 238.058,144.096 238.117,152.092L238.117,167.417L257.805,167.417C265.801,167.476 289.178,166.387 295.804,156.621L296.733,156.624L296.733,210.81L295.804,210.813C289.178,201.047 265.801,199.959 257.805,200.017L238.117,200.017L238.117,245.202L288.731,245.202C296.727,245.26 320.104,244.172 326.73,234.406L327.659,234.409L327.659,288.595L326.73,288.598C320.104,278.832 296.727,277.744 288.731,277.802L238.117,277.802Z" style="fill:rgb(250,207,0);"/>
                                </g>
                                <path id="_65761376" d="M370.677,770.765C318.494,770.529 269.444,756.384 227.053,731.872L370.677,731.872L370.677,770.765ZM167.63,686.521C154.987,674.039 143.466,660.422 133.251,645.832L370.677,645.832L370.677,686.521L167.63,686.521ZM107.26,600.613C101.267,587.616 96.193,574.116 92.149,560.188L370.677,560.188L370.677,600.613L107.26,600.613ZM82.819,514.574C81.426,503.088 80.691,491.407 80.691,479.561L80.691,474.808L370.677,474.808L370.677,514.574L82.819,514.574Z" style="fill:white;"/>
                            </g>
                        </g>
                    </g>
                </g>
            </g>
        </g>
    </g>
</svg>
