<?xml version="1.0" encoding="UTF-8" standalone="no"?>
<!DOCTYPE svg PUBLIC "-//W3C//DTD SVG 1.1//EN" "http://www.w3.org/Graphics/SVG/1.1/DTD/svg11.dtd">
<svg width="100%" height="100%" viewBox="0 0 151 151" version="1.1" xmlns="http://www.w3.org/2000/svg" xmlns:xlink="http://www.w3.org/1999/xlink" xml:space="preserve" xmlns:serif="http://www.serif.com/" style="fill-rule:evenodd;clip-rule:evenodd;">
    <g transform="matrix(1,0,0,1,-4030,-1509)">
        <g id="wielkopolskie" transform="matrix(0.138889,0,0,0.138889,4030.8,1509.99)">
            <rect x="0" y="0" width="1080" height="1080" style="fill:none;"/>
            <clipPath id="_clip1">
                <rect x="0" y="0" width="1080" height="1080"/>
            </clipPath>
            <g clip-path="url(#_clip1)">
                <g id="wielkopolskie.svg" transform="matrix(1.54286,0,0,1.54286,540,540)">
                    <g transform="matrix(1,0,0,1,-300,-350)">
                        <clipPath id="_clip2">
                            <rect x="0" y="0" width="600" height="700"/>
                        </clipPath>
                        <g clip-path="url(#_clip2)">
                            <g id="g2466" transform="matrix(0.813699,0,0,0.927703,-336.367,-12.0065)">
                                <g id="g2920" transform="matrix(1,0,0,1,407.19,4.14472)">
                                    <path id="path1312" d="M11.823,8.797C12.315,8.797 12.808,8.797 11.823,8.797Z" style="fill:none;stroke:black;stroke-width:1px;"/>
                                    <path id="path1314" d="M9.898,9.351L739.789,9.787C740.658,363.232 738.262,544.263 368.154,757.08C9.885,541.272 10.453,391.399 9.898,9.351Z" style="fill:rgb(227,0,27);stroke:black;stroke-width:10.69px;"/>
                                    <path id="path2189" d="M292.773,84.734C292.281,84.734 291.788,84.734 292.773,84.734Z" style="fill:none;stroke:black;stroke-width:1px;"/>
                                    <g id="g2795" transform="matrix(1,0,0,1,750.107,0)">
                                        <g id="a2345">
                                            <path id="path2339" d="M-457.895,94.678C-469.121,84.046 -470.06,62.636 -461.18,50.11C-452.533,37.366 -440.434,34.981 -425.762,40.313C-417.952,46.229 -410.766,50.434 -404.426,60.547C-400.416,57.365 -396.923,57.427 -391.852,62.92C-341.488,52.198 -316.53,95.571 -319.51,124.712C-321.842,145.501 -327.088,167.261 -318.003,184.243C-309.765,199.315 -305.147,214.386 -302.932,229.457C-265.111,224.97 -231.245,212.572 -203.462,188.011C-192.899,183.743 -196.697,177.679 -201.954,171.433C-226.411,155.258 -228.542,93.727 -170.305,84.773C-124.893,79.48 -89.056,104.928 -81.385,169.926C-79.958,208.106 -87.406,247.04 -101.731,284.467C-108.118,349.198 -127.263,388.42 -147.698,431.412C-153.813,439.086 -158.138,447.357 -158.248,457.033C-166.788,463.061 -172.314,463.061 -174.826,457.033L-183.869,441.961C-196.919,451.634 -207.343,432.412 -218.533,421.615C-234.405,436.996 -244.766,416.551 -256.964,408.051L-272.036,410.312L-253.197,434.426L-267.514,441.208C-269.66,448.492 -263.232,455.777 -255.457,463.061C-248.187,470.515 -242.661,467.498 -237.372,463.061C-229.601,455.001 -220.404,448.937 -202.708,454.772C-181.283,455.74 -183.156,468.356 -180.855,478.886L-246.415,478.886L-185.376,479.64C-177.534,495.045 -181.667,507.186 -195.926,516.564L-204.969,501.493L-219.286,500.739L-212.504,512.796C-206.327,539.796 -222.7,546.834 -232.85,550.474C-226.367,537.788 -228.535,530.508 -238.125,527.867C-257.604,521.981 -256.578,516.562 -258.472,506.768C-264.825,500.133 -266.575,484.292 -284.093,499.986C-293.613,504.611 -303.605,512.064 -311.221,505.261C-314.539,509.756 -320.661,512.849 -316.496,521.085C-331.212,519.639 -345.318,488.333 -317.249,484.161C-308.323,475.405 -296.314,478.984 -285.6,477.379L-285.6,469.09C-288.142,464.769 -289.359,461.277 -307.453,447.236L-314.989,464.568C-330.57,457.04 -334.607,437.968 -340.61,420.862C-348.586,429.521 -357.022,438.128 -347.392,448.744C-332.192,464.31 -333.706,478.893 -352.667,492.45C-359.814,565.443 -305.426,587.142 -267.514,554.996C-259.007,591.787 -269.03,614.881 -306.699,617.541C-305.746,629.111 -308.076,639.039 -311.101,648.62C-323.675,650.716 -335.321,649.104 -345.885,643.162C-356.074,664.317 -369.353,677.521 -382.809,689.883C-394.615,679.467 -406.421,663.624 -418.227,643.162C-437.265,648.975 -436.658,649.787 -450.899,649.671C-453.664,638.694 -454.883,637.328 -455.151,616.788C-500.82,617.325 -508.089,584.628 -498.104,558.764C-449.647,583.275 -413.217,571.827 -410.691,490.943C-425.745,482.085 -432.224,460.876 -415.212,452.511C-414.397,444.762 -411.803,432.739 -420.487,426.89C-430.17,436.018 -436.173,447.906 -437.819,463.061C-446.101,464.052 -450.827,457.929 -455.151,451.004C-468.029,456.318 -478.35,463.336 -479.265,476.625C-470.333,480.002 -448.923,474.667 -444.601,483.407C-420.358,487.421 -422.281,507.748 -440.833,520.332C-439.248,514.162 -438.705,513.929 -448.369,510.536C-466.798,518.097 -470.509,497.329 -480.772,496.218C-488.274,492.877 -491.463,496.007 -495.09,498.479C-517.82,503.827 -498.939,524.281 -525.986,531.635L-524.479,547.46C-542.481,545.775 -555.768,535.596 -543.318,512.796L-541.811,505.261C-558.259,497.167 -560.991,509.646 -565.925,518.825C-580.817,509.639 -588.663,496.094 -574.967,484.161C-583.703,458.919 -565.524,454.027 -549.346,454.772C-537.887,453.645 -527.912,463.731 -518.45,465.322C-503.459,471.295 -495.263,458.091 -491.322,440.454C-495.836,441.596 -500.229,442.918 -508.654,438.194C-502.335,429.653 -495.307,421.113 -492.829,412.573C-507.422,419.564 -505.942,412.492 -504.886,405.791C-517.903,418.689 -535.521,438.128 -541.811,419.355C-548.341,435.092 -567.683,454.593 -576.474,439.701C-579.713,455.843 -588.056,465.255 -596.821,467.583C-608.919,437.556 -656.11,363.963 -658.613,290.496C-681.433,230.206 -702.183,92.342 -598.328,85.527C-546.41,80.672 -515.948,138.846 -562.157,176.708C-563.205,180.978 -564.417,185.248 -557.635,189.518C-536.91,204.869 -495.169,232.571 -450.63,228.704C-446.14,212.851 -439.318,201.746 -425.732,191.809C-422.267,182.681 -415.504,171.378 -406.923,167.665C-399.783,162.857 -398.785,159.342 -403.909,157.115C-425.555,144.29 -428.779,110.274 -445.355,91.555C-450.127,84.064 -455.841,84.619 -457.895,94.678Z"/>
                                        </g>
                                        <g id="g2655">
                                            <g id="g2535">
                                                <path id="path2348" d="M-459.381,81.427C-465.255,64.538 -456.377,40.664 -436.327,43.062C-424.124,47.162 -407.316,59.893 -405.916,66.544C-402.257,59.123 -397.018,63.14 -397.805,68.584C-401.012,82.937 -404.501,99.987 -399.87,112.037C-398.114,124.07 -379.186,128.041 -389.591,146.565C-400.749,150.24 -408.9,145.324 -414.459,133.001C-424.753,114.648 -435.01,96.142 -446.862,84.02C-448.637,79.307 -443.867,76.441 -440.833,77.991C-427.759,93.271 -413.844,107.816 -406.923,128.48C-404.774,141.366 -392.135,142.136 -392.386,130.623C-410.757,114.649 -403.878,106.425 -410.857,97.568C-416.814,90.008 -424.302,89.637 -432.884,76.325C-441.614,60.89 -457.647,71.006 -459.381,81.427Z" style="fill:rgb(255,238,0);stroke:rgb(255,255,0);stroke-width:1px;"/>
                                                <path id="path2430" d="M-327.29,110.769C-334.235,90.237 -346.448,62.81 -386.783,67.419C-395.127,68.049 -396.25,75.344 -390.977,81.546C-370.895,84.494 -356.747,96.243 -358.428,115.813C-363.647,119.431 -373.329,120.553 -383.603,114.475C-391.304,109.61 -391.065,97.821 -389.017,89.288C-390.367,86.878 -392.977,84.691 -395.139,86.349C-402.764,113.452 -389.719,116.653 -384.979,129.089C-380.736,140.218 -380.855,149.297 -397.608,152.27C-398.35,159.176 -393.878,162.286 -398.925,165.865C-412.897,175.775 -415.17,182.601 -419.594,187.878C-399.6,190.175 -388.381,179.805 -378.298,176.294C-376.298,182.27 -376.837,186.916 -371.428,191.241C-360.457,187.829 -359.674,183.186 -353.385,176.987C-349.139,184.978 -348.548,193.917 -323.629,187.828C-338.797,156.185 -320.351,131.025 -327.29,110.769Z" style="fill:white;"/>
                                                <path id="path2464" d="M-442.103,224.635C-417.227,228.148 -412.133,210.448 -410.82,196.957C-410.732,196.058 -422.245,209.787 -422.187,208.933C-423.148,208.628 -414.358,193.723 -415.547,193.834C-425.942,194.807 -441.921,210.898 -442.103,224.635Z" style="fill:white;"/>
                                                <path id="path2466" d="M-313.31,224.712C-340.336,222.18 -337.721,213.155 -331.583,193.539C-331.404,192.966 -324.995,212.323 -324.811,211.732C-324.24,211.753 -325.709,195.117 -326.735,191.683C-317.327,194.196 -309.637,213.892 -313.31,224.712Z" style="fill:white;"/>
                                                <g id="g2443">
                                                    <g id="g2373">
                                                        <path id="path2190" d="M-591.818,116.194C-599.482,113.704 -603.112,119.211 -604.388,125.068C-607.822,122.621 -618.003,120.946 -621.175,129.43C-624.396,138.043 -614.936,144.293 -608.086,143.102C-614.351,155.379 -618.663,169.793 -618.313,183.294C-613.077,246.117 -516.257,263.297 -456.14,269.059L-456.677,257.059C-533.539,255.592 -605.021,221.484 -607.183,183.613C-607.87,172.219 -605.187,156.787 -599.4,146.044C-596.304,149.891 -585.1,152.213 -581.345,144.528C-577.313,136.278 -584.178,130.401 -588.923,130.568C-585.811,127.493 -584.202,118.923 -591.818,116.194Z" style="fill:rgb(255,255,0);fill-rule:nonzero;"/>
                                                        <path id="path2444" d="M-455.134,234.889C-450.772,241.975 -455.676,249 -457.243,253.121C-509.912,253.602 -563.877,232.64 -580.389,217.158C-604.483,197.881 -607.222,182.562 -599.383,161.578C-597.135,153.775 -592.63,152.769 -587.343,153.898C-576.695,155.295 -570.469,140.301 -580.493,128.989C-575.787,110.843 -598.488,103.571 -606.337,118.143C-629.324,115.592 -631.434,138.73 -616.716,146.166C-614.074,151.229 -617.304,155.106 -618.32,158.234C-632.997,203.42 -606.799,214.164 -607.063,228.834C-606.268,258.222 -611.521,261.871 -621.697,265.056C-632.527,259.408 -631.249,250.809 -636.436,234.594C-637.833,263.187 -638.118,280.397 -651.693,283.116C-663.951,248.914 -685.317,176.229 -649.513,121.256C-624.996,85.601 -565.844,85.749 -555.013,113.005C-542.904,140.997 -555.666,159.432 -566.585,170.297C-570.682,176.703 -573.059,184.252 -563.783,192.144C-535.669,221.669 -476.061,236.427 -455.134,234.889Z" style="fill:white;"/>
                                                        <g id="g2302">
                                                            <path id="path1379" d="M-601.189,229.349C-605.306,237.532 -603.611,267.296 -588.085,274.8C-574.841,269.039 -576.477,257.254 -577.345,246.431C-585.293,242.002 -593.241,236.706 -601.189,229.349Z" style="fill:white;"/>
                                                            <path id="path2254" d="M-572.435,248.765C-572.226,260.783 -573.664,276.46 -561.576,281.395C-549.182,276.89 -549.944,264.361 -549.587,257.272C-557.341,255.106 -565.494,251.745 -572.435,248.765Z" style="fill:rgb(247,247,255);"/>
                                                            <path id="path2256" d="M-544.093,259.47C-544.44,269.613 -543.255,282.75 -533.853,289.237C-527.466,286.52 -523.083,278.672 -521.734,265.458C-529.111,263.75 -536.298,261.596 -544.093,259.47Z" style="fill:rgb(247,247,255);"/>
                                                            <path id="path2260" d="M-518.288,265.923C-519.055,276.506 -517.306,289.33 -508.971,292.229C-502.162,291.726 -499.741,282.449 -499.208,269.395C-504.783,269.048 -513.133,267.109 -518.288,265.923Z" style="fill:rgb(247,247,255);"/>
                                                            <path id="path2262" d="M-493.164,270.688C-493.932,281.271 -493.097,292.183 -484.762,295.082C-477.953,294.579 -476.031,285.717 -475.497,272.663C-481.072,272.317 -488.009,271.873 -493.164,270.688Z" style="fill:rgb(247,247,255);"/>
                                                            <path id="path2264" d="M-471.303,273.265C-472.07,283.848 -471.983,292.848 -463.649,295.747C-456.84,295.244 -455.915,286.715 -455.381,273.661C-462.536,273.896 -466.148,273.37 -471.303,273.265Z" style="fill:rgb(247,247,255);"/>
                                                            <g id="g2435" transform="matrix(1,0,0,1,-750.085,3.32121)">
                                                                <path id="path2243" d="M127.622,184.883C125.74,204.245 126.234,230.312 129.832,244.76C132.861,241.798 132.71,211.266 133.69,202.978C129.895,196.434 129.349,193.083 127.622,184.883Z"/>
                                                                <path id="path2245" d="M158.173,233.662C158.383,239.375 158.065,252.192 162.211,257.118C164.683,253.641 164.891,244.28 165.285,238.724L158.173,233.662Z"/>
                                                                <path id="path2247" d="M186.817,249.168C187.432,254.701 186.062,262.605 188.947,267.665C191.004,264.419 192.57,256.755 192.739,251.515L186.817,249.168Z"/>
                                                                <path id="path2249" d="M214.746,258.647C215.36,264.18 215.303,269.343 217.014,274.876C220.436,271.495 220.021,264.452 221.209,260.326L214.746,258.647Z"/>
                                                                <path id="path2251" d="M263.495,268.478C263.445,272.681 264.105,277.592 265.628,283.024C267.834,280.263 268.54,273.389 268.903,268.87L263.495,268.478Z"/>
                                                                <path id="path2253" d="M283.933,270.147C284.547,275.68 284.456,278.021 287.007,283.8C289.955,281.323 288.98,274.421 289.828,270.377L283.933,270.147Z"/>
                                                                <path id="path2255" d="M239.742,264.02C239.691,268.971 237.742,275.221 241.414,280.754C243.296,277.77 244.836,269.157 245.065,265.346L239.742,264.02Z"/>
                                                            </g>
                                                            <path id="path2258" d="M-515.9,267.347C-515.953,267.347 -516.005,267.347 -515.9,267.347Z" style="fill:none;stroke:black;stroke-width:1px;"/>
                                                        </g>
                                                    </g>
                                                    <g id="g2401">
                                                        <path id="path2393" d="M-606.533,260.677C-601.61,326.044 -567.92,427.889 -588.05,449.398C-590.482,457.24 -592.914,454.579 -595.346,453.776C-608.767,423.29 -642.205,367.971 -651.282,288.888C-642.436,288.515 -636.457,278.721 -633.771,269.919C-624.058,315.691 -617.263,363.652 -602.642,400.272C-614.636,357.952 -621.518,310.52 -629.88,266.514C-621.332,271.437 -612.352,267.273 -606.533,260.677Z" style="fill:white;"/>
                                                        <path id="path2395" d="M-577.836,273.81C-581.088,276.79 -584.826,278.508 -587.592,280.866C-591.312,280.304 -594.059,278.452 -597.292,276.242C-590.83,329.289 -570.561,390.551 -572.486,432.375C-566.188,445.104 -544.417,420.429 -544.761,401.245L-550.112,281.106C-554.136,282.962 -558.12,283.64 -561.784,286.611C-567.869,283.745 -568.772,283.181 -571.513,278.674L-561.785,390.058L-577.836,273.81Z" style="fill:white;"/>
                                                        <path id="path2397" d="M-543.288,288.871L-533.285,295.39L-523.465,288.746L-520.714,376.793L-518.65,292.185L-509.676,298.251L-501.454,294.249C-501.576,323.514 -501.102,352.629 -502.829,382.296C-505.824,398.745 -516.742,410.339 -531.032,417.377C-543.618,416.481 -536.941,329.445 -543.288,288.871Z" style="fill:white;"/>
                                                        <path id="path2399" d="M-493.184,296.013C-487.217,301.778 -482.927,302.473 -478.441,297.126L-479.554,364.441L-472.322,297.126C-467.754,298.755 -463.101,302.566 -459.248,299.907L-460.639,348.864C-461.074,368.582 -472.093,400.343 -491.793,402.549C-503.772,397.315 -487.713,397.728 -493.184,296.013Z" style="fill:white;"/>
                                                    </g>
                                                </g>
                                                <g id="g2417">
                                                    <g id="g2353">
                                                        <path id="path2426" d="M-168.816,116.194C-161.151,113.704 -157.522,119.211 -156.246,125.068C-152.812,122.621 -142.63,120.946 -139.458,129.43C-136.238,138.043 -145.698,144.293 -152.548,143.102C-146.283,155.379 -141.97,169.793 -142.32,183.294C-147.556,246.117 -244.377,263.297 -304.494,269.059L-303.957,257.059C-227.095,255.592 -155.613,221.484 -153.451,183.613C-152.764,172.219 -155.446,156.787 -161.234,146.044C-164.33,149.891 -175.534,152.213 -179.289,144.528C-183.32,136.278 -176.456,130.401 -171.71,130.568C-174.823,127.493 -176.432,118.923 -168.816,116.194Z" style="fill:rgb(255,255,0);fill-rule:nonzero;"/>
                                                        <path id="path2446" d="M-302.187,234.664C-306.549,241.749 -302.76,247.288 -301.192,251.408C-248.524,251.889 -194.559,230.927 -178.047,215.445C-156.236,196.74 -152.356,181.991 -160.195,161.008C-162.442,153.204 -165.806,151.056 -171.093,152.186C-181.741,153.583 -187.967,138.589 -177.943,127.276C-182.649,109.131 -159.948,101.859 -152.099,116.43C-129.112,113.88 -127.002,137.017 -141.72,144.453C-144.362,149.517 -141.132,153.394 -140.116,156.521C-125.439,201.707 -152.208,213.022 -152.514,224.267C-154.451,246.234 -149.769,260.729 -136.738,263.344C-125.909,257.695 -126.045,243.959 -122,232.882C-123.457,260.904 -120.318,278.113 -106.743,280.832C-94.485,246.631 -73.119,174.516 -108.923,119.544C-131.728,79.322 -193.733,85.178 -204.565,112.434C-216.673,140.426 -205.624,157.72 -191.85,170.297C-187.754,176.703 -186.518,181.398 -195.794,189.29C-223.909,218.815 -281.26,236.201 -302.187,234.664Z" style="fill:white;stroke:black;stroke-width:1px;"/>
                                                        <g id="g2319" transform="matrix(-1,0,0,1,-759.467,0)">
                                                            <path id="path2321" d="M-601.189,229.349C-605.306,237.532 -603.611,267.296 -588.085,274.8C-574.841,269.039 -576.477,257.254 -577.345,246.431C-585.293,242.002 -593.241,236.706 -601.189,229.349Z" style="fill:white;"/>
                                                            <path id="path2323" d="M-572.435,248.765C-572.226,260.783 -573.664,276.46 -561.576,281.395C-549.182,276.89 -549.944,264.361 -549.587,257.272C-557.341,255.106 -565.494,251.745 -572.435,248.765Z" style="fill:rgb(247,247,255);"/>
                                                            <path id="path2325" d="M-544.093,259.47C-544.44,269.613 -543.255,282.75 -533.853,289.237C-527.466,286.52 -523.083,278.672 -521.734,265.458C-529.111,263.75 -536.298,261.596 -544.093,259.47Z" style="fill:rgb(247,247,255);"/>
                                                            <path id="path2327" d="M-518.288,265.923C-519.055,276.506 -517.306,289.33 -508.971,292.229C-502.162,291.726 -499.741,282.449 -499.208,269.395C-504.783,269.048 -513.133,267.109 -518.288,265.923Z" style="fill:rgb(247,247,255);"/>
                                                            <path id="path2329" d="M-493.164,270.688C-493.932,281.271 -493.097,292.183 -484.762,295.082C-477.953,294.579 -476.031,285.717 -475.497,272.663C-481.072,272.317 -488.009,271.873 -493.164,270.688Z" style="fill:rgb(247,247,255);"/>
                                                            <path id="path2331" d="M-471.303,273.265C-472.07,283.848 -471.983,292.848 -463.649,295.747C-456.84,295.244 -455.915,286.715 -455.381,273.661C-462.536,273.896 -466.148,273.37 -471.303,273.265Z" style="fill:rgb(247,247,255);"/>
                                                            <g id="g2333" transform="matrix(1,0,0,1,-750.085,3.32121)">
                                                                <path id="path2335" d="M129.304,188.079C126.02,204.245 127.075,229.82 130.112,241.318C133.141,238.357 134.112,215.937 135.092,207.649C131.297,201.105 131.031,196.279 129.304,188.079Z"/>
                                                                <path id="path2337" d="M159.014,234.646C159.223,240.358 157.785,252.684 161.93,257.609C164.403,254.132 164.891,244.28 165.285,238.724L159.014,234.646Z"/>
                                                                <path id="path2340" d="M186.817,249.168C187.432,254.701 186.903,263.342 189.788,268.403C191.845,265.156 192.57,256.755 192.739,251.515L186.817,249.168Z"/>
                                                                <path id="path2342" d="M214.746,258.647C215.36,264.18 213.902,270.573 217.574,276.106C220.996,272.724 220.021,264.452 221.209,260.326L214.746,258.647Z"/>
                                                                <path id="path2344" d="M263.495,268.478C263.445,272.681 262.984,278.329 265.908,282.532C268.115,279.771 268.54,273.389 268.903,268.87L263.495,268.478Z"/>
                                                                <path id="path2346" d="M285.615,269.901C286.229,275.434 283.054,279.005 286.727,284.537C289.675,282.061 288.98,274.421 289.828,270.377L285.615,269.901Z"/>
                                                                <path id="path2349" d="M239.742,264.02C239.691,268.971 238.302,275.467 241.975,281C243.857,278.016 244.836,269.157 245.065,265.346L239.742,264.02Z"/>
                                                            </g>
                                                            <path id="path2351" d="M-515.9,267.347C-515.953,267.347 -516.005,267.347 -515.9,267.347Z" style="fill:none;stroke:black;stroke-width:1px;"/>
                                                        </g>
                                                    </g>
                                                    <g id="g2407" transform="matrix(-1,0,0,1,-760.319,0.443586)">
                                                        <path id="path2409" d="M-606.533,260.677C-601.61,326.044 -567.92,427.889 -588.05,449.398C-590.482,457.24 -592.914,454.579 -595.346,453.776C-608.767,423.29 -642.205,367.971 -651.282,288.888C-642.436,288.515 -636.457,278.721 -633.771,269.919C-624.058,315.691 -617.263,363.652 -602.642,400.272C-614.636,357.952 -621.518,310.52 -629.88,266.514C-621.332,271.437 -612.352,267.273 -606.533,260.677Z" style="fill:white;"/>
                                                        <path id="path2411" d="M-577.836,273.81C-581.088,276.79 -584.826,278.508 -587.592,280.866C-591.312,280.304 -594.059,278.452 -597.292,276.242C-590.83,329.289 -570.561,390.551 -572.486,432.375C-566.188,445.104 -544.417,420.429 -544.761,401.245L-550.112,281.106C-554.136,282.962 -558.12,283.64 -561.784,286.611C-567.869,283.745 -568.772,283.181 -571.513,278.674L-561.785,390.058L-577.836,273.81Z" style="fill:white;"/>
                                                        <path id="path2413" d="M-543.288,288.871L-533.285,295.39L-523.465,288.746L-520.714,376.793L-518.65,292.185L-509.676,298.251L-501.454,294.249C-501.576,323.514 -501.102,352.629 -502.829,382.296C-505.824,398.745 -516.742,410.339 -531.032,417.377C-543.618,416.481 -536.941,329.445 -543.288,288.871Z" style="fill:white;"/>
                                                        <path id="path2415" d="M-493.184,296.013C-487.217,301.778 -482.927,302.473 -478.441,297.126L-479.554,364.441L-472.322,297.126C-467.754,298.755 -463.101,302.566 -459.248,299.907L-460.639,348.864C-461.074,368.582 -472.093,400.343 -491.793,402.549C-503.772,397.315 -487.713,397.728 -493.184,296.013Z" style="fill:white;"/>
                                                    </g>
                                                </g>
                                                <g id="g2395">
                                                    <path id="path2218" d="M-441.095,489.657C-429.902,491.486 -430.299,504.745 -437.94,510.486C-438.854,505.27 -443.013,505.438 -445.545,505.062C-449.021,497.448 -446.734,492.714 -441.095,489.657Z" style="fill:rgb(255,255,0);"/>
                                                    <path id="path2216" d="M-537.605,516.662C-530.621,516.922 -528.348,518.899 -525.927,526.459C-531.331,528.162 -533.452,532.523 -532.339,539.115C-545.871,535.484 -544.001,520.928 -537.605,516.662Z" style="fill:rgb(255,255,0);"/>
                                                    <path id="path2214" d="M-558.402,485.249C-555.741,489.482 -554.047,492.003 -556.306,497.785C-563.523,501.039 -567.773,501.255 -568.369,506.036C-575.026,502.04 -577.609,484.486 -558.402,485.249Z" style="fill:rgb(255,255,0);"/>
                                                    <path id="path2212" d="M-557.929,461.886C-554.653,466.792 -555.907,470.799 -558.102,475.706C-567.1,473.108 -566.233,473.102 -571.446,478.095C-573.309,467.512 -571.503,460.973 -557.929,461.886Z" style="fill:rgb(255,255,0);"/>
                                                    <path id="path2210" d="M-479.543,436.875C-488.732,455.222 -488.977,464.783 -504.053,475.625C-513.318,476.902 -521.546,473.126 -528.108,469.286C-533.181,464.292 -540.946,460.051 -549.23,463.17C-548.268,468.419 -549.494,470.369 -551.287,475.618C-547.042,477.169 -544.987,478.602 -538.925,476.518C-527.207,474.914 -516.295,475.427 -507.903,480.499C-521.208,481.273 -526.757,482.908 -534.625,481.992C-542.64,481.06 -547.213,478.681 -552.487,483.107C-550.296,489.535 -551.835,491.903 -551.848,496.542C-546.029,501.642 -541.321,498.352 -535.501,494.615C-533.178,483.899 -518.554,488.261 -512.703,489.145C-514.305,496.33 -515.388,495.034 -518.212,499.496C-528.295,501.943 -532.811,505.521 -531.99,511.905C-528.421,514.134 -524.335,517.129 -521.339,522.002C-517.838,522.877 -514.594,518.435 -514.499,509.893C-504.202,494.498 -497.183,479.176 -467.077,492.304C-466.82,501.757 -463.475,501.78 -451.76,505.147C-452.886,499.433 -451.602,492.747 -447.995,489.057C-451.641,481.416 -455.54,481.14 -464.766,481.949L-477.778,481.526C-486.54,479.299 -487.952,479.323 -484.07,469.886C-475.322,455.858 -474.264,456.633 -461.456,444.229C-464.831,439.611 -472.497,434.244 -479.543,436.875Z" style="fill:rgb(255,255,0);"/>
                                                </g>
                                                <g id="g2402" transform="matrix(-1,0,0,1,-762.115,0)">
                                                    <path id="path2404" d="M-441.095,489.657C-429.902,491.486 -430.299,504.745 -437.94,510.486C-438.854,505.27 -443.013,505.438 -445.545,505.062C-449.021,497.448 -446.734,492.714 -441.095,489.657Z" style="fill:rgb(255,255,0);"/>
                                                    <path id="path2406" d="M-537.605,516.662C-530.621,516.922 -528.348,518.899 -525.927,526.459C-531.331,528.162 -533.452,532.523 -532.339,539.115C-545.871,535.484 -544.001,520.928 -537.605,516.662Z" style="fill:rgb(255,255,0);"/>
                                                    <path id="path2408" d="M-558.402,485.249C-555.741,489.482 -554.047,492.003 -556.306,497.785C-563.523,501.039 -567.773,501.255 -568.369,506.036C-575.026,502.04 -577.609,484.486 -558.402,485.249Z" style="fill:rgb(255,255,0);"/>
                                                    <path id="path2410" d="M-557.929,461.886C-554.653,466.792 -555.907,470.799 -558.102,475.706C-567.1,473.108 -566.233,473.102 -571.446,478.095C-573.309,467.512 -571.503,460.973 -557.929,461.886Z" style="fill:rgb(255,255,0);"/>
                                                    <path id="path2412" d="M-479.543,436.875C-488.732,455.222 -488.977,464.783 -504.053,475.625C-513.318,476.902 -521.546,473.126 -528.108,469.286C-533.181,464.292 -540.946,460.051 -549.23,463.17C-548.268,468.419 -549.494,470.369 -551.287,475.618C-547.042,477.169 -544.987,478.602 -538.925,476.518C-527.207,474.914 -516.295,475.427 -507.903,480.499C-521.208,481.273 -526.757,482.908 -534.625,481.992C-542.64,481.06 -547.213,478.681 -552.487,483.107C-550.296,489.535 -551.835,491.903 -551.848,496.542C-546.029,501.642 -541.321,498.352 -535.501,494.615C-533.178,483.899 -518.554,488.261 -512.703,489.145C-514.305,496.33 -515.388,495.034 -518.212,499.496C-528.295,501.943 -532.811,505.521 -531.99,511.905C-528.421,514.134 -524.335,517.129 -521.339,522.002C-517.838,522.877 -514.594,518.435 -514.499,509.893C-504.202,494.498 -497.183,479.176 -467.077,492.304C-466.82,501.757 -463.475,501.78 -451.76,505.147C-452.886,499.433 -451.602,492.747 -447.995,489.057C-451.641,481.416 -455.54,481.14 -464.766,481.949L-477.778,481.526C-486.54,479.299 -487.952,479.323 -484.07,469.886C-475.322,455.858 -474.264,456.633 -461.456,444.229C-464.831,439.611 -472.497,434.244 -479.543,436.875Z" style="fill:rgb(255,255,0);"/>
                                                </g>
                                                <path id="path2414" d="M-346.788,469.911C-346.787,481.101 -362.225,490.31 -380.986,490.31C-399.747,490.31 -415.185,481.101 -415.185,469.911C-415.185,458.72 -399.747,449.511 -380.986,449.511C-362.225,449.511 -346.788,458.72 -346.788,469.911Z" style="fill:rgb(255,255,0);fill-rule:nonzero;"/>
                                                <path id="path2469" d="M-394.817,188.659C-390.001,187.557 -388.706,185.537 -385.994,183.536C-386.097,186.528 -387.24,189.995 -387.515,194.02L-381.733,184.25L-378.087,191.261C-380.057,198.475 -385.135,199.47 -389.984,200.927C-392.665,198.621 -395.063,195.844 -394.817,188.659Z" style="fill:white;"/>
                                                <path id="path2471" d="M-356.81,194.967C-357.262,195.434 -356.846,185.198 -357.298,185.681C-360.315,188.898 -362.058,191.813 -365.075,192.376C-364.324,201.276 -360.949,202.302 -357.268,202.414C-351.832,201.646 -348.329,197.977 -346.859,191.261C-349.093,190.514 -351.327,188.399 -353.562,185.386C-353.93,184.889 -356.442,195.51 -356.81,194.967Z" style="fill:white;"/>
                                                <path id="path2473" d="M-374.5,205.934C-375.014,206.481 -374.36,194.669 -374.874,195.256C-378.202,199.057 -380.226,203.307 -383.554,202.84C-382.724,208.742 -378.897,213.453 -375.485,214.311C-370.765,214.201 -365.667,209.319 -363.872,205.311C-367.239,204.383 -369.845,199.765 -371.518,195.449C-371.766,194.81 -374.245,206.559 -374.5,205.934Z" style="fill:white;"/>
                                                <path id="path2475" d="M-405.97,198.696C-408.885,214.871 -407.363,226.609 -397.419,229.925C-388.312,228.204 -383.728,223.092 -382.548,215.426C-383.317,208.701 -386.294,206.659 -391.102,206.398C-391.853,206.358 -394.71,216.525 -395.489,216.531C-394.273,216.361 -393.587,205.016 -393.692,204.412C-395.685,192.991 -401.59,197.389 -405.97,198.696Z" style="fill:white;"/>
                                                <path id="path2477" d="M-343.885,197.953C-347.872,203.572 -351.859,206.456 -355.846,208.701C-356.32,208.967 -358.011,220.597 -358.485,220.849C-358.677,219.639 -358.606,209.124 -358.77,208.578C-362.142,209.101 -366.946,215.657 -371.395,218.772C-371.323,225.428 -365.74,227.283 -359.871,231.04C-349.83,226.446 -340.334,221.004 -339.052,202.786L-343.885,197.953Z" style="fill:white;"/>
                                                <path id="path2479" d="M-431.862,228.35C-434.731,228.035 -436.877,229.108 -439.084,229.537C-439.532,229.623 -441.281,241.148 -442.546,242.508C-443.301,240.641 -442.125,232.95 -441.516,229.655C-442.484,229.534 -443.51,229.18 -444.648,228.453C-449.172,237.178 -453.447,257.015 -451.353,258.734C-441.35,264.692 -426.095,248.757 -431.862,228.35Z" style="fill:white;"/>
                                                <path id="path2481" d="M-415.298,240.537C-415.845,240.794 -414.596,220.767 -415.06,221.055C-418.294,223.059 -419.484,226.676 -425.738,226.642C-427.979,245.312 -430.27,263.256 -416.316,267.273C-408.48,266.88 -401.713,259.219 -402.478,232.236C-408.957,229.881 -410.488,225.75 -412.022,222.595C-412.337,221.948 -413.693,240.585 -415.298,240.537Z" style="fill:white;"/>
                                                <path id="path2483" d="M-380.604,249.29C-381.918,247.759 -379.672,222.291 -380.418,223.249C-384.06,227.921 -388.948,232.916 -395.118,233.12C-397.264,249.325 -397.347,263.937 -382.457,266.978C-364.726,263.257 -366.959,247.738 -365.675,234.297C-370.358,232.84 -373.726,227.951 -376.668,223.188C-377.237,222.265 -379.388,248.163 -380.604,249.29Z" style="fill:white;"/>
                                                <path id="path2485" d="M-338.588,219.87C-340.554,222.601 -341.977,224.587 -344,226.472C-344.491,226.929 -344.466,248.091 -345.906,249.446C-347.283,246.697 -347.171,228.97 -347.755,229.394C-351.277,231.944 -355.08,233.613 -359.492,234.886C-361.465,250.019 -357.8,260.766 -345.654,264.917C-332.834,261.267 -332.227,246.047 -334.172,228.409C-333.5,222.883 -336.237,221.617 -338.588,219.87Z" style="fill:white;"/>
                                                <path id="path2487" d="M-330.05,225.464C-326.083,227.426 -323.008,228.575 -319.424,229.095C-318.815,229.183 -318.459,242.284 -317.007,245.024C-316.219,243.858 -316.492,229.381 -315.941,229.402C-314.187,229.469 -312.255,229.427 -310.029,229.292C-307.928,238.497 -308.123,248.85 -309.146,259.618C-326.28,257.976 -329.672,244.845 -330.05,225.464Z" style="fill:white;"/>
                                                <path id="path2489" d="M-436.173,283.306C-438.234,280.772 -435.084,259.172 -435.78,259.823C-439.929,263.709 -443.395,268.055 -449.194,268.641C-449.045,283.873 -452.665,301.544 -436.686,306.533C-426.425,306.886 -423.978,290.049 -423.442,269.008C-427.369,267.364 -430.099,264.521 -431.951,260.801C-433.246,264.092 -434.047,281.673 -436.173,283.306Z" style="fill:white;"/>
                                                <path id="path2491" d="M-402.897,288.35C-405.094,287.144 -401.818,260.148 -402.461,260.801C-406.299,267.201 -412.03,272.134 -417.556,270.848C-420.051,284.733 -419.654,300.343 -404.679,311.316C-388.634,301.218 -388.574,296.498 -388.124,271.952C-392.464,268.509 -395.667,265.067 -398.46,261.624C-398.95,261.02 -400.844,286.917 -402.897,288.35Z" style="fill:white;"/>
                                                <path id="path2493" d="M-365.683,260.547C-370.334,267.215 -376.239,269.82 -381.87,271.584C-383.417,291.802 -381.038,302.663 -364.947,311.316C-347.396,307.405 -342.949,289.804 -345.449,270.112C-350.802,267.691 -356.139,265.188 -360.533,257.972C-360.191,269.053 -361.921,280.554 -363.476,285.946C-365.378,280.583 -365.741,268.851 -365.683,260.547Z" style="fill:white;"/>
                                                <path id="path2495" d="M-330.366,254.293C-333.256,259.304 -335.765,265.076 -339.563,268.273C-341.914,295.325 -337.368,301.52 -326.319,306.533C-317.27,303.352 -310.404,293.865 -310.132,265.33C-316.999,261.405 -324.52,258.415 -325.781,254.491L-325.583,282.347C-328.377,280.55 -329.51,261.905 -330.366,254.293Z" style="fill:white;"/>
                                                <path id="path2497" d="M-440.771,355.468C-440.771,355.356 -440.771,355.245 -440.771,355.468Z" style="fill:none;stroke:black;stroke-width:1px;"/>
                                                <path id="path2499" d="M-440.437,355.802C-456.326,348.955 -453.059,321.564 -451.561,300.29C-449.965,301.783 -447.736,306.004 -445.867,307.398C-445.873,310.78 -446.753,326.085 -444.349,331.293C-442.682,328.636 -442.963,309.464 -442.222,309.794C-439.624,310.954 -436.883,311.369 -434.087,310.355C-434.099,325.74 -429.608,352.267 -440.437,355.802Z" style="fill:white;"/>
                                                <path id="path2501" d="M-420.257,330.4C-423.063,328.034 -422.473,303.875 -423.015,304.555C-425.481,307.647 -427.946,309.548 -430.412,311.023C-428.668,328.871 -430.068,348.815 -413.035,356.47C-403.117,352.577 -403.531,335.173 -405.015,316.37C-410.052,314.56 -414.47,310.006 -418.89,303.876C-418.905,305.631 -418.229,329.035 -420.257,330.4Z" style="fill:white;"/>
                                                <path id="path2503" d="M-386.635,300.33C-390.2,306.802 -395.101,311.09 -398.665,314.031C-400.057,335.584 -397.003,352.235 -383.294,355.134C-368.921,354.279 -368.419,335.475 -368.924,315.367C-373.995,312.369 -379.111,306.882 -383.294,300.33C-382.73,308.916 -382.219,318.323 -384.296,323.387C-386.833,318.659 -386.766,310.393 -386.635,300.33Z" style="fill:white;"/>
                                                <path id="path2505" d="M-348.399,330.669C-349.167,331.674 -344.733,301.662 -345.518,302.635C-350.131,308.356 -355.142,313.28 -361.907,314.699C-360.357,329.52 -366.787,349.505 -351.547,355.468C-335.922,348.813 -333.89,329.365 -333.168,308.684C-338.146,307.418 -339.663,304.632 -341.278,302.021C-341.817,301.149 -345.736,329.922 -348.399,330.669Z" style="fill:white;"/>
                                                <path id="path2507" d="M-312.784,302.335L-312.115,346.111C-313.269,352.604 -316.674,354.592 -320.47,355.802C-334.346,357.489 -327.135,326.843 -329.158,310.355C-326.033,310.261 -323.268,309.569 -320.782,308.411C-320.731,310.725 -319.948,337.61 -319.095,338.678C-318.516,338.347 -317.498,308.713 -317.488,306.508C-315.794,305.328 -314.237,303.917 -312.784,302.335Z" style="fill:white;"/>
                                                <path id="path2509" d="M-448.264,360.344C-448.536,371.705 -458.071,382.536 -463.16,393.897C-448.767,396.978 -438.261,384.613 -430.604,360.582C-433.209,361.514 -436.37,363.001 -439.002,363.404C-439.681,367.878 -444.111,378.353 -448.241,381.844C-445.04,375.339 -441.594,363.188 -442.445,362.961C-444.009,362.545 -446.445,361.616 -448.264,360.344Z" style="fill:white;"/>
                                                <path id="path2511" d="M-313.452,361.149C-309.966,376.678 -303.77,386.786 -296.743,395.234C-309.653,395.205 -323.865,387.069 -329.492,363.154C-327.195,364.2 -324.659,364.903 -322.596,365.01C-321.889,365.046 -319.666,376.553 -313.341,381.416C-316.415,374.855 -319.509,364.686 -318.743,364.431C-316.943,363.834 -315.021,362.667 -313.452,361.149Z" style="fill:white;"/>
                                                <path id="path2513" d="M-425.706,373.703C-425.758,384.635 -418.156,400.072 -426.765,411.02C-440.191,401.917 -440.6,385.898 -433.682,375.283C-430.411,377.436 -432.555,390.708 -429.792,395.603C-427.678,392.241 -430.395,374.78 -425.706,373.703Z" style="fill:white;"/>
                                                <path id="path2515" d="M-424.635,356.617C-421.565,358.554 -418.821,361.468 -415.176,361.68L-410.416,383.733L-410.169,360.865C-405.963,361.258 -403.074,355.378 -400.035,353.437C-399.18,367.384 -399.726,388.323 -396.043,394.566C-394.47,400.151 -399.282,406.877 -404.831,406.288C-425.68,406.276 -419.73,374.169 -424.635,356.617Z" style="fill:white;"/>
                                                <path id="path2517" d="M-394.439,355.121C-391.797,357.939 -389.522,361.197 -385.059,361.83C-384.295,361.939 -382.054,385.493 -381.148,385.432C-380.333,385.394 -380.961,361.739 -380.205,361.527C-376.207,360.405 -372.953,357.053 -369.711,353.666C-370.16,373.365 -364.42,399.563 -381.105,406.032C-393.069,397.066 -392.173,373.785 -394.439,355.121Z" style="fill:white;"/>
                                                <path id="path2519" d="M-352.255,361.182C-355.188,361.019 -358.697,358.838 -362.923,354.151C-362.275,372.397 -369.757,400.399 -357.589,404.82C-344.061,398.169 -338.804,377.045 -335.528,352.454C-339.485,355.565 -343.325,359.091 -347.761,360.528C-348.721,360.838 -349.943,379.752 -354.259,386.193C-352.759,378.592 -351.738,361.2 -352.255,361.182Z" style="fill:white;"/>
                                                <path id="path2521" d="M-332.83,392.861C-333.017,383.318 -333.808,371.424 -334.354,372.633C-343.471,392.814 -343.522,406.777 -332.376,413.063C-324.341,407.087 -320.638,387.215 -330.144,372.329C-330.887,371.166 -330.44,389.297 -332.83,392.861Z" style="fill:white;"/>
                                                <path id="path2523" d="M-478.629,419.342C-473.928,414.418 -466.927,402.965 -467.73,402.85C-478.504,401.305 -496.024,424.801 -494.564,434.882C-485.13,434.945 -478.284,430.05 -472.136,423.36C-468.099,418.968 -462.893,410.002 -464.061,405.58C-464.281,404.749 -474.117,417.805 -478.629,419.342Z" style="fill:white;"/>
                                                <path id="path2525" d="M-284.488,416.974C-284.316,413.84 -296.15,400.037 -295.385,399.887C-290.876,399.005 -285.165,404.487 -279.473,410.449C-273.607,416.592 -266.226,423.316 -269.226,430.227C-280.308,435.417 -283.963,427.269 -289.932,420.378C-295.066,414.45 -298.713,407.114 -297.973,402.37C-295.949,402.888 -287.656,412.892 -284.488,416.974Z" style="fill:white;"/>
                                                <path id="path2527" d="M-322.118,405.651C-313.947,411.199 -309.76,451.505 -320.012,452.337C-325.167,443.554 -334.42,429.047 -332.581,418.408C-331.366,417.613 -329.649,416.391 -327.942,414.8C-327.521,414.408 -323.489,428.623 -322.535,432.703C-320.821,429.135 -325.1,411.757 -324.412,410.738C-323.378,409.209 -322.548,407.506 -322.118,405.651Z" style="fill:white;"/>
                                                <path id="path2529" d="M-437.156,409.613C-436.08,410.005 -435.128,410.486 -434.301,411.055C-433.344,411.712 -435.261,419.532 -440.954,430.538C-436.569,428.669 -430.885,415.162 -430.581,416.207C-428.556,423.176 -432.907,434.683 -443.168,450.397C-460.457,432.552 -444.206,422.096 -437.156,409.613Z" style="fill:white;"/>
                                                <path id="path2531" d="M-455.984,416.77C-451.845,413.779 -445.284,400.586 -444.959,401.411C-442.375,407.969 -445.234,411.008 -448.628,417.675C-452.988,426.237 -456.825,434.499 -465.804,434.688C-468.324,419.934 -464.865,417.824 -461.016,411.622C-456.563,404.446 -455.311,398.517 -448.931,398.964C-447.975,399.031 -454.67,414.051 -455.984,416.77Z" style="fill:white;"/>
                                                <path id="path2533" d="M-320.811,395.751C-318.091,407.61 -304.213,437.292 -294.078,435.353C-292.023,423.215 -296.438,418.438 -300.322,410.207C-302.364,405.879 -302.716,402.455 -305.676,399.971C-306.743,399.076 -308.148,398.302 -310.092,397.652C-310.816,397.358 -305.768,407.21 -304.893,415.621C-307.646,408.178 -313.709,396.735 -314.669,396.574C-316.302,396.301 -318.682,395.941 -320.811,395.751Z" style="fill:white;"/>
                                            </g>
                                            <path id="path2640" d="M-415.721,408.104C-411.316,410.167 -406.261,411.597 -401.639,409.837L-398.607,445.799L-404.672,447.532C-409.684,442.059 -412.566,435.932 -410.101,428.16C-414.125,422.192 -418.433,416.318 -415.721,408.104Z" style="fill:white;"/>
                                            <path id="path2642" d="M-391.241,402.038C-393.046,406.307 -394.852,408.211 -396.657,409.621L-393.407,444.065L-384.309,443.632L-384.525,409.837C-386.999,407.59 -389.847,405.906 -391.241,402.038Z" style="fill:white;"/>
                                            <path id="path2644" d="M-379.759,410.271C-375.429,409.4 -371.931,404.697 -368.711,401.605C-367.384,403.975 -366.248,407.523 -362.645,408.754L-371.527,443.849L-379.109,442.982L-379.759,410.271Z" style="fill:white;"/>
                                            <path id="path2646" d="M-355.027,428.973C-351.091,424.473 -349.052,414.283 -347.264,403.338C-350.677,406.289 -353.959,409.435 -358.421,410.812L-367.12,444.103L-358.746,446.665C-354.514,445.898 -355.829,435.621 -355.027,428.973Z" style="fill:white;"/>
                                        </g>
                                        <g id="g2767">
                                            <path id="path2763" d="M-404.704,492.124C-407.817,565.459 -441.427,590.728 -493.71,566.377C-502.501,579.976 -490.491,622.649 -437.651,607.684C-421.161,599.09 -406.128,585.606 -398.803,563.918C-394.399,540.807 -394.545,517.695 -393.886,494.583L-404.704,492.124Z" style="fill:white;"/>
                                            <path id="path2765" d="M-403.229,546.216C-410.289,589.816 -449.132,601.494 -473.057,588.506C-432.186,591.27 -412.726,573.517 -403.229,546.216Z"/>
                                        </g>
                                        <g id="g2771" transform="matrix(-1,0,0,1,-764.331,0)">
                                            <path id="path2773" d="M-404.704,492.124C-407.817,565.459 -444.377,591.219 -491.743,564.41C-502.501,580.96 -490.491,622.649 -437.651,607.684C-421.161,599.09 -406.128,585.606 -398.803,563.918C-394.399,540.807 -394.545,517.695 -393.886,494.583L-404.704,492.124Z" style="fill:white;"/>
                                            <path id="path2775" d="M-403.229,546.216C-410.289,589.816 -449.132,601.494 -473.057,588.506C-432.186,591.27 -412.726,573.517 -403.229,546.216Z"/>
                                        </g>
                                        <path id="path2777" d="M-390.444,496.55C-390.28,496.386 -390.116,496.222 -390.444,496.55Z" style="fill:none;stroke:black;stroke-width:1px;"/>
                                        <path id="path2779" d="M-390.936,496.55L-385.035,496.55L-383.559,570.311C-380.709,592.846 -378.711,613.411 -383.068,637.188C-386.884,612.929 -386.101,592.603 -382.084,567.361L-381.101,496.55L-373.725,496.058C-373.748,537.139 -369.408,572.804 -358.972,604.733C-352.201,621.196 -355.043,637.897 -359.956,650.465C-365.254,665.112 -374.824,672.198 -382.576,681.937C-391.051,672.015 -398.161,666.069 -407.163,650.465C-414.917,636.92 -409.85,617.088 -406.18,602.274C-392.986,572.543 -391.853,539.545 -390.936,496.55Z" style="fill:white;stroke:black;stroke-width:1px;"/>
                                        <g id="g2785">
                                            <path id="path2781" d="M-404.704,587.03C-418.219,601.889 -432.524,613.529 -447.311,616.778C-449.348,625.056 -448.408,633.335 -444.536,641.614C-436.755,642.595 -427.602,640.278 -417.715,636.205C-417.493,618.248 -411.304,602.861 -404.704,587.03Z" style="fill:white;"/>
                                            <path id="path2783" d="M-410.932,596.225C-422.432,606.994 -431.47,616.951 -433.885,626.301C-421.594,621.436 -415.896,609.251 -410.932,596.225Z"/>
                                        </g>
                                        <g id="g2789" transform="matrix(-1,0,0,1,-763.518,0.453694)">
                                            <path id="path2791" d="M-404.704,587.03C-418.219,601.889 -432.524,613.529 -447.311,616.778C-449.348,625.056 -450.336,633.913 -446.463,642.192C-438.683,643.173 -427.602,640.278 -417.715,636.205C-417.493,618.248 -411.304,602.861 -404.704,587.03Z" style="fill:white;"/>
                                            <path id="path2793" d="M-410.932,596.225C-422.432,606.994 -431.47,616.951 -433.885,626.301C-421.594,621.436 -415.896,609.251 -410.932,596.225Z"/>
                                        </g>
                                    </g>
                                </g>
                                <g id="g2462" transform="matrix(1,0,0,1,406.484,0)">
                                    <g id="path2432" transform="matrix(1,0,0,1,1159.14,5.70737)">
                                        <path d="M-791.54,89.887C-789.805,89.461 -787.254,90.298 -786.125,91.918C-793.078,102.483 -781.004,117.475 -772.408,104.203C-769.856,106.347 -769.294,108.467 -768.822,111.501C-771.468,115.314 -782.804,117.617 -790.214,109.646C-793.844,105.405 -793.782,101.462 -791.54,89.887Z" style="fill:rgb(254,254,255);"/>
                                    </g>
                                    <g id="path2459" transform="matrix(0.989949,0.141421,-0.141421,0.989949,17.7236,-52.7871)">
                                        <path d="M381.5,104.367C381.5,107.446 380.233,109.979 378.693,109.979C377.153,109.979 375.886,107.445 375.886,104.365C375.886,101.285 377.153,98.751 378.693,98.751C380.225,98.751 381.488,101.259 381.5,104.323" style="fill:white;fill-rule:nonzero;"/>
                                    </g>
                                </g>
                            </g>
                        </g>
                    </g>
                </g>
            </g>
        </g>
    </g>
</svg>
