<?xml version="1.0" encoding="UTF-8" standalone="no"?>
<!DOCTYPE svg PUBLIC "-//W3C//DTD SVG 1.1//EN" "http://www.w3.org/Graphics/SVG/1.1/DTD/svg11.dtd">
<svg width="100%" height="100%" viewBox="0 0 151 151" version="1.1" xmlns="http://www.w3.org/2000/svg" xmlns:xlink="http://www.w3.org/1999/xlink" xml:space="preserve" xmlns:serif="http://www.serif.com/" style="fill-rule:evenodd;clip-rule:evenodd;">
    <g transform="matrix(1,0,0,1,-4043,-2770)">
        <g id="zachodniopomorskie" transform="matrix(0.138889,0,0,0.138889,4043.28,2770.39)">
            <rect x="0" y="0" width="1080" height="1080" style="fill:none;"/>
            <clipPath id="_clip1">
                <rect x="0" y="0" width="1080" height="1080"/>
            </clipPath>
            <g clip-path="url(#_clip1)">
                <g id="zachodniopomorskie.svg" transform="matrix(1.27934,0,0,1.27934,540,539.943)">
                    <g transform="matrix(1,0,0,1,-371.588,-422.049)">
                        <clipPath id="_clip2">
                            <rect x="0" y="0" width="743.176" height="844.098"/>
                        </clipPath>
                        <g clip-path="url(#_clip2)">
                            <g id="g3970" transform="matrix(1,0,0,1,-4.95911,2.65135)">
                                <path id="path3944" d="M748.135,-2.651L4.959,-1.976L5.795,509.51C6.039,658.843 156.813,839.536 374.28,841.432C591.747,843.328 747.545,662.161 747.684,507.548L748.135,-2.651Z" style="fill-rule:nonzero;"/>
                                <path id="path2972" d="M737.656,9.25L15.438,9.906L16.25,506.969C16.487,652.091 163.009,827.689 374.344,829.531C585.679,831.374 737.083,655.315 737.219,505.063L737.656,9.25ZM344.531,48.469C362.855,48.722 384.525,57.297 396.656,62.875C406.639,50.095 424.85,58.724 444.219,58.375C458.473,58.118 460.696,49.816 470.469,49C463.23,57.052 461.768,71.646 447.188,78.219C456.079,84.401 471.776,66.237 486.313,70.813C471.318,80.086 476.824,87.222 464.563,98.813C453.456,109.311 434.245,107.762 432.313,109.438C441.319,116.844 440.68,132.645 451.656,134.719C446.017,142.248 442.144,141.722 436.281,143.125C441.504,148.111 438.303,155.114 456.031,168C452.174,169.647 446.47,168.891 440.563,169C442.443,176.751 443.731,178.22 452.969,183.844C448.672,189.015 444.277,193.983 436.781,191.688C439.23,201.665 439.414,210.516 439.75,219.438L431.813,218.438C432.229,233.414 429.414,246.244 418.438,253.625L415.125,249.5C413.936,259.217 415.498,271.939 402.938,269.25C402.447,274.228 402.84,279.21 400.875,284.188C409.88,284.762 418.298,287.214 421.313,295.219L430.063,293.375C429.577,279.82 433.144,268.719 435.094,256.625C446.535,255.449 455.031,259.788 458.313,273.844C469.373,255.541 459.439,238.053 458.875,219.75C473.246,221.529 488.102,223.656 497.125,244.688C502.455,195.252 504.511,142.888 515.75,98.344C547.588,114.475 536.274,206.822 535.969,231.594C581.548,182.103 592.779,119.228 586.719,49.625C658.023,73.687 610.549,186.453 597.75,218.25C619.761,196.002 644.398,155.464 678.625,160.813C687.189,177.589 633.098,225.34 614.313,258.219C627.087,242.871 677.282,219.609 686.906,244.438C688.102,248.339 621.978,300.379 589.5,318.438C587.312,320.116 584.782,321.732 586.281,323.938C618.054,308.489 687.078,316.893 682.313,350.125C632.299,344.285 584.311,351.381 537.563,366.219C526.527,379.031 504.465,385.534 477.844,386.438L477.844,394.25C451.144,394.94 436.142,385.966 418.094,379.531C422.134,388.674 454.735,419.522 486.094,432.844C501.122,440.494 539.254,458.383 544.906,508.656C549.746,537.242 568.323,582.072 602.813,592.719C611.391,595.822 629.351,597.746 630.844,591.813C629.424,583.458 617.335,589.713 609.719,590.906C613.604,573.314 623.191,565.74 642.313,574.813C642.184,558.151 618.333,551.667 604.656,540.813C580.45,523.151 570.728,500.644 574.313,473.719C574.875,443.06 552.049,439.332 531.594,432.844C546.993,423.525 579.742,410.464 594.438,437.031C598.529,432.219 602.567,424.651 612,418.281C625.63,408.337 624.221,388.927 632.219,380.438C650.532,356.093 686.718,370.782 675.875,410.313C670.403,421.066 654.784,431.205 665.469,442.938C673.107,447.229 680.082,444.851 680.75,441.656C681.524,436.742 677.505,435.148 670.125,435.25C673.827,427.218 694.798,426.298 696.531,442.188C695.501,466.568 649.243,477.912 640.094,441.625C638.069,419.949 662.818,400.126 654.875,393.156C645.588,389.745 644.426,417.024 636.688,428.563C631.228,438.284 624.42,445.325 617.938,453C639.072,450.753 648.624,459.876 650.719,476.844C638.382,465.773 615.491,466.597 610.969,478.625C627.963,466.137 651.515,471.559 650.625,493.125C636.635,483.315 624.207,487.091 620.375,494.969C636.021,484.922 659.085,496.371 650.625,519.469C647.059,511.139 631.082,511.389 630.375,521.719C628.597,533.173 665.851,546.684 666.563,582.625C665.646,626.991 608.746,624.272 586.031,616.156C545.19,599.554 531.491,544.807 523.5,521.719C519.315,499.901 511.06,482.933 498.156,471.469C502.028,531.487 491.735,531.929 466.281,574.469C465.285,579.891 476.15,583.669 487.344,577.313C503.913,568.7 520.67,572.565 527.188,591.625C532.283,606.904 530.935,608.582 549.656,607.563C543.85,622.564 535.307,633.482 517.594,627.375C519.702,648.015 538.18,631.606 549.469,631.469C540.415,650.608 529.276,673.189 504.094,653.938C503.598,668.571 502.838,683.184 498.594,697.281C496.651,703.057 496.592,708.213 504.906,710.75C517.766,715.341 530.248,732.607 517.375,741.406C518.335,762.149 508.827,765.752 497.969,767.156C499.911,760.609 502.38,753.821 499.594,749.375C490.064,752.297 487.256,748.539 483.469,745.719C479.965,755.717 471.736,758.078 464.031,761.25C456.645,763.756 450.862,787.541 422.156,774.938C405.418,772.291 403.563,783.107 397.438,790.063C396.079,777.469 392.599,763.353 412.75,755.5C408.276,753.388 406.374,751.299 403.969,749.188C394.886,744.131 387.119,750.422 379.656,759.406C379.553,744.54 380.023,730.062 399.656,728.531L402.75,724.25C399.322,721.994 399.083,717.601 398.844,713.219C387.326,709.408 384.89,720.087 378.219,724.031C374.546,704.146 387.002,693.881 406,692.375C422.087,686.407 432.757,696.227 442.375,709.125C454.85,711.037 458.716,704.609 454.844,690.719C452.634,680.433 450.311,670.161 450.75,659.875C452.402,635.391 434.189,639.536 423.594,632.688C426.719,661.883 395.804,654.231 380.875,655.188C395.083,642.726 404.791,642.09 391.094,620.625C376.398,597.124 390.42,574.648 393.125,550.125C377.794,550.081 362.983,547.068 348.188,543.813C335.503,541.879 321.102,540.024 319.781,551.375C318.297,560.176 345.84,561.555 345,581.406C344.943,599.049 334.685,602.7 334.688,609.406C333.384,617.37 346.121,622.26 348.594,629.438C332.842,628.24 314.67,633.359 306.063,613.281C297.346,630.007 315.464,630.146 323.438,636.563C306.267,646.239 289.906,652.556 279.719,632.688C264.655,646.355 248.817,659.444 229.438,669.875C234.962,683.021 243.051,698.983 225.969,703C222.973,717.152 214.427,722.781 203.281,724.438C204.932,717.676 208.235,711.473 205.313,703.188C188.366,701.92 191.332,690.7 192.25,680.5C170.604,675.992 125.992,685.073 129.313,656C117.651,649.32 114.023,657.891 107.25,660.5C105.482,646.375 121.797,633.094 136.656,639.219L138.906,635.969C136.862,632.903 137.973,629.847 139.125,626.781C133.651,616.66 122.713,620.133 113.156,620.219C119.345,605.536 137.557,598.754 150.75,611.25L155.25,608.375C155.95,604.37 157.217,600.779 162.219,600C160.622,588.558 147.079,594.919 138.719,592.656C146.005,577.572 172.821,576.141 181,592.031C191.982,591.026 198.594,599.84 196.531,628.188C195.908,640.733 214.519,637.919 214.531,629.031C220.491,607.783 233.609,592.787 249.25,578.531C254.929,571.046 255.765,564.238 249.469,560.563C233.519,552.916 230.167,542.835 230.469,530.313C203.926,537.101 200.725,518.717 199.813,499.875C210.806,507.386 219.2,514.037 226.781,494.563C236.726,474.971 263.539,465.628 290.75,474.125C302.448,479.127 341.045,479.881 353.063,474.594C347.144,457.87 291.306,470.141 242.875,419.125C236.884,440.432 223.759,429.113 218.938,408.688C202.237,413.021 185.559,412.707 193.438,398.75C183.91,399.07 181.193,395.673 181.906,390.406L142.156,393.719C142.253,409.809 155.171,437.737 137.375,437.75C130.074,458.645 111.42,457.639 99.594,444.031C110.738,444.134 120.47,442.824 120.563,431.875C114.164,426.701 111.601,420.714 118.219,412.75L117.625,404.156C106.257,402.213 99.201,397.733 103.625,386.5L91.844,378.375C78.566,378.958 71.122,375.262 75.531,362.813C68.53,357.74 58.781,358.617 49.031,359.5C53.418,344.072 69.384,341.536 80.563,345.625C98.345,335.388 95.021,359.956 104.625,360.469C102.493,354.806 99.58,348.929 100.563,344.156C90.218,338.39 89.75,331.85 91,325.156C84.441,313.139 73.564,316.924 64.5,314.094C73.73,303.488 88.918,298.682 102.156,310.781C121.245,311.948 119.015,339.391 126.094,355.563C126.181,350.37 129.541,345.605 131.969,344.156C130.271,341.597 128.795,338.875 129.406,334.469C118.752,329.936 117.126,310.462 128.156,306.75C125.813,294.325 118.061,288.407 111.25,281.344C122.947,280.737 137.722,282.837 143.875,302.688C154.762,303.575 155.235,315.308 155,330.438C154.823,341.836 153.871,355.841 147,364.719C155.87,364.68 165.186,362.679 173.438,361.094C166.029,351.074 169.652,345.564 185.469,345.031C178.641,340.471 177.13,327.905 174.656,316.813C183.056,320.989 191.314,326.112 200.656,323.688C198.772,311.664 199.356,302.94 203.031,298.438C199.652,286.815 204.15,275.634 206.188,264.313C195.407,252.095 182.63,244.574 169.25,238.531C176.356,230.387 186.401,231.683 196.375,232.781C191.039,224.512 182.786,218.625 182.156,206.531C186.103,204.322 189.378,204.723 192.688,205.063L173.188,175.375C169.052,190.584 176.942,216.5 150.5,211.781C130.961,222.092 118.384,211.837 114.906,195.969C122.822,197.323 131.26,205.831 138.594,199.031C136.531,187.905 142.19,183.083 150.875,180.75C149.258,175.921 147.697,171.1 150.875,165.313C146.051,161.223 142.927,155.98 143,148.625C138.089,143.532 130.019,139.255 125.469,133.406C114.162,134.138 100.334,120.121 109.531,112.063C104.517,99.64 93.496,104.289 84.625,102.844C90.829,86.058 108.975,84.312 120.563,98.313C133.733,97.363 139.715,114.742 149.281,122.969L148.906,113.031C139.173,105.057 132.255,97.099 142.875,89.125C141.697,81.121 132.34,75.597 120.438,70.844C135.579,62.707 149.461,63.9 160.688,84.469C170.877,88.758 171.805,100.995 173.313,113.156C176.62,110.966 175.277,106.344 177.719,103.844C173.865,93.711 175.134,86.752 186.938,86.406C185.634,76 177.011,70.08 170.375,63.469C182.814,61.048 206.211,69.264 204.219,90.844C206.973,93.15 208.332,96.071 208.156,100.656C206.335,114.026 196.35,116.632 183.25,142.469C190.304,158.239 205.276,169.575 217,182.719C218.979,178.295 224.083,174.763 228.156,170.938C229.97,178.824 231.634,186.791 236.625,193.406C238.881,184.977 244.976,182.071 252.438,181.125C253.987,193.294 250.599,207.371 261.375,215.969C294.147,204.808 332.561,201.969 352.531,151.563C333.709,140.71 312.08,141.834 290.625,148.094C294.6,140.177 300.037,133.709 307.969,129.75C299.956,129.205 293.009,135.082 286.156,137.438C289.212,130.831 296.787,122.731 309.063,116.125C296.319,105.407 281.015,118.089 278.719,136.188C264.842,121.673 262.258,105.162 277.25,87.156C286.586,76.071 296.759,66.379 313.906,68.313C318.044,53.093 330.28,48.272 344.531,48.469ZM364.5,89.094C369.933,100.795 356.99,102.652 355.375,89.75C350.604,89.636 346.546,89.795 345.656,93.563C346.013,96.866 358.408,105.422 363.844,103.938C367.767,103.588 371.854,101.055 372.313,96.313C372.574,91.041 369.3,89.304 364.5,89.094Z" style="fill:white;fill-rule:nonzero;"/>
                                <path id="path3644" d="M276.932,123.653C277.096,123.653 277.26,123.653 276.932,123.653Z" style="fill:none;fill-rule:nonzero;stroke:rgb(254,237,0);stroke-width:1px;"/>
                                <path id="path3654" d="M354.754,89.74C354.825,89.74 354.896,89.74 354.754,89.74Z" style="fill:none;fill-rule:nonzero;stroke:rgb(254,237,0);stroke-width:1px;"/>
                                <path id="path1362" d="M53.848,356.754C53.882,356.754 53.916,356.754 53.848,356.754Z" style="fill:none;fill-rule:nonzero;stroke:black;stroke-width:1px;"/>
                                <path id="path1364" d="M53.643,356.754C53.677,356.754 53.711,356.754 53.643,356.754Z" style="fill:none;fill-rule:nonzero;stroke:black;stroke-width:1px;"/>
                                <path id="path2279" d="M175.628,353.063C175.703,353.063 175.779,353.063 175.628,353.063Z" style="fill:none;fill-rule:nonzero;stroke:black;stroke-width:1px;"/>
                                <path id="path2828" d="M501.961,764.236C505.083,755.673 504.487,749.109 499.043,743.809C499.131,736.149 504.701,733.432 512.504,737.22C517.301,751.059 511.808,763.02 501.961,764.236ZM400.373,783.06C404.847,774.677 413.055,771.794 422.864,771.413C424.538,764.612 419.902,759.577 416.036,757.758C403.667,760.46 396.777,770.463 400.373,783.06ZM382.903,752.035C381.909,742.408 387.633,729.568 403.787,731.553C408.686,737.814 407.936,743.426 405.795,746.513C394.493,742.231 388.089,746.212 382.903,752.035ZM381.567,715.326C382.772,704.861 391.578,695.532 405.333,696.526C410.96,703.279 407.385,710.542 404.269,713.198C396.518,707.477 388.536,708.831 381.567,715.326ZM144.276,590.674C154.716,590.021 164.708,590.302 168.676,603.132C173.938,605.29 180.459,601.485 179.796,594.896C170.334,580.309 153.555,582.885 144.276,590.674ZM118.023,617.957C128.762,615.774 136.552,618.057 142.938,626.709C150.075,627.04 152.808,621.767 151.38,615.898C142.622,604.784 124.929,606.64 118.023,617.957ZM109.786,656.874C114.568,653.287 124.559,646.999 133.878,655.124C138.018,654.168 141.581,650.271 138.408,642.872C123.64,637.52 110.283,647.022 109.786,656.874ZM206.753,720.944C211.853,712.43 209.971,702.125 206.898,697.064C210.135,686.178 219.752,689.113 222.913,695.131C222.551,711.712 216.29,719.794 206.753,720.944ZM106.634,445.968C115.029,445.223 122.547,444.067 123.676,432.827C126.438,430.588 132.685,431.137 135.071,434.573C132.739,452.724 114.519,453.587 106.634,445.968ZM53.455,356.652C61.749,356.859 69.754,353.991 78.607,361.682C84.443,359.925 84.033,355.368 81.995,350.081C68.746,344.8 57.995,350.47 53.455,356.652ZM69.573,312.918C77.97,312.822 87.95,313.541 92.877,322.876C95.01,323.986 102.548,318.598 100.577,313.842C90.395,303.41 76.305,305.689 69.573,312.918ZM117.21,284.089C131.233,284.049 140.911,295.547 141.766,306.422C140.262,310.608 132.702,309.294 130.377,308.029C131.259,297.071 123.598,291.046 117.21,284.089ZM299.097,143.299C318.615,136.069 334.76,136.346 349.903,145.204C357.626,148.531 361.876,135.131 355.83,128.48C333.987,120.599 309.713,132.901 299.097,143.299ZM353.696,119.231C350.987,105.71 344.23,92.405 332.261,89.073C320.666,85.17 317.421,79.456 314.831,72.981C288.722,70.671 262.184,106.253 277.939,125.552C282.855,104.867 308.312,100.078 316.724,116.766C329.187,114.523 341.656,115.887 353.696,119.231ZM119.965,200.01C125.364,201.347 134.626,207.86 141.336,200.689C144.647,199.735 149.923,203.852 148.883,207.388C140.103,218.846 120.863,209.81 119.965,200.01ZM119.88,102.486C122.706,106.091 114.966,112.145 112.332,110.797C106.764,100.832 100.156,99.451 89.775,100.451C94.862,88.222 113.448,92.069 119.88,102.486ZM128.106,71.533C141.025,65.543 152.725,75.141 157.448,86.119C158.164,92.218 148.161,94.332 146.084,89.596C143.826,79.148 136.395,74.832 128.106,71.533ZM189.099,90.221C191.777,93.059 196.888,93.75 200.309,91.34C203.557,73.378 186.185,65.962 176.845,66.292C183.17,73.797 191.152,76.207 189.099,90.221Z" style="fill:rgb(249,214,22);"/>
                                <path id="path3023" d="M305.462,306.283C290.279,315.421 274.7,322.377 258.081,323.611C240.572,330.043 222.412,335.452 219.635,365.035C223.218,391.377 242.91,405.907 256.186,425.141C269.512,405.757 254.443,393.302 242.107,381.551C254.734,386.354 266.632,388.883 275.679,376.136C271.733,367.827 260.031,366.569 248.334,365.306C258.742,363.266 270.387,362.739 274.596,353.122C268.919,343.228 258.75,345.012 249.688,343.917C259.576,341.903 270.623,343.367 277.845,333.358C275.154,328.403 271.445,328.539 268.098,326.86C273.453,326.478 277.791,324.943 282.448,333.628C279.738,340.75 276.833,343.025 272.701,344.458C283.474,352.695 276.179,358.924 267.828,365.035C287.556,371.299 288.087,386.909 253.478,389.402C267.562,396.883 269.915,425.93 289.488,426.765C294.474,409.669 285.254,401.225 274.596,392.651C291.112,394.647 307.732,396.875 317.916,384.8C313.894,374.381 288.995,376.448 287.051,372.345C297.339,369.64 309.94,370.827 317.374,358.808C311.492,348.589 291.371,349.71 285.156,347.166C301.302,345.33 316.393,342.892 317.645,332.545C317.092,327.533 306.601,326.408 298.693,326.048C329.863,319.233 327.001,341.945 305.462,348.249C324.728,351.483 327.254,368.4 301.13,372.075C331.466,377.506 329.442,396.624 288.675,398.608C293.468,414.189 302.57,424.984 318.457,423.787C322.881,411.469 308.695,399.642 310.877,397.254C314.483,395.099 336.094,421.881 350.406,420.538C353.988,403.683 336.634,394.68 329.558,381.821C345.175,380.635 364.072,386.827 374.502,373.97C367.323,358.38 345.331,362.16 329.829,357.454C350.543,353.568 376.914,356.004 386.415,339.585C375.167,329.531 350.129,334.52 331.724,332.275C347.297,327.594 369.799,330.706 375.044,314.405C369.07,306.437 338.821,307.353 320.082,307.907C323.693,304.742 388.32,297.408 379.917,321.986L407.804,316.842L374.773,327.943C386.588,340.045 407.995,330.752 428.922,322.528C445.465,315.542 463.657,309.05 466.285,297.89C427.242,286.167 422.549,312.582 380.458,306.825C394.969,304.935 407.186,301.67 418.092,297.619C413.348,285.84 398.599,288.233 385.603,288.143C336.759,274.913 314.334,284.933 301.4,303.305C313.854,297.974 326.164,291.491 339.305,291.663L342.825,293.558C329.313,296.213 316.127,299.357 305.462,306.283ZM361.189,387.079C367.031,393.971 376.107,405.216 376.86,414.285C352.909,410.739 346.529,397.676 340.512,386.643L361.189,387.079ZM389.919,362.049C391.905,362.686 391.223,363.361 393.109,364.061C419.735,373.952 440.635,387.031 472.627,388.385C470.042,361.824 452.768,356.248 429.967,358.566C430.132,362.823 442.287,365.707 444.985,369.884C431.594,367.295 425.631,355.968 389.919,362.049ZM376.047,364.114C390.231,366.016 411.843,378.32 415.647,408.712C409.154,408.48 400.647,402.523 392.883,397.328C380.024,388.724 367.778,387.163 369.895,384.106C374.5,382.884 375.824,379.85 377.707,377.267C385.348,378.037 390.06,387.588 397.01,388.625C393.114,382.386 377.702,379.1 376.047,364.114ZM373.642,356.659C406.288,357.418 495.394,354.417 512.626,333.372C504.96,325.115 430.484,333.778 391.046,338.275C390.45,340.317 389.967,342.36 387.614,344.403C398.808,346.907 412.124,343.755 424.382,343.422C427.035,344.484 427.166,345.547 424.382,346.609C406.113,348.348 379.726,343.949 373.642,356.659ZM466.543,363.032C470.581,368.448 474.105,374.121 476.838,380.19C499.456,378.425 522.215,376.807 532.726,362.296C518.915,353.113 489.955,364.849 466.543,363.032ZM538.608,361.316C583.944,344.208 631.535,341.803 678.817,344.158C664.478,311.809 595.456,317.569 576.357,333.372C565.179,346.917 551.926,352.164 538.854,358.129L538.608,361.316ZM456.983,357.394C492.919,352.001 522.353,339.241 545.227,316.214C558.791,306.231 578.976,284.931 596.212,284.838C587.03,329.207 548.154,361.825 523.166,355.433C537.735,344.088 550.379,335.952 568.513,318.665C568.209,316.607 566.931,316.984 565.327,318.175C542.81,343.278 513.907,360.413 460.415,359.6L456.983,357.394ZM495.222,323.322L510.174,323.077L538.363,297.585C541.632,295.95 541.632,297.258 538.363,301.507L512.871,324.058L518.754,332.392C538.014,320.257 573.622,288.242 574.151,252.728C553.497,259.387 543.757,274.007 532.971,286.064C499.798,319.319 492.48,320.993 495.222,323.322ZM423.512,328.321C428.957,330.466 438.109,329.831 446.49,329.775C457.587,327.816 487.105,314.04 503.819,283.806C505.588,281.205 506.857,283.435 505.212,285.796C495.107,306.764 469.391,321.368 462.197,328.321C496.953,335.453 540.113,268.63 533.749,238.153C511.45,252.604 491.186,283.699 466.85,306.506C462.209,311.209 457.537,315.887 449.108,317.559C438.828,321.146 428.497,324.733 423.512,328.321ZM594.009,309.399C599.206,310.887 678.07,248.878 680.994,243.088C655.88,227.91 598.325,265.106 600.055,286.191C603.891,290.617 607.367,278.044 637.337,260.816C639.516,260.191 639.306,260.791 638.266,262.426C630.842,265.24 593.635,292.03 594.009,309.399ZM573.918,278.808C576.725,247.419 641.101,160.588 672.728,165.177C678.907,177.965 614.266,233.245 594.503,278.808C588.615,280.55 580.719,284.48 573.369,288.414L619.206,218.424C623.245,213.396 620.463,212.514 615.912,217.601C601.639,234.985 586.69,270.244 573.918,278.808ZM535.409,270.021L539.799,240.611C585.822,174.079 595.427,151.735 592.474,58.883C648.215,83.097 602.664,200.952 579.305,245.878L540.677,270.46C577.018,214.774 579.339,220.207 601.253,155.893C601.182,149.973 599.448,151.366 597.302,154.576C580.585,214.051 575.533,213.818 535.409,270.021ZM518.91,105.945C534.773,110.579 533.904,208.417 526.286,234.477C523.999,242.299 518.261,244.944 514.199,247.572C515.002,231.426 517.37,216.791 517.204,190.86C512.362,198.545 515.343,262.917 501.155,260.979C502.262,231.079 514.731,114.578 518.91,105.945ZM464.468,225.932C469.485,256.059 474.131,258.353 455.781,289.054C455.934,293.706 459.484,293.021 462.928,292.503C467.159,290.455 468.879,283.246 471.805,281.27L469.269,290.148C468.267,292.005 470.069,297.019 473.979,295.583C500.811,269.34 498.365,230.074 464.468,225.932ZM433.775,291.95L438.408,261.257C450.034,262.015 456.212,272.434 451.148,290.791L433.775,291.95ZM226.953,396.197C234.518,402.082 243.616,419.225 235.126,425.483C223.911,423.65 222.011,404.596 226.953,396.197ZM216.283,378.035C212.898,385.518 209.604,392.456 202.117,398.18C198.863,400.115 196.634,403.13 196.986,406.867C216.657,411.127 233.834,399.044 216.283,378.035ZM216.283,354.425C217.319,377.582 209.827,392.979 187.223,393.927C186.531,390.381 191.483,386.206 192.633,381.427C195.163,370.92 201.979,359.366 216.283,354.425ZM175.645,353.063C176.465,350.474 185.28,350.803 192.684,351.016C201.63,351.273 209.371,350.191 209.926,352.836C204.115,363.367 180.323,362.643 175.645,353.063ZM183.048,326.354C196.497,333.642 216.38,325.211 228.315,335.099C217.794,362.693 180.763,343.717 183.048,326.354ZM135.341,390.845C144.79,386.732 161.905,387.111 176.496,386.427C190.824,385.365 195.556,372.805 193.47,365.268C176.874,363.805 157.275,372.786 135.109,369.686C111.649,366.429 122.455,320.448 102.557,316.905C102.184,321.106 99.467,323.658 95.116,325.043C92.002,333.084 97.886,338.185 105.812,341.319C105.689,345.892 105.348,350.465 108.834,355.037C108.854,360.928 111.993,366.818 118.833,372.708C104.346,368.967 94.496,362.65 91.163,352.712C88.113,346.697 85.707,349.059 83.258,350.852C86.476,356.191 85.146,360.392 80.933,363.873C78.062,375.06 87.506,372.483 94.651,372.476C96.115,375.065 97.262,377.865 102.324,378.056C103.955,382.046 108.485,383.753 109.997,384.334C103.712,394.959 109.65,398.88 122.553,398.983C123.208,410.872 122.348,411.372 133.016,415.259C115.778,414.379 116.878,422.792 124.18,428.744C128.612,427.905 132.834,428.013 136.039,432.697C141.463,432.928 141.75,427.166 139.759,418.746C140.474,409.446 137.573,400.145 135.341,390.845ZM136.287,368.836C154.448,365.573 151.371,313.57 146.974,309.483C142.104,308.855 139.515,310.002 138.589,312.442C133.156,311.613 128.5,311.561 127.409,315.073C125.965,319.348 126.446,323.622 128.066,327.897C130.555,330.933 133.922,327.629 137.274,331.185C133.206,334.773 134.9,341.24 137.602,344.667C130.5,351.811 126.167,363.875 136.287,368.836ZM425.966,186.175C424.557,195.527 415.691,194.868 410.254,191.413L409.362,209.57L406.198,198.589C397.56,218.36 387.254,211.168 382.375,194.495C379.631,198.948 376.662,206.098 374.372,205.103C373.701,201.972 377.306,198.321 379.211,193.006C368.468,199.712 360.304,200.495 359.11,189.097C349.147,194.318 339.217,200.197 328.773,195.797C317.759,201.135 306.83,206.499 300.669,213.293C309.255,224.23 326.215,217.077 341.243,206.22C329.626,231.131 351.217,216.495 363.763,205.848C363.138,228.952 369.692,221.29 381.816,210.128C374.576,221.456 364.51,234.053 358.366,214.409C351.975,218.819 339.4,230.14 333.053,215.526C324.693,223.655 292.787,226.889 296.388,211.804C292.222,212.081 262.156,217.923 258.978,226.879C261.877,231.239 270.307,230.068 277.962,229.671C257.934,250.91 293.411,248.537 308.672,235.813C299.319,259.688 331.541,245.212 339.381,235.068C331.087,258.435 358.25,248.352 365.438,233.579C366.524,261.341 397.839,228.172 400.242,215.526C406.198,233.614 413.457,233.421 418.11,214.595C421.137,231.215 410.976,241.428 399.87,225.576C391.248,238.678 371.529,260.977 362.46,242.513C359.811,247.52 335.003,260.78 333.24,244.002C320.779,252.572 304.817,257.681 301.413,244.002C287.717,252.406 257.049,253.098 269.401,233.207C262.196,235.146 256.224,234.621 253.953,226.693C237.886,234.692 226.484,246.628 224.918,261.125C234.1,262.984 241.745,257.162 250.044,254.611C245.606,259.956 237.524,264.102 239.808,274.339C253.712,275.142 263.864,267.189 274.984,261.497C274.156,266.771 270.336,272.044 274.426,277.317C287.278,280.897 297.699,269.074 309.23,264.289C304.384,272.793 301.681,281.854 309.23,283.087C323.257,283.544 331.704,275.527 341.615,266.709C341.247,271.219 338.35,276.251 342.732,279.923C352.083,280.106 358.688,271.906 366.369,266.709C366.28,271.596 364.787,277.044 366.927,281.04C372.141,281.104 386.9,271.172 386.283,257.03C388.882,249.057 391.949,245.075 396.52,253.866C399.61,258.91 402.028,265.01 408.431,264.847C409.842,256.19 407.463,240.376 413.457,239.721C416.675,240.552 417.774,242.526 419.785,244.374C427.329,238.27 425.759,223.051 426.299,209.942L433.371,213.665C434.757,203.217 431.279,187.814 425.966,186.175ZM428.435,165.199C426.277,186.792 429.701,187.415 444.123,186.325C444.882,185.291 443.882,182.724 443.141,182.394C433.246,177.987 441.206,164.991 428.435,165.199ZM408.982,156.727C413.14,156.667 412.623,169.121 414.002,169.696L414.159,169.382C415.804,170.103 416.072,167.121 413.27,155.89C417.175,155.654 422.543,160.834 424.984,163.839C425.285,173.822 426.944,186.199 418.709,190.927C411.375,188.457 401.178,181.701 402.602,167.813C405.7,164.63 407.248,161.001 408.982,156.727ZM399.255,173.67C406.215,181.791 405.322,201.425 394.863,207.556C382.813,201.937 385.001,175.718 391.411,173.775C395.23,174.514 393.895,183.526 394.444,189.045L396.222,189.463C396.972,183.797 395.287,174.385 399.255,173.67ZM377.57,159.865C366.591,163.508 360.776,183.34 365.554,195.368C380.773,193.824 394.76,172.578 380.156,160.191C378.791,164.873 378.386,168.745 377.059,169.925C376.648,167.891 377.465,165.573 377.57,159.865ZM331.089,193.598C338.824,187.831 344.172,180.79 348.297,173.244C354.254,175.378 358.962,172.558 363.865,172.057C357.111,190.444 344.217,195.769 331.089,193.598ZM415.447,77.053C431.411,75.13 448.488,80.661 460.56,58.415C437.451,70.897 408.192,52.032 402.034,65.034C407.01,68.57 413.654,66.581 419.279,69.04C417.609,71.769 416.217,74.324 415.447,77.053ZM434.58,93.128C427.579,91.179 415.287,89.473 415.739,96.303C417.39,101.815 431.042,97.934 434.58,93.128ZM411.294,72.369C413.569,79.834 403.296,80.773 397.746,83.165L407.06,83.8L403.25,90.575C404.023,89.351 405.824,91.615 406.426,90.364C414.23,74.14 441.419,94.477 475.225,74.909C463.847,97.19 455.837,100.824 426.324,104.123C420.837,111.63 411.503,110.961 401.556,108.992C406.25,118.945 417.285,114.948 427.383,113.014C437.597,115.995 434.652,132.135 444.741,135.242C437.518,139.41 431.936,136.6 426.959,131.22C431.536,142.109 434.461,154.319 441.566,163.185C421.001,164.72 418.827,149.537 409.389,140.957C406.936,152.184 407.342,163.769 395.205,171.23C386.373,165.593 383.322,156.964 380.598,146.885C372.433,163.516 362.863,171.872 350.75,169.324C356.321,157.104 365.177,149.241 362.393,127.621L365.78,127.621C362.468,120.139 355.081,114.722 353.925,106.875C363.26,109.991 372.31,111.968 377.211,97.349C382.099,97.457 387.495,98.582 393.512,100.947C387.636,93.98 379.088,89.686 371.072,84.859C364.618,81.543 357.841,81.964 348.633,85.282C337.882,89.183 324.549,86.356 320.054,73.427C319.359,57.364 334.619,53.832 347.786,54.375C371.108,56.067 389.498,69.529 411.294,72.369ZM458.078,89.516C448.539,93.603 433.115,96.016 424.631,100.524C414.492,104.914 410.744,102.515 409.6,97.349C408.713,90.131 415.741,87.929 426.959,88.034C436.616,90.2 446.736,91.283 458.078,89.516ZM300.367,127.422C316.045,121.095 333.668,122.597 350.961,123.611C348.65,114.828 305.571,115.764 300.367,127.422ZM205.492,191.375C215.409,197.065 229.519,210.82 240.041,229.507C241.492,231.709 234.752,237.538 232.108,236.673C227.312,232.588 223.491,223.624 219.312,216.455C217.1,215.967 216.303,216.793 217.009,219.015C220.496,225.866 223.059,231.332 227.757,240C229,242.68 225.982,247.87 219.923,247.634C205.857,231.039 203.972,211.36 205.492,191.375ZM248.487,187.537C247.3,199.214 248.522,209.965 256.164,218.247C252.843,221.904 249.789,225.638 241.833,227.972C234.572,216.247 239.333,191.968 248.487,187.537ZM224.942,180.883C227.03,188.099 230.541,195.077 236.714,201.612C236.621,206.467 234.397,209.19 231.596,211.337C221.274,201.328 217.697,189.457 224.942,180.883ZM187.066,209.546C187.259,215.827 197.222,231.06 205.492,232.066C205.034,210.686 204.185,209.607 187.066,209.546ZM175.038,238.464C187.974,241.857 200.816,251.545 207.284,260.217C212.139,257.891 213.707,254.743 215.985,251.772C206.724,235.872 187.969,229.599 175.038,238.464ZM179.227,138.967C175.497,134.142 171.646,129.401 172.498,121.426C174.101,118.59 175.805,115.907 178.565,114.807C179.028,110.886 180.082,107.233 183.75,104.768C178.434,97.688 179.64,91.346 187.942,91.861C191.539,95.381 195.826,95.217 200.298,94.068C205.296,101.146 200.428,108.164 195.223,113.814C188.87,121.369 184.368,129.206 179.227,138.967ZM201.317,208.688C202.254,200.115 201.819,193.613 202.491,188.941C206.308,186.849 209.896,191.718 215.466,191.709C204.221,171.75 183.471,164.216 177.579,140.909C171.112,136.07 168.541,130.044 168.867,120.677C166.938,110.34 170.071,99.498 159.433,89.831C154.309,95.524 150.461,93.525 146.133,93.793C136.553,98.539 147.802,109.7 156.603,109.074C151.202,118.531 153.97,127.701 159.793,137.906C146.02,133.811 131.697,102.817 122.927,103.98C121.47,108.772 119.55,111.596 113.651,112.686C105.245,122.046 119.94,131.26 127.455,127.752C129.579,136.548 141.484,139.179 148.68,146.713C146.807,155.117 150.481,159.99 156.886,163.126C154.182,167.964 152.22,173.453 155.472,183.502C147.422,186.047 140.386,191.513 143.648,198.078C148.39,199.756 150.397,202.453 151.366,207.149C170.734,213.167 166.946,176.394 168.379,159.481C179.862,174.286 189.05,193.095 201.317,208.688ZM221.574,293.881C216.766,297.743 210.751,300.095 205.05,298.602C205.253,307.37 199.108,315.8 208.085,325.917C213.194,326.443 218.036,325.371 222.249,320.522L226.97,331.313C239.882,328.029 247.96,321.982 254.622,315.126C263.623,325.546 284.432,311.666 292.391,303.323C275.31,308.818 265.373,312.929 258.332,298.939C239.82,314.105 227.306,315.919 221.574,293.881ZM221.237,254.426C210.911,264.6 204.189,277.446 206.399,296.579C214.1,295.541 219.83,291.546 223.935,285.113C224.328,293.791 226.115,301.911 235.4,307.033C247.208,304.491 255.62,297.986 262.041,289.16C262.194,295.49 263.291,301.35 268.786,305.009C288.345,305.068 298.818,293.417 313.468,285.787C298.035,287.077 298.859,279.81 300.147,272.298C283.135,285.157 265.452,283.383 267.774,270.612C245.342,286.573 228.408,278.575 234.726,263.531C222.825,264.909 219.711,268.38 221.237,254.426ZM668.582,460.761C689.541,461.61 702.538,430.735 677.725,433.911C701.855,443.068 671.111,461.073 657.754,442.332C650.226,420.778 676.95,414.956 671.469,390.359C665.722,370.501 644.172,368.115 633.693,389.156C627.345,399.096 631.429,409.079 613,425.73C605.082,433.058 597.158,439.621 593.51,452.438C586.067,420.133 565.689,423.823 543.702,431.986C563.439,435.194 584.497,445.376 580.276,480.59C579.054,508.28 593.024,526.087 613.481,539.06C628.339,549.761 655.384,557.954 646.926,585.499C637.52,576.492 623.927,571.036 617.571,583.092C637.755,575.468 647.138,600.701 621.662,601.139C574.431,601.651 546.664,551.399 541.056,513.555C535.896,476.546 515.502,453.715 491.729,442.092C449.316,424.097 429.083,404.075 412.086,383.141C415.83,393.082 421.18,402.565 420.748,413.699C401.067,415.162 386.999,398.662 370.219,390.841C374.402,400.214 383.563,409.035 382.49,418.993C371.426,423.232 364.569,414.849 355.782,412.255C356.379,417.807 356.794,423.268 353.616,426.933C341.684,432.062 331.92,417.676 321.133,412.496C322.59,417.79 323.705,423.083 321.374,428.377C307.89,431.471 302.694,424.437 294.425,421.158C294.205,424.303 294.496,427.533 290.575,430.061C275.372,430.37 273.047,421.152 265.31,415.143C263.487,418.803 261.561,422.412 260.979,426.692C279.01,442.66 291.656,449.022 345.195,461.1C372.734,470.683 420.329,472.068 402.702,536.654L393.799,574.671C389.371,596.246 386.198,597.61 397.889,619.907C404.079,631.117 406.944,641.712 395.965,649.743C409.664,650.095 422.59,649.72 416.176,631.216C413.172,624.079 407.915,616.041 407.755,610.041C410.364,608.64 416.159,626.116 437.832,631.937C449.428,634.957 458.08,641.851 457.562,660.811C457.062,669.433 458.078,677.043 459.487,684.392C466.794,705.212 460.341,714.565 444.569,716.153C434.023,716.537 429.562,689.2 408.477,696.422C412.256,703.77 411.031,709.687 405.83,714.469C402.626,722.324 407.939,721.663 413.529,720.725C428.71,714.89 431.302,730.982 458.284,723.371C444.426,741.884 416.75,712.39 405.83,730.109C409.517,733.907 410.526,739.846 408.496,747.455C411.417,752.35 416.224,750.269 420.428,746.19C434.455,733.366 444.969,750.883 463.337,732.996C452.591,759.628 421.726,733.749 418.101,755.854C425.192,758.431 426.038,763.889 424.838,770.291C433.741,776.776 442.644,775.035 451.547,765.479C456.568,760.33 461.414,754.657 467.668,753.208C485.636,747.627 480.298,732.551 482.345,720.484C486.585,729.326 483.681,750.67 497.023,743.583C498.452,732.545 504.504,731.136 513.625,736.124C522.821,732.06 514.06,717.716 503.52,716.393C495.724,715.663 489.569,708.166 493.173,695.701C501.317,670.9 497.43,640.257 499.91,635.065C512.89,660.034 526.327,662.921 538.409,641.081C510.077,645.587 511.519,627.409 509.054,612.207C518.759,623.442 530.87,631.441 541.778,613.41C527.782,614.94 526.376,605.98 523.491,598.251C516.352,573.327 500.332,577.27 483.067,585.258C463.515,591.491 455.744,576.687 464.059,565.768C477.602,545.907 484.997,533.339 491.031,516.029C497.719,496.844 489.644,466.271 492.933,462.063C517.51,469.846 525.551,504.503 535.281,536.413C545.654,571.414 564.377,612.606 617.09,616.538C649.466,617.899 686.583,589.017 638.264,541.947C610.522,520.55 635.53,499.965 646.926,510.408C649.991,490.734 616.788,491.344 614.925,515.239C602.703,492.026 630.04,475.241 646.926,486.365C641.857,469.913 615.046,473.162 606.022,494.065C597.771,464.511 629.328,459.455 644.52,468.8C634.734,447.753 607.661,460.652 599.044,472.169C601.112,467.251 603.644,459.311 613.419,449.644C627.094,436.359 636.422,424.366 639.751,409.931C643.383,393.812 648.35,386.913 655.291,389.211C667.283,394.634 658.733,406.508 652.701,416.838C637.025,434.633 646.294,461.723 668.582,460.761ZM290.736,609.284C277.832,626.748 285.507,649.117 312.643,637.266C287.792,622.086 300.867,612.367 312.21,598.439C310.811,612.164 309.968,625.582 336.287,624.034C327.783,615.059 326.86,606.691 332.816,598.873C348.717,578.977 335.878,569.201 316.982,559.612C310.144,552.304 316.372,540.034 326.092,537.704C344.976,533.065 361.849,545.836 392.466,545.079C401.829,524.45 370.957,483.748 360.363,479.356C340.16,487.189 307.322,487.514 288.35,480.874C263.492,467.472 236.619,482.706 229.567,501.914C225.937,515.817 213.155,514.647 205.273,509.723C207.569,532.162 225.903,530.918 237.81,515.363C239.892,521.503 235.842,527.71 235.626,532.383C235.213,541.344 237.667,547.166 248.664,552.935C265.288,562.337 259.354,580.039 246.486,589.762C231.925,601.529 223.683,617.509 217.203,634.663C211.651,647.191 193.018,642.355 191.391,632.927C189.096,620.525 195.493,600.3 182.932,597.137C179.542,604.611 174.462,607.011 168.182,605.814C161.616,604.725 160.378,609.948 164.711,612.972C176.977,619.834 175.377,637.219 191.825,646.81C174.276,649.202 169.171,604.558 152.781,616.442C154.423,621.625 153.414,626.145 145.84,629.023C143.304,630.683 139.895,635.219 147.359,636.398C170.353,636.834 162.879,655.761 186.746,656.391C188.839,656.446 188.736,658.849 186.248,659.136C176.852,658.019 170.896,656.394 165.496,651.04C160.67,643.407 152.319,635.242 141.936,641.604C143.348,648.223 144.613,654.79 136.296,657.872C130.384,675.809 160.203,669.074 172.303,674.574C199.216,675.08 196.553,679.604 206.358,664.596C207.43,669.445 204.063,674.294 200.237,679.142C198.421,682.181 196.221,686.108 196.258,689.831C196.321,696.085 200.226,701.144 204.818,695.938C208.434,685.061 221.278,684.435 224.836,695.089C226.322,698.239 229.912,698.489 230.774,694.92C232.206,681.526 224.17,680.551 223.14,667.776C254.109,648.789 275.307,632.444 290.736,609.284ZM358.411,472.198C374.305,484.602 389.487,502.116 397.455,520.135C406.347,490.313 376.484,472.956 358.411,472.198ZM376.435,280.709C385.942,275.047 390.174,266.95 391.688,257.599C397.814,256.365 399.629,269.949 395.616,283.02C392.007,286.193 380.585,285.005 376.435,280.709Z" style="fill:rgb(214,40,40);"/>
                            </g>
                        </g>
                    </g>
                </g>
            </g>
        </g>
    </g>
</svg>
