<svg width="425" height="425" viewBox="0 0 425 425" fill="none" xmlns="http://www.w3.org/2000/svg">
<g clip-path="url(#clip0_47_2)">
<rect x="-1" y="-1" width="426" height="426" rx="46" fill="#ED4535"/>
<path d="M213.377 43.9286C113.393 42.5212 39.1362 128.15 44.1185 219.718C50.0016 327.556 127.101 381.742 217.29 381.123C312.039 380.476 383.931 313.313 381.96 211.864C380.018 110.585 305.536 45.2516 213.377 43.9286Z" fill="#C8C8C8"/>
<path d="M134.307 75.3143C64.3294 115.426 19.9106 229.119 94.4486 315.142C103.569 325.67 118.065 333.017 129.072 338.027C204.229 372.003 295.178 319.758 330.364 279.928C358.287 248.317 368.562 227.346 365.24 184.194C362.679 150.64 348.323 118.241 318.569 94.2866C251.294 40.0157 178.754 49.8115 134.307 75.3143Z" fill="white"/>
<path d="M204.792 144.504C204.539 144.363 178.501 129.416 158.29 121.929C137.235 114.132 121.697 109.937 121.528 109.909L124.427 99.0439C125.075 99.2128 140.613 103.379 162.203 111.401C183.314 119.227 209.324 134.145 210.422 134.793L204.792 144.504ZM250.582 115.128L265.903 60.4575L276.746 63.4948L261.427 118.165L250.582 115.128ZM364.396 185.967C364.255 185.911 349.28 180.225 332.559 175.693C319.977 172.287 303.763 168.825 303.594 168.797L305.931 157.79C306.606 157.931 322.595 161.337 335.487 164.828C352.798 169.5 367.773 175.215 368.421 175.44L364.396 185.967ZM275.811 296.423C275.811 296.254 274.404 279.084 271.026 261.519C267.676 244.179 261.287 227.853 261.23 227.712L271.702 223.574C271.983 224.278 278.542 240.998 282.089 259.408C285.579 277.62 286.986 294.819 287.043 295.551L275.811 296.423ZM331.799 312.074L324.368 303.601C324.481 303.517 335.29 293.946 348.632 275.931C360.961 259.267 366.648 244.686 366.704 244.517L377.203 248.542C376.95 249.19 370.898 264.728 357.668 282.602C343.566 301.687 332.278 311.652 331.799 312.074ZM125.826 254.538L190.971 196.391L198.47 204.791L133.322 262.937L125.826 254.538ZM69.7058 238.972C69.5369 237.874 65.8213 211.836 65.8213 188.022C65.8213 164.265 68.5236 142.28 68.6643 141.352L79.8394 142.759C79.8112 142.984 77.109 164.997 77.109 188.022C77.109 210.992 80.8527 237.114 80.8809 237.367L69.7058 238.972ZM234.067 352.411C233.363 352.327 216.192 350.159 186.495 341.433C167.579 335.86 145.961 324.431 145.032 323.953L150.324 314.016C150.549 314.129 171.858 325.417 189.676 330.652C218.388 339.097 235.277 341.236 235.446 341.264L234.067 352.411Z" fill="#171717"/>
<path d="M183.596 124.603C182.723 126.799 183.877 205.193 185.651 207.529C187.424 209.866 266.241 236.635 269.759 235.763C273.278 234.89 315.332 168.712 315.332 166.066C315.332 163.42 263.595 99.6068 260.949 99.0157C258.303 98.4245 184.778 121.647 183.596 124.603ZM363.72 134.23C363.72 134.23 352.123 172.822 352.123 175.777C352.123 178.705 359.188 194.89 362.425 214.876C365.662 234.862 360.961 264.868 363.016 266.051C365.071 267.233 375.261 266.642 375.261 266.642C375.261 266.642 385.085 235.763 380.947 196.073C376.809 156.355 363.72 134.23 363.72 134.23ZM280.062 287.81C277.697 288.035 215.657 341.321 215.939 342.812C216.22 344.276 240.231 379.659 240.231 379.659C240.231 379.659 270.407 377.267 298.049 362.291C325.691 347.316 336.19 334.002 336.19 334.002C336.19 334.002 340.019 298.422 338.555 298.14C337.119 297.803 283.017 287.528 280.062 287.81ZM73.0274 221.35C71.4229 222.673 62.1338 243.109 59.4878 254.594C56.8418 266.051 55.3781 276.944 55.3781 276.944C55.3781 276.944 62.4434 297.38 73.0274 312.524C86.1447 331.271 103.203 344.501 103.203 344.501C103.203 344.501 158.881 327.528 159.191 325.163C159.5 322.799 152.717 302.222 148.016 285.164C143.315 268.106 142.442 248.992 140.669 247.81C138.896 246.628 120.965 241.055 106.862 235.453C92.7597 229.851 74.8007 219.887 73.0274 221.35ZM55.5751 150.387C55.5751 150.387 70.9725 163.702 73.337 163.702C75.7015 163.702 90.6204 143.941 105.68 131.95C125.975 115.764 135.968 110.472 136.278 108.417C136.559 106.362 145.398 57.2428 145.398 57.2428C145.398 57.2428 112.745 69.6001 88.9314 96.9326C65.1175 124.265 55.5751 150.387 55.5751 150.387ZM222.103 44.1255C222.103 44.1255 240.879 53.7805 247.719 58.5377C254.559 63.2948 264.636 73.3721 267.62 73.6817C270.576 73.9914 311.42 74.0195 311.42 74.0195C311.42 74.0195 292.898 61.3526 272.377 54.0902C247.691 45.3359 222.103 44.1255 222.103 44.1255Z" fill="#474C4F"/>
</g>
<defs>
<clipPath id="clip0_47_2">
<rect width="425" height="425" fill="white"/>
</clipPath>
</defs>
</svg>
