<svg width="201" height="54" viewBox="0 0 201 54" fill="none" xmlns="http://www.w3.org/2000/svg">
<path d="M27.4812 14.6884L23.0293 40H15.9564L17.7516 29.8395H9.20666L7.41151 40H0.338632L4.8265 14.6884H11.8635L10.176 24.2386H18.7568L20.4443 14.6884H27.4812Z" fill="white"/>
<path d="M88.1051 40.2513C85.185 40.2513 82.8274 39.6529 81.0322 38.4562C79.261 37.2355 78.3754 35.4643 78.3754 33.1425C78.3754 32.9511 78.3994 32.616 78.4472 32.1373H85.8791C85.8073 32.9511 85.9749 33.5853 86.3818 34.0401C86.7887 34.4949 87.411 34.7223 88.2487 34.7223C88.9428 34.7223 89.4934 34.5667 89.9003 34.2555C90.3311 33.9444 90.5465 33.5016 90.5465 32.9271C90.5465 32.2569 90.2354 31.7064 89.613 31.2756C89.0147 30.8448 88.0333 30.3421 86.669 29.7677C85.3047 29.1932 84.1797 28.6547 83.2941 28.152C82.4085 27.6255 81.6426 26.9194 80.9963 26.0338C80.3501 25.1242 80.027 23.9993 80.027 22.6589C80.027 20.9116 80.4578 19.4157 81.3195 18.171C82.1811 16.9024 83.3779 15.945 84.9097 15.2988C86.4655 14.6286 88.2368 14.2935 90.2234 14.2935C92.0185 14.2935 93.6102 14.5807 94.9985 15.1552C96.3867 15.7057 97.4638 16.5075 98.2297 17.5607C99.0196 18.6138 99.4145 19.8585 99.4145 21.2946C99.4145 21.6775 99.4026 21.9648 99.3786 22.1562H91.8031C91.827 22.0366 91.839 21.869 91.839 21.6536C91.839 21.0792 91.6595 20.6364 91.3005 20.3252C90.9414 19.9901 90.4508 19.8226 89.8285 19.8226C89.1822 19.8226 88.6556 19.9901 88.2487 20.3252C87.8658 20.6364 87.6743 21.0792 87.6743 21.6536C87.6743 22.2759 87.9735 22.8145 88.5718 23.2692C89.1942 23.7001 90.1516 24.2147 91.4441 24.8131C92.8323 25.4593 93.9693 26.0697 94.8549 26.6441C95.7644 27.1946 96.5423 27.9366 97.1886 28.8701C97.8348 29.8036 98.1579 30.9525 98.1579 32.3168C98.1579 33.8247 97.751 35.189 96.9372 36.4097C96.1234 37.6065 94.9626 38.5519 93.4546 39.246C91.9467 39.9162 90.1635 40.2513 88.1051 40.2513ZM101.706 27.2904C102.137 24.8011 103.047 22.5871 104.435 20.6483C105.823 18.6856 107.571 17.1657 109.677 16.0887C111.783 14.9876 114.081 14.4371 116.57 14.4371C118.653 14.4371 120.472 14.8201 122.027 15.586C123.583 16.3519 124.792 17.441 125.654 18.8532C126.515 20.2654 126.982 21.9289 127.054 23.8437H119.478C119.191 22.9102 118.689 22.1921 117.97 21.6895C117.252 21.1869 116.367 20.9355 115.314 20.9355C113.686 20.9355 112.286 21.51 111.113 22.6589C109.94 23.8078 109.186 25.3516 108.851 27.2904C108.755 27.793 108.707 28.3315 108.707 28.906C108.707 30.39 109.09 31.5628 109.856 32.4245C110.646 33.2622 111.723 33.6811 113.088 33.6811C114.141 33.6811 115.11 33.4298 115.996 32.9271C116.905 32.4245 117.659 31.7064 118.258 30.7729H125.869C124.72 33.6691 122.913 35.9669 120.448 37.6663C117.982 39.3418 115.17 40.1795 112.011 40.1795C109.832 40.1795 107.942 39.7606 106.338 38.9229C104.758 38.0852 103.549 36.9004 102.712 35.3685C101.874 33.8367 101.455 32.0655 101.455 30.0549C101.455 29.1214 101.539 28.1999 101.706 27.2904ZM139.757 40.2513C137.627 40.2513 135.748 39.8085 134.12 38.9229C132.492 38.0373 131.236 36.7927 130.35 35.189C129.465 33.5853 129.022 31.7423 129.022 29.66C129.022 26.668 129.644 24.0112 130.889 21.6895C132.157 19.3438 133.917 17.5248 136.167 16.2323C138.44 14.9398 141.037 14.2935 143.957 14.2935C146.136 14.2935 148.038 14.7363 149.666 15.6219C151.318 16.4836 152.586 17.7162 153.472 19.3199C154.357 20.8996 154.8 22.7307 154.8 24.8131C154.8 27.781 154.166 30.4379 152.897 32.7835C151.629 35.1292 149.857 36.9602 147.584 38.2767C145.31 39.5931 142.701 40.2513 139.757 40.2513ZM140.834 33.717C142.246 33.717 143.479 33.346 144.532 32.604C145.609 31.862 146.423 30.8807 146.973 29.66C147.548 28.4153 147.835 27.0749 147.835 25.6388C147.835 24.107 147.416 22.9222 146.578 22.0844C145.765 21.2228 144.592 20.7919 143.06 20.7919C141.648 20.7919 140.403 21.1629 139.326 21.9049C138.249 22.623 137.423 23.5924 136.849 24.8131C136.274 26.0338 135.987 27.3741 135.987 28.8342C135.987 30.3421 136.406 31.5389 137.244 32.4245C138.081 33.2862 139.278 33.717 140.834 33.717ZM171.355 14.6884C174.012 14.6884 176.035 15.2868 177.423 16.4836C178.811 17.6564 179.505 19.2242 179.505 21.1869C179.505 21.7852 179.457 22.3238 179.362 22.8025C179.074 24.5258 178.344 26.0457 177.172 27.3622C175.999 28.6547 174.443 29.5762 172.504 30.1267L176.454 40H168.627L165.252 30.6652H164.498L162.846 40H155.773L160.261 14.6884H171.355ZM165.36 25.8542H168.842C170.709 25.8542 171.81 24.9686 172.145 23.1974C172.193 22.9102 172.217 22.7068 172.217 22.5871C172.217 21.9408 172.002 21.4382 171.571 21.0792C171.164 20.7201 170.553 20.5406 169.74 20.5406H166.257L165.36 25.8542ZM190.065 20.2534L189.347 24.454H197.426L196.456 29.8036H188.378L187.552 34.3991H196.708L195.738 40H179.51L183.998 14.6884H200.19L199.221 20.2534H190.065Z" fill="white"/>
<path d="M78.8978 14.6884L77.8926 20.2893H71.1787L67.6961 40H60.6233L64.1058 20.2893H57.4279L58.4332 14.6884H78.8978Z" fill="white"/>
<path fill-rule="evenodd" clip-rule="evenodd" d="M42.1286 4.87717C43.9639 6.99265 47.349 15.2535 42.9836 20.8207C45.2318 22.9654 47.2171 23.1062 51.1654 17.43C52.8818 19.6562 54.6306 24.5609 54.416 27.5873C54.1931 30.7308 52.7307 33.657 50.3503 35.7222C47.9699 37.7874 44.8666 38.8225 41.7231 38.5996C38.5796 38.3767 35.6534 36.9142 33.5882 34.5339C31.523 32.1535 30.4879 29.0502 30.7108 25.9067C30.9573 22.4299 32.7636 18.627 35.3619 16.3096C35.4531 16.2284 35.5458 16.1462 35.6396 16.0629C38.2205 13.7722 41.718 10.668 42.1286 4.87717ZM41.2274 17.3557C42.1599 18.4305 43.8796 22.6272 41.6618 25.4555C42.804 26.5451 43.8126 26.6166 45.8184 23.7329C46.6904 24.8639 47.5788 27.3556 47.4698 28.8931C47.3566 30.4901 46.6136 31.9767 45.4043 33.0259C44.195 34.0751 42.6184 34.6009 41.0214 34.4877C39.4245 34.3744 37.9379 33.6315 36.8887 32.4222C35.8395 31.2129 35.3137 29.6363 35.4269 28.0393C35.5521 26.273 36.4698 24.341 37.7898 23.1637C37.8361 23.1225 37.8832 23.0807 37.9309 23.0384C39.242 21.8747 41.0189 20.2977 41.2274 17.3557Z" fill="#ED4535"/>
<path d="M42.9836 20.8207L42.2124 20.216C41.9011 20.613 41.9421 21.1815 42.3071 21.5298L42.9836 20.8207ZM42.1286 4.87717L42.8688 4.23494C42.609 3.93555 42.1945 3.8221 41.8185 3.94751C41.4425 4.07292 41.179 4.41248 41.151 4.80786L42.1286 4.87717ZM51.1654 17.43L51.9415 16.8317C51.7508 16.5843 51.4536 16.4427 51.1414 16.4503C50.8291 16.458 50.5392 16.614 50.3609 16.8704L51.1654 17.43ZM54.416 27.5873L53.4385 27.518L53.4385 27.518L54.416 27.5873ZM50.3503 35.7222L50.9925 36.4625L50.9925 36.4625L50.3503 35.7222ZM41.7231 38.5996L41.6538 39.5771L41.7231 38.5996ZM33.5882 34.5339L32.8479 35.1761L32.8479 35.1761L33.5882 34.5339ZM30.7108 25.9067L29.7333 25.8374L30.7108 25.9067ZM35.3619 16.3096L34.7102 15.5777L34.7097 15.5782L35.3619 16.3096ZM35.6396 16.0629L36.2901 16.7959L36.2901 16.7959L35.6396 16.0629ZM41.6618 25.4555L40.8906 24.8508C40.5793 25.2478 40.6203 25.8163 40.9853 26.1646L41.6618 25.4555ZM41.2274 17.3557L41.9677 16.7135C41.7079 16.4141 41.2934 16.3007 40.9174 16.4261C40.5414 16.5515 40.2779 16.8911 40.2499 17.2864L41.2274 17.3557ZM45.8184 23.7329L46.5945 23.1346C46.4038 22.8872 46.1066 22.7456 45.7944 22.7532C45.4821 22.7609 45.1922 22.9169 45.0139 23.1733L45.8184 23.7329ZM47.4698 28.8931L46.4923 28.8238L46.4923 28.8238L47.4698 28.8931ZM45.4043 33.0259L44.7621 32.2857L44.7621 32.2857L45.4043 33.0259ZM41.0214 34.4877L40.9521 35.4652L40.9521 35.4652L41.0214 34.4877ZM36.8887 32.4222L37.6289 31.7799L37.6289 31.7799L36.8887 32.4222ZM35.4269 28.0393L36.4044 28.1086L36.4044 28.1086L35.4269 28.0393ZM37.7898 23.1637L37.1381 22.4318L37.1375 22.4324L37.7898 23.1637ZM37.9309 23.0384L37.2803 22.3055L37.2803 22.3055L37.9309 23.0384ZM43.7547 21.4254C46.1724 18.3422 46.4034 14.5638 45.8467 11.3854C45.2937 8.22908 43.9294 5.45744 42.8688 4.23494L41.3883 5.51939C42.1631 6.41238 43.409 8.82891 43.9161 11.7236C44.4193 14.5963 44.1601 17.732 42.2124 20.216L43.7547 21.4254ZM50.3609 16.8704C49.393 18.2619 48.5695 19.2612 47.8559 19.9519C47.1387 20.646 46.577 20.9846 46.1386 21.1247C45.4035 21.3597 44.7167 21.1197 43.66 20.1116L42.3071 21.5298C43.4986 22.6665 44.9287 23.5692 46.7354 22.9917C47.5678 22.7256 48.3833 22.1691 49.219 21.3603C50.0584 20.5479 50.9636 19.4363 51.9699 17.9896L50.3609 16.8704ZM55.3936 27.6566C55.5139 25.9596 55.0877 23.8364 54.4449 21.8999C53.8004 19.9581 52.891 18.0632 51.9415 16.8317L50.3893 18.0284C51.1562 19.0231 51.9794 20.6936 52.5847 22.5173C53.1918 24.3463 53.5327 26.1887 53.4385 27.518L55.3936 27.6566ZM50.9925 36.4625C53.5692 34.2269 55.1523 31.0594 55.3936 27.6566L53.4385 27.518C53.234 30.4022 51.8921 33.0871 49.708 34.982L50.9925 36.4625ZM41.6538 39.5771C45.0566 39.8184 48.4158 38.698 50.9925 36.4625L49.708 34.982C47.524 36.8769 44.6766 37.8265 41.7924 37.622L41.6538 39.5771ZM32.8479 35.1761C35.0835 37.7528 38.251 39.3359 41.6538 39.5771L41.7924 37.622C38.9082 37.4176 36.2233 36.0757 34.3284 33.8916L32.8479 35.1761ZM29.7333 25.8374C29.492 29.2401 30.6124 32.5994 32.8479 35.1761L34.3284 33.8916C32.4335 31.7076 31.4839 28.8602 31.6884 25.976L29.7333 25.8374ZM34.7097 15.5782C31.9129 18.0725 29.997 22.1167 29.7333 25.8374L31.6884 25.976C31.9176 22.7431 33.6143 19.1814 36.0142 17.041L34.7097 15.5782ZM34.989 15.33C34.8953 15.4132 34.8021 15.4959 34.7102 15.5777L36.0136 17.0415C36.1042 16.9609 36.1962 16.8792 36.2901 16.7959L34.989 15.33ZM41.151 4.80786C40.7709 10.1699 37.5682 13.0408 34.989 15.33L36.2901 16.7959C38.8727 14.5037 42.6651 11.1662 43.1061 4.94647L41.151 4.80786ZM42.433 26.0602C43.7768 24.3464 43.8873 22.2688 43.5912 20.5789C43.2991 18.9111 42.5768 17.4156 41.9677 16.7135L40.4872 17.998C40.8105 18.3706 41.4143 19.5109 41.6606 20.9171C41.9031 22.3013 41.7645 23.7363 40.8906 24.8508L42.433 26.0602ZM45.0139 23.1733C44.5316 23.8666 44.1334 24.3467 43.8018 24.6677C43.4666 24.9921 43.2436 25.1105 43.1178 25.1507C43.008 25.1858 42.8419 25.2269 42.3383 24.7464L40.9853 26.1646C41.6238 26.7737 42.5332 27.3953 43.7146 27.0177C44.2345 26.8515 44.7112 26.5152 45.1649 26.0761C45.6222 25.6334 46.1023 25.0411 46.6229 24.2926L45.0139 23.1733ZM48.4473 28.9624C48.5149 28.0098 48.2774 26.8621 47.9421 25.8519C47.605 24.8363 47.1218 23.8185 46.5945 23.1346L45.0423 24.3313C45.387 24.7784 45.784 25.5719 46.0819 26.4693C46.3815 27.372 46.5337 28.2389 46.4923 28.8238L48.4473 28.9624ZM46.0465 33.7661C47.4521 32.5466 48.3157 30.8187 48.4473 28.9624L46.4923 28.8238C46.3974 30.1615 45.775 31.4068 44.7621 32.2857L46.0465 33.7661ZM40.9521 35.4652C42.8084 35.5968 44.6409 34.9856 46.0465 33.7661L44.7621 32.2857C43.7491 33.1645 42.4285 33.605 41.0908 33.5101L40.9521 35.4652ZM36.1484 33.0644C37.3679 34.47 39.0959 35.3336 40.9521 35.4652L41.0908 33.5101C39.753 33.4153 38.5078 32.7929 37.6289 31.7799L36.1484 33.0644ZM34.4494 27.97C34.3178 29.8263 34.9289 31.6588 36.1484 33.0644L37.6289 31.7799C36.7501 30.767 36.3096 29.4463 36.4044 28.1086L34.4494 27.97ZM37.1375 22.4324C35.6191 23.7866 34.5919 25.9598 34.4494 27.97L36.4044 28.1086C36.5124 26.5862 37.3205 24.8954 38.4421 23.8951L37.1375 22.4324ZM37.2803 22.3055C37.2328 22.3477 37.1851 22.39 37.1381 22.4318L38.4415 23.8957C38.4872 23.855 38.5336 23.8138 38.5814 23.7714L37.2803 22.3055ZM40.2499 17.2864C40.0717 19.7995 38.5898 21.1433 37.2803 22.3055L38.5814 23.7714C39.8943 22.6061 41.966 20.7958 42.205 17.4251L40.2499 17.2864Z" fill="#ED4535"/>
</svg>
